<?xml version="1.0" encoding="utf-8" standalone="no"?>
<!DOCTYPE svg PUBLIC "-//W3C//DTD SVG 1.1//EN"
  "http://www.w3.org/Graphics/SVG/1.1/DTD/svg11.dtd">
<svg xmlns:xlink="http://www.w3.org/1999/xlink" width="576pt" height="432pt" viewBox="0 0 576 432" xmlns="http://www.w3.org/2000/svg" version="1.1">
 <metadata>
  <rdf:RDF xmlns:dc="http://purl.org/dc/elements/1.1/" xmlns:cc="http://creativecommons.org/ns#" xmlns:rdf="http://www.w3.org/1999/02/22-rdf-syntax-ns#">
   <cc:Work>
    <dc:type rdf:resource="http://purl.org/dc/dcmitype/StillImage"/>
    <dc:date>2024-06-26T14:23:24.298303</dc:date>
    <dc:format>image/svg+xml</dc:format>
    <dc:creator>
     <cc:Agent>
      <dc:title>Matplotlib v3.8.3, https://matplotlib.org/</dc:title>
     </cc:Agent>
    </dc:creator>
   </cc:Work>
  </rdf:RDF>
 </metadata>
 <defs>
  <style type="text/css">*{stroke-linejoin: round; stroke-linecap: butt}</style>
 </defs>
 <g id="figure_1">
  <g id="patch_1">
   <path d="M 0 432 
L 576 432 
L 576 0 
L 0 0 
z
" style="fill: #ffffff"/>
  </g>
  <g id="axes_1">
   <g id="patch_2">
    <path d="M 84.823004 362.194077 
L 552.858033 362.194077 
L 552.858033 22.032 
L 84.823004 22.032 
z
" style="fill: #ffffff"/>
   </g>
   <g id="matplotlib.axis_1">
    <g id="xtick_1">
     <g id="line2d_1">
      <path d="M 106.097324 362.194077 
L 106.097324 22.032 
" clip-path="url(#p3c5bfb599f)" style="fill: none; stroke: #cccccc; stroke-linecap: round"/>
     </g>
     <g id="text_1">
      <!-- $\mathdefault{0}$ -->
      <g style="fill: #262626" transform="translate(101.825265 384.63166) scale(0.187 -0.187)">
       <defs>
        <path id="CMR17-30" d="M 2688 2025 
C 2688 2416 2682 3080 2413 3591 
C 2176 4039 1798 4198 1466 4198 
C 1158 4198 768 4058 525 3597 
C 269 3118 243 2524 243 2025 
C 243 1661 250 1106 448 619 
C 723 -39 1216 -128 1466 -128 
C 1760 -128 2208 -7 2470 600 
C 2662 1042 2688 1559 2688 2025 
z
M 1466 -26 
C 1056 -26 813 325 723 812 
C 653 1188 653 1738 653 2096 
C 653 2588 653 2997 736 3387 
C 858 3929 1216 4096 1466 4096 
C 1728 4096 2067 3923 2189 3400 
C 2272 3036 2278 2607 2278 2096 
C 2278 1680 2278 1169 2202 792 
C 2067 95 1690 -26 1466 -26 
z
" transform="scale(0.015625)"/>
       </defs>
       <use xlink:href="#CMR17-30" transform="scale(0.996264)"/>
      </g>
     </g>
    </g>
    <g id="xtick_2">
     <g id="line2d_2">
      <path d="M 191.203112 362.194077 
L 191.203112 22.032 
" clip-path="url(#p3c5bfb599f)" style="fill: none; stroke: #cccccc; stroke-linecap: round"/>
     </g>
     <g id="text_2">
      <!-- $\mathdefault{2000}$ -->
      <g style="fill: #262626" transform="translate(174.11488 384.63166) scale(0.187 -0.187)">
       <defs>
        <path id="CMR17-32" d="M 2669 989 
L 2554 989 
C 2490 536 2438 459 2413 420 
C 2381 369 1920 369 1830 369 
L 602 369 
C 832 619 1280 1072 1824 1597 
C 2214 1967 2669 2402 2669 3035 
C 2669 3790 2067 4224 1395 4224 
C 691 4224 262 3604 262 3030 
C 262 2780 448 2748 525 2748 
C 589 2748 781 2787 781 3010 
C 781 3207 614 3264 525 3264 
C 486 3264 448 3258 422 3245 
C 544 3790 915 4058 1306 4058 
C 1862 4058 2227 3617 2227 3035 
C 2227 2479 1901 2000 1536 1584 
L 262 146 
L 262 0 
L 2515 0 
L 2669 989 
z
" transform="scale(0.015625)"/>
       </defs>
       <use xlink:href="#CMR17-32" transform="scale(0.996264)"/>
       <use xlink:href="#CMR17-30" transform="translate(45.690477 0) scale(0.996264)"/>
       <use xlink:href="#CMR17-30" transform="translate(91.380954 0) scale(0.996264)"/>
       <use xlink:href="#CMR17-30" transform="translate(137.071431 0) scale(0.996264)"/>
      </g>
     </g>
    </g>
    <g id="xtick_3">
     <g id="line2d_3">
      <path d="M 276.308901 362.194077 
L 276.308901 22.032 
" clip-path="url(#p3c5bfb599f)" style="fill: none; stroke: #cccccc; stroke-linecap: round"/>
     </g>
     <g id="text_3">
      <!-- $\mathdefault{4000}$ -->
      <g style="fill: #262626" transform="translate(259.220668 384.63166) scale(0.187 -0.187)">
       <defs>
        <path id="CMR17-34" d="M 2150 4122 
C 2150 4256 2144 4256 2029 4256 
L 128 1254 
L 128 1088 
L 1779 1088 
L 1779 457 
C 1779 224 1766 160 1318 160 
L 1197 160 
L 1197 0 
C 1402 0 1747 0 1965 0 
C 2182 0 2528 0 2733 0 
L 2733 160 
L 2611 160 
C 2163 160 2150 224 2150 457 
L 2150 1088 
L 2803 1088 
L 2803 1254 
L 2150 1254 
L 2150 4122 
z
M 1798 3703 
L 1798 1254 
L 256 1254 
L 1798 3703 
z
" transform="scale(0.015625)"/>
       </defs>
       <use xlink:href="#CMR17-34" transform="scale(0.996264)"/>
       <use xlink:href="#CMR17-30" transform="translate(45.690477 0) scale(0.996264)"/>
       <use xlink:href="#CMR17-30" transform="translate(91.380954 0) scale(0.996264)"/>
       <use xlink:href="#CMR17-30" transform="translate(137.071431 0) scale(0.996264)"/>
      </g>
     </g>
    </g>
    <g id="xtick_4">
     <g id="line2d_4">
      <path d="M 361.414689 362.194077 
L 361.414689 22.032 
" clip-path="url(#p3c5bfb599f)" style="fill: none; stroke: #cccccc; stroke-linecap: round"/>
     </g>
     <g id="text_4">
      <!-- $\mathdefault{6000}$ -->
      <g style="fill: #262626" transform="translate(344.326457 384.63166) scale(0.187 -0.187)">
       <defs>
        <path id="CMR17-36" d="M 678 2176 
C 678 3690 1395 4032 1811 4032 
C 1946 4032 2272 4009 2400 3776 
C 2298 3776 2106 3776 2106 3553 
C 2106 3381 2246 3323 2336 3323 
C 2394 3323 2566 3348 2566 3560 
C 2566 3954 2246 4179 1805 4179 
C 1043 4179 243 3390 243 1984 
C 243 253 966 -128 1478 -128 
C 2099 -128 2688 427 2688 1283 
C 2688 2081 2170 2662 1517 2662 
C 1126 2662 838 2407 678 1960 
L 678 2176 
z
M 1478 25 
C 691 25 691 1200 691 1436 
C 691 1896 909 2560 1504 2560 
C 1613 2560 1926 2560 2138 2120 
C 2253 1870 2253 1609 2253 1289 
C 2253 944 2253 690 2118 434 
C 1978 171 1773 25 1478 25 
z
" transform="scale(0.015625)"/>
       </defs>
       <use xlink:href="#CMR17-36" transform="scale(0.996264)"/>
       <use xlink:href="#CMR17-30" transform="translate(45.690477 0) scale(0.996264)"/>
       <use xlink:href="#CMR17-30" transform="translate(91.380954 0) scale(0.996264)"/>
       <use xlink:href="#CMR17-30" transform="translate(137.071431 0) scale(0.996264)"/>
      </g>
     </g>
    </g>
    <g id="xtick_5">
     <g id="line2d_5">
      <path d="M 446.520478 362.194077 
L 446.520478 22.032 
" clip-path="url(#p3c5bfb599f)" style="fill: none; stroke: #cccccc; stroke-linecap: round"/>
     </g>
     <g id="text_5">
      <!-- $\mathdefault{8000}$ -->
      <g style="fill: #262626" transform="translate(429.432245 384.63166) scale(0.187 -0.187)">
       <defs>
        <path id="CMR17-38" d="M 1741 2264 
C 2144 2467 2554 2773 2554 3263 
C 2554 3841 1990 4179 1472 4179 
C 890 4179 378 3759 378 3180 
C 378 3021 416 2747 666 2505 
C 730 2442 998 2251 1171 2130 
C 883 1983 211 1634 211 934 
C 211 279 838 -128 1459 -128 
C 2144 -128 2720 362 2720 1010 
C 2720 1590 2330 1857 2074 2029 
L 1741 2264 
z
M 902 2822 
C 851 2854 595 3051 595 3351 
C 595 3739 998 4032 1459 4032 
C 1965 4032 2336 3676 2336 3262 
C 2336 2669 1670 2331 1638 2331 
C 1632 2331 1626 2331 1574 2370 
L 902 2822 
z
M 2080 1519 
C 2176 1449 2483 1240 2483 851 
C 2483 381 2010 25 1472 25 
C 890 25 448 438 448 940 
C 448 1443 838 1862 1280 2060 
L 2080 1519 
z
" transform="scale(0.015625)"/>
       </defs>
       <use xlink:href="#CMR17-38" transform="scale(0.996264)"/>
       <use xlink:href="#CMR17-30" transform="translate(45.690477 0) scale(0.996264)"/>
       <use xlink:href="#CMR17-30" transform="translate(91.380954 0) scale(0.996264)"/>
       <use xlink:href="#CMR17-30" transform="translate(137.071431 0) scale(0.996264)"/>
      </g>
     </g>
    </g>
    <g id="xtick_6">
     <g id="line2d_6">
      <path d="M 531.626266 362.194077 
L 531.626266 22.032 
" clip-path="url(#p3c5bfb599f)" style="fill: none; stroke: #cccccc; stroke-linecap: round"/>
     </g>
     <g id="text_6">
      <!-- $\mathdefault{10000}$ -->
      <g style="fill: #262626" transform="translate(510.265976 384.63166) scale(0.187 -0.187)">
       <defs>
        <path id="CMR17-31" d="M 1702 4058 
C 1702 4192 1696 4192 1606 4192 
C 1357 3916 979 3827 621 3827 
C 602 3827 570 3827 563 3808 
C 557 3795 557 3782 557 3648 
C 755 3648 1088 3686 1344 3839 
L 1344 461 
C 1344 236 1331 160 781 160 
L 589 160 
L 589 0 
C 896 0 1216 0 1523 0 
C 1830 0 2150 0 2458 0 
L 2458 160 
L 2266 160 
C 1715 160 1702 230 1702 458 
L 1702 4058 
z
" transform="scale(0.015625)"/>
       </defs>
       <use xlink:href="#CMR17-31" transform="scale(0.996264)"/>
       <use xlink:href="#CMR17-30" transform="translate(45.690477 0) scale(0.996264)"/>
       <use xlink:href="#CMR17-30" transform="translate(91.380954 0) scale(0.996264)"/>
       <use xlink:href="#CMR17-30" transform="translate(137.071431 0) scale(0.996264)"/>
       <use xlink:href="#CMR17-30" transform="translate(182.761908 0) scale(0.996264)"/>
      </g>
     </g>
    </g>
    <g id="text_7">
     <!-- Singular Value Rank Index -->
     <g style="fill: #262626" transform="translate(215.828559 406.092366) scale(0.2 -0.2)">
      <defs>
       <path id="CMSS17-53" d="M 2797 4169 
C 2515 4334 2208 4480 1690 4480 
C 864 4480 333 3879 333 3266 
C 333 3025 403 2753 653 2475 
C 902 2196 1184 2121 1542 2033 
C 1690 1994 1939 1924 1984 1906 
C 2342 1767 2515 1444 2515 1140 
C 2515 742 2202 318 1645 318 
C 1453 318 890 318 358 819 
L 269 318 
C 794 -64 1363 -128 1651 -128 
C 2438 -128 3002 488 3002 1186 
C 3002 1440 2925 1763 2656 2061 
C 2394 2347 2163 2410 1638 2549 
C 1338 2626 1146 2677 986 2873 
C 877 3013 819 3146 819 3317 
C 819 3673 1126 4060 1690 4060 
C 1971 4060 2336 4002 2707 3660 
L 2797 4169 
z
" transform="scale(0.015625)"/>
       <path id="CMSS17-69" d="M 979 4183 
L 442 4183 
L 442 3648 
L 979 3648 
L 979 4183 
z
M 947 2739 
L 474 2739 
L 474 0 
L 947 0 
L 947 2739 
z
" transform="scale(0.015625)"/>
       <path id="CMSS17-6e" d="M 2618 1877 
C 2618 2283 2522 2816 1798 2816 
C 1389 2816 1120 2606 941 2389 
L 941 2758 
L 474 2758 
L 474 0 
L 960 0 
L 960 1559 
C 960 1964 1114 2428 1549 2428 
C 2112 2428 2131 2048 2131 1829 
L 2131 0 
L 2618 0 
L 2618 1877 
z
" transform="scale(0.015625)"/>
       <path id="CMSS17-67" d="M 2848 2808 
C 2483 2808 2170 2738 1914 2617 
C 1702 2777 1485 2808 1338 2808 
C 781 2808 358 2349 358 1814 
C 358 1468 550 1207 563 1195 
C 448 1035 384 863 384 672 
C 384 448 474 289 544 200 
C 211 -3 166 -314 166 -435 
C 166 -898 749 -1280 1498 -1280 
C 2253 -1280 2835 -898 2835 -428 
C 2835 448 1856 448 1587 448 
L 1069 448 
C 973 448 717 448 717 791 
C 717 921 774 1004 781 1010 
C 877 940 1075 832 1338 832 
C 1869 832 2310 1278 2310 1827 
C 2310 2132 2170 2355 2112 2432 
L 2131 2432 
C 2150 2432 2419 2432 2515 2432 
C 2720 2432 2739 2429 2918 2419 
L 2848 2808 
z
M 1338 1182 
C 1120 1182 813 1315 813 1823 
C 813 2375 1165 2464 1331 2464 
C 1549 2464 1856 2331 1856 1823 
C 1856 1271 1504 1182 1338 1182 
z
M 1581 -10 
C 1734 -10 2381 -10 2381 -442 
C 2381 -714 1984 -929 1504 -929 
C 1018 -929 621 -720 621 -435 
C 621 -403 621 -10 1062 -10 
L 1581 -10 
z
" transform="scale(0.015625)"/>
       <path id="CMSS17-75" d="M 2618 2739 
L 2131 2739 
L 2131 972 
C 2131 498 1786 306 1421 306 
C 998 306 960 447 960 709 
L 960 2739 
L 474 2739 
L 474 678 
C 474 179 646 -64 1088 -64 
C 1306 -64 1798 -13 2144 306 
L 2144 0 
L 2618 0 
L 2618 2739 
z
" transform="scale(0.015625)"/>
       <path id="CMSS17-6c" d="M 947 4416 
L 474 4416 
L 474 0 
L 947 0 
L 947 4416 
z
" transform="scale(0.015625)"/>
       <path id="CMSS17-61" d="M 2406 1791 
C 2406 2392 1978 2808 1402 2808 
C 1120 2808 813 2757 461 2553 
L 499 2135 
C 659 2248 934 2432 1395 2432 
C 1722 2432 1920 2180 1920 1782 
L 1920 1536 
C 896 1536 256 1238 256 726 
C 256 461 416 -64 947 -64 
C 1043 -64 1562 -64 1933 217 
L 1933 -19 
L 2406 -19 
L 2406 1791 
z
M 1920 816 
C 1920 701 1920 548 1728 434 
C 1562 325 1350 325 1261 325 
C 941 325 723 511 723 744 
C 723 1211 1722 1211 1920 1211 
L 1920 816 
z
" transform="scale(0.015625)"/>
       <path id="CMSS17-72" d="M 954 1363 
C 954 1965 1395 2368 1958 2368 
L 1958 2789 
C 1549 2789 1165 2585 934 2253 
L 934 2758 
L 480 2758 
L 480 0 
L 954 0 
L 954 1363 
z
" transform="scale(0.015625)"/>
       <path id="CMSS17-56" d="M 3910 4416 
L 3411 4416 
L 2304 1362 
C 2272 1273 2074 688 2035 484 
L 2029 484 
C 1978 726 1773 1292 1664 1604 
L 922 3672 
L 646 4416 
L 83 4416 
L 1715 0 
L 2278 0 
L 3910 4416 
z
" transform="scale(0.015625)"/>
       <path id="CMSS17-65" d="M 2502 1377 
C 2502 1590 2490 2003 2285 2345 
C 2061 2713 1696 2816 1421 2816 
C 755 2816 192 2188 192 1375 
C 192 582 774 -64 1510 -64 
C 1798 -64 2150 19 2470 248 
C 2470 274 2458 414 2451 420 
C 2451 433 2432 630 2432 656 
C 2125 407 1773 325 1517 325 
C 1107 325 666 667 646 1377 
L 2502 1377 
z
M 698 1728 
C 781 2084 1062 2421 1421 2421 
C 1517 2421 1965 2421 2080 1728 
L 698 1728 
z
" transform="scale(0.015625)"/>
       <path id="CMSS17-52" d="M 2522 2109 
L 2534 2115 
C 3533 2459 3539 3147 3539 3268 
C 3539 3873 2925 4453 2003 4453 
L 570 4453 
L 570 32 
L 1094 32 
L 1094 2048 
L 2035 2048 
L 3168 32 
L 3706 32 
L 2522 2109 
z
M 1094 2437 
L 1094 4096 
L 1933 4096 
C 2746 4096 3034 3637 3034 3267 
C 3034 2922 2778 2437 1933 2437 
L 1094 2437 
z
" transform="scale(0.015625)"/>
       <path id="CMSS17-6b" d="M 1696 1688 
L 2688 2739 
L 2074 2739 
L 954 1554 
L 954 4416 
L 480 4416 
L 480 0 
L 947 0 
L 947 892 
L 1376 1344 
L 2278 0 
L 2822 0 
L 1696 1688 
z
" transform="scale(0.015625)"/>
       <path id="CMSS17-49" d="M 1094 4416 
L 557 4416 
L 557 0 
L 1094 0 
L 1094 4416 
z
" transform="scale(0.015625)"/>
       <path id="CMSS17-64" d="M 2611 4416 
L 2138 4416 
L 2138 2438 
C 1939 2603 1613 2756 1254 2756 
C 672 2756 211 2131 211 1347 
C 211 562 666 -64 1235 -64 
C 1677 -64 1971 172 2125 306 
L 2125 -13 
L 2611 -13 
L 2611 4416 
z
M 2125 836 
C 2125 747 2125 653 1926 482 
C 1798 375 1645 325 1498 325 
C 1152 325 698 576 698 1340 
C 698 2134 1210 2368 1562 2368 
C 1798 2368 1990 2254 2125 2065 
L 2125 836 
z
" transform="scale(0.015625)"/>
       <path id="CMSS17-78" d="M 1587 1414 
L 2656 2739 
L 2099 2739 
L 1363 1777 
L 602 2739 
L 32 2739 
L 1139 1414 
L 0 0 
L 563 0 
L 1363 1121 
L 2195 0 
L 2758 0 
L 1587 1414 
z
" transform="scale(0.015625)"/>
      </defs>
      <use xlink:href="#CMSS17-53" transform="scale(0.996264)"/>
      <use xlink:href="#CMSS17-69" transform="translate(52.048516 0) scale(0.996264)"/>
      <use xlink:href="#CMSS17-6e" transform="translate(74.229239 0) scale(0.996264)"/>
      <use xlink:href="#CMSS17-67" transform="translate(122.434182 0) scale(0.996264)"/>
      <use xlink:href="#CMSS17-75" transform="translate(169.277806 0) scale(0.996264)"/>
      <use xlink:href="#CMSS17-6c" transform="translate(217.482749 0) scale(0.996264)"/>
      <use xlink:href="#CMSS17-61" transform="translate(239.663472 0) scale(0.996264)"/>
      <use xlink:href="#CMSS17-72" transform="translate(281.982939 0) scale(0.996264)"/>
      <use xlink:href="#CMSS17-56" transform="translate(345.121824 0) scale(0.996264)"/>
      <use xlink:href="#CMSS17-61" transform="translate(404.737225 0) scale(0.996264)"/>
      <use xlink:href="#CMSS17-6c" transform="translate(449.659146 0) scale(0.996264)"/>
      <use xlink:href="#CMSS17-75" transform="translate(471.839869 0) scale(0.996264)"/>
      <use xlink:href="#CMSS17-65" transform="translate(520.044812 0) scale(0.996264)"/>
      <use xlink:href="#CMSS17-52" transform="translate(592.912747 0) scale(0.996264)"/>
      <use xlink:href="#CMSS17-61" transform="translate(653.328902 0) scale(0.996264)"/>
      <use xlink:href="#CMSS17-6e" transform="translate(698.250822 0) scale(0.996264)"/>
      <use xlink:href="#CMSS17-6b" transform="translate(746.455765 0) scale(0.996264)"/>
      <use xlink:href="#CMSS17-49" transform="translate(823.287367 0) scale(0.996264)"/>
      <use xlink:href="#CMSS17-6e" transform="translate(849.071293 0) scale(0.996264)"/>
      <use xlink:href="#CMSS17-64" transform="translate(897.276236 0) scale(0.996264)"/>
      <use xlink:href="#CMSS17-65" transform="translate(945.481179 0) scale(0.996264)"/>
      <use xlink:href="#CMSS17-78" transform="translate(987.120001 0) scale(0.996264)"/>
     </g>
    </g>
   </g>
   <g id="matplotlib.axis_2">
    <g id="ytick_1">
     <g id="line2d_7">
      <path d="M 84.823004 345.68269 
L 552.858033 345.68269 
" clip-path="url(#p3c5bfb599f)" style="fill: none; stroke: #cccccc; stroke-linecap: round"/>
     </g>
     <g id="text_8">
      <!-- $\mathdefault{−40}$ -->
      <g style="fill: #262626" transform="translate(43.74463 352.151481) scale(0.187 -0.187)">
       <defs>
        <path id="CMSY10-0" d="M 4218 1472 
C 4326 1472 4442 1472 4442 1600 
C 4442 1728 4326 1728 4218 1728 
L 755 1728 
C 646 1728 531 1728 531 1600 
C 531 1472 646 1472 755 1472 
L 4218 1472 
z
" transform="scale(0.015625)"/>
       </defs>
       <use xlink:href="#CMSY10-0" transform="scale(0.996264)"/>
       <use xlink:href="#CMR17-34" transform="translate(77.487468 0) scale(0.996264)"/>
       <use xlink:href="#CMR17-30" transform="translate(123.177945 0) scale(0.996264)"/>
      </g>
     </g>
    </g>
    <g id="ytick_2">
     <g id="line2d_8">
      <path d="M 84.823004 274.558686 
L 552.858033 274.558686 
" clip-path="url(#p3c5bfb599f)" style="fill: none; stroke: #cccccc; stroke-linecap: round"/>
     </g>
     <g id="text_9">
      <!-- $\mathdefault{−30}$ -->
      <g style="fill: #262626" transform="translate(43.74463 281.027477) scale(0.187 -0.187)">
       <defs>
        <path id="CMR17-33" d="M 1414 2157 
C 1984 2157 2234 1662 2234 1090 
C 2234 320 1824 25 1453 25 
C 1114 25 563 194 390 693 
C 422 680 454 680 486 680 
C 640 680 755 782 755 948 
C 755 1133 614 1216 486 1216 
C 378 1216 211 1165 211 926 
C 211 335 787 -128 1466 -128 
C 2176 -128 2720 430 2720 1085 
C 2720 1707 2208 2157 1600 2227 
C 2086 2328 2554 2756 2554 3329 
C 2554 3820 2048 4179 1472 4179 
C 890 4179 378 3829 378 3329 
C 378 3110 544 3072 627 3072 
C 762 3072 877 3155 877 3321 
C 877 3486 762 3569 627 3569 
C 602 3569 570 3569 544 3557 
C 730 3959 1235 4032 1459 4032 
C 1683 4032 2106 3925 2106 3320 
C 2106 3143 2080 2828 1862 2550 
C 1670 2304 1453 2304 1242 2284 
C 1210 2284 1062 2269 1037 2269 
C 992 2263 966 2257 966 2208 
C 966 2163 973 2157 1101 2157 
L 1414 2157 
z
" transform="scale(0.015625)"/>
       </defs>
       <use xlink:href="#CMSY10-0" transform="scale(0.996264)"/>
       <use xlink:href="#CMR17-33" transform="translate(77.487468 0) scale(0.996264)"/>
       <use xlink:href="#CMR17-30" transform="translate(123.177945 0) scale(0.996264)"/>
      </g>
     </g>
    </g>
    <g id="ytick_3">
     <g id="line2d_9">
      <path d="M 84.823004 203.434682 
L 552.858033 203.434682 
" clip-path="url(#p3c5bfb599f)" style="fill: none; stroke: #cccccc; stroke-linecap: round"/>
     </g>
     <g id="text_10">
      <!-- $\mathdefault{−20}$ -->
      <g style="fill: #262626" transform="translate(43.74463 209.903473) scale(0.187 -0.187)">
       <use xlink:href="#CMSY10-0" transform="scale(0.996264)"/>
       <use xlink:href="#CMR17-32" transform="translate(77.487468 0) scale(0.996264)"/>
       <use xlink:href="#CMR17-30" transform="translate(123.177945 0) scale(0.996264)"/>
      </g>
     </g>
    </g>
    <g id="ytick_4">
     <g id="line2d_10">
      <path d="M 84.823004 132.310678 
L 552.858033 132.310678 
" clip-path="url(#p3c5bfb599f)" style="fill: none; stroke: #cccccc; stroke-linecap: round"/>
     </g>
     <g id="text_11">
      <!-- $\mathdefault{−10}$ -->
      <g style="fill: #262626" transform="translate(43.74463 138.779469) scale(0.187 -0.187)">
       <use xlink:href="#CMSY10-0" transform="scale(0.996264)"/>
       <use xlink:href="#CMR17-31" transform="translate(77.487468 0) scale(0.996264)"/>
       <use xlink:href="#CMR17-30" transform="translate(123.177945 0) scale(0.996264)"/>
      </g>
     </g>
    </g>
    <g id="ytick_5">
     <g id="line2d_11">
      <path d="M 84.823004 61.186674 
L 552.858033 61.186674 
" clip-path="url(#p3c5bfb599f)" style="fill: none; stroke: #cccccc; stroke-linecap: round"/>
     </g>
     <g id="text_12">
      <!-- $\mathdefault{0}$ -->
      <g style="fill: #262626" transform="translate(66.778888 67.655465) scale(0.187 -0.187)">
       <use xlink:href="#CMR17-30" transform="scale(0.996264)"/>
      </g>
     </g>
    </g>
    <g id="text_13">
     <!-- Logarithm of Singular Value -->
     <g style="fill: #262626" transform="translate(35.868997 301.779198) rotate(-90) scale(0.2 -0.2)">
      <defs>
       <path id="CMSS17-4c" d="M 1670 414 
C 1594 414 1517 414 1440 414 
L 1101 414 
L 1101 4416 
L 563 4416 
L 563 0 
L 3002 0 
L 3002 414 
L 1670 414 
z
" transform="scale(0.015625)"/>
       <path id="CMSS17-6f" d="M 2829 1356 
C 2829 2176 2221 2816 1504 2816 
C 768 2816 173 2157 173 1356 
C 173 544 787 -64 1498 -64 
C 2227 -64 2829 563 2829 1356 
z
M 1504 337 
C 1050 337 659 709 659 1408 
C 659 2151 1114 2427 1498 2427 
C 1914 2427 2342 2126 2342 1408 
C 2342 683 1926 337 1504 337 
z
" transform="scale(0.015625)"/>
       <path id="CMSS17-74" d="M 1069 2368 
L 1901 2368 
L 1901 2737 
L 1069 2737 
L 1069 3520 
L 614 3520 
L 614 2737 
L 109 2737 
L 109 2368 
L 602 2368 
L 602 749 
C 602 384 685 -64 1107 -64 
C 1427 -64 1722 25 2003 172 
L 1901 548 
C 1747 414 1562 337 1363 337 
C 1082 337 1069 696 1069 856 
L 1069 2368 
z
" transform="scale(0.015625)"/>
       <path id="CMSS17-68" d="M 2618 1891 
C 2618 2292 2522 2820 1798 2820 
C 1395 2820 1133 2623 947 2407 
L 947 4448 
L 474 4448 
L 474 32 
L 960 32 
L 960 1573 
C 960 1973 1114 2432 1549 2432 
C 2112 2432 2131 2056 2131 1839 
L 2131 32 
L 2618 32 
L 2618 1891 
z
" transform="scale(0.015625)"/>
       <path id="CMSS17-6d" d="M 4288 1877 
C 4288 2308 4179 2816 3462 2816 
C 2982 2816 2694 2516 2566 2331 
C 2451 2670 2182 2816 1798 2816 
C 1363 2816 1088 2568 941 2389 
L 941 2758 
L 474 2758 
L 474 0 
L 960 0 
L 960 1559 
C 960 1939 1101 2428 1555 2428 
C 2138 2428 2138 2016 2138 1829 
L 2138 0 
L 2624 0 
L 2624 1559 
C 2624 1939 2765 2428 3219 2428 
C 3802 2428 3802 2016 3802 1829 
L 3802 0 
L 4288 0 
L 4288 1877 
z
" transform="scale(0.015625)"/>
       <path id="CMSS17-66" d="M 1075 2368 
L 1722 2368 
L 1722 2737 
L 1062 2737 
L 1062 3559 
C 1062 4014 1408 4092 1606 4092 
C 1670 4092 1850 4092 2080 4009 
L 2080 4429 
C 1933 4461 1754 4480 1613 4480 
C 1018 4480 602 3993 602 3359 
L 602 2737 
L 160 2737 
L 160 2368 
L 602 2368 
L 602 0 
L 1075 0 
L 1075 2368 
z
" transform="scale(0.015625)"/>
      </defs>
      <use xlink:href="#CMSS17-4c" transform="scale(0.996264)"/>
      <use xlink:href="#CMSS17-6f" transform="translate(50.687105 0) scale(0.996264)"/>
      <use xlink:href="#CMSS17-67" transform="translate(97.530729 0) scale(0.996264)"/>
      <use xlink:href="#CMSS17-61" transform="translate(144.374352 0) scale(0.996264)"/>
      <use xlink:href="#CMSS17-72" transform="translate(186.693819 0) scale(0.996264)"/>
      <use xlink:href="#CMSS17-69" transform="translate(218.603592 0) scale(0.996264)"/>
      <use xlink:href="#CMSS17-74" transform="translate(240.784315 0) scale(0.996264)"/>
      <use xlink:href="#CMSS17-68" transform="translate(274.615881 0) scale(0.996264)"/>
      <use xlink:href="#CMSS17-6d" transform="translate(322.820824 0) scale(0.996264)"/>
      <use xlink:href="#CMSS17-6f" transform="translate(428.279192 0) scale(0.996264)"/>
      <use xlink:href="#CMSS17-66" transform="translate(475.122815 0) scale(0.996264)"/>
      <use xlink:href="#CMSS17-53" transform="translate(534.978587 0) scale(0.996264)"/>
      <use xlink:href="#CMSS17-69" transform="translate(587.027103 0) scale(0.996264)"/>
      <use xlink:href="#CMSS17-6e" transform="translate(609.207826 0) scale(0.996264)"/>
      <use xlink:href="#CMSS17-67" transform="translate(657.412769 0) scale(0.996264)"/>
      <use xlink:href="#CMSS17-75" transform="translate(704.256393 0) scale(0.996264)"/>
      <use xlink:href="#CMSS17-6c" transform="translate(752.461336 0) scale(0.996264)"/>
      <use xlink:href="#CMSS17-61" transform="translate(774.642059 0) scale(0.996264)"/>
      <use xlink:href="#CMSS17-72" transform="translate(816.961526 0) scale(0.996264)"/>
      <use xlink:href="#CMSS17-56" transform="translate(880.100411 0) scale(0.996264)"/>
      <use xlink:href="#CMSS17-61" transform="translate(939.715812 0) scale(0.996264)"/>
      <use xlink:href="#CMSS17-6c" transform="translate(984.637732 0) scale(0.996264)"/>
      <use xlink:href="#CMSS17-75" transform="translate(1006.818455 0) scale(0.996264)"/>
      <use xlink:href="#CMSS17-65" transform="translate(1055.023399 0) scale(0.996264)"/>
     </g>
    </g>
   </g>
   <g id="line2d_12">
    <path d="M 106.097324 40.230796 
L 106.224982 96.363118 
L 106.693064 108.024841 
L 106.77817 110.055479 
L 106.948381 112.06177 
L 107.246252 115.33939 
L 107.288805 115.489058 
L 107.586675 119.276681 
L 108.310074 125.55023 
L 108.352627 125.620419 
L 108.69305 129.539712 
L 108.863262 130.869241 
L 109.076026 135.622796 
L 109.161132 136.771319 
L 109.416449 146.172521 
L 109.544108 251.85595 
L 109.884531 256.467101 
L 110.182401 258.424022 
L 110.224954 258.435657 
L 110.395166 258.857304 
L 110.905801 259.453699 
L 111.076012 259.619382 
L 111.33133 259.864077 
L 112.054729 260.453467 
L 112.267493 260.729513 
L 112.480258 260.933861 
L 113.884503 262.517938 
L 114.395138 263.532826 
L 114.480244 263.639324 
L 115.075984 264.862455 
L 116.352571 267.307626 
L 116.437677 267.423905 
L 117.671711 268.527369 
L 119.288721 269.424096 
L 119.416379 269.501612 
L 119.799356 269.730006 
L 120.352543 269.990065 
L 123.331246 271.407021 
L 123.756775 271.611143 
L 124.395068 271.894119 
L 124.607833 272.003126 
L 125.671655 272.455698 
L 127.203559 273.04799 
L 127.501429 273.169988 
L 128.990781 273.776476 
L 129.543968 273.984732 
L 129.884391 274.134767 
L 130.30992 274.330737 
L 132.054589 275.028173 
L 132.522671 275.206163 
L 133.118411 275.396299 
L 133.373729 275.482301 
L 136.948172 276.7159 
L 137.246042 276.826948 
L 137.841783 277.00109 
L 143.586423 278.631922 
L 145.075775 279.027539 
L 152.139555 280.706348 
L 152.735296 280.849195 
L 154.352306 281.178826 
L 156.309739 281.597155 
L 160.224605 282.365421 
L 163.160755 282.916353 
L 163.416072 282.969224 
L 163.884154 283.065285 
L 168.692631 283.915364 
L 170.4373 284.209333 
L 171.03304 284.319816 
L 172.820262 284.6118 
L 173.798978 284.750524 
L 174.352166 284.843926 
L 176.309599 285.139437 
L 176.777681 285.232804 
L 177.969162 285.418016 
L 197.160517 288.103811 
L 198.181787 288.229682 
L 199.713691 288.421767 
L 202.649841 288.782178 
L 205.968966 289.186656 
L 219.713551 290.754371 
L 220.607162 290.856554 
L 223.543312 291.162124 
L 225.032663 291.324837 
L 226.351803 291.473236 
L 229.373058 291.774143 
L 230.053905 291.847009 
L 232.692184 292.114715 
L 234.053877 292.257849 
L 235.841098 292.428069 
L 238.266613 292.676597 
L 241.372974 292.973396 
L 241.883609 293.022704 
L 244.479336 293.276189 
L 248.904837 293.69411 
L 249.628236 293.766248 
L 253.713314 294.144032 
L 255.585641 294.323516 
L 258.479238 294.589137 
L 259.798378 294.70609 
L 267.372793 295.377937 
L 268.904697 295.506655 
L 269.883414 295.597734 
L 271.628082 295.747821 
L 273.202539 295.880953 
L 276.053583 296.136446 
L 278.35144 296.332043 
L 288.564134 297.209839 
L 289.798168 297.339768 
L 292.053471 297.564196 
L 306.308691 299.474062 
L 307.244855 299.65125 
L 309.840581 300.125612 
L 314.010765 300.974834 
L 314.989481 301.186375 
L 315.755434 301.360848 
L 317.627761 301.831169 
L 322.266026 302.203085 
L 334.265943 302.267356 
L 506.732823 302.378312 
L 509.711526 303.306737 
L 510.690242 303.61315 
L 511.158324 303.760361 
L 514.988085 305.213804 
L 516.137013 305.524538 
L 517.030623 305.985761 
L 517.966787 306.451475 
L 519.668903 307.352649 
L 519.966773 307.455778 
L 520.775278 308.007616 
L 521.498677 308.452717 
L 522.349735 309.048749 
L 522.519947 309.166556 
L 525.456097 311.851881 
L 525.839073 312.215266 
L 526.179496 312.570459 
L 526.860342 313.518238 
L 526.945448 313.58332 
L 527.796506 314.924541 
L 527.924164 315.024377 
L 529.456069 318.368127 
L 529.753939 319.044855 
L 531.24329 323.328333 
L 531.54116 323.763675 
L 531.583713 339.561057 
L 531.583713 339.561057 
" clip-path="url(#p3c5bfb599f)" style="fill: none; stroke: #4169e1; stroke-width: 3; stroke-linecap: round"/>
   </g>
   <g id="line2d_13">
    <path d="M 106.097324 49.058855 
L 106.224982 110.225157 
L 106.565405 129.304627 
L 106.735617 133.654768 
L 106.948381 142.516242 
L 107.033487 142.918732 
L 107.118593 144.883583 
L 107.331357 150.032579 
L 107.756886 157.291092 
L 107.799439 157.488598 
L 108.054757 160.758216 
L 108.139862 161.726601 
L 108.39518 165.316269 
L 108.480286 165.922236 
L 108.735603 169.934939 
L 108.99092 173.531286 
L 109.203685 177.783885 
L 109.416449 186.502981 
L 109.544108 253.973085 
L 109.71432 255.584514 
L 110.01219 256.462099 
L 111.161118 258.545654 
L 111.288777 258.705278 
L 111.671753 259.389406 
L 111.841964 259.551316 
L 112.182387 260.165042 
L 113.629186 262.448854 
L 113.714292 262.522369 
L 113.927056 263.028388 
L 114.395138 263.629312 
L 114.693008 263.977919 
L 114.86322 264.16481 
L 115.16109 264.617631 
L 115.416407 264.95644 
L 115.544066 265.018701 
L 115.884489 265.440167 
L 116.012148 265.510099 
L 116.437677 265.96535 
L 116.607888 266.059707 
L 116.863206 266.316607 
L 117.07597 266.514826 
L 117.799369 267.057837 
L 122.139765 269.909119 
L 122.309976 270.023275 
L 122.990823 270.404856 
L 125.756761 271.930458 
L 125.969525 272.026488 
L 126.18229 272.132473 
L 126.565266 272.348517 
L 126.863136 272.50411 
L 127.416324 272.765518 
L 127.714194 272.912114 
L 127.969511 273.040685 
L 128.607805 273.351704 
L 129.033334 273.520077 
L 130.990767 274.419569 
L 131.288637 274.548223 
L 131.586507 274.69587 
L 132.905647 275.225722 
L 133.118411 275.318709 
L 133.331176 275.450702 
L 133.841811 275.680319 
L 134.26734 275.843177 
L 134.692869 276.051989 
L 135.075845 276.2192 
L 135.969455 276.620478 
L 136.692855 276.897039 
L 138.309865 277.558325 
L 138.650288 277.690891 
L 140.267298 278.359346 
L 140.565168 278.490155 
L 141.075803 278.709352 
L 142.990683 279.562671 
L 143.373659 279.740491 
L 146.692785 281.331813 
L 146.990655 281.489906 
L 147.543843 281.81148 
L 147.884266 282.033667 
L 148.139583 282.201486 
L 148.692771 282.60098 
L 149.203405 283.092093 
L 149.671487 285.016769 
L 150.224675 286.437607 
L 150.479992 311.095415 
L 530.222021 311.095415 
L 530.307126 312.026114 
L 530.434785 320.428332 
L 530.604997 320.751685 
L 530.902867 321.616524 
L 531.285843 327.845631 
L 531.54116 338.922184 
L 531.583713 346.732164 
L 531.583713 346.732164 
" clip-path="url(#p3c5bfb599f)" style="fill: none; stroke: #87ceeb; stroke-width: 3; stroke-linecap: round"/>
   </g>
   <g id="line2d_14">
    <path d="M 106.097324 37.493913 
L 106.224982 85.452157 
L 106.4803 94.134132 
L 106.522853 94.271809 
L 107.161146 101.45061 
L 109.161132 112.841269 
L 109.331344 113.613747 
L 109.544108 114.753515 
L 109.671767 115.25984 
L 110.863248 123.510712 
L 111.458988 134.042463 
L 112.139835 179.930403 
L 112.522811 208.357965 
L 112.735575 220.637953 
L 112.990892 237.466489 
L 113.24621 250.061412 
L 113.458974 258.892565 
L 113.671739 263.886963 
L 113.714292 264.01408 
L 113.884503 267.073041 
L 113.969609 267.454616 
L 114.182373 269.386603 
L 114.267479 269.63066 
L 114.607902 271.667502 
L 115.884489 276.625574 
L 116.224912 277.427967 
L 116.565336 278.108883 
L 116.820653 278.396257 
L 117.586605 279.79257 
L 117.629158 279.810799 
L 117.841922 280.251677 
L 118.139793 280.657612 
L 118.69298 281.597196 
L 118.778086 281.738136 
L 119.501485 282.570142 
L 119.927014 283.095789 
L 120.607861 283.990927 
L 120.778072 284.095356 
L 120.905731 284.217904 
L 121.756789 285.16077 
L 122.309976 285.659449 
L 122.565294 285.85857 
L 122.863164 286.213079 
L 123.118481 286.449362 
L 123.629116 286.952776 
L 123.926986 287.128932 
L 125.45889 288.277767 
L 125.671655 288.429933 
L 125.926972 288.583657 
L 127.841853 289.383899 
L 128.480146 289.681971 
L 128.820569 289.850593 
L 129.203545 290.087078 
L 129.841839 290.431928 
L 133.629046 292.519455 
L 134.012022 292.721729 
L 134.522657 292.991606 
L 135.756691 293.593005 
L 136.267326 293.85254 
L 136.650302 294.013688 
L 137.288595 294.267048 
L 137.543912 294.370129 
L 138.011994 294.604403 
L 138.309865 294.725363 
L 139.075817 295.182649 
L 139.331134 295.325975 
L 139.586451 295.482346 
L 140.224745 295.923071 
L 141.458779 296.71574 
L 142.480048 297.76687 
L 142.735366 298.032015 
L 142.863024 298.141391 
L 143.160894 298.510297 
L 143.246 298.584341 
L 143.884294 299.415603 
L 144.139611 299.499888 
L 144.352375 299.530482 
L 526.732683 299.634983 
L 527.881611 301.62352 
L 528.562458 302.863728 
L 528.690116 302.99546 
L 528.902881 303.255542 
L 530.051809 307.314565 
L 530.562444 309.878978 
L 530.604997 309.915594 
L 531.030526 313.932994 
L 531.456055 321.504467 
L 531.54116 325.500886 
L 531.583713 340.217541 
L 531.583713 340.217541 
" clip-path="url(#p3c5bfb599f)" style="fill: none; stroke: #b22222; stroke-width: 3; stroke-linecap: round"/>
   </g>
   <g id="line2d_15">
    <path d="M 106.097324 44.437341 
L 106.224982 90.016963 
L 106.267535 90.687701 
L 106.437747 97.62152 
L 106.522853 98.852244 
L 107.37391 111.296233 
L 107.501569 112.408677 
L 107.841992 115.882822 
L 107.969651 116.876388 
L 108.182415 118.467091 
L 108.224968 118.63231 
L 108.480286 120.98832 
L 110.522825 137.159363 
L 110.948354 141.71056 
L 111.161118 144.830429 
L 111.203671 144.911266 
L 111.6292 159.05603 
L 112.012176 190.242769 
L 112.139835 196.319335 
L 112.522811 225.681705 
L 112.607916 230.059758 
L 112.820681 245.665727 
L 113.161104 258.834084 
L 113.373868 261.118453 
L 113.54408 262.389043 
L 113.756845 264.693898 
L 114.139821 266.986286 
L 114.182373 267.085207 
L 114.352585 267.907977 
L 114.437691 268.048688 
L 114.650455 268.888752 
L 115.714278 272.025117 
L 116.820653 274.631915 
L 116.948312 274.757871 
L 117.331288 275.512162 
L 117.671711 275.900964 
L 118.224898 276.6718 
L 118.735533 277.2238 
L 118.948298 277.502701 
L 119.246168 277.956165 
L 119.756803 278.44977 
L 120.01212 278.855101 
L 120.139779 278.994552 
L 120.437649 279.3224 
L 120.820625 279.729296 
L 120.948284 279.823776 
L 121.118495 279.94596 
L 121.416365 280.204046 
L 121.799342 280.476202 
L 123.799328 281.854276 
L 126.77803 284.274911 
L 127.161006 284.587827 
L 127.543982 284.799978 
L 127.884405 285.025719 
L 128.09717 285.168674 
L 128.352487 285.337087 
L 128.607805 285.49347 
L 129.458863 286.076642 
L 129.884391 286.319225 
L 130.948214 286.982373 
L 134.012022 288.681396 
L 134.224787 288.842763 
L 134.480104 288.974655 
L 134.820527 289.182795 
L 135.118397 289.304415 
L 135.416268 289.510246 
L 135.714138 289.664216 
L 137.926888 290.82211 
L 138.139653 290.933945 
L 138.39497 291.028051 
L 139.629004 291.641864 
L 140.097086 291.851735 
L 140.565168 292.132135 
L 141.543884 292.589621 
L 143.288553 293.423074 
L 143.543871 293.523735 
L 143.841741 293.675877 
L 149.501276 296.056811 
L 150.139569 296.319785 
L 150.437439 296.428866 
L 152.097002 297.043576 
L 152.479978 297.180061 
L 152.94806 297.339205 
L 153.331036 297.480867 
L 153.628906 297.614848 
L 154.096988 297.744844 
L 154.650176 297.961348 
L 155.969316 298.430649 
L 156.394845 298.571086 
L 157.50122 298.967874 
L 167.245833 302.143877 
L 167.926679 302.467506 
L 169.373477 303.107728 
L 172.522391 305.161738 
L 173.160685 305.737708 
L 173.628767 306.081184 
L 174.692589 306.325221 
L 175.118118 306.432462 
L 178.905326 306.47391 
L 524.647592 306.580875 
L 524.77525 306.672588 
L 525.243332 307.197839 
L 525.370991 307.312812 
L 526.817789 309.323668 
L 527.200765 309.721059 
L 528.477352 311.935698 
L 528.987987 313.030024 
L 529.073093 313.135875 
L 529.966703 316.166482 
L 530.64755 319.57685 
L 531.200737 324.275697 
L 531.54116 328.247024 
L 531.583713 345.209661 
L 531.583713 345.209661 
" clip-path="url(#p3c5bfb599f)" style="fill: none; stroke: #f08080; stroke-width: 3; stroke-linecap: round"/>
   </g>
   <g id="patch_3">
    <path d="M 84.823004 362.194077 
L 84.823004 22.032 
" style="fill: none; stroke: #cccccc; stroke-width: 1.25; stroke-linejoin: miter; stroke-linecap: square"/>
   </g>
   <g id="patch_4">
    <path d="M 552.858033 362.194077 
L 552.858033 22.032 
" style="fill: none; stroke: #cccccc; stroke-width: 1.25; stroke-linejoin: miter; stroke-linecap: square"/>
   </g>
   <g id="patch_5">
    <path d="M 84.823004 362.194077 
L 552.858033 362.194077 
" style="fill: none; stroke: #cccccc; stroke-width: 1.25; stroke-linejoin: miter; stroke-linecap: square"/>
   </g>
   <g id="patch_6">
    <path d="M 84.823004 22.032 
L 552.858033 22.032 
" style="fill: none; stroke: #cccccc; stroke-width: 1.25; stroke-linejoin: miter; stroke-linecap: square"/>
   </g>
   <g id="legend_1">
    <g id="patch_7">
     <path d="M 367.591903 117.022785 
L 543.058033 117.022785 
Q 545.858033 117.022785 545.858033 114.222785 
L 545.858033 31.832 
Q 545.858033 29.032 543.058033 29.032 
L 367.591903 29.032 
Q 364.791903 29.032 364.791903 31.832 
L 364.791903 114.222785 
Q 364.791903 117.022785 367.591903 117.022785 
z
" style="fill: #ffffff; opacity: 0.8; stroke: #cccccc; stroke-linejoin: miter"/>
    </g>
    <g id="line2d_16">
     <path d="M 370.391903 40.192772 
L 384.391903 40.192772 
L 398.391903 40.192772 
" style="fill: none; stroke: #4169e1; stroke-width: 3; stroke-linecap: round"/>
    </g>
    <g id="text_14">
     <!-- LuXry (train) -->
     <g style="fill: #262626" transform="translate(409.591903 45.092772) scale(0.14 -0.14)">
      <defs>
       <path id="CMSS17-58" d="M 2214 2329 
L 3661 4416 
L 3072 4416 
L 1952 2762 
L 800 4416 
L 166 4416 
L 1690 2329 
L 83 0 
L 672 0 
L 1952 1941 
L 3277 0 
L 3910 0 
L 2214 2329 
z
" transform="scale(0.015625)"/>
       <path id="CMSS17-79" d="M 2675 2752 
L 2176 2752 
C 1632 1294 1446 702 1434 383 
L 1427 383 
C 1408 696 1126 1460 902 2007 
L 602 2752 
L 83 2752 
L 1216 13 
C 1146 -178 1043 -465 1011 -529 
C 870 -885 774 -885 672 -885 
C 646 -885 442 -885 211 -809 
L 250 -1229 
C 410 -1261 570 -1280 685 -1280 
C 845 -1280 1165 -1280 1459 -497 
L 2675 2752 
z
" transform="scale(0.015625)"/>
       <path id="CMSS17-28" d="M 1613 4768 
C 1267 4417 474 3601 474 1588 
C 474 -433 1267 -1243 1613 -1600 
L 2003 -1600 
C 1216 -784 960 357 960 1581 
C 960 2798 1203 3946 2003 4768 
L 1613 4768 
z
" transform="scale(0.015625)"/>
       <path id="CMSS17-29" d="M 723 -1600 
C 1069 -1249 1862 -433 1862 1581 
C 1862 3601 1069 4411 723 4768 
L 333 4768 
C 1120 3952 1376 2811 1376 1588 
C 1376 370 1133 -778 333 -1600 
L 723 -1600 
z
" transform="scale(0.015625)"/>
      </defs>
      <use xlink:href="#CMSS17-4c" transform="scale(0.996264)"/>
      <use xlink:href="#CMSS17-75" transform="translate(50.687105 0) scale(0.996264)"/>
      <use xlink:href="#CMSS17-58" transform="translate(98.892048 0) scale(0.996264)"/>
      <use xlink:href="#CMSS17-72" transform="translate(161.109903 0) scale(0.996264)"/>
      <use xlink:href="#CMSS17-79" transform="translate(193.019676 0) scale(0.996264)"/>
      <use xlink:href="#CMSS17-28" transform="translate(267.24893 0) scale(0.996264)"/>
      <use xlink:href="#CMSS17-74" transform="translate(303.682845 0) scale(0.996264)"/>
      <use xlink:href="#CMSS17-72" transform="translate(337.514411 0) scale(0.996264)"/>
      <use xlink:href="#CMSS17-61" transform="translate(369.424184 0) scale(0.996264)"/>
      <use xlink:href="#CMSS17-69" transform="translate(414.346104 0) scale(0.996264)"/>
      <use xlink:href="#CMSS17-6e" transform="translate(436.526827 0) scale(0.996264)"/>
      <use xlink:href="#CMSS17-29" transform="translate(484.731771 0) scale(0.996264)"/>
     </g>
    </g>
    <g id="line2d_17">
     <path d="M 370.391903 61.140468 
L 384.391903 61.140468 
L 398.391903 61.140468 
" style="fill: none; stroke: #87ceeb; stroke-width: 3; stroke-linecap: round"/>
    </g>
    <g id="text_15">
     <!-- Downstream (external) -->
     <g style="fill: #262626" transform="translate(409.591903 66.040468) scale(0.14 -0.14)">
      <defs>
       <path id="CMSS17-44" d="M 570 4416 
L 570 0 
L 2144 0 
C 3194 0 4000 980 4000 2170 
C 4000 3398 3194 4416 2144 4416 
L 570 4416 
z
M 1094 357 
L 1094 4059 
L 2003 4059 
C 2861 4059 3475 3277 3475 2170 
C 3475 1107 2867 357 2003 357 
L 1094 357 
z
" transform="scale(0.015625)"/>
       <path id="CMSS17-77" d="M 4013 2752 
L 3526 2752 
L 3187 1601 
C 3117 1358 2918 685 2893 371 
L 2886 371 
C 2874 564 2765 1024 2586 1633 
L 2259 2752 
L 1818 2752 
L 1498 1658 
C 1338 1101 1216 627 1203 371 
L 1197 371 
C 1171 749 909 1633 870 1773 
L 582 2752 
L 83 2752 
L 915 0 
L 1402 0 
C 1734 1096 1990 1943 2010 2370 
C 2022 2160 2131 1707 2195 1484 
L 2618 0 
L 3181 0 
L 4013 2752 
z
" transform="scale(0.015625)"/>
       <path id="CMSS17-73" d="M 2061 2627 
C 1683 2807 1389 2807 1197 2807 
C 742 2807 198 2648 198 2003 
C 198 1359 902 1218 1094 1179 
C 1389 1122 1715 1058 1715 740 
C 1715 337 1254 337 1171 337 
C 915 337 563 407 243 638 
L 166 210 
C 531 0 883 -64 1178 -64 
C 1965 -64 2163 416 2163 781 
C 2163 1094 1984 1305 1862 1401 
C 1651 1568 1574 1587 1050 1696 
C 960 1709 646 1779 646 2066 
C 646 2432 1050 2432 1139 2432 
C 1555 2432 1811 2303 1984 2208 
L 2061 2627 
z
" transform="scale(0.015625)"/>
      </defs>
      <use xlink:href="#CMSS17-44" transform="scale(0.996264)"/>
      <use xlink:href="#CMSS17-6f" transform="translate(67.542842 0) scale(0.996264)"/>
      <use xlink:href="#CMSS17-77" transform="translate(111.784011 0) scale(0.996264)"/>
      <use xlink:href="#CMSS17-6e" transform="translate(175.603556 0) scale(0.996264)"/>
      <use xlink:href="#CMSS17-73" transform="translate(223.808499 0) scale(0.996264)"/>
      <use xlink:href="#CMSS17-74" transform="translate(259.722041 0) scale(0.996264)"/>
      <use xlink:href="#CMSS17-72" transform="translate(293.553608 0) scale(0.996264)"/>
      <use xlink:href="#CMSS17-65" transform="translate(325.463381 0) scale(0.996264)"/>
      <use xlink:href="#CMSS17-61" transform="translate(367.102203 0) scale(0.996264)"/>
      <use xlink:href="#CMSS17-6d" transform="translate(412.024123 0) scale(0.996264)"/>
      <use xlink:href="#CMSS17-28" transform="translate(517.482491 0) scale(0.996264)"/>
      <use xlink:href="#CMSS17-65" transform="translate(553.916405 0) scale(0.996264)"/>
      <use xlink:href="#CMSS17-78" transform="translate(595.555227 0) scale(0.996264)"/>
      <use xlink:href="#CMSS17-74" transform="translate(638.555369 0) scale(0.996264)"/>
      <use xlink:href="#CMSS17-65" transform="translate(672.386935 0) scale(0.996264)"/>
      <use xlink:href="#CMSS17-72" transform="translate(714.025757 0) scale(0.996264)"/>
      <use xlink:href="#CMSS17-6e" transform="translate(745.93553 0) scale(0.996264)"/>
      <use xlink:href="#CMSS17-61" transform="translate(794.140473 0) scale(0.996264)"/>
      <use xlink:href="#CMSS17-6c" transform="translate(839.062394 0) scale(0.996264)"/>
      <use xlink:href="#CMSS17-29" transform="translate(861.243117 0) scale(0.996264)"/>
     </g>
    </g>
    <g id="line2d_18">
     <path d="M 370.391903 82.088164 
L 384.391903 82.088164 
L 398.391903 82.088164 
" style="fill: none; stroke: #b22222; stroke-width: 3; stroke-linecap: round"/>
    </g>
    <g id="text_16">
     <!-- ImageNet (train) -->
     <g style="fill: #262626" transform="translate(409.591903 86.988164) scale(0.14 -0.14)">
      <defs>
       <path id="CMSS17-4e" d="M 1466 4180 
L 1350 4416 
L 563 4416 
L 563 0 
L 1062 0 
L 1062 3926 
L 1069 3932 
C 1114 3817 1139 3760 1402 3194 
L 2771 236 
L 2886 0 
L 3674 0 
L 3674 4416 
L 3174 4416 
L 3174 490 
L 3168 483 
C 3123 598 3098 655 2835 1221 
L 1466 4180 
z
" transform="scale(0.015625)"/>
      </defs>
      <use xlink:href="#CMSS17-49" transform="scale(0.996264)"/>
      <use xlink:href="#CMSS17-6d" transform="translate(25.783926 0) scale(0.996264)"/>
      <use xlink:href="#CMSS17-61" transform="translate(100.01318 0) scale(0.996264)"/>
      <use xlink:href="#CMSS17-67" transform="translate(144.935101 0) scale(0.996264)"/>
      <use xlink:href="#CMSS17-65" transform="translate(191.778724 0) scale(0.996264)"/>
      <use xlink:href="#CMSS17-4e" transform="translate(233.417546 0) scale(0.996264)"/>
      <use xlink:href="#CMSS17-65" transform="translate(299.479065 0) scale(0.996264)"/>
      <use xlink:href="#CMSS17-74" transform="translate(341.117887 0) scale(0.996264)"/>
      <use xlink:href="#CMSS17-28" transform="translate(406.178567 0) scale(0.996264)"/>
      <use xlink:href="#CMSS17-74" transform="translate(442.612481 0) scale(0.996264)"/>
      <use xlink:href="#CMSS17-72" transform="translate(476.444048 0) scale(0.996264)"/>
      <use xlink:href="#CMSS17-61" transform="translate(508.35382 0) scale(0.996264)"/>
      <use xlink:href="#CMSS17-69" transform="translate(553.275741 0) scale(0.996264)"/>
      <use xlink:href="#CMSS17-6e" transform="translate(575.456464 0) scale(0.996264)"/>
      <use xlink:href="#CMSS17-29" transform="translate(623.661407 0) scale(0.996264)"/>
     </g>
    </g>
    <g id="line2d_19">
     <path d="M 370.391903 103.035861 
L 384.391903 103.035861 
L 398.391903 103.035861 
" style="fill: none; stroke: #f08080; stroke-width: 3; stroke-linecap: round"/>
    </g>
    <g id="text_17">
     <!-- COCO (external) -->
     <g style="fill: #262626" transform="translate(409.591903 107.935861) scale(0.14 -0.14)">
      <defs>
       <path id="CMSS17-43" d="M 3501 714 
C 3072 427 2874 344 2355 344 
C 1459 344 934 1303 934 2179 
C 934 3112 1472 4032 2381 4032 
C 2790 4032 3059 3918 3386 3715 
L 3475 4217 
C 3168 4370 2778 4440 2387 4440 
C 1158 4440 397 3316 397 2179 
C 397 927 1299 -64 2323 -64 
C 2874 -64 3066 -19 3539 280 
L 3501 714 
z
" transform="scale(0.015625)"/>
       <path id="CMSS17-4f" d="M 4096 2178 
C 4096 3503 3219 4497 2214 4497 
C 1210 4497 333 3497 333 2178 
C 333 847 1222 -128 2214 -128 
C 3206 -128 4096 847 4096 2178 
z
M 2214 273 
C 1510 273 870 1057 870 2261 
C 870 3433 1549 4096 2214 4096 
C 2880 4096 3558 3433 3558 2261 
C 3558 1051 2912 273 2214 273 
z
" transform="scale(0.015625)"/>
      </defs>
      <use xlink:href="#CMSS17-43" transform="scale(0.996264)"/>
      <use xlink:href="#CMSS17-4f" transform="translate(59.855772 0) scale(0.996264)"/>
      <use xlink:href="#CMSS17-43" transform="translate(128.880027 0) scale(0.996264)"/>
      <use xlink:href="#CMSS17-4f" transform="translate(188.735798 0) scale(0.996264)"/>
      <use xlink:href="#CMSS17-28" transform="translate(288.989167 0) scale(0.996264)"/>
      <use xlink:href="#CMSS17-65" transform="translate(325.423081 0) scale(0.996264)"/>
      <use xlink:href="#CMSS17-78" transform="translate(367.061903 0) scale(0.996264)"/>
      <use xlink:href="#CMSS17-74" transform="translate(410.062045 0) scale(0.996264)"/>
      <use xlink:href="#CMSS17-65" transform="translate(443.893611 0) scale(0.996264)"/>
      <use xlink:href="#CMSS17-72" transform="translate(485.532433 0) scale(0.996264)"/>
      <use xlink:href="#CMSS17-6e" transform="translate(517.442206 0) scale(0.996264)"/>
      <use xlink:href="#CMSS17-61" transform="translate(565.647149 0) scale(0.996264)"/>
      <use xlink:href="#CMSS17-6c" transform="translate(610.56907 0) scale(0.996264)"/>
      <use xlink:href="#CMSS17-29" transform="translate(632.749793 0) scale(0.996264)"/>
     </g>
    </g>
   </g>
  </g>
 </g>
 <defs>
  <clipPath id="p3c5bfb599f">
   <rect x="84.823004" y="22.032" width="468.035029" height="340.162077"/>
  </clipPath>
 </defs>
</svg>
