<?xml version="1.0" encoding="utf-8" standalone="no"?>
<!DOCTYPE svg PUBLIC "-//W3C//DTD SVG 1.1//EN"
  "http://www.w3.org/Graphics/SVG/1.1/DTD/svg11.dtd">
<svg xmlns:xlink="http://www.w3.org/1999/xlink" width="576pt" height="432pt" viewBox="0 0 576 432" xmlns="http://www.w3.org/2000/svg" version="1.1">
 <metadata>
  <rdf:RDF xmlns:dc="http://purl.org/dc/elements/1.1/" xmlns:cc="http://creativecommons.org/ns#" xmlns:rdf="http://www.w3.org/1999/02/22-rdf-syntax-ns#">
   <cc:Work>
    <dc:type rdf:resource="http://purl.org/dc/dcmitype/StillImage"/>
    <dc:date>2024-06-26T14:21:10.060913</dc:date>
    <dc:format>image/svg+xml</dc:format>
    <dc:creator>
     <cc:Agent>
      <dc:title>Matplotlib v3.8.3, https://matplotlib.org/</dc:title>
     </cc:Agent>
    </dc:creator>
   </cc:Work>
  </rdf:RDF>
 </metadata>
 <defs>
  <style type="text/css">*{stroke-linejoin: round; stroke-linecap: butt}</style>
 </defs>
 <g id="figure_1">
  <g id="patch_1">
   <path d="M 0 432 
L 576 432 
L 576 0 
L 0 0 
z
" style="fill: #ffffff"/>
  </g>
  <g id="axes_1">
   <g id="patch_2">
    <path d="M 84.823004 362.194077 
L 553.968 362.194077 
L 553.968 22.032 
L 84.823004 22.032 
z
" style="fill: #ffffff"/>
   </g>
   <g id="matplotlib.axis_1">
    <g id="xtick_1">
     <g id="line2d_1">
      <path d="M 106.147777 362.194077 
L 106.147777 22.032 
" clip-path="url(#p1cb2fbd86b)" style="fill: none; stroke: #cccccc; stroke-linecap: round"/>
     </g>
     <g id="text_1">
      <!-- $\mathdefault{0}$ -->
      <g style="fill: #262626" transform="translate(101.875719 384.63166) scale(0.187 -0.187)">
       <defs>
        <path id="CMR17-30" d="M 2688 2025 
C 2688 2416 2682 3080 2413 3591 
C 2176 4039 1798 4198 1466 4198 
C 1158 4198 768 4058 525 3597 
C 269 3118 243 2524 243 2025 
C 243 1661 250 1106 448 619 
C 723 -39 1216 -128 1466 -128 
C 1760 -128 2208 -7 2470 600 
C 2662 1042 2688 1559 2688 2025 
z
M 1466 -26 
C 1056 -26 813 325 723 812 
C 653 1188 653 1738 653 2096 
C 653 2588 653 2997 736 3387 
C 858 3929 1216 4096 1466 4096 
C 1728 4096 2067 3923 2189 3400 
C 2272 3036 2278 2607 2278 2096 
C 2278 1680 2278 1169 2202 792 
C 2067 95 1690 -26 1466 -26 
z
" transform="scale(0.015625)"/>
       </defs>
       <use xlink:href="#CMR17-30" transform="scale(0.996264)"/>
      </g>
     </g>
    </g>
    <g id="xtick_2">
     <g id="line2d_2">
      <path d="M 210.285355 362.194077 
L 210.285355 22.032 
" clip-path="url(#p1cb2fbd86b)" style="fill: none; stroke: #cccccc; stroke-linecap: round"/>
     </g>
     <g id="text_2">
      <!-- $\mathdefault{2000}$ -->
      <g style="fill: #262626" transform="translate(193.197122 384.63166) scale(0.187 -0.187)">
       <defs>
        <path id="CMR17-32" d="M 2669 989 
L 2554 989 
C 2490 536 2438 459 2413 420 
C 2381 369 1920 369 1830 369 
L 602 369 
C 832 619 1280 1072 1824 1597 
C 2214 1967 2669 2402 2669 3035 
C 2669 3790 2067 4224 1395 4224 
C 691 4224 262 3604 262 3030 
C 262 2780 448 2748 525 2748 
C 589 2748 781 2787 781 3010 
C 781 3207 614 3264 525 3264 
C 486 3264 448 3258 422 3245 
C 544 3790 915 4058 1306 4058 
C 1862 4058 2227 3617 2227 3035 
C 2227 2479 1901 2000 1536 1584 
L 262 146 
L 262 0 
L 2515 0 
L 2669 989 
z
" transform="scale(0.015625)"/>
       </defs>
       <use xlink:href="#CMR17-32" transform="scale(0.996264)"/>
       <use xlink:href="#CMR17-30" transform="translate(45.690477 0) scale(0.996264)"/>
       <use xlink:href="#CMR17-30" transform="translate(91.380954 0) scale(0.996264)"/>
       <use xlink:href="#CMR17-30" transform="translate(137.071431 0) scale(0.996264)"/>
      </g>
     </g>
    </g>
    <g id="xtick_3">
     <g id="line2d_3">
      <path d="M 314.422933 362.194077 
L 314.422933 22.032 
" clip-path="url(#p1cb2fbd86b)" style="fill: none; stroke: #cccccc; stroke-linecap: round"/>
     </g>
     <g id="text_3">
      <!-- $\mathdefault{4000}$ -->
      <g style="fill: #262626" transform="translate(297.3347 384.63166) scale(0.187 -0.187)">
       <defs>
        <path id="CMR17-34" d="M 2150 4122 
C 2150 4256 2144 4256 2029 4256 
L 128 1254 
L 128 1088 
L 1779 1088 
L 1779 457 
C 1779 224 1766 160 1318 160 
L 1197 160 
L 1197 0 
C 1402 0 1747 0 1965 0 
C 2182 0 2528 0 2733 0 
L 2733 160 
L 2611 160 
C 2163 160 2150 224 2150 457 
L 2150 1088 
L 2803 1088 
L 2803 1254 
L 2150 1254 
L 2150 4122 
z
M 1798 3703 
L 1798 1254 
L 256 1254 
L 1798 3703 
z
" transform="scale(0.015625)"/>
       </defs>
       <use xlink:href="#CMR17-34" transform="scale(0.996264)"/>
       <use xlink:href="#CMR17-30" transform="translate(45.690477 0) scale(0.996264)"/>
       <use xlink:href="#CMR17-30" transform="translate(91.380954 0) scale(0.996264)"/>
       <use xlink:href="#CMR17-30" transform="translate(137.071431 0) scale(0.996264)"/>
      </g>
     </g>
    </g>
    <g id="xtick_4">
     <g id="line2d_4">
      <path d="M 418.560511 362.194077 
L 418.560511 22.032 
" clip-path="url(#p1cb2fbd86b)" style="fill: none; stroke: #cccccc; stroke-linecap: round"/>
     </g>
     <g id="text_4">
      <!-- $\mathdefault{6000}$ -->
      <g style="fill: #262626" transform="translate(401.472278 384.63166) scale(0.187 -0.187)">
       <defs>
        <path id="CMR17-36" d="M 678 2176 
C 678 3690 1395 4032 1811 4032 
C 1946 4032 2272 4009 2400 3776 
C 2298 3776 2106 3776 2106 3553 
C 2106 3381 2246 3323 2336 3323 
C 2394 3323 2566 3348 2566 3560 
C 2566 3954 2246 4179 1805 4179 
C 1043 4179 243 3390 243 1984 
C 243 253 966 -128 1478 -128 
C 2099 -128 2688 427 2688 1283 
C 2688 2081 2170 2662 1517 2662 
C 1126 2662 838 2407 678 1960 
L 678 2176 
z
M 1478 25 
C 691 25 691 1200 691 1436 
C 691 1896 909 2560 1504 2560 
C 1613 2560 1926 2560 2138 2120 
C 2253 1870 2253 1609 2253 1289 
C 2253 944 2253 690 2118 434 
C 1978 171 1773 25 1478 25 
z
" transform="scale(0.015625)"/>
       </defs>
       <use xlink:href="#CMR17-36" transform="scale(0.996264)"/>
       <use xlink:href="#CMR17-30" transform="translate(45.690477 0) scale(0.996264)"/>
       <use xlink:href="#CMR17-30" transform="translate(91.380954 0) scale(0.996264)"/>
       <use xlink:href="#CMR17-30" transform="translate(137.071431 0) scale(0.996264)"/>
      </g>
     </g>
    </g>
    <g id="xtick_5">
     <g id="line2d_5">
      <path d="M 522.698089 362.194077 
L 522.698089 22.032 
" clip-path="url(#p1cb2fbd86b)" style="fill: none; stroke: #cccccc; stroke-linecap: round"/>
     </g>
     <g id="text_5">
      <!-- $\mathdefault{8000}$ -->
      <g style="fill: #262626" transform="translate(505.609856 384.63166) scale(0.187 -0.187)">
       <defs>
        <path id="CMR17-38" d="M 1741 2264 
C 2144 2467 2554 2773 2554 3263 
C 2554 3841 1990 4179 1472 4179 
C 890 4179 378 3759 378 3180 
C 378 3021 416 2747 666 2505 
C 730 2442 998 2251 1171 2130 
C 883 1983 211 1634 211 934 
C 211 279 838 -128 1459 -128 
C 2144 -128 2720 362 2720 1010 
C 2720 1590 2330 1857 2074 2029 
L 1741 2264 
z
M 902 2822 
C 851 2854 595 3051 595 3351 
C 595 3739 998 4032 1459 4032 
C 1965 4032 2336 3676 2336 3262 
C 2336 2669 1670 2331 1638 2331 
C 1632 2331 1626 2331 1574 2370 
L 902 2822 
z
M 2080 1519 
C 2176 1449 2483 1240 2483 851 
C 2483 381 2010 25 1472 25 
C 890 25 448 438 448 940 
C 448 1443 838 1862 1280 2060 
L 2080 1519 
z
" transform="scale(0.015625)"/>
       </defs>
       <use xlink:href="#CMR17-38" transform="scale(0.996264)"/>
       <use xlink:href="#CMR17-30" transform="translate(45.690477 0) scale(0.996264)"/>
       <use xlink:href="#CMR17-30" transform="translate(91.380954 0) scale(0.996264)"/>
       <use xlink:href="#CMR17-30" transform="translate(137.071431 0) scale(0.996264)"/>
      </g>
     </g>
    </g>
    <g id="text_6">
     <!-- Singular Value Rank Index -->
     <g style="fill: #262626" transform="translate(216.383542 406.092366) scale(0.2 -0.2)">
      <defs>
       <path id="CMSS17-53" d="M 2797 4169 
C 2515 4334 2208 4480 1690 4480 
C 864 4480 333 3879 333 3266 
C 333 3025 403 2753 653 2475 
C 902 2196 1184 2121 1542 2033 
C 1690 1994 1939 1924 1984 1906 
C 2342 1767 2515 1444 2515 1140 
C 2515 742 2202 318 1645 318 
C 1453 318 890 318 358 819 
L 269 318 
C 794 -64 1363 -128 1651 -128 
C 2438 -128 3002 488 3002 1186 
C 3002 1440 2925 1763 2656 2061 
C 2394 2347 2163 2410 1638 2549 
C 1338 2626 1146 2677 986 2873 
C 877 3013 819 3146 819 3317 
C 819 3673 1126 4060 1690 4060 
C 1971 4060 2336 4002 2707 3660 
L 2797 4169 
z
" transform="scale(0.015625)"/>
       <path id="CMSS17-69" d="M 979 4183 
L 442 4183 
L 442 3648 
L 979 3648 
L 979 4183 
z
M 947 2739 
L 474 2739 
L 474 0 
L 947 0 
L 947 2739 
z
" transform="scale(0.015625)"/>
       <path id="CMSS17-6e" d="M 2618 1877 
C 2618 2283 2522 2816 1798 2816 
C 1389 2816 1120 2606 941 2389 
L 941 2758 
L 474 2758 
L 474 0 
L 960 0 
L 960 1559 
C 960 1964 1114 2428 1549 2428 
C 2112 2428 2131 2048 2131 1829 
L 2131 0 
L 2618 0 
L 2618 1877 
z
" transform="scale(0.015625)"/>
       <path id="CMSS17-67" d="M 2848 2808 
C 2483 2808 2170 2738 1914 2617 
C 1702 2777 1485 2808 1338 2808 
C 781 2808 358 2349 358 1814 
C 358 1468 550 1207 563 1195 
C 448 1035 384 863 384 672 
C 384 448 474 289 544 200 
C 211 -3 166 -314 166 -435 
C 166 -898 749 -1280 1498 -1280 
C 2253 -1280 2835 -898 2835 -428 
C 2835 448 1856 448 1587 448 
L 1069 448 
C 973 448 717 448 717 791 
C 717 921 774 1004 781 1010 
C 877 940 1075 832 1338 832 
C 1869 832 2310 1278 2310 1827 
C 2310 2132 2170 2355 2112 2432 
L 2131 2432 
C 2150 2432 2419 2432 2515 2432 
C 2720 2432 2739 2429 2918 2419 
L 2848 2808 
z
M 1338 1182 
C 1120 1182 813 1315 813 1823 
C 813 2375 1165 2464 1331 2464 
C 1549 2464 1856 2331 1856 1823 
C 1856 1271 1504 1182 1338 1182 
z
M 1581 -10 
C 1734 -10 2381 -10 2381 -442 
C 2381 -714 1984 -929 1504 -929 
C 1018 -929 621 -720 621 -435 
C 621 -403 621 -10 1062 -10 
L 1581 -10 
z
" transform="scale(0.015625)"/>
       <path id="CMSS17-75" d="M 2618 2739 
L 2131 2739 
L 2131 972 
C 2131 498 1786 306 1421 306 
C 998 306 960 447 960 709 
L 960 2739 
L 474 2739 
L 474 678 
C 474 179 646 -64 1088 -64 
C 1306 -64 1798 -13 2144 306 
L 2144 0 
L 2618 0 
L 2618 2739 
z
" transform="scale(0.015625)"/>
       <path id="CMSS17-6c" d="M 947 4416 
L 474 4416 
L 474 0 
L 947 0 
L 947 4416 
z
" transform="scale(0.015625)"/>
       <path id="CMSS17-61" d="M 2406 1791 
C 2406 2392 1978 2808 1402 2808 
C 1120 2808 813 2757 461 2553 
L 499 2135 
C 659 2248 934 2432 1395 2432 
C 1722 2432 1920 2180 1920 1782 
L 1920 1536 
C 896 1536 256 1238 256 726 
C 256 461 416 -64 947 -64 
C 1043 -64 1562 -64 1933 217 
L 1933 -19 
L 2406 -19 
L 2406 1791 
z
M 1920 816 
C 1920 701 1920 548 1728 434 
C 1562 325 1350 325 1261 325 
C 941 325 723 511 723 744 
C 723 1211 1722 1211 1920 1211 
L 1920 816 
z
" transform="scale(0.015625)"/>
       <path id="CMSS17-72" d="M 954 1363 
C 954 1965 1395 2368 1958 2368 
L 1958 2789 
C 1549 2789 1165 2585 934 2253 
L 934 2758 
L 480 2758 
L 480 0 
L 954 0 
L 954 1363 
z
" transform="scale(0.015625)"/>
       <path id="CMSS17-56" d="M 3910 4416 
L 3411 4416 
L 2304 1362 
C 2272 1273 2074 688 2035 484 
L 2029 484 
C 1978 726 1773 1292 1664 1604 
L 922 3672 
L 646 4416 
L 83 4416 
L 1715 0 
L 2278 0 
L 3910 4416 
z
" transform="scale(0.015625)"/>
       <path id="CMSS17-65" d="M 2502 1377 
C 2502 1590 2490 2003 2285 2345 
C 2061 2713 1696 2816 1421 2816 
C 755 2816 192 2188 192 1375 
C 192 582 774 -64 1510 -64 
C 1798 -64 2150 19 2470 248 
C 2470 274 2458 414 2451 420 
C 2451 433 2432 630 2432 656 
C 2125 407 1773 325 1517 325 
C 1107 325 666 667 646 1377 
L 2502 1377 
z
M 698 1728 
C 781 2084 1062 2421 1421 2421 
C 1517 2421 1965 2421 2080 1728 
L 698 1728 
z
" transform="scale(0.015625)"/>
       <path id="CMSS17-52" d="M 2522 2109 
L 2534 2115 
C 3533 2459 3539 3147 3539 3268 
C 3539 3873 2925 4453 2003 4453 
L 570 4453 
L 570 32 
L 1094 32 
L 1094 2048 
L 2035 2048 
L 3168 32 
L 3706 32 
L 2522 2109 
z
M 1094 2437 
L 1094 4096 
L 1933 4096 
C 2746 4096 3034 3637 3034 3267 
C 3034 2922 2778 2437 1933 2437 
L 1094 2437 
z
" transform="scale(0.015625)"/>
       <path id="CMSS17-6b" d="M 1696 1688 
L 2688 2739 
L 2074 2739 
L 954 1554 
L 954 4416 
L 480 4416 
L 480 0 
L 947 0 
L 947 892 
L 1376 1344 
L 2278 0 
L 2822 0 
L 1696 1688 
z
" transform="scale(0.015625)"/>
       <path id="CMSS17-49" d="M 1094 4416 
L 557 4416 
L 557 0 
L 1094 0 
L 1094 4416 
z
" transform="scale(0.015625)"/>
       <path id="CMSS17-64" d="M 2611 4416 
L 2138 4416 
L 2138 2438 
C 1939 2603 1613 2756 1254 2756 
C 672 2756 211 2131 211 1347 
C 211 562 666 -64 1235 -64 
C 1677 -64 1971 172 2125 306 
L 2125 -13 
L 2611 -13 
L 2611 4416 
z
M 2125 836 
C 2125 747 2125 653 1926 482 
C 1798 375 1645 325 1498 325 
C 1152 325 698 576 698 1340 
C 698 2134 1210 2368 1562 2368 
C 1798 2368 1990 2254 2125 2065 
L 2125 836 
z
" transform="scale(0.015625)"/>
       <path id="CMSS17-78" d="M 1587 1414 
L 2656 2739 
L 2099 2739 
L 1363 1777 
L 602 2739 
L 32 2739 
L 1139 1414 
L 0 0 
L 563 0 
L 1363 1121 
L 2195 0 
L 2758 0 
L 1587 1414 
z
" transform="scale(0.015625)"/>
      </defs>
      <use xlink:href="#CMSS17-53" transform="scale(0.996264)"/>
      <use xlink:href="#CMSS17-69" transform="translate(52.048516 0) scale(0.996264)"/>
      <use xlink:href="#CMSS17-6e" transform="translate(74.229239 0) scale(0.996264)"/>
      <use xlink:href="#CMSS17-67" transform="translate(122.434182 0) scale(0.996264)"/>
      <use xlink:href="#CMSS17-75" transform="translate(169.277806 0) scale(0.996264)"/>
      <use xlink:href="#CMSS17-6c" transform="translate(217.482749 0) scale(0.996264)"/>
      <use xlink:href="#CMSS17-61" transform="translate(239.663472 0) scale(0.996264)"/>
      <use xlink:href="#CMSS17-72" transform="translate(281.982939 0) scale(0.996264)"/>
      <use xlink:href="#CMSS17-56" transform="translate(345.121824 0) scale(0.996264)"/>
      <use xlink:href="#CMSS17-61" transform="translate(404.737225 0) scale(0.996264)"/>
      <use xlink:href="#CMSS17-6c" transform="translate(449.659146 0) scale(0.996264)"/>
      <use xlink:href="#CMSS17-75" transform="translate(471.839869 0) scale(0.996264)"/>
      <use xlink:href="#CMSS17-65" transform="translate(520.044812 0) scale(0.996264)"/>
      <use xlink:href="#CMSS17-52" transform="translate(592.912747 0) scale(0.996264)"/>
      <use xlink:href="#CMSS17-61" transform="translate(653.328902 0) scale(0.996264)"/>
      <use xlink:href="#CMSS17-6e" transform="translate(698.250822 0) scale(0.996264)"/>
      <use xlink:href="#CMSS17-6b" transform="translate(746.455765 0) scale(0.996264)"/>
      <use xlink:href="#CMSS17-49" transform="translate(823.287367 0) scale(0.996264)"/>
      <use xlink:href="#CMSS17-6e" transform="translate(849.071293 0) scale(0.996264)"/>
      <use xlink:href="#CMSS17-64" transform="translate(897.276236 0) scale(0.996264)"/>
      <use xlink:href="#CMSS17-65" transform="translate(945.481179 0) scale(0.996264)"/>
      <use xlink:href="#CMSS17-78" transform="translate(987.120001 0) scale(0.996264)"/>
     </g>
    </g>
   </g>
   <g id="matplotlib.axis_2">
    <g id="ytick_1">
     <g id="line2d_6">
      <path d="M 84.823004 348.05818 
L 553.968 348.05818 
" clip-path="url(#p1cb2fbd86b)" style="fill: none; stroke: #cccccc; stroke-linecap: round"/>
     </g>
     <g id="text_7">
      <!-- $\mathdefault{−35}$ -->
      <g style="fill: #262626" transform="translate(43.74463 354.526971) scale(0.187 -0.187)">
       <defs>
        <path id="CMSY10-0" d="M 4218 1472 
C 4326 1472 4442 1472 4442 1600 
C 4442 1728 4326 1728 4218 1728 
L 755 1728 
C 646 1728 531 1728 531 1600 
C 531 1472 646 1472 755 1472 
L 4218 1472 
z
" transform="scale(0.015625)"/>
        <path id="CMR17-33" d="M 1414 2157 
C 1984 2157 2234 1662 2234 1090 
C 2234 320 1824 25 1453 25 
C 1114 25 563 194 390 693 
C 422 680 454 680 486 680 
C 640 680 755 782 755 948 
C 755 1133 614 1216 486 1216 
C 378 1216 211 1165 211 926 
C 211 335 787 -128 1466 -128 
C 2176 -128 2720 430 2720 1085 
C 2720 1707 2208 2157 1600 2227 
C 2086 2328 2554 2756 2554 3329 
C 2554 3820 2048 4179 1472 4179 
C 890 4179 378 3829 378 3329 
C 378 3110 544 3072 627 3072 
C 762 3072 877 3155 877 3321 
C 877 3486 762 3569 627 3569 
C 602 3569 570 3569 544 3557 
C 730 3959 1235 4032 1459 4032 
C 1683 4032 2106 3925 2106 3320 
C 2106 3143 2080 2828 1862 2550 
C 1670 2304 1453 2304 1242 2284 
C 1210 2284 1062 2269 1037 2269 
C 992 2263 966 2257 966 2208 
C 966 2163 973 2157 1101 2157 
L 1414 2157 
z
" transform="scale(0.015625)"/>
        <path id="CMR17-35" d="M 730 3692 
C 794 3666 1056 3584 1325 3584 
C 1920 3584 2246 3911 2432 4100 
C 2432 4157 2432 4192 2394 4192 
C 2387 4192 2374 4192 2323 4163 
C 2099 4058 1837 3973 1517 3973 
C 1325 3973 1037 3999 723 4139 
C 653 4171 640 4171 634 4171 
C 602 4171 595 4164 595 4037 
L 595 2203 
C 595 2089 595 2057 659 2057 
C 691 2057 704 2070 736 2114 
C 941 2401 1222 2522 1542 2522 
C 1766 2522 2246 2382 2246 1289 
C 2246 1085 2246 715 2054 421 
C 1894 159 1645 25 1370 25 
C 947 25 518 320 403 814 
C 429 807 480 795 506 795 
C 589 795 749 840 749 1038 
C 749 1210 627 1280 506 1280 
C 358 1280 262 1190 262 1011 
C 262 454 704 -128 1382 -128 
C 2042 -128 2669 440 2669 1264 
C 2669 2030 2170 2624 1549 2624 
C 1222 2624 947 2503 730 2274 
L 730 3692 
z
" transform="scale(0.015625)"/>
       </defs>
       <use xlink:href="#CMSY10-0" transform="scale(0.996264)"/>
       <use xlink:href="#CMR17-33" transform="translate(77.487468 0) scale(0.996264)"/>
       <use xlink:href="#CMR17-35" transform="translate(123.177945 0) scale(0.996264)"/>
      </g>
     </g>
    </g>
    <g id="ytick_2">
     <g id="line2d_7">
      <path d="M 84.823004 307.969951 
L 553.968 307.969951 
" clip-path="url(#p1cb2fbd86b)" style="fill: none; stroke: #cccccc; stroke-linecap: round"/>
     </g>
     <g id="text_8">
      <!-- $\mathdefault{−30}$ -->
      <g style="fill: #262626" transform="translate(43.74463 314.438743) scale(0.187 -0.187)">
       <use xlink:href="#CMSY10-0" transform="scale(0.996264)"/>
       <use xlink:href="#CMR17-33" transform="translate(77.487468 0) scale(0.996264)"/>
       <use xlink:href="#CMR17-30" transform="translate(123.177945 0) scale(0.996264)"/>
      </g>
     </g>
    </g>
    <g id="ytick_3">
     <g id="line2d_8">
      <path d="M 84.823004 267.881722 
L 553.968 267.881722 
" clip-path="url(#p1cb2fbd86b)" style="fill: none; stroke: #cccccc; stroke-linecap: round"/>
     </g>
     <g id="text_9">
      <!-- $\mathdefault{−25}$ -->
      <g style="fill: #262626" transform="translate(43.74463 274.350514) scale(0.187 -0.187)">
       <use xlink:href="#CMSY10-0" transform="scale(0.996264)"/>
       <use xlink:href="#CMR17-32" transform="translate(77.487468 0) scale(0.996264)"/>
       <use xlink:href="#CMR17-35" transform="translate(123.177945 0) scale(0.996264)"/>
      </g>
     </g>
    </g>
    <g id="ytick_4">
     <g id="line2d_9">
      <path d="M 84.823004 227.793494 
L 553.968 227.793494 
" clip-path="url(#p1cb2fbd86b)" style="fill: none; stroke: #cccccc; stroke-linecap: round"/>
     </g>
     <g id="text_10">
      <!-- $\mathdefault{−20}$ -->
      <g style="fill: #262626" transform="translate(43.74463 234.262285) scale(0.187 -0.187)">
       <use xlink:href="#CMSY10-0" transform="scale(0.996264)"/>
       <use xlink:href="#CMR17-32" transform="translate(77.487468 0) scale(0.996264)"/>
       <use xlink:href="#CMR17-30" transform="translate(123.177945 0) scale(0.996264)"/>
      </g>
     </g>
    </g>
    <g id="ytick_5">
     <g id="line2d_10">
      <path d="M 84.823004 187.705265 
L 553.968 187.705265 
" clip-path="url(#p1cb2fbd86b)" style="fill: none; stroke: #cccccc; stroke-linecap: round"/>
     </g>
     <g id="text_11">
      <!-- $\mathdefault{−15}$ -->
      <g style="fill: #262626" transform="translate(43.74463 194.174057) scale(0.187 -0.187)">
       <defs>
        <path id="CMR17-31" d="M 1702 4058 
C 1702 4192 1696 4192 1606 4192 
C 1357 3916 979 3827 621 3827 
C 602 3827 570 3827 563 3808 
C 557 3795 557 3782 557 3648 
C 755 3648 1088 3686 1344 3839 
L 1344 461 
C 1344 236 1331 160 781 160 
L 589 160 
L 589 0 
C 896 0 1216 0 1523 0 
C 1830 0 2150 0 2458 0 
L 2458 160 
L 2266 160 
C 1715 160 1702 230 1702 458 
L 1702 4058 
z
" transform="scale(0.015625)"/>
       </defs>
       <use xlink:href="#CMSY10-0" transform="scale(0.996264)"/>
       <use xlink:href="#CMR17-31" transform="translate(77.487468 0) scale(0.996264)"/>
       <use xlink:href="#CMR17-35" transform="translate(123.177945 0) scale(0.996264)"/>
      </g>
     </g>
    </g>
    <g id="ytick_6">
     <g id="line2d_11">
      <path d="M 84.823004 147.617036 
L 553.968 147.617036 
" clip-path="url(#p1cb2fbd86b)" style="fill: none; stroke: #cccccc; stroke-linecap: round"/>
     </g>
     <g id="text_12">
      <!-- $\mathdefault{−10}$ -->
      <g style="fill: #262626" transform="translate(43.74463 154.085828) scale(0.187 -0.187)">
       <use xlink:href="#CMSY10-0" transform="scale(0.996264)"/>
       <use xlink:href="#CMR17-31" transform="translate(77.487468 0) scale(0.996264)"/>
       <use xlink:href="#CMR17-30" transform="translate(123.177945 0) scale(0.996264)"/>
      </g>
     </g>
    </g>
    <g id="ytick_7">
     <g id="line2d_12">
      <path d="M 84.823004 107.528808 
L 553.968 107.528808 
" clip-path="url(#p1cb2fbd86b)" style="fill: none; stroke: #cccccc; stroke-linecap: round"/>
     </g>
     <g id="text_13">
      <!-- $\mathdefault{−5}$ -->
      <g style="fill: #262626" transform="translate(52.288747 113.997599) scale(0.187 -0.187)">
       <use xlink:href="#CMSY10-0" transform="scale(0.996264)"/>
       <use xlink:href="#CMR17-35" transform="translate(77.487468 0) scale(0.996264)"/>
      </g>
     </g>
    </g>
    <g id="ytick_8">
     <g id="line2d_13">
      <path d="M 84.823004 67.440579 
L 553.968 67.440579 
" clip-path="url(#p1cb2fbd86b)" style="fill: none; stroke: #cccccc; stroke-linecap: round"/>
     </g>
     <g id="text_14">
      <!-- $\mathdefault{0}$ -->
      <g style="fill: #262626" transform="translate(66.778888 73.909371) scale(0.187 -0.187)">
       <use xlink:href="#CMR17-30" transform="scale(0.996264)"/>
      </g>
     </g>
    </g>
    <g id="ytick_9">
     <g id="line2d_14">
      <path d="M 84.823004 27.352351 
L 553.968 27.352351 
" clip-path="url(#p1cb2fbd86b)" style="fill: none; stroke: #cccccc; stroke-linecap: round"/>
     </g>
     <g id="text_15">
      <!-- $\mathdefault{5}$ -->
      <g style="fill: #262626" transform="translate(66.778888 33.821142) scale(0.187 -0.187)">
       <use xlink:href="#CMR17-35" transform="scale(0.996264)"/>
      </g>
     </g>
    </g>
    <g id="text_16">
     <!-- Logarithm of Singular Value -->
     <g style="fill: #262626" transform="translate(35.868997 301.779198) rotate(-90) scale(0.2 -0.2)">
      <defs>
       <path id="CMSS17-4c" d="M 1670 414 
C 1594 414 1517 414 1440 414 
L 1101 414 
L 1101 4416 
L 563 4416 
L 563 0 
L 3002 0 
L 3002 414 
L 1670 414 
z
" transform="scale(0.015625)"/>
       <path id="CMSS17-6f" d="M 2829 1356 
C 2829 2176 2221 2816 1504 2816 
C 768 2816 173 2157 173 1356 
C 173 544 787 -64 1498 -64 
C 2227 -64 2829 563 2829 1356 
z
M 1504 337 
C 1050 337 659 709 659 1408 
C 659 2151 1114 2427 1498 2427 
C 1914 2427 2342 2126 2342 1408 
C 2342 683 1926 337 1504 337 
z
" transform="scale(0.015625)"/>
       <path id="CMSS17-74" d="M 1069 2368 
L 1901 2368 
L 1901 2737 
L 1069 2737 
L 1069 3520 
L 614 3520 
L 614 2737 
L 109 2737 
L 109 2368 
L 602 2368 
L 602 749 
C 602 384 685 -64 1107 -64 
C 1427 -64 1722 25 2003 172 
L 1901 548 
C 1747 414 1562 337 1363 337 
C 1082 337 1069 696 1069 856 
L 1069 2368 
z
" transform="scale(0.015625)"/>
       <path id="CMSS17-68" d="M 2618 1891 
C 2618 2292 2522 2820 1798 2820 
C 1395 2820 1133 2623 947 2407 
L 947 4448 
L 474 4448 
L 474 32 
L 960 32 
L 960 1573 
C 960 1973 1114 2432 1549 2432 
C 2112 2432 2131 2056 2131 1839 
L 2131 32 
L 2618 32 
L 2618 1891 
z
" transform="scale(0.015625)"/>
       <path id="CMSS17-6d" d="M 4288 1877 
C 4288 2308 4179 2816 3462 2816 
C 2982 2816 2694 2516 2566 2331 
C 2451 2670 2182 2816 1798 2816 
C 1363 2816 1088 2568 941 2389 
L 941 2758 
L 474 2758 
L 474 0 
L 960 0 
L 960 1559 
C 960 1939 1101 2428 1555 2428 
C 2138 2428 2138 2016 2138 1829 
L 2138 0 
L 2624 0 
L 2624 1559 
C 2624 1939 2765 2428 3219 2428 
C 3802 2428 3802 2016 3802 1829 
L 3802 0 
L 4288 0 
L 4288 1877 
z
" transform="scale(0.015625)"/>
       <path id="CMSS17-66" d="M 1075 2368 
L 1722 2368 
L 1722 2737 
L 1062 2737 
L 1062 3559 
C 1062 4014 1408 4092 1606 4092 
C 1670 4092 1850 4092 2080 4009 
L 2080 4429 
C 1933 4461 1754 4480 1613 4480 
C 1018 4480 602 3993 602 3359 
L 602 2737 
L 160 2737 
L 160 2368 
L 602 2368 
L 602 0 
L 1075 0 
L 1075 2368 
z
" transform="scale(0.015625)"/>
      </defs>
      <use xlink:href="#CMSS17-4c" transform="scale(0.996264)"/>
      <use xlink:href="#CMSS17-6f" transform="translate(50.687105 0) scale(0.996264)"/>
      <use xlink:href="#CMSS17-67" transform="translate(97.530729 0) scale(0.996264)"/>
      <use xlink:href="#CMSS17-61" transform="translate(144.374352 0) scale(0.996264)"/>
      <use xlink:href="#CMSS17-72" transform="translate(186.693819 0) scale(0.996264)"/>
      <use xlink:href="#CMSS17-69" transform="translate(218.603592 0) scale(0.996264)"/>
      <use xlink:href="#CMSS17-74" transform="translate(240.784315 0) scale(0.996264)"/>
      <use xlink:href="#CMSS17-68" transform="translate(274.615881 0) scale(0.996264)"/>
      <use xlink:href="#CMSS17-6d" transform="translate(322.820824 0) scale(0.996264)"/>
      <use xlink:href="#CMSS17-6f" transform="translate(428.279192 0) scale(0.996264)"/>
      <use xlink:href="#CMSS17-66" transform="translate(475.122815 0) scale(0.996264)"/>
      <use xlink:href="#CMSS17-53" transform="translate(534.978587 0) scale(0.996264)"/>
      <use xlink:href="#CMSS17-69" transform="translate(587.027103 0) scale(0.996264)"/>
      <use xlink:href="#CMSS17-6e" transform="translate(609.207826 0) scale(0.996264)"/>
      <use xlink:href="#CMSS17-67" transform="translate(657.412769 0) scale(0.996264)"/>
      <use xlink:href="#CMSS17-75" transform="translate(704.256393 0) scale(0.996264)"/>
      <use xlink:href="#CMSS17-6c" transform="translate(752.461336 0) scale(0.996264)"/>
      <use xlink:href="#CMSS17-61" transform="translate(774.642059 0) scale(0.996264)"/>
      <use xlink:href="#CMSS17-72" transform="translate(816.961526 0) scale(0.996264)"/>
      <use xlink:href="#CMSS17-56" transform="translate(880.100411 0) scale(0.996264)"/>
      <use xlink:href="#CMSS17-61" transform="translate(939.715812 0) scale(0.996264)"/>
      <use xlink:href="#CMSS17-6c" transform="translate(984.637732 0) scale(0.996264)"/>
      <use xlink:href="#CMSS17-75" transform="translate(1006.818455 0) scale(0.996264)"/>
      <use xlink:href="#CMSS17-65" transform="translate(1055.023399 0) scale(0.996264)"/>
     </g>
    </g>
   </g>
   <g id="line2d_15">
    <path d="M 106.147777 41.031499 
L 106.303983 43.289109 
L 106.564327 49.420639 
L 106.772602 50.455047 
L 106.928808 52.14 
L 107.605703 57.594602 
L 107.761909 58.060825 
L 108.907422 63.476954 
L 109.219835 64.268034 
L 109.271904 64.332806 
L 109.480179 64.954209 
L 109.532248 64.989364 
L 110.052936 66.923701 
L 110.209142 67.363936 
L 110.677761 68.543138 
L 111.198449 69.918737 
L 111.614999 70.693748 
L 111.875343 71.240724 
L 112.86465 73.237582 
L 112.968788 73.472262 
L 114.634989 76.487144 
L 114.947402 77.142177 
L 115.46809 77.86023 
L 115.676365 78.356249 
L 115.832571 78.642263 
L 116.353259 79.748664 
L 116.457397 79.810249 
L 116.717741 80.234052 
L 118.748424 83.392431 
L 119.164974 84.04402 
L 119.32118 84.18225 
L 119.581524 84.630622 
L 119.737731 84.785262 
L 120.050143 85.267799 
L 120.154281 85.410036 
L 120.6229 86.035685 
L 120.831175 86.327965 
L 123.486683 90.515165 
L 124.007371 91.277578 
L 124.163578 91.458672 
L 124.528059 92.09276 
L 124.632197 92.224125 
L 127.704255 97.506944 
L 128.38115 98.959454 
L 128.901837 100.012616 
L 129.318388 100.950995 
L 129.422525 101.064086 
L 129.682869 101.751653 
L 129.995282 102.319067 
L 130.255626 102.946085 
L 130.359764 103.090449 
L 130.880451 104.448174 
L 131.609414 106.278389 
L 135.25423 114.652605 
L 135.358367 114.754644 
L 135.879055 115.678027 
L 137.180775 117.849806 
L 137.38905 118.046082 
L 137.597325 118.407249 
L 138.899045 120.105553 
L 139.159389 120.44533 
L 139.315595 120.620843 
L 139.680077 121.040936 
L 140.40904 121.746888 
L 140.669384 122.001333 
L 140.773521 122.139128 
L 141.814897 123.055636 
L 142.283516 123.473857 
L 142.54386 123.67297 
L 143.220754 124.238457 
L 144.26213 125.048442 
L 145.043162 125.519295 
L 145.251437 125.678452 
L 145.876263 126.068586 
L 146.136607 126.251812 
L 146.292813 126.332201 
L 147.073845 126.789884 
L 148.740046 127.752947 
L 148.948321 127.869264 
L 149.521078 128.137654 
L 150.71866 128.728277 
L 151.13521 128.929351 
L 151.864173 129.272534 
L 153.270031 129.886377 
L 153.530375 130.014237 
L 153.946925 130.171594 
L 154.519682 130.386528 
L 154.780026 130.491917 
L 155.04037 130.617385 
L 164.568958 133.848257 
L 166.18309 134.302211 
L 167.693085 134.720885 
L 172.118932 135.886817 
L 172.63962 136.015073 
L 173.785134 136.27836 
L 174.253753 136.382581 
L 176.336504 136.875815 
L 176.805123 136.998859 
L 178.002705 137.266793 
L 179.304425 137.563087 
L 179.929251 137.694169 
L 180.658214 137.841072 
L 181.543383 138.041398 
L 182.845103 138.332913 
L 183.41786 138.438851 
L 184.094754 138.574277 
L 184.927854 138.751843 
L 185.448542 138.853949 
L 186.38578 139.041559 
L 215.283958 144.147833 
L 216.533609 144.362743 
L 219.553599 144.836201 
L 220.282562 144.949737 
L 221.428075 145.126721 
L 223.302552 145.415341 
L 223.875309 145.506828 
L 225.385303 145.74798 
L 226.270473 145.879139 
L 227.936674 146.13394 
L 232.258384 146.773548 
L 233.820447 147.002617 
L 235.278373 147.24147 
L 247.566608 149.038715 
L 250.534529 149.476068 
L 257.980365 150.544425 
L 259.125879 150.70171 
L 260.271392 150.874586 
L 262.250006 151.165344 
L 265.582409 151.643263 
L 266.571716 151.777155 
L 278.495468 153.454748 
L 279.2765 153.567013 
L 280.682357 153.758873 
L 282.660971 154.047304 
L 288.284401 154.840461 
L 289.325776 154.989923 
L 290.939909 155.218664 
L 305.467101 157.297152 
L 306.560546 157.460747 
L 312.8088 158.369913 
L 314.058451 158.54999 
L 318.328092 159.165502 
L 319.26533 159.311495 
L 332.074252 161.195994 
L 332.490802 161.270959 
L 336.135618 161.817519 
L 337.229062 161.993752 
L 339.572158 162.343492 
L 340.092846 162.435371 
L 342.48801 162.78891 
L 363.211388 166.072864 
L 372.011013 167.521326 
L 373.260664 167.733525 
L 373.677215 167.804815 
L 386.069586 169.953286 
L 386.590274 170.047535 
L 387.787856 170.243228 
L 388.93337 170.462689 
L 390.026814 170.652585 
L 392.161635 171.0403 
L 393.150942 171.241517 
L 394.296455 171.449283 
L 395.546106 171.657341 
L 396.327138 171.806712 
L 398.149545 172.148112 
L 402.419186 172.959954 
L 403.200218 173.11964 
L 404.918488 173.449464 
L 405.595382 173.57243 
L 407.469859 173.937932 
L 408.407097 174.143797 
L 410.281573 174.504708 
L 411.062605 174.666354 
L 414.186732 175.297906 
L 414.915695 175.453927 
L 416.321553 175.722847 
L 427.360136 178.075516 
L 427.724618 178.172191 
L 428.245305 178.278721 
L 429.859438 178.643571 
L 432.35874 179.211933 
L 433.087703 179.404308 
L 434.337354 179.682986 
L 435.014248 179.836786 
L 436.003555 180.065571 
L 436.628381 180.224233 
L 437.149068 180.360764 
L 440.064921 181.048494 
L 442.147672 181.576488 
L 442.980773 181.767002 
L 444.230424 182.093011 
L 445.636281 182.455263 
L 461.621399 186.874387 
L 461.985881 187.019371 
L 462.4545 187.133759 
L 463.495876 187.434555 
L 467.296897 188.668423 
L 467.817585 188.832583 
L 468.963098 189.197339 
L 470.681369 189.77973 
L 471.306194 189.974805 
L 472.191363 190.274805 
L 472.712051 190.478018 
L 473.284808 190.674316 
L 474.534459 191.100141 
L 475.679972 191.504115 
L 476.148591 191.665924 
L 476.721348 191.891638 
L 478.127205 192.399377 
L 481.615814 193.771085 
L 481.928227 193.919121 
L 482.65719 194.181361 
L 483.229947 194.423045 
L 484.271322 194.823758 
L 484.531666 194.995964 
L 484.948217 195.114489 
L 485.208561 195.268297 
L 489.374064 197.078971 
L 490.103027 197.431056 
L 490.41544 197.550431 
L 490.675784 197.687838 
L 491.456815 198.032571 
L 491.717159 198.18757 
L 493.799911 199.255266 
L 494.164392 199.435496 
L 495.257837 200.033512 
L 495.726456 200.192977 
L 496.038869 200.41215 
L 499.058859 202.091799 
L 501.089541 203.310494 
L 501.297816 203.429535 
L 503.74505 204.946692 
L 503.953325 205.093317 
L 504.786425 205.625535 
L 505.359182 206.05416 
L 505.515388 206.164648 
L 505.87987 206.485627 
L 506.088145 206.608959 
L 506.400558 206.840816 
L 506.660902 207.02263 
L 507.129521 207.353199 
L 507.59814 207.67099 
L 508.066759 208.070482 
L 509.420548 209.110221 
L 510.097442 209.723387 
L 510.722267 210.272473 
L 511.03468 210.494542 
L 513.898463 213.116527 
L 514.158807 213.415648 
L 514.419151 213.57182 
L 515.200183 214.518739 
L 515.564665 214.829145 
L 515.77294 215.1463 
L 515.929146 215.273399 
L 516.18949 215.575787 
L 516.553972 216.031685 
L 516.918453 216.426998 
L 517.07466 216.672977 
L 517.439141 217.046935 
L 518.011898 217.797189 
L 518.32431 218.096674 
L 519.782237 220.193742 
L 520.094649 220.648187 
L 520.615337 221.44951 
L 520.823612 221.712667 
L 521.240163 222.380905 
L 521.864988 223.295602 
L 522.698089 224.919977 
L 522.854295 225.172187 
L 523.322914 226.099894 
L 523.583258 226.621241 
L 525.613941 231.43018 
L 526.603248 234.398037 
L 526.655317 234.450533 
L 527.123936 236.014908 
L 527.280142 236.747423 
L 527.696693 238.196003 
L 527.957036 239.118887 
L 528.269449 240.587206 
L 528.581862 242.182686 
L 528.790137 243.349603 
L 528.894275 243.569947 
L 529.362894 246.741199 
L 529.831513 249.837309 
L 530.195994 252.534041 
L 530.352201 253.770826 
L 530.872889 260.020343 
L 531.549783 271.227372 
L 531.862196 285.244374 
L 532.174608 340.046158 
L 532.643227 340.046158 
L 532.643227 340.046158 
" clip-path="url(#p1cb2fbd86b)" style="fill: none; stroke: #006400; stroke-width: 3; stroke-linecap: round"/>
   </g>
   <g id="line2d_16">
    <path d="M 106.147777 38.511043 
L 106.356052 48.679602 
L 106.408121 49.095351 
L 106.824671 60.867657 
L 107.761909 73.175354 
L 107.866047 73.547191 
L 107.970184 74.658342 
L 108.386735 77.479409 
L 108.438803 77.6621 
L 108.647078 79.016962 
L 109.063629 82.018404 
L 109.115698 82.086191 
L 109.844661 86.297739 
L 109.948798 86.67102 
L 111.667068 93.716192 
L 111.771206 93.962125 
L 112.135687 95.523752 
L 112.343963 96.262379 
L 112.604306 97.423972 
L 112.708444 97.679134 
L 113.020857 98.686454 
L 113.281201 99.511794 
L 113.906026 101.571426 
L 114.16637 102.338174 
L 114.218439 102.372322 
L 114.478783 103.174048 
L 114.739127 103.807373 
L 115.207746 105.156343 
L 115.728434 106.441399 
L 115.936709 107.004039 
L 116.197053 107.563952 
L 116.821878 108.972027 
L 116.873947 109.019895 
L 117.082222 109.517015 
L 117.342566 109.907205 
L 117.550841 110.569516 
L 117.654979 110.651996 
L 117.915323 111.320514 
L 118.071529 111.599924 
L 118.592217 112.690536 
L 118.748424 112.942433 
L 118.956699 113.39176 
L 119.269111 113.966519 
L 120.050143 115.414477 
L 120.154281 115.604873 
L 120.362556 115.851981 
L 121.351863 117.841397 
L 121.716345 118.425205 
L 121.92462 118.754871 
L 122.028757 118.840222 
L 122.393239 119.54075 
L 122.497376 119.637662 
L 123.851165 121.824646 
L 124.007371 121.891468 
L 124.944609 123.392904 
L 124.996678 123.404115 
L 125.257022 123.813736 
L 125.413229 124.059022 
L 125.881848 124.77419 
L 126.038054 124.978602 
L 126.714948 125.890959 
L 126.819086 125.976066 
L 127.027361 126.279463 
L 127.235636 126.477223 
L 128.120806 127.65986 
L 128.224943 127.736015 
L 128.589425 128.285277 
L 131.505277 131.643826 
L 131.609414 131.78064 
L 132.130102 132.402571 
L 132.338377 132.581671 
L 132.806997 133.057699 
L 133.119409 133.444703 
L 133.327684 133.664751 
L 134.36906 134.766077 
L 135.202161 135.472233 
L 135.566642 135.936057 
L 136.08733 136.372991 
L 136.295605 136.623571 
L 137.961807 138.137866 
L 138.482495 138.577934 
L 139.211458 139.288811 
L 139.52387 139.542276 
L 140.096627 140.05602 
L 141.346278 140.991115 
L 141.606622 141.208199 
L 141.971103 141.50129 
L 142.179379 141.720757 
L 146.553157 145.406442 
L 146.657294 145.519742 
L 146.917638 145.739402 
L 147.542464 146.202312 
L 147.959014 146.574134 
L 148.427633 146.967108 
L 148.740046 147.293382 
L 149.521078 147.853546 
L 149.937628 148.354448 
L 150.250041 148.547591 
L 150.562454 148.884054 
L 151.395554 149.633968 
L 152.02038 150.264615 
L 152.280724 150.489006 
L 152.697274 150.920593 
L 153.061756 151.150092 
L 154.259338 152.393958 
L 154.57175 152.783401 
L 155.300713 153.558292 
L 155.404851 153.664329 
L 155.717264 154.161433 
L 155.925539 154.384689 
L 157.17519 156.247307 
L 157.435534 156.806968 
L 157.539671 156.945489 
L 157.747947 157.484473 
L 158.164497 158.581354 
L 158.424841 159.63785 
L 158.581047 160.549269 
L 158.633116 160.797721 
L 158.841391 170.562258 
L 158.89346 170.661153 
L 160.143111 189.056562 
L 160.299317 323.210905 
L 160.559661 328.31762 
L 160.872074 335.274546 
L 532.434952 335.274546 
L 532.53909 335.720121 
L 532.643227 346.732164 
L 532.643227 346.732164 
" clip-path="url(#p1cb2fbd86b)" style="fill: none; stroke: #3cb371; stroke-width: 3; stroke-linecap: round"/>
   </g>
   <g id="line2d_17">
    <path d="M 106.147777 37.493913 
L 106.303983 45.728504 
L 106.720533 50.135833 
L 106.928808 53.404767 
L 106.980877 53.519484 
L 107.345359 55.498379 
L 107.605703 56.546509 
L 107.813978 57.37367 
L 108.230528 59.33379 
L 109.42811 63.74547 
L 109.532248 63.836367 
L 110.573624 66.941346 
L 110.781899 67.196705 
L 111.510862 68.305705 
L 111.614999 68.51734 
L 112.083619 69.406294 
L 112.135687 69.462698 
L 112.343963 69.966916 
L 112.812582 70.817264 
L 113.437407 71.978314 
L 114.062233 73.104068 
L 114.16637 73.212529 
L 114.426714 73.647464 
L 114.530852 73.755888 
L 114.947402 74.513133 
L 115.259815 74.923868 
L 115.676365 75.706741 
L 115.832571 75.922419 
L 117.134291 77.637987 
L 118.071529 78.749137 
L 121.143588 82.767955 
L 121.299794 82.999567 
L 121.664276 83.377506 
L 122.289101 84.058009 
L 125.048747 87.514572 
L 125.204953 87.703854 
L 125.465297 88.04132 
L 125.673572 88.22311 
L 126.350467 89.080335 
L 126.454604 89.216769 
L 127.027361 89.906485 
L 127.183567 90.142152 
L 127.443911 90.455985 
L 127.652186 90.78373 
L 128.641493 92.106099 
L 128.693562 92.119474 
L 128.953906 92.554772 
L 129.21425 92.882744 
L 129.318388 92.988189 
L 129.526663 93.296355 
L 129.943213 93.985693 
L 130.047351 94.10956 
L 130.255626 94.512364 
L 130.463901 94.762472 
L 131.609414 96.59842 
L 131.869758 96.983968 
L 132.182171 97.577573 
L 132.494584 98.016669 
L 134.525267 101.700839 
L 134.733542 102.19975 
L 134.941817 102.573732 
L 135.826986 104.45481 
L 135.879055 104.467925 
L 136.139399 105.150935 
L 136.243537 105.260053 
L 136.660087 106.13409 
L 137.284912 107.350755 
L 137.8056 108.494944 
L 137.961807 108.72895 
L 140.877659 113.664351 
L 141.138003 113.937373 
L 141.346278 114.239628 
L 142.023172 115.133292 
L 144.001786 117.25414 
L 144.105924 117.364954 
L 144.522474 117.779432 
L 144.67868 117.917517 
L 145.043162 118.294496 
L 145.876263 118.942532 
L 146.240744 119.323165 
L 146.657294 119.627277 
L 147.69867 120.378273 
L 148.063152 120.645707 
L 148.375565 120.881747 
L 149.104528 121.349193 
L 149.312803 121.520528 
L 150.041766 121.954703 
L 150.562454 122.252524 
L 157.227259 125.593315 
L 158.320703 126.027825 
L 158.841391 126.263808 
L 159.466217 126.504486 
L 159.830698 126.660771 
L 161.91345 127.410548 
L 162.486206 127.61117 
L 163.163101 127.825055 
L 166.807916 129.026394 
L 167.380672 129.172764 
L 167.745154 129.304552 
L 168.578255 129.542687 
L 168.994805 129.668231 
L 173.628927 130.935271 
L 174.826509 131.242942 
L 177.065467 131.816113 
L 178.835806 132.240061 
L 185.344405 133.717525 
L 186.489918 133.943209 
L 188.780945 134.440231 
L 189.509908 134.592029 
L 189.874389 134.657726 
L 191.280247 134.942524 
L 192.373691 135.145446 
L 198.257464 136.273163 
L 204.349513 137.395072 
L 205.33882 137.570833 
L 206.536402 137.784807 
L 207.265365 137.899089 
L 215.960853 139.365591 
L 216.481541 139.453286 
L 258.709328 145.840527 
L 259.802773 145.993256 
L 261.260699 146.206667 
L 263.447588 146.507597 
L 264.124482 146.616234 
L 265.061721 146.753896 
L 269.435499 147.369968 
L 270.216531 147.486889 
L 271.778594 147.701182 
L 272.507558 147.817529 
L 273.288589 147.926477 
L 275.631685 148.25064 
L 279.536844 148.79819 
L 286.305787 149.764626 
L 310.361567 153.161537 
L 311.715356 153.346737 
L 312.548456 153.482032 
L 313.850176 153.647616 
L 315.099827 153.847018 
L 316.193272 153.994189 
L 317.286716 154.147183 
L 332.022183 156.298025 
L 334.885967 156.721124 
L 337.124925 157.049221 
L 338.270438 157.221405 
L 341.915253 157.769668 
L 343.008698 157.925055 
L 344.726968 158.191386 
L 347.330407 158.585949 
L 348.788333 158.812384 
L 352.224874 159.331558 
L 353.474524 159.525353 
L 356.130033 159.94034 
L 360.035192 160.545133 
L 360.97243 160.690229 
L 398.774371 167.033756 
L 399.347128 167.147773 
L 403.460562 167.902824 
L 404.189525 168.030468 
L 405.022626 168.194573 
L 411.322949 169.376982 
L 411.635362 169.446169 
L 413.041219 169.725282 
L 414.447076 170.017462 
L 416.269484 170.359261 
L 417.258791 170.560901 
L 418.924992 170.878953 
L 420.695331 171.220101 
L 421.268088 171.3696 
L 424.236009 171.977443 
L 424.60049 172.059388 
L 425.537728 172.2348 
L 426.527035 172.453989 
L 431.004951 173.416191 
L 431.577708 173.538284 
L 435.118386 174.315404 
L 435.691142 174.460238 
L 442.043535 175.907462 
L 442.66836 176.047036 
L 444.542836 176.494273 
L 445.011456 176.617132 
L 455.945901 179.373806 
L 456.206245 179.459254 
L 456.674864 179.583962 
L 460.163473 180.529489 
L 461.15278 180.818477 
L 478.127205 186.140531 
L 478.543756 186.303732 
L 479.376856 186.568824 
L 482.084433 187.558701 
L 482.65719 187.771018 
L 483.07374 187.91782 
L 483.646497 188.14602 
L 485.885455 189.016495 
L 487.447519 189.640767 
L 487.916138 189.838823 
L 488.280619 189.986872 
L 492.237847 191.68663 
L 492.498191 191.818489 
L 494.424736 192.721999 
L 494.893355 192.943886 
L 495.361975 193.129392 
L 495.674387 193.273238 
L 496.195075 193.586866 
L 500.777129 195.90906 
L 500.985404 196.074608 
L 501.506092 196.351333 
L 501.818504 196.582207 
L 502.078848 196.711135 
L 502.599536 196.998718 
L 502.807811 197.118396 
L 503.224362 197.3844 
L 503.640912 197.604499 
L 505.202976 198.58592 
L 505.671595 198.857131 
L 505.931939 199.060386 
L 512.75295 204.064395 
L 513.1695 204.486731 
L 513.533982 204.757898 
L 514.05467 205.322007 
L 514.262945 205.456392 
L 517.439141 208.625666 
L 517.855691 209.049844 
L 518.79293 210.009391 
L 519.157411 210.694967 
L 519.573961 211.121342 
L 519.990512 211.589504 
L 520.146718 211.849898 
L 520.563268 212.364724 
L 521.812919 214.197422 
L 523.999808 217.911107 
L 524.208084 218.314508 
L 524.260152 218.336878 
L 524.468428 218.841068 
L 526.08256 222.252362 
L 526.551179 223.578582 
L 526.759454 224.200918 
L 527.123936 225.193623 
L 527.176005 225.252397 
L 527.38428 226.027874 
L 527.488417 226.268706 
L 527.748761 227.215334 
L 528.009105 227.824765 
L 528.165312 228.488331 
L 528.269449 228.661079 
L 528.529793 229.684488 
L 528.633931 229.818273 
L 530.300132 238.668959 
L 530.508407 240.003708 
L 531.081164 245.777456 
L 531.966333 257.915827 
L 532.174608 264.736885 
L 532.278746 267.491004 
L 532.53909 281.885464 
L 532.643227 317.800769 
L 532.643227 317.800769 
" clip-path="url(#p1cb2fbd86b)" style="fill: none; stroke: #ff8c00; stroke-width: 3; stroke-linecap: round"/>
   </g>
   <g id="line2d_18">
    <path d="M 106.147777 39.344619 
L 106.356052 47.870784 
L 106.824671 59.781588 
L 106.87674 59.845973 
L 107.397428 68.03595 
L 107.449496 68.07281 
L 107.70984 71.008491 
L 108.386735 77.627718 
L 108.542941 78.467558 
L 109.115698 82.074748 
L 109.792592 85.366843 
L 110.000867 86.563823 
L 110.052936 86.596064 
L 110.261211 87.759447 
L 112.812582 97.911139 
L 113.072926 98.542716 
L 113.489476 100.049117 
L 116.613603 107.531684 
L 119.112905 112.358544 
L 119.269111 112.498886 
L 119.581524 113.081269 
L 119.685662 113.213005 
L 121.03945 115.246062 
L 121.143588 115.375143 
L 121.403932 115.883628 
L 122.132895 116.760455 
L 122.34117 117.073713 
L 122.965995 117.953731 
L 123.330477 118.422226 
L 123.538752 118.639357 
L 124.007371 119.278144 
L 124.215646 119.485213 
L 124.684266 120.095359 
L 124.944609 120.327282 
L 125.465297 121.018117 
L 125.673572 121.242636 
L 125.985985 121.68429 
L 126.090123 121.773138 
L 126.350467 122.044591 
L 126.402536 122.060708 
L 126.558742 122.324814 
L 127.027361 122.800978 
L 128.38115 124.301492 
L 128.745631 124.663053 
L 129.526663 125.433621 
L 129.787007 125.705562 
L 129.995282 125.894778 
L 130.411832 126.295358 
L 130.828383 126.703791 
L 131.765621 127.562948 
L 131.973896 127.812524 
L 132.390446 128.128722 
L 132.911134 128.608779 
L 133.900441 129.482898 
L 138.951114 133.714965 
L 139.315595 134.004312 
L 139.680077 134.311236 
L 140.200765 134.758265 
L 140.617315 135.094642 
L 140.773521 135.239736 
L 141.085934 135.526324 
L 141.450416 135.797235 
L 142.491791 136.560791 
L 142.752135 136.769303 
L 143.376961 137.324096 
L 143.585236 137.47093 
L 146.449019 139.750966 
L 147.802808 140.834389 
L 148.635908 141.521478 
L 148.896252 141.753319 
L 152.749343 145.152599 
L 153.009687 145.419337 
L 153.113824 145.535717 
L 153.322099 145.765208 
L 153.478306 145.885389 
L 153.686581 146.118564 
L 157.018983 150.048696 
L 157.331396 150.581494 
L 157.487603 150.839453 
L 158.060359 152.064602 
L 158.581047 154.122558 
L 158.633116 154.750646 
L 158.89346 162.663847 
L 158.945529 162.917569 
L 159.362079 169.542996 
L 159.466217 170.086671 
L 159.622423 175.176798 
L 160.091042 184.303649 
L 160.143111 188.101526 
L 160.299317 321.872876 
L 160.351386 322.304958 
L 160.559661 327.776517 
L 160.61173 327.824649 
L 160.872074 335.557867 
L 161.02828 335.797603 
L 532.434952 335.797603 
L 532.643227 341.729752 
L 532.643227 341.729752 
" clip-path="url(#p1cb2fbd86b)" style="fill: none; stroke: #ffa500; stroke-width: 3; stroke-linecap: round"/>
   </g>
   <g id="line2d_19">
    <path d="M 106.147777 45.826833 
L 106.460189 53.274789 
L 106.87674 56.990948 
L 106.980877 57.619286 
L 107.501565 60.846719 
L 107.553634 60.930932 
L 107.866047 62.44368 
L 108.699147 66.333763 
L 108.855354 66.84878 
L 109.115698 67.783424 
L 109.167766 67.805808 
L 109.636385 69.184796 
L 109.688454 69.246527 
L 109.948798 70.163133 
L 110.052936 70.483258 
L 111.14638 73.066982 
L 111.198449 73.084536 
L 111.510862 73.68946 
L 112.968788 76.394272 
L 113.124994 76.791902 
L 113.281201 76.957994 
L 113.541545 77.461549 
L 113.801889 77.840949 
L 114.58292 78.892633 
L 114.739127 79.018803 
L 115.624296 80.499112 
L 115.780503 80.690289 
L 116.665672 81.902029 
L 117.446704 82.884361 
L 117.811185 83.321657 
L 117.915323 83.492892 
L 118.540148 84.370066 
L 118.644286 84.495886 
L 119.060836 85.020281 
L 119.217043 85.178382 
L 119.373249 85.453808 
L 119.477387 85.519571 
L 119.789799 85.853263 
L 119.893937 85.992367 
L 120.883244 87.211147 
L 121.091519 87.511984 
L 121.820482 88.298731 
L 122.184964 88.78992 
L 122.34117 88.921613 
L 122.75772 89.389476 
L 123.174271 89.77435 
L 123.434615 90.098635 
L 123.590821 90.168085 
L 123.851165 90.536524 
L 124.47599 91.235896 
L 126.975292 93.737827 
L 127.235636 94.038639 
L 128.589425 95.401371 
L 128.953906 95.831436 
L 129.370457 96.189244 
L 129.734938 96.66513 
L 129.943213 96.849 
L 130.51597 97.478079 
L 130.776314 97.682748 
L 131.192864 98.224499 
L 132.338377 99.61465 
L 132.65079 99.97344 
L 133.119409 100.473404 
L 133.53596 101.035198 
L 134.004579 101.551719 
L 134.160785 101.829997 
L 134.36906 102.022074 
L 134.629404 102.412084 
L 136.868362 105.064883 
L 137.076637 105.368002 
L 137.336981 105.675529 
L 137.597325 106.123008 
L 137.753532 106.236463 
L 137.961807 106.478425 
L 138.170082 106.787901 
L 139.315595 108.253814 
L 139.940421 109.029938 
L 144.574543 114.827083 
L 144.730749 115.008388 
L 144.939024 115.247614 
L 145.1473 115.44665 
L 145.615919 115.977371 
L 145.9804 116.356671 
L 146.292813 116.764998 
L 146.449019 116.932748 
L 147.177982 117.634729 
L 147.69867 118.103713 
L 147.959014 118.364587 
L 148.219358 118.581207 
L 150.093835 120.252793 
L 150.197972 120.333503 
L 150.406247 120.527661 
L 150.822798 120.813962 
L 151.499692 121.281311 
L 151.864173 121.573981 
L 152.593136 122.122647 
L 152.957618 122.364984 
L 158.528978 125.506916 
L 159.101735 125.804439 
L 159.31001 125.908768 
L 163.215169 127.607072 
L 164.412752 128.115879 
L 164.673095 128.221223 
L 165.297921 128.486372 
L 166.964122 129.089156 
L 168.005498 129.437805 
L 168.994805 129.789487 
L 169.671699 129.997875 
L 171.442038 130.572511 
L 171.858588 130.704215 
L 172.22307 130.84199 
L 173.212377 131.108677 
L 174.462028 131.495698 
L 175.034784 131.666436 
L 176.128229 131.982055 
L 176.492711 132.097305 
L 180.189595 133.066316 
L 180.554076 133.177431 
L 181.022695 133.286433 
L 183.730272 133.976178 
L 184.459235 134.152056 
L 185.13613 134.310127 
L 187.635431 134.877065 
L 188.520601 135.091897 
L 189.614045 135.333139 
L 192.061278 135.871514 
L 196.330919 136.744307 
L 196.591263 136.807286 
L 197.372295 136.975171 
L 197.945052 137.095111 
L 198.830221 137.270798 
L 201.121248 137.721945 
L 203.256068 138.128239 
L 203.672618 138.203212 
L 204.245375 138.320814 
L 205.911576 138.613935 
L 208.306741 139.065693 
L 210.025011 139.367433 
L 211.170524 139.570535 
L 211.691212 139.666919 
L 213.305344 139.951939 
L 216.117059 140.442526 
L 219.189118 140.950226 
L 220.490837 141.175365 
L 221.323938 141.331118 
L 225.645647 142.035718 
L 226.322542 142.152589 
L 227.832537 142.397964 
L 231.008733 142.911688 
L 231.841833 143.036789 
L 232.41459 143.126612 
L 233.351828 143.284257 
L 235.330442 143.596527 
L 236.632162 143.799462 
L 239.339739 144.206757 
L 240.276977 144.365733 
L 241.943178 144.608334 
L 242.463866 144.698393 
L 266.727922 148.336239 
L 268.862742 148.641407 
L 295.157481 152.465553 
L 296.250925 152.612654 
L 301.19746 153.337462 
L 302.759524 153.561699 
L 303.8009 153.71608 
L 310.778117 154.744309 
L 311.923631 154.92148 
L 328.898056 157.441472 
L 329.470813 157.540337 
L 331.084945 157.781387 
L 332.17839 157.948158 
L 333.792522 158.194837 
L 334.365279 158.283794 
L 336.187686 158.556525 
L 339.311814 159.035388 
L 341.342497 159.345201 
L 342.540079 159.534087 
L 362.482425 162.704017 
L 363.627938 162.886781 
L 364.40897 163.013133 
L 367.324822 163.489489 
L 368.001717 163.615392 
L 372.011013 164.276054 
L 375.187209 164.800991 
L 378.571681 165.389983 
L 379.560988 165.558687 
L 381.227189 165.849537 
L 383.414078 166.229793 
L 387.996132 167.043585 
L 389.141645 167.223177 
L 389.662333 167.334567 
L 392.109566 167.782103 
L 398.722302 169.012507 
L 399.451265 169.145158 
L 400.128159 169.265164 
L 401.117466 169.453192 
L 413.770182 171.908582 
L 414.238801 171.999813 
L 415.644659 172.284231 
L 416.633966 172.506326 
L 419.237405 173.030031 
L 420.226712 173.222514 
L 423.194633 173.858199 
L 441.835259 178.058718 
L 442.199741 178.165854 
L 443.032842 178.356268 
L 447.614895 179.504869 
L 448.187652 179.640939 
L 449.072821 179.873764 
L 449.95799 180.08802 
L 450.374541 180.208144 
L 451.572123 180.51896 
L 455.269007 181.516471 
L 456.726933 181.909469 
L 457.195552 182.021082 
L 457.976584 182.257609 
L 458.393134 182.373487 
L 459.174166 182.594808 
L 459.642785 182.715838 
L 460.371748 182.934066 
L 464.693458 184.17057 
L 466.047246 184.574332 
L 467.036553 184.903279 
L 467.921723 185.18951 
L 476.20066 187.894099 
L 476.513073 188.006149 
L 477.398242 188.327185 
L 485.208561 191.263651 
L 485.885455 191.555443 
L 486.822693 191.902959 
L 487.239243 192.079063 
L 488.22855 192.523879 
L 488.905445 192.807063 
L 489.894752 193.216185 
L 490.83199 193.63372 
L 491.196471 193.824703 
L 491.456815 193.942293 
L 499.891959 198.149462 
L 500.72506 198.585939 
L 501.297816 198.88313 
L 502.339192 199.49157 
L 502.547467 199.631558 
L 503.27643 200.056846 
L 509.108135 203.962157 
L 509.524685 204.317026 
L 511.295024 205.638824 
L 512.544675 206.714211 
L 512.700881 206.860459 
L 512.909156 207.078649 
L 513.117432 207.204126 
L 513.638119 207.66813 
L 514.731564 208.70035 
L 514.991908 208.9124 
L 515.408458 209.306886 
L 515.929146 209.755965 
L 516.137421 209.997859 
L 516.60604 210.452816 
L 520.198787 214.659613 
L 520.5112 215.159327 
L 520.667406 215.289961 
L 520.92775 215.666648 
L 521.760851 216.942328 
L 521.969126 217.229512 
L 522.22947 217.777326 
L 524.260152 221.18922 
L 524.468428 221.564148 
L 524.728772 221.993473 
L 524.832909 222.228453 
L 525.145322 223.046999 
L 525.457735 223.850034 
L 525.822216 224.699839 
L 526.915661 227.457417 
L 527.071867 228.054289 
L 527.176005 228.270058 
L 528.633931 233.16476 
L 528.998412 235.065438 
L 529.310825 236.313458 
L 530.195994 241.119732 
L 530.40427 242.530509 
L 530.456338 242.724022 
L 530.768751 245.225473 
L 530.82082 245.304996 
L 531.393577 251.941621 
L 531.549783 253.880539 
L 532.018402 263.242958 
L 532.487021 281.571945 
L 532.591159 294.810578 
L 532.643227 324.72416 
L 532.643227 324.72416 
" clip-path="url(#p1cb2fbd86b)" style="fill: none; stroke: #4169e1; stroke-width: 3; stroke-linecap: round"/>
   </g>
   <g id="line2d_20">
    <path d="M 106.147777 40.755348 
L 106.356052 56.971308 
L 106.616396 64.173329 
L 106.668465 64.437795 
L 106.87674 67.875247 
L 107.241221 73.342511 
L 107.449496 76.313568 
L 107.866047 79.730729 
L 108.126391 81.647286 
L 108.334666 82.940934 
L 108.542941 84.605447 
L 109.01156 87.028683 
L 109.376042 88.933124 
L 109.480179 89.011376 
L 109.792592 90.871128 
L 109.896729 91.338554 
L 110.677761 94.806392 
L 112.135687 99.81244 
L 112.291894 100.120013 
L 112.552238 101.208018 
L 112.760513 101.914349 
L 112.968788 102.48678 
L 113.906026 104.978186 
L 114.218439 105.852476 
L 114.426714 106.220122 
L 114.634989 106.767216 
L 117.030154 111.920308 
L 117.18636 112.11321 
L 117.811185 113.415489 
L 117.967392 113.575676 
L 118.696355 114.900126 
L 119.164974 115.640571 
L 119.269111 115.77817 
L 122.393239 120.360854 
L 125.985985 124.615115 
L 126.246329 124.873801 
L 127.756324 126.458782 
L 127.91253 126.586395 
L 128.38115 127.118836 
L 128.7977 127.511606 
L 129.110113 127.824021 
L 129.943213 128.600985 
L 130.359764 129.003755 
L 132.859065 131.223452 
L 133.223547 131.532325 
L 133.588028 131.793052 
L 134.733542 132.804197 
L 134.889748 132.919485 
L 135.410436 133.350374 
L 137.024569 134.710532 
L 137.284912 134.937892 
L 137.753532 135.327441 
L 138.118013 135.608966 
L 139.159389 136.458876 
L 139.628008 136.828217 
L 140.40904 137.455083 
L 140.929728 137.882894 
L 141.866966 138.650332 
L 142.647998 139.288107 
L 142.908342 139.458375 
L 144.26213 140.481859 
L 144.626612 140.749881 
L 144.939024 141.01101 
L 145.667987 141.583977 
L 147.542464 143.142416 
L 147.854877 143.365454 
L 148.115221 143.545355 
L 150.562454 145.606833 
L 150.770729 145.783894 
L 151.13521 146.134233 
L 151.343485 146.286953 
L 151.551761 146.506444 
L 151.760036 146.607251 
L 152.124517 147.027455 
L 152.488999 147.350686 
L 152.697274 147.569205 
L 153.009687 147.884186 
L 154.103131 148.993083 
L 154.259338 149.148606 
L 155.04037 149.978393 
L 155.196576 150.21015 
L 155.561057 150.595299 
L 155.821401 150.951654 
L 156.914846 152.629725 
L 157.487603 153.571402 
L 157.747947 154.087604 
L 158.320703 155.949598 
L 158.89346 163.772457 
L 159.101735 170.393997 
L 159.257941 172.433797 
L 159.414148 174.975755 
L 159.466217 175.161809 
L 159.726561 178.832986 
L 159.830698 180.854222 
L 159.934836 183.194526 
L 160.091042 189.883062 
L 160.143111 190.567189 
L 160.299317 330.349141 
L 160.61173 337.263494 
L 532.487021 337.263494 
L 532.53909 337.920205 
L 532.643227 345.792864 
L 532.643227 345.792864 
" clip-path="url(#p1cb2fbd86b)" style="fill: none; stroke: #87ceeb; stroke-width: 3; stroke-linecap: round"/>
   </g>
   <g id="patch_3">
    <path d="M 84.823004 362.194077 
L 84.823004 22.032 
" style="fill: none; stroke: #cccccc; stroke-width: 1.25; stroke-linejoin: miter; stroke-linecap: square"/>
   </g>
   <g id="patch_4">
    <path d="M 553.968 362.194077 
L 553.968 22.032 
" style="fill: none; stroke: #cccccc; stroke-width: 1.25; stroke-linejoin: miter; stroke-linecap: square"/>
   </g>
   <g id="patch_5">
    <path d="M 84.823004 362.194077 
L 553.968 362.194077 
" style="fill: none; stroke: #cccccc; stroke-width: 1.25; stroke-linejoin: miter; stroke-linecap: square"/>
   </g>
   <g id="patch_6">
    <path d="M 84.823004 22.032 
L 553.968 22.032 
" style="fill: none; stroke: #cccccc; stroke-width: 1.25; stroke-linejoin: miter; stroke-linecap: square"/>
   </g>
   <g id="legend_1">
    <g id="patch_7">
     <path d="M 333.800706 158.918177 
L 544.168 158.918177 
Q 546.968 158.918177 546.968 156.118177 
L 546.968 31.832 
Q 546.968 29.032 544.168 29.032 
L 333.800706 29.032 
Q 331.000706 29.032 331.000706 31.832 
L 331.000706 156.118177 
Q 331.000706 158.918177 333.800706 158.918177 
z
" style="fill: #ffffff; opacity: 0.8; stroke: #cccccc; stroke-linejoin: miter"/>
    </g>
    <g id="line2d_21">
     <path d="M 336.600706 40.192772 
L 350.600706 40.192772 
L 364.600706 40.192772 
" style="fill: none; stroke: #006400; stroke-width: 3; stroke-linecap: round"/>
    </g>
    <g id="text_17">
     <!-- LuXry (train) c=10 -->
     <g style="fill: #262626" transform="translate(375.800706 45.092772) scale(0.14 -0.14)">
      <defs>
       <path id="CMSS17-58" d="M 2214 2329 
L 3661 4416 
L 3072 4416 
L 1952 2762 
L 800 4416 
L 166 4416 
L 1690 2329 
L 83 0 
L 672 0 
L 1952 1941 
L 3277 0 
L 3910 0 
L 2214 2329 
z
" transform="scale(0.015625)"/>
       <path id="CMSS17-79" d="M 2675 2752 
L 2176 2752 
C 1632 1294 1446 702 1434 383 
L 1427 383 
C 1408 696 1126 1460 902 2007 
L 602 2752 
L 83 2752 
L 1216 13 
C 1146 -178 1043 -465 1011 -529 
C 870 -885 774 -885 672 -885 
C 646 -885 442 -885 211 -809 
L 250 -1229 
C 410 -1261 570 -1280 685 -1280 
C 845 -1280 1165 -1280 1459 -497 
L 2675 2752 
z
" transform="scale(0.015625)"/>
       <path id="CMSS17-28" d="M 1613 4768 
C 1267 4417 474 3601 474 1588 
C 474 -433 1267 -1243 1613 -1600 
L 2003 -1600 
C 1216 -784 960 357 960 1581 
C 960 2798 1203 3946 2003 4768 
L 1613 4768 
z
" transform="scale(0.015625)"/>
       <path id="CMSS17-29" d="M 723 -1600 
C 1069 -1249 1862 -433 1862 1581 
C 1862 3601 1069 4411 723 4768 
L 333 4768 
C 1120 3952 1376 2811 1376 1588 
C 1376 370 1133 -778 333 -1600 
L 723 -1600 
z
" transform="scale(0.015625)"/>
       <path id="CMSS17-63" d="M 2464 2541 
C 2464 2585 2170 2714 2093 2739 
C 1882 2816 1613 2816 1542 2816 
C 710 2816 211 2093 211 1363 
C 211 595 768 -64 1517 -64 
C 1946 -64 2253 76 2502 242 
L 2464 664 
C 2189 453 1869 337 1523 337 
C 1024 337 698 774 698 1369 
C 698 1831 909 2414 1549 2414 
C 1901 2414 2099 2343 2394 2145 
L 2464 2541 
z
" transform="scale(0.015625)"/>
       <path id="CMSS17-3d" d="M 4147 2017 
C 4243 2017 4339 2017 4339 2125 
C 4339 2240 4230 2240 4122 2240 
L 550 2240 
C 442 2240 333 2240 333 2125 
C 333 2017 429 2017 525 2017 
L 4147 2017 
z
M 4122 896 
C 4230 896 4339 896 4339 1011 
C 4339 1119 4243 1119 4147 1119 
L 525 1119 
C 429 1119 333 1119 333 1011 
C 333 896 442 896 550 896 
L 4122 896 
z
" transform="scale(0.015625)"/>
       <path id="CMSS17-31" d="M 1818 4288 
L 1696 4288 
C 1350 3940 947 3890 538 3890 
L 538 3520 
C 723 3520 1024 3520 1325 3667 
L 1325 369 
L 570 369 
L 570 0 
L 2573 0 
L 2573 369 
L 1818 369 
L 1818 4288 
z
" transform="scale(0.015625)"/>
       <path id="CMSS17-30" d="M 2758 2044 
C 2758 2405 2752 3077 2490 3596 
C 2227 4096 1805 4229 1504 4229 
C 1069 4229 698 3975 506 3570 
C 301 3146 243 2709 243 2044 
C 243 1589 262 1031 493 543 
C 755 5 1197 -128 1498 -128 
C 1894 -128 2278 81 2496 518 
C 2720 974 2758 1474 2758 2044 
z
M 1498 261 
C 1011 261 864 811 819 995 
C 742 1310 730 1614 730 2114 
C 730 2506 730 2948 851 3297 
C 998 3701 1254 3840 1498 3840 
C 1971 3840 2125 3372 2176 3208 
C 2272 2873 2272 2481 2272 2114 
C 2272 1526 2272 261 1498 261 
z
" transform="scale(0.015625)"/>
      </defs>
      <use xlink:href="#CMSS17-4c" transform="scale(0.996264)"/>
      <use xlink:href="#CMSS17-75" transform="translate(50.687105 0) scale(0.996264)"/>
      <use xlink:href="#CMSS17-58" transform="translate(98.892048 0) scale(0.996264)"/>
      <use xlink:href="#CMSS17-72" transform="translate(161.109903 0) scale(0.996264)"/>
      <use xlink:href="#CMSS17-79" transform="translate(193.019676 0) scale(0.996264)"/>
      <use xlink:href="#CMSS17-28" transform="translate(267.24893 0) scale(0.996264)"/>
      <use xlink:href="#CMSS17-74" transform="translate(303.682845 0) scale(0.996264)"/>
      <use xlink:href="#CMSS17-72" transform="translate(337.514411 0) scale(0.996264)"/>
      <use xlink:href="#CMSS17-61" transform="translate(369.424184 0) scale(0.996264)"/>
      <use xlink:href="#CMSS17-69" transform="translate(414.346104 0) scale(0.996264)"/>
      <use xlink:href="#CMSS17-6e" transform="translate(436.526827 0) scale(0.996264)"/>
      <use xlink:href="#CMSS17-29" transform="translate(484.731771 0) scale(0.996264)"/>
      <use xlink:href="#CMSS17-63" transform="translate(552.394798 0) scale(0.996264)"/>
      <use xlink:href="#CMSS17-3d" transform="translate(594.03362 0) scale(0.996264)"/>
      <use xlink:href="#CMSS17-31" transform="translate(666.901554 0) scale(0.996264)"/>
      <use xlink:href="#CMSS17-30" transform="translate(713.745178 0) scale(0.996264)"/>
     </g>
    </g>
    <g id="line2d_22">
     <path d="M 336.600706 61.140468 
L 350.600706 61.140468 
L 364.600706 61.140468 
" style="fill: none; stroke: #3cb371; stroke-width: 3; stroke-linecap: round"/>
    </g>
    <g id="text_18">
     <!-- Downstream (external) c=10 -->
     <g style="fill: #262626" transform="translate(375.800706 66.040468) scale(0.14 -0.14)">
      <defs>
       <path id="CMSS17-44" d="M 570 4416 
L 570 0 
L 2144 0 
C 3194 0 4000 980 4000 2170 
C 4000 3398 3194 4416 2144 4416 
L 570 4416 
z
M 1094 357 
L 1094 4059 
L 2003 4059 
C 2861 4059 3475 3277 3475 2170 
C 3475 1107 2867 357 2003 357 
L 1094 357 
z
" transform="scale(0.015625)"/>
       <path id="CMSS17-77" d="M 4013 2752 
L 3526 2752 
L 3187 1601 
C 3117 1358 2918 685 2893 371 
L 2886 371 
C 2874 564 2765 1024 2586 1633 
L 2259 2752 
L 1818 2752 
L 1498 1658 
C 1338 1101 1216 627 1203 371 
L 1197 371 
C 1171 749 909 1633 870 1773 
L 582 2752 
L 83 2752 
L 915 0 
L 1402 0 
C 1734 1096 1990 1943 2010 2370 
C 2022 2160 2131 1707 2195 1484 
L 2618 0 
L 3181 0 
L 4013 2752 
z
" transform="scale(0.015625)"/>
       <path id="CMSS17-73" d="M 2061 2627 
C 1683 2807 1389 2807 1197 2807 
C 742 2807 198 2648 198 2003 
C 198 1359 902 1218 1094 1179 
C 1389 1122 1715 1058 1715 740 
C 1715 337 1254 337 1171 337 
C 915 337 563 407 243 638 
L 166 210 
C 531 0 883 -64 1178 -64 
C 1965 -64 2163 416 2163 781 
C 2163 1094 1984 1305 1862 1401 
C 1651 1568 1574 1587 1050 1696 
C 960 1709 646 1779 646 2066 
C 646 2432 1050 2432 1139 2432 
C 1555 2432 1811 2303 1984 2208 
L 2061 2627 
z
" transform="scale(0.015625)"/>
      </defs>
      <use xlink:href="#CMSS17-44" transform="scale(0.996264)"/>
      <use xlink:href="#CMSS17-6f" transform="translate(67.542842 0) scale(0.996264)"/>
      <use xlink:href="#CMSS17-77" transform="translate(111.784011 0) scale(0.996264)"/>
      <use xlink:href="#CMSS17-6e" transform="translate(175.603556 0) scale(0.996264)"/>
      <use xlink:href="#CMSS17-73" transform="translate(223.808499 0) scale(0.996264)"/>
      <use xlink:href="#CMSS17-74" transform="translate(259.722041 0) scale(0.996264)"/>
      <use xlink:href="#CMSS17-72" transform="translate(293.553608 0) scale(0.996264)"/>
      <use xlink:href="#CMSS17-65" transform="translate(325.463381 0) scale(0.996264)"/>
      <use xlink:href="#CMSS17-61" transform="translate(367.102203 0) scale(0.996264)"/>
      <use xlink:href="#CMSS17-6d" transform="translate(412.024123 0) scale(0.996264)"/>
      <use xlink:href="#CMSS17-28" transform="translate(517.482491 0) scale(0.996264)"/>
      <use xlink:href="#CMSS17-65" transform="translate(553.916405 0) scale(0.996264)"/>
      <use xlink:href="#CMSS17-78" transform="translate(595.555227 0) scale(0.996264)"/>
      <use xlink:href="#CMSS17-74" transform="translate(638.555369 0) scale(0.996264)"/>
      <use xlink:href="#CMSS17-65" transform="translate(672.386935 0) scale(0.996264)"/>
      <use xlink:href="#CMSS17-72" transform="translate(714.025757 0) scale(0.996264)"/>
      <use xlink:href="#CMSS17-6e" transform="translate(745.93553 0) scale(0.996264)"/>
      <use xlink:href="#CMSS17-61" transform="translate(794.140473 0) scale(0.996264)"/>
      <use xlink:href="#CMSS17-6c" transform="translate(839.062394 0) scale(0.996264)"/>
      <use xlink:href="#CMSS17-29" transform="translate(861.243117 0) scale(0.996264)"/>
      <use xlink:href="#CMSS17-63" transform="translate(928.906144 0) scale(0.996264)"/>
      <use xlink:href="#CMSS17-3d" transform="translate(970.544966 0) scale(0.996264)"/>
      <use xlink:href="#CMSS17-31" transform="translate(1043.4129 0) scale(0.996264)"/>
      <use xlink:href="#CMSS17-30" transform="translate(1090.256524 0) scale(0.996264)"/>
     </g>
    </g>
    <g id="line2d_23">
     <path d="M 336.600706 82.088164 
L 350.600706 82.088164 
L 364.600706 82.088164 
" style="fill: none; stroke: #ff8c00; stroke-width: 3; stroke-linecap: round"/>
    </g>
    <g id="text_19">
     <!-- LuXry (train) c=25 -->
     <g style="fill: #262626" transform="translate(375.800706 86.988164) scale(0.14 -0.14)">
      <defs>
       <path id="CMSS17-32" d="M 1651 1357 
C 1830 1541 2099 1764 2285 1987 
C 2464 2204 2701 2511 2701 2957 
C 2701 3657 2227 4288 1421 4288 
C 787 4288 422 3893 250 3274 
L 499 2929 
C 640 3510 838 3880 1338 3880 
C 1888 3880 2195 3433 2195 2942 
C 2195 2355 1747 1901 1408 1563 
C 1030 1187 659 804 301 408 
L 301 0 
L 2701 0 
L 2701 433 
L 1613 433 
C 1536 433 1459 433 1382 433 
L 742 433 
L 742 439 
L 1651 1357 
z
" transform="scale(0.015625)"/>
       <path id="CMSS17-35" d="M 934 3752 
L 2502 3752 
L 2502 4160 
L 467 4160 
L 467 1781 
L 896 1781 
C 1011 2046 1248 2240 1555 2240 
C 1843 2240 2163 1989 2163 1266 
C 2163 493 1709 267 1376 267 
C 966 267 589 512 422 851 
L 218 499 
C 512 49 992 -128 1376 -128 
C 2118 -128 2701 497 2701 1253 
C 2701 2030 2182 2629 1562 2629 
C 1338 2629 1120 2553 934 2399 
L 934 3752 
z
" transform="scale(0.015625)"/>
      </defs>
      <use xlink:href="#CMSS17-4c" transform="scale(0.996264)"/>
      <use xlink:href="#CMSS17-75" transform="translate(50.687105 0) scale(0.996264)"/>
      <use xlink:href="#CMSS17-58" transform="translate(98.892048 0) scale(0.996264)"/>
      <use xlink:href="#CMSS17-72" transform="translate(161.109903 0) scale(0.996264)"/>
      <use xlink:href="#CMSS17-79" transform="translate(193.019676 0) scale(0.996264)"/>
      <use xlink:href="#CMSS17-28" transform="translate(267.24893 0) scale(0.996264)"/>
      <use xlink:href="#CMSS17-74" transform="translate(303.682845 0) scale(0.996264)"/>
      <use xlink:href="#CMSS17-72" transform="translate(337.514411 0) scale(0.996264)"/>
      <use xlink:href="#CMSS17-61" transform="translate(369.424184 0) scale(0.996264)"/>
      <use xlink:href="#CMSS17-69" transform="translate(414.346104 0) scale(0.996264)"/>
      <use xlink:href="#CMSS17-6e" transform="translate(436.526827 0) scale(0.996264)"/>
      <use xlink:href="#CMSS17-29" transform="translate(484.731771 0) scale(0.996264)"/>
      <use xlink:href="#CMSS17-63" transform="translate(552.394798 0) scale(0.996264)"/>
      <use xlink:href="#CMSS17-3d" transform="translate(594.03362 0) scale(0.996264)"/>
      <use xlink:href="#CMSS17-32" transform="translate(666.901554 0) scale(0.996264)"/>
      <use xlink:href="#CMSS17-35" transform="translate(713.745178 0) scale(0.996264)"/>
     </g>
    </g>
    <g id="line2d_24">
     <path d="M 336.600706 103.035861 
L 350.600706 103.035861 
L 364.600706 103.035861 
" style="fill: none; stroke: #ffa500; stroke-width: 3; stroke-linecap: round"/>
    </g>
    <g id="text_20">
     <!-- Downstream (external) c=25 -->
     <g style="fill: #262626" transform="translate(375.800706 107.935861) scale(0.14 -0.14)">
      <use xlink:href="#CMSS17-44" transform="scale(0.996264)"/>
      <use xlink:href="#CMSS17-6f" transform="translate(67.542842 0) scale(0.996264)"/>
      <use xlink:href="#CMSS17-77" transform="translate(111.784011 0) scale(0.996264)"/>
      <use xlink:href="#CMSS17-6e" transform="translate(175.603556 0) scale(0.996264)"/>
      <use xlink:href="#CMSS17-73" transform="translate(223.808499 0) scale(0.996264)"/>
      <use xlink:href="#CMSS17-74" transform="translate(259.722041 0) scale(0.996264)"/>
      <use xlink:href="#CMSS17-72" transform="translate(293.553608 0) scale(0.996264)"/>
      <use xlink:href="#CMSS17-65" transform="translate(325.463381 0) scale(0.996264)"/>
      <use xlink:href="#CMSS17-61" transform="translate(367.102203 0) scale(0.996264)"/>
      <use xlink:href="#CMSS17-6d" transform="translate(412.024123 0) scale(0.996264)"/>
      <use xlink:href="#CMSS17-28" transform="translate(517.482491 0) scale(0.996264)"/>
      <use xlink:href="#CMSS17-65" transform="translate(553.916405 0) scale(0.996264)"/>
      <use xlink:href="#CMSS17-78" transform="translate(595.555227 0) scale(0.996264)"/>
      <use xlink:href="#CMSS17-74" transform="translate(638.555369 0) scale(0.996264)"/>
      <use xlink:href="#CMSS17-65" transform="translate(672.386935 0) scale(0.996264)"/>
      <use xlink:href="#CMSS17-72" transform="translate(714.025757 0) scale(0.996264)"/>
      <use xlink:href="#CMSS17-6e" transform="translate(745.93553 0) scale(0.996264)"/>
      <use xlink:href="#CMSS17-61" transform="translate(794.140473 0) scale(0.996264)"/>
      <use xlink:href="#CMSS17-6c" transform="translate(839.062394 0) scale(0.996264)"/>
      <use xlink:href="#CMSS17-29" transform="translate(861.243117 0) scale(0.996264)"/>
      <use xlink:href="#CMSS17-63" transform="translate(928.906144 0) scale(0.996264)"/>
      <use xlink:href="#CMSS17-3d" transform="translate(970.544966 0) scale(0.996264)"/>
      <use xlink:href="#CMSS17-32" transform="translate(1043.4129 0) scale(0.996264)"/>
      <use xlink:href="#CMSS17-35" transform="translate(1090.256524 0) scale(0.996264)"/>
     </g>
    </g>
    <g id="line2d_25">
     <path d="M 336.600706 123.983557 
L 350.600706 123.983557 
L 364.600706 123.983557 
" style="fill: none; stroke: #4169e1; stroke-width: 3; stroke-linecap: round"/>
    </g>
    <g id="text_21">
     <!-- LuXry (train) c=50 -->
     <g style="fill: #262626" transform="translate(375.800706 128.883557) scale(0.14 -0.14)">
      <use xlink:href="#CMSS17-4c" transform="scale(0.996264)"/>
      <use xlink:href="#CMSS17-75" transform="translate(50.687105 0) scale(0.996264)"/>
      <use xlink:href="#CMSS17-58" transform="translate(98.892048 0) scale(0.996264)"/>
      <use xlink:href="#CMSS17-72" transform="translate(161.109903 0) scale(0.996264)"/>
      <use xlink:href="#CMSS17-79" transform="translate(193.019676 0) scale(0.996264)"/>
      <use xlink:href="#CMSS17-28" transform="translate(267.24893 0) scale(0.996264)"/>
      <use xlink:href="#CMSS17-74" transform="translate(303.682845 0) scale(0.996264)"/>
      <use xlink:href="#CMSS17-72" transform="translate(337.514411 0) scale(0.996264)"/>
      <use xlink:href="#CMSS17-61" transform="translate(369.424184 0) scale(0.996264)"/>
      <use xlink:href="#CMSS17-69" transform="translate(414.346104 0) scale(0.996264)"/>
      <use xlink:href="#CMSS17-6e" transform="translate(436.526827 0) scale(0.996264)"/>
      <use xlink:href="#CMSS17-29" transform="translate(484.731771 0) scale(0.996264)"/>
      <use xlink:href="#CMSS17-63" transform="translate(552.394798 0) scale(0.996264)"/>
      <use xlink:href="#CMSS17-3d" transform="translate(594.03362 0) scale(0.996264)"/>
      <use xlink:href="#CMSS17-35" transform="translate(666.901554 0) scale(0.996264)"/>
      <use xlink:href="#CMSS17-30" transform="translate(713.745178 0) scale(0.996264)"/>
     </g>
    </g>
    <g id="line2d_26">
     <path d="M 336.600706 144.931253 
L 350.600706 144.931253 
L 364.600706 144.931253 
" style="fill: none; stroke: #87ceeb; stroke-width: 3; stroke-linecap: round"/>
    </g>
    <g id="text_22">
     <!-- Downstream (external) c=50 -->
     <g style="fill: #262626" transform="translate(375.800706 149.831253) scale(0.14 -0.14)">
      <use xlink:href="#CMSS17-44" transform="scale(0.996264)"/>
      <use xlink:href="#CMSS17-6f" transform="translate(67.542842 0) scale(0.996264)"/>
      <use xlink:href="#CMSS17-77" transform="translate(111.784011 0) scale(0.996264)"/>
      <use xlink:href="#CMSS17-6e" transform="translate(175.603556 0) scale(0.996264)"/>
      <use xlink:href="#CMSS17-73" transform="translate(223.808499 0) scale(0.996264)"/>
      <use xlink:href="#CMSS17-74" transform="translate(259.722041 0) scale(0.996264)"/>
      <use xlink:href="#CMSS17-72" transform="translate(293.553608 0) scale(0.996264)"/>
      <use xlink:href="#CMSS17-65" transform="translate(325.463381 0) scale(0.996264)"/>
      <use xlink:href="#CMSS17-61" transform="translate(367.102203 0) scale(0.996264)"/>
      <use xlink:href="#CMSS17-6d" transform="translate(412.024123 0) scale(0.996264)"/>
      <use xlink:href="#CMSS17-28" transform="translate(517.482491 0) scale(0.996264)"/>
      <use xlink:href="#CMSS17-65" transform="translate(553.916405 0) scale(0.996264)"/>
      <use xlink:href="#CMSS17-78" transform="translate(595.555227 0) scale(0.996264)"/>
      <use xlink:href="#CMSS17-74" transform="translate(638.555369 0) scale(0.996264)"/>
      <use xlink:href="#CMSS17-65" transform="translate(672.386935 0) scale(0.996264)"/>
      <use xlink:href="#CMSS17-72" transform="translate(714.025757 0) scale(0.996264)"/>
      <use xlink:href="#CMSS17-6e" transform="translate(745.93553 0) scale(0.996264)"/>
      <use xlink:href="#CMSS17-61" transform="translate(794.140473 0) scale(0.996264)"/>
      <use xlink:href="#CMSS17-6c" transform="translate(839.062394 0) scale(0.996264)"/>
      <use xlink:href="#CMSS17-29" transform="translate(861.243117 0) scale(0.996264)"/>
      <use xlink:href="#CMSS17-63" transform="translate(928.906144 0) scale(0.996264)"/>
      <use xlink:href="#CMSS17-3d" transform="translate(970.544966 0) scale(0.996264)"/>
      <use xlink:href="#CMSS17-35" transform="translate(1043.4129 0) scale(0.996264)"/>
      <use xlink:href="#CMSS17-30" transform="translate(1090.256524 0) scale(0.996264)"/>
     </g>
    </g>
   </g>
  </g>
 </g>
 <defs>
  <clipPath id="p1cb2fbd86b">
   <rect x="84.823004" y="22.032" width="469.144996" height="340.162077"/>
  </clipPath>
 </defs>
</svg>
