<?xml version="1.0" encoding="utf-8" standalone="no"?>
<!DOCTYPE svg PUBLIC "-//W3C//DTD SVG 1.1//EN"
  "http://www.w3.org/Graphics/SVG/1.1/DTD/svg11.dtd">
<svg xmlns:xlink="http://www.w3.org/1999/xlink" width="576pt" height="432pt" viewBox="0 0 576 432" xmlns="http://www.w3.org/2000/svg" version="1.1">
 <metadata>
  <rdf:RDF xmlns:dc="http://purl.org/dc/elements/1.1/" xmlns:cc="http://creativecommons.org/ns#" xmlns:rdf="http://www.w3.org/1999/02/22-rdf-syntax-ns#">
   <cc:Work>
    <dc:type rdf:resource="http://purl.org/dc/dcmitype/StillImage"/>
    <dc:date>2024-06-07T10:45:57.207989</dc:date>
    <dc:format>image/svg+xml</dc:format>
    <dc:creator>
     <cc:Agent>
      <dc:title>Matplotlib v3.8.3, https://matplotlib.org/</dc:title>
     </cc:Agent>
    </dc:creator>
   </cc:Work>
  </rdf:RDF>
 </metadata>
 <defs>
  <style type="text/css">*{stroke-linejoin: round; stroke-linecap: butt}</style>
 </defs>
 <g id="figure_1">
  <g id="patch_1">
   <path d="M 0 432 
L 576 432 
L 576 0 
L 0 0 
z
" style="fill: #ffffff"/>
  </g>
  <g id="axes_1">
   <g id="patch_2">
    <path d="M 77.762501 368.506804 
L 556.56 368.506804 
L 556.56 19.44 
L 77.762501 19.44 
z
" style="fill: #ffffff"/>
   </g>
   <g id="matplotlib.axis_1">
    <g id="xtick_1">
     <g id="line2d_1">
      <path d="M 99.526024 368.506804 
L 99.526024 19.44 
" clip-path="url(#p158d6b4bfa)" style="fill: none; stroke: #cccccc; stroke-linecap: round"/>
     </g>
     <g id="text_1">
      <!-- $\mathdefault{0}$ -->
      <g style="fill: #262626" transform="translate(95.502097 389.422309) scale(0.165 -0.165)">
       <defs>
        <path id="CMR17-30" d="M 2688 2025 
C 2688 2416 2682 3080 2413 3591 
C 2176 4039 1798 4198 1466 4198 
C 1158 4198 768 4058 525 3597 
C 269 3118 243 2524 243 2025 
C 243 1661 250 1106 448 619 
C 723 -39 1216 -128 1466 -128 
C 1760 -128 2208 -7 2470 600 
C 2662 1042 2688 1559 2688 2025 
z
M 1466 -26 
C 1056 -26 813 325 723 812 
C 653 1188 653 1738 653 2096 
C 653 2588 653 2997 736 3387 
C 858 3929 1216 4096 1466 4096 
C 1728 4096 2067 3923 2189 3400 
C 2272 3036 2278 2607 2278 2096 
C 2278 1680 2278 1169 2202 792 
C 2067 95 1690 -26 1466 -26 
z
" transform="scale(0.015625)"/>
       </defs>
       <use xlink:href="#CMR17-30" transform="scale(0.996264)"/>
      </g>
     </g>
    </g>
    <g id="xtick_2">
     <g id="line2d_2">
      <path d="M 186.588821 368.506804 
L 186.588821 19.44 
" clip-path="url(#p158d6b4bfa)" style="fill: none; stroke: #cccccc; stroke-linecap: round"/>
     </g>
     <g id="text_2">
      <!-- $\mathdefault{2000}$ -->
      <g style="fill: #262626" transform="translate(170.493113 389.422309) scale(0.165 -0.165)">
       <defs>
        <path id="CMR17-32" d="M 2669 989 
L 2554 989 
C 2490 536 2438 459 2413 420 
C 2381 369 1920 369 1830 369 
L 602 369 
C 832 619 1280 1072 1824 1597 
C 2214 1967 2669 2402 2669 3035 
C 2669 3790 2067 4224 1395 4224 
C 691 4224 262 3604 262 3030 
C 262 2780 448 2748 525 2748 
C 589 2748 781 2787 781 3010 
C 781 3207 614 3264 525 3264 
C 486 3264 448 3258 422 3245 
C 544 3790 915 4058 1306 4058 
C 1862 4058 2227 3617 2227 3035 
C 2227 2479 1901 2000 1536 1584 
L 262 146 
L 262 0 
L 2515 0 
L 2669 989 
z
" transform="scale(0.015625)"/>
       </defs>
       <use xlink:href="#CMR17-32" transform="scale(0.996264)"/>
       <use xlink:href="#CMR17-30" transform="translate(45.690477 0) scale(0.996264)"/>
       <use xlink:href="#CMR17-30" transform="translate(91.380954 0) scale(0.996264)"/>
       <use xlink:href="#CMR17-30" transform="translate(137.071431 0) scale(0.996264)"/>
      </g>
     </g>
    </g>
    <g id="xtick_3">
     <g id="line2d_3">
      <path d="M 273.651618 368.506804 
L 273.651618 19.44 
" clip-path="url(#p158d6b4bfa)" style="fill: none; stroke: #cccccc; stroke-linecap: round"/>
     </g>
     <g id="text_3">
      <!-- $\mathdefault{4000}$ -->
      <g style="fill: #262626" transform="translate(257.55591 389.422309) scale(0.165 -0.165)">
       <defs>
        <path id="CMR17-34" d="M 2150 4122 
C 2150 4256 2144 4256 2029 4256 
L 128 1254 
L 128 1088 
L 1779 1088 
L 1779 457 
C 1779 224 1766 160 1318 160 
L 1197 160 
L 1197 0 
C 1402 0 1747 0 1965 0 
C 2182 0 2528 0 2733 0 
L 2733 160 
L 2611 160 
C 2163 160 2150 224 2150 457 
L 2150 1088 
L 2803 1088 
L 2803 1254 
L 2150 1254 
L 2150 4122 
z
M 1798 3703 
L 1798 1254 
L 256 1254 
L 1798 3703 
z
" transform="scale(0.015625)"/>
       </defs>
       <use xlink:href="#CMR17-34" transform="scale(0.996264)"/>
       <use xlink:href="#CMR17-30" transform="translate(45.690477 0) scale(0.996264)"/>
       <use xlink:href="#CMR17-30" transform="translate(91.380954 0) scale(0.996264)"/>
       <use xlink:href="#CMR17-30" transform="translate(137.071431 0) scale(0.996264)"/>
      </g>
     </g>
    </g>
    <g id="xtick_4">
     <g id="line2d_4">
      <path d="M 360.714415 368.506804 
L 360.714415 19.44 
" clip-path="url(#p158d6b4bfa)" style="fill: none; stroke: #cccccc; stroke-linecap: round"/>
     </g>
     <g id="text_4">
      <!-- $\mathdefault{6000}$ -->
      <g style="fill: #262626" transform="translate(344.618707 389.422309) scale(0.165 -0.165)">
       <defs>
        <path id="CMR17-36" d="M 678 2176 
C 678 3690 1395 4032 1811 4032 
C 1946 4032 2272 4009 2400 3776 
C 2298 3776 2106 3776 2106 3553 
C 2106 3381 2246 3323 2336 3323 
C 2394 3323 2566 3348 2566 3560 
C 2566 3954 2246 4179 1805 4179 
C 1043 4179 243 3390 243 1984 
C 243 253 966 -128 1478 -128 
C 2099 -128 2688 427 2688 1283 
C 2688 2081 2170 2662 1517 2662 
C 1126 2662 838 2407 678 1960 
L 678 2176 
z
M 1478 25 
C 691 25 691 1200 691 1436 
C 691 1896 909 2560 1504 2560 
C 1613 2560 1926 2560 2138 2120 
C 2253 1870 2253 1609 2253 1289 
C 2253 944 2253 690 2118 434 
C 1978 171 1773 25 1478 25 
z
" transform="scale(0.015625)"/>
       </defs>
       <use xlink:href="#CMR17-36" transform="scale(0.996264)"/>
       <use xlink:href="#CMR17-30" transform="translate(45.690477 0) scale(0.996264)"/>
       <use xlink:href="#CMR17-30" transform="translate(91.380954 0) scale(0.996264)"/>
       <use xlink:href="#CMR17-30" transform="translate(137.071431 0) scale(0.996264)"/>
      </g>
     </g>
    </g>
    <g id="xtick_5">
     <g id="line2d_5">
      <path d="M 447.777212 368.506804 
L 447.777212 19.44 
" clip-path="url(#p158d6b4bfa)" style="fill: none; stroke: #cccccc; stroke-linecap: round"/>
     </g>
     <g id="text_5">
      <!-- $\mathdefault{8000}$ -->
      <g style="fill: #262626" transform="translate(431.681504 389.422309) scale(0.165 -0.165)">
       <defs>
        <path id="CMR17-38" d="M 1741 2264 
C 2144 2467 2554 2773 2554 3263 
C 2554 3841 1990 4179 1472 4179 
C 890 4179 378 3759 378 3180 
C 378 3021 416 2747 666 2505 
C 730 2442 998 2251 1171 2130 
C 883 1983 211 1634 211 934 
C 211 279 838 -128 1459 -128 
C 2144 -128 2720 362 2720 1010 
C 2720 1590 2330 1857 2074 2029 
L 1741 2264 
z
M 902 2822 
C 851 2854 595 3051 595 3351 
C 595 3739 998 4032 1459 4032 
C 1965 4032 2336 3676 2336 3262 
C 2336 2669 1670 2331 1638 2331 
C 1632 2331 1626 2331 1574 2370 
L 902 2822 
z
M 2080 1519 
C 2176 1449 2483 1240 2483 851 
C 2483 381 2010 25 1472 25 
C 890 25 448 438 448 940 
C 448 1443 838 1862 1280 2060 
L 2080 1519 
z
" transform="scale(0.015625)"/>
       </defs>
       <use xlink:href="#CMR17-38" transform="scale(0.996264)"/>
       <use xlink:href="#CMR17-30" transform="translate(45.690477 0) scale(0.996264)"/>
       <use xlink:href="#CMR17-30" transform="translate(91.380954 0) scale(0.996264)"/>
       <use xlink:href="#CMR17-30" transform="translate(137.071431 0) scale(0.996264)"/>
      </g>
     </g>
    </g>
    <g id="xtick_6">
     <g id="line2d_6">
      <path d="M 534.840009 368.506804 
L 534.840009 19.44 
" clip-path="url(#p158d6b4bfa)" style="fill: none; stroke: #cccccc; stroke-linecap: round"/>
     </g>
     <g id="text_6">
      <!-- $\mathdefault{10000}$ -->
      <g style="fill: #262626" transform="translate(514.720374 389.422309) scale(0.165 -0.165)">
       <defs>
        <path id="CMR17-31" d="M 1702 4058 
C 1702 4192 1696 4192 1606 4192 
C 1357 3916 979 3827 621 3827 
C 602 3827 570 3827 563 3808 
C 557 3795 557 3782 557 3648 
C 755 3648 1088 3686 1344 3839 
L 1344 461 
C 1344 236 1331 160 781 160 
L 589 160 
L 589 0 
C 896 0 1216 0 1523 0 
C 1830 0 2150 0 2458 0 
L 2458 160 
L 2266 160 
C 1715 160 1702 230 1702 458 
L 1702 4058 
z
" transform="scale(0.015625)"/>
       </defs>
       <use xlink:href="#CMR17-31" transform="scale(0.996264)"/>
       <use xlink:href="#CMR17-30" transform="translate(45.690477 0) scale(0.996264)"/>
       <use xlink:href="#CMR17-30" transform="translate(91.380954 0) scale(0.996264)"/>
       <use xlink:href="#CMR17-30" transform="translate(137.071431 0) scale(0.996264)"/>
       <use xlink:href="#CMR17-30" transform="translate(182.761908 0) scale(0.996264)"/>
      </g>
     </g>
    </g>
    <g id="text_7">
     <!-- Singular Value Rank Index -->
     <g style="fill: #262626" transform="translate(224.450505 409.071936) scale(0.18 -0.18)">
      <defs>
       <path id="CMSS17-53" d="M 2797 4169 
C 2515 4334 2208 4480 1690 4480 
C 864 4480 333 3879 333 3266 
C 333 3025 403 2753 653 2475 
C 902 2196 1184 2121 1542 2033 
C 1690 1994 1939 1924 1984 1906 
C 2342 1767 2515 1444 2515 1140 
C 2515 742 2202 318 1645 318 
C 1453 318 890 318 358 819 
L 269 318 
C 794 -64 1363 -128 1651 -128 
C 2438 -128 3002 488 3002 1186 
C 3002 1440 2925 1763 2656 2061 
C 2394 2347 2163 2410 1638 2549 
C 1338 2626 1146 2677 986 2873 
C 877 3013 819 3146 819 3317 
C 819 3673 1126 4060 1690 4060 
C 1971 4060 2336 4002 2707 3660 
L 2797 4169 
z
" transform="scale(0.015625)"/>
       <path id="CMSS17-69" d="M 979 4183 
L 442 4183 
L 442 3648 
L 979 3648 
L 979 4183 
z
M 947 2739 
L 474 2739 
L 474 0 
L 947 0 
L 947 2739 
z
" transform="scale(0.015625)"/>
       <path id="CMSS17-6e" d="M 2618 1877 
C 2618 2283 2522 2816 1798 2816 
C 1389 2816 1120 2606 941 2389 
L 941 2758 
L 474 2758 
L 474 0 
L 960 0 
L 960 1559 
C 960 1964 1114 2428 1549 2428 
C 2112 2428 2131 2048 2131 1829 
L 2131 0 
L 2618 0 
L 2618 1877 
z
" transform="scale(0.015625)"/>
       <path id="CMSS17-67" d="M 2848 2808 
C 2483 2808 2170 2738 1914 2617 
C 1702 2777 1485 2808 1338 2808 
C 781 2808 358 2349 358 1814 
C 358 1468 550 1207 563 1195 
C 448 1035 384 863 384 672 
C 384 448 474 289 544 200 
C 211 -3 166 -314 166 -435 
C 166 -898 749 -1280 1498 -1280 
C 2253 -1280 2835 -898 2835 -428 
C 2835 448 1856 448 1587 448 
L 1069 448 
C 973 448 717 448 717 791 
C 717 921 774 1004 781 1010 
C 877 940 1075 832 1338 832 
C 1869 832 2310 1278 2310 1827 
C 2310 2132 2170 2355 2112 2432 
L 2131 2432 
C 2150 2432 2419 2432 2515 2432 
C 2720 2432 2739 2429 2918 2419 
L 2848 2808 
z
M 1338 1182 
C 1120 1182 813 1315 813 1823 
C 813 2375 1165 2464 1331 2464 
C 1549 2464 1856 2331 1856 1823 
C 1856 1271 1504 1182 1338 1182 
z
M 1581 -10 
C 1734 -10 2381 -10 2381 -442 
C 2381 -714 1984 -929 1504 -929 
C 1018 -929 621 -720 621 -435 
C 621 -403 621 -10 1062 -10 
L 1581 -10 
z
" transform="scale(0.015625)"/>
       <path id="CMSS17-75" d="M 2618 2739 
L 2131 2739 
L 2131 972 
C 2131 498 1786 306 1421 306 
C 998 306 960 447 960 709 
L 960 2739 
L 474 2739 
L 474 678 
C 474 179 646 -64 1088 -64 
C 1306 -64 1798 -13 2144 306 
L 2144 0 
L 2618 0 
L 2618 2739 
z
" transform="scale(0.015625)"/>
       <path id="CMSS17-6c" d="M 947 4416 
L 474 4416 
L 474 0 
L 947 0 
L 947 4416 
z
" transform="scale(0.015625)"/>
       <path id="CMSS17-61" d="M 2406 1791 
C 2406 2392 1978 2808 1402 2808 
C 1120 2808 813 2757 461 2553 
L 499 2135 
C 659 2248 934 2432 1395 2432 
C 1722 2432 1920 2180 1920 1782 
L 1920 1536 
C 896 1536 256 1238 256 726 
C 256 461 416 -64 947 -64 
C 1043 -64 1562 -64 1933 217 
L 1933 -19 
L 2406 -19 
L 2406 1791 
z
M 1920 816 
C 1920 701 1920 548 1728 434 
C 1562 325 1350 325 1261 325 
C 941 325 723 511 723 744 
C 723 1211 1722 1211 1920 1211 
L 1920 816 
z
" transform="scale(0.015625)"/>
       <path id="CMSS17-72" d="M 954 1363 
C 954 1965 1395 2368 1958 2368 
L 1958 2789 
C 1549 2789 1165 2585 934 2253 
L 934 2758 
L 480 2758 
L 480 0 
L 954 0 
L 954 1363 
z
" transform="scale(0.015625)"/>
       <path id="CMSS17-56" d="M 3910 4416 
L 3411 4416 
L 2304 1362 
C 2272 1273 2074 688 2035 484 
L 2029 484 
C 1978 726 1773 1292 1664 1604 
L 922 3672 
L 646 4416 
L 83 4416 
L 1715 0 
L 2278 0 
L 3910 4416 
z
" transform="scale(0.015625)"/>
       <path id="CMSS17-65" d="M 2502 1377 
C 2502 1590 2490 2003 2285 2345 
C 2061 2713 1696 2816 1421 2816 
C 755 2816 192 2188 192 1375 
C 192 582 774 -64 1510 -64 
C 1798 -64 2150 19 2470 248 
C 2470 274 2458 414 2451 420 
C 2451 433 2432 630 2432 656 
C 2125 407 1773 325 1517 325 
C 1107 325 666 667 646 1377 
L 2502 1377 
z
M 698 1728 
C 781 2084 1062 2421 1421 2421 
C 1517 2421 1965 2421 2080 1728 
L 698 1728 
z
" transform="scale(0.015625)"/>
       <path id="CMSS17-52" d="M 2522 2109 
L 2534 2115 
C 3533 2459 3539 3147 3539 3268 
C 3539 3873 2925 4453 2003 4453 
L 570 4453 
L 570 32 
L 1094 32 
L 1094 2048 
L 2035 2048 
L 3168 32 
L 3706 32 
L 2522 2109 
z
M 1094 2437 
L 1094 4096 
L 1933 4096 
C 2746 4096 3034 3637 3034 3267 
C 3034 2922 2778 2437 1933 2437 
L 1094 2437 
z
" transform="scale(0.015625)"/>
       <path id="CMSS17-6b" d="M 1696 1688 
L 2688 2739 
L 2074 2739 
L 954 1554 
L 954 4416 
L 480 4416 
L 480 0 
L 947 0 
L 947 892 
L 1376 1344 
L 2278 0 
L 2822 0 
L 1696 1688 
z
" transform="scale(0.015625)"/>
       <path id="CMSS17-49" d="M 1094 4416 
L 557 4416 
L 557 0 
L 1094 0 
L 1094 4416 
z
" transform="scale(0.015625)"/>
       <path id="CMSS17-64" d="M 2611 4416 
L 2138 4416 
L 2138 2438 
C 1939 2603 1613 2756 1254 2756 
C 672 2756 211 2131 211 1347 
C 211 562 666 -64 1235 -64 
C 1677 -64 1971 172 2125 306 
L 2125 -13 
L 2611 -13 
L 2611 4416 
z
M 2125 836 
C 2125 747 2125 653 1926 482 
C 1798 375 1645 325 1498 325 
C 1152 325 698 576 698 1340 
C 698 2134 1210 2368 1562 2368 
C 1798 2368 1990 2254 2125 2065 
L 2125 836 
z
" transform="scale(0.015625)"/>
       <path id="CMSS17-78" d="M 1587 1414 
L 2656 2739 
L 2099 2739 
L 1363 1777 
L 602 2739 
L 32 2739 
L 1139 1414 
L 0 0 
L 563 0 
L 1363 1121 
L 2195 0 
L 2758 0 
L 1587 1414 
z
" transform="scale(0.015625)"/>
      </defs>
      <use xlink:href="#CMSS17-53" transform="scale(0.996264)"/>
      <use xlink:href="#CMSS17-69" transform="translate(52.048516 0) scale(0.996264)"/>
      <use xlink:href="#CMSS17-6e" transform="translate(74.229239 0) scale(0.996264)"/>
      <use xlink:href="#CMSS17-67" transform="translate(122.434182 0) scale(0.996264)"/>
      <use xlink:href="#CMSS17-75" transform="translate(169.277806 0) scale(0.996264)"/>
      <use xlink:href="#CMSS17-6c" transform="translate(217.482749 0) scale(0.996264)"/>
      <use xlink:href="#CMSS17-61" transform="translate(239.663472 0) scale(0.996264)"/>
      <use xlink:href="#CMSS17-72" transform="translate(281.982939 0) scale(0.996264)"/>
      <use xlink:href="#CMSS17-56" transform="translate(345.121824 0) scale(0.996264)"/>
      <use xlink:href="#CMSS17-61" transform="translate(404.737225 0) scale(0.996264)"/>
      <use xlink:href="#CMSS17-6c" transform="translate(449.659146 0) scale(0.996264)"/>
      <use xlink:href="#CMSS17-75" transform="translate(471.839869 0) scale(0.996264)"/>
      <use xlink:href="#CMSS17-65" transform="translate(520.044812 0) scale(0.996264)"/>
      <use xlink:href="#CMSS17-52" transform="translate(592.912747 0) scale(0.996264)"/>
      <use xlink:href="#CMSS17-61" transform="translate(653.328902 0) scale(0.996264)"/>
      <use xlink:href="#CMSS17-6e" transform="translate(698.250822 0) scale(0.996264)"/>
      <use xlink:href="#CMSS17-6b" transform="translate(746.455765 0) scale(0.996264)"/>
      <use xlink:href="#CMSS17-49" transform="translate(823.287367 0) scale(0.996264)"/>
      <use xlink:href="#CMSS17-6e" transform="translate(849.071293 0) scale(0.996264)"/>
      <use xlink:href="#CMSS17-64" transform="translate(897.276236 0) scale(0.996264)"/>
      <use xlink:href="#CMSS17-65" transform="translate(945.481179 0) scale(0.996264)"/>
      <use xlink:href="#CMSS17-78" transform="translate(987.120001 0) scale(0.996264)"/>
     </g>
    </g>
   </g>
   <g id="matplotlib.axis_2">
    <g id="ytick_1">
     <g id="line2d_7">
      <path d="M 77.762501 336.318426 
L 556.56 336.318426 
" clip-path="url(#p158d6b4bfa)" style="fill: none; stroke: #cccccc; stroke-linecap: round"/>
     </g>
     <g id="text_8">
      <!-- $\mathdefault{−40}$ -->
      <g style="fill: #262626" transform="translate(39.381364 342.026179) scale(0.165 -0.165)">
       <defs>
        <path id="CMSY10-0" d="M 4218 1472 
C 4326 1472 4442 1472 4442 1600 
C 4442 1728 4326 1728 4218 1728 
L 755 1728 
C 646 1728 531 1728 531 1600 
C 531 1472 646 1472 755 1472 
L 4218 1472 
z
" transform="scale(0.015625)"/>
       </defs>
       <use xlink:href="#CMSY10-0" transform="scale(0.996264)"/>
       <use xlink:href="#CMR17-34" transform="translate(77.487468 0) scale(0.996264)"/>
       <use xlink:href="#CMR17-30" transform="translate(123.177945 0) scale(0.996264)"/>
      </g>
     </g>
    </g>
    <g id="ytick_2">
     <g id="line2d_8">
      <path d="M 77.762501 266.228296 
L 556.56 266.228296 
" clip-path="url(#p158d6b4bfa)" style="fill: none; stroke: #cccccc; stroke-linecap: round"/>
     </g>
     <g id="text_9">
      <!-- $\mathdefault{−30}$ -->
      <g style="fill: #262626" transform="translate(39.381364 271.936049) scale(0.165 -0.165)">
       <defs>
        <path id="CMR17-33" d="M 1414 2157 
C 1984 2157 2234 1662 2234 1090 
C 2234 320 1824 25 1453 25 
C 1114 25 563 194 390 693 
C 422 680 454 680 486 680 
C 640 680 755 782 755 948 
C 755 1133 614 1216 486 1216 
C 378 1216 211 1165 211 926 
C 211 335 787 -128 1466 -128 
C 2176 -128 2720 430 2720 1085 
C 2720 1707 2208 2157 1600 2227 
C 2086 2328 2554 2756 2554 3329 
C 2554 3820 2048 4179 1472 4179 
C 890 4179 378 3829 378 3329 
C 378 3110 544 3072 627 3072 
C 762 3072 877 3155 877 3321 
C 877 3486 762 3569 627 3569 
C 602 3569 570 3569 544 3557 
C 730 3959 1235 4032 1459 4032 
C 1683 4032 2106 3925 2106 3320 
C 2106 3143 2080 2828 1862 2550 
C 1670 2304 1453 2304 1242 2284 
C 1210 2284 1062 2269 1037 2269 
C 992 2263 966 2257 966 2208 
C 966 2163 973 2157 1101 2157 
L 1414 2157 
z
" transform="scale(0.015625)"/>
       </defs>
       <use xlink:href="#CMSY10-0" transform="scale(0.996264)"/>
       <use xlink:href="#CMR17-33" transform="translate(77.487468 0) scale(0.996264)"/>
       <use xlink:href="#CMR17-30" transform="translate(123.177945 0) scale(0.996264)"/>
      </g>
     </g>
    </g>
    <g id="ytick_3">
     <g id="line2d_9">
      <path d="M 77.762501 196.138166 
L 556.56 196.138166 
" clip-path="url(#p158d6b4bfa)" style="fill: none; stroke: #cccccc; stroke-linecap: round"/>
     </g>
     <g id="text_10">
      <!-- $\mathdefault{−20}$ -->
      <g style="fill: #262626" transform="translate(39.381364 201.845918) scale(0.165 -0.165)">
       <use xlink:href="#CMSY10-0" transform="scale(0.996264)"/>
       <use xlink:href="#CMR17-32" transform="translate(77.487468 0) scale(0.996264)"/>
       <use xlink:href="#CMR17-30" transform="translate(123.177945 0) scale(0.996264)"/>
      </g>
     </g>
    </g>
    <g id="ytick_4">
     <g id="line2d_10">
      <path d="M 77.762501 126.048036 
L 556.56 126.048036 
" clip-path="url(#p158d6b4bfa)" style="fill: none; stroke: #cccccc; stroke-linecap: round"/>
     </g>
     <g id="text_11">
      <!-- $\mathdefault{−10}$ -->
      <g style="fill: #262626" transform="translate(39.381364 131.755788) scale(0.165 -0.165)">
       <use xlink:href="#CMSY10-0" transform="scale(0.996264)"/>
       <use xlink:href="#CMR17-31" transform="translate(77.487468 0) scale(0.996264)"/>
       <use xlink:href="#CMR17-30" transform="translate(123.177945 0) scale(0.996264)"/>
      </g>
     </g>
    </g>
    <g id="ytick_5">
     <g id="line2d_11">
      <path d="M 77.762501 55.957906 
L 556.56 55.957906 
" clip-path="url(#p158d6b4bfa)" style="fill: none; stroke: #cccccc; stroke-linecap: round"/>
     </g>
     <g id="text_12">
      <!-- $\mathdefault{0}$ -->
      <g style="fill: #262626" transform="translate(60.214647 61.665658) scale(0.165 -0.165)">
       <use xlink:href="#CMR17-30" transform="scale(0.996264)"/>
      </g>
     </g>
    </g>
    <g id="text_13">
     <!-- Logarithm of Singular Value -->
     <g style="fill: #262626" transform="translate(31.8933 292.672928) rotate(-90) scale(0.18 -0.18)">
      <defs>
       <path id="CMSS17-4c" d="M 1670 414 
C 1594 414 1517 414 1440 414 
L 1101 414 
L 1101 4416 
L 563 4416 
L 563 0 
L 3002 0 
L 3002 414 
L 1670 414 
z
" transform="scale(0.015625)"/>
       <path id="CMSS17-6f" d="M 2829 1356 
C 2829 2176 2221 2816 1504 2816 
C 768 2816 173 2157 173 1356 
C 173 544 787 -64 1498 -64 
C 2227 -64 2829 563 2829 1356 
z
M 1504 337 
C 1050 337 659 709 659 1408 
C 659 2151 1114 2427 1498 2427 
C 1914 2427 2342 2126 2342 1408 
C 2342 683 1926 337 1504 337 
z
" transform="scale(0.015625)"/>
       <path id="CMSS17-74" d="M 1069 2368 
L 1901 2368 
L 1901 2737 
L 1069 2737 
L 1069 3520 
L 614 3520 
L 614 2737 
L 109 2737 
L 109 2368 
L 602 2368 
L 602 749 
C 602 384 685 -64 1107 -64 
C 1427 -64 1722 25 2003 172 
L 1901 548 
C 1747 414 1562 337 1363 337 
C 1082 337 1069 696 1069 856 
L 1069 2368 
z
" transform="scale(0.015625)"/>
       <path id="CMSS17-68" d="M 2618 1891 
C 2618 2292 2522 2820 1798 2820 
C 1395 2820 1133 2623 947 2407 
L 947 4448 
L 474 4448 
L 474 32 
L 960 32 
L 960 1573 
C 960 1973 1114 2432 1549 2432 
C 2112 2432 2131 2056 2131 1839 
L 2131 32 
L 2618 32 
L 2618 1891 
z
" transform="scale(0.015625)"/>
       <path id="CMSS17-6d" d="M 4288 1877 
C 4288 2308 4179 2816 3462 2816 
C 2982 2816 2694 2516 2566 2331 
C 2451 2670 2182 2816 1798 2816 
C 1363 2816 1088 2568 941 2389 
L 941 2758 
L 474 2758 
L 474 0 
L 960 0 
L 960 1559 
C 960 1939 1101 2428 1555 2428 
C 2138 2428 2138 2016 2138 1829 
L 2138 0 
L 2624 0 
L 2624 1559 
C 2624 1939 2765 2428 3219 2428 
C 3802 2428 3802 2016 3802 1829 
L 3802 0 
L 4288 0 
L 4288 1877 
z
" transform="scale(0.015625)"/>
       <path id="CMSS17-66" d="M 1075 2368 
L 1722 2368 
L 1722 2737 
L 1062 2737 
L 1062 3559 
C 1062 4014 1408 4092 1606 4092 
C 1670 4092 1850 4092 2080 4009 
L 2080 4429 
C 1933 4461 1754 4480 1613 4480 
C 1018 4480 602 3993 602 3359 
L 602 2737 
L 160 2737 
L 160 2368 
L 602 2368 
L 602 0 
L 1075 0 
L 1075 2368 
z
" transform="scale(0.015625)"/>
      </defs>
      <use xlink:href="#CMSS17-4c" transform="scale(0.996264)"/>
      <use xlink:href="#CMSS17-6f" transform="translate(50.687105 0) scale(0.996264)"/>
      <use xlink:href="#CMSS17-67" transform="translate(97.530729 0) scale(0.996264)"/>
      <use xlink:href="#CMSS17-61" transform="translate(144.374352 0) scale(0.996264)"/>
      <use xlink:href="#CMSS17-72" transform="translate(186.693819 0) scale(0.996264)"/>
      <use xlink:href="#CMSS17-69" transform="translate(218.603592 0) scale(0.996264)"/>
      <use xlink:href="#CMSS17-74" transform="translate(240.784315 0) scale(0.996264)"/>
      <use xlink:href="#CMSS17-68" transform="translate(274.615881 0) scale(0.996264)"/>
      <use xlink:href="#CMSS17-6d" transform="translate(322.820824 0) scale(0.996264)"/>
      <use xlink:href="#CMSS17-6f" transform="translate(428.279192 0) scale(0.996264)"/>
      <use xlink:href="#CMSS17-66" transform="translate(475.122815 0) scale(0.996264)"/>
      <use xlink:href="#CMSS17-53" transform="translate(534.978587 0) scale(0.996264)"/>
      <use xlink:href="#CMSS17-69" transform="translate(587.027103 0) scale(0.996264)"/>
      <use xlink:href="#CMSS17-6e" transform="translate(609.207826 0) scale(0.996264)"/>
      <use xlink:href="#CMSS17-67" transform="translate(657.412769 0) scale(0.996264)"/>
      <use xlink:href="#CMSS17-75" transform="translate(704.256393 0) scale(0.996264)"/>
      <use xlink:href="#CMSS17-6c" transform="translate(752.461336 0) scale(0.996264)"/>
      <use xlink:href="#CMSS17-61" transform="translate(774.642059 0) scale(0.996264)"/>
      <use xlink:href="#CMSS17-72" transform="translate(816.961526 0) scale(0.996264)"/>
      <use xlink:href="#CMSS17-56" transform="translate(880.100411 0) scale(0.996264)"/>
      <use xlink:href="#CMSS17-61" transform="translate(939.715812 0) scale(0.996264)"/>
      <use xlink:href="#CMSS17-6c" transform="translate(984.637732 0) scale(0.996264)"/>
      <use xlink:href="#CMSS17-75" transform="translate(1006.818455 0) scale(0.996264)"/>
      <use xlink:href="#CMSS17-65" transform="translate(1055.023399 0) scale(0.996264)"/>
     </g>
    </g>
   </g>
   <g id="line2d_12">
    <path d="M 99.526024 35.306673 
L 99.656618 90.623013 
L 100.135463 102.115215 
L 100.222526 104.116327 
L 100.396652 106.093459 
L 100.701371 109.32342 
L 100.744903 109.470902 
L 101.049623 113.203474 
L 101.789656 119.385818 
L 101.833188 119.455062 
L 102.181439 123.317326 
L 102.355565 124.627542 
L 102.573222 129.312025 
L 102.660284 130.443817 
L 102.921473 139.708396 
L 103.052067 243.898292 
L 103.487381 249.503327 
L 103.792101 250.526428 
L 105.228637 252.099415 
L 106.229859 252.911891 
L 106.795767 253.638748 
L 107.056956 253.827426 
L 107.274613 254.162607 
L 107.49227 254.383354 
L 107.709927 254.731714 
L 108.014646 255.185701 
L 108.188772 255.708408 
L 108.406429 256.124958 
L 108.624086 256.462557 
L 110.147685 259.278062 
L 110.582999 259.743453 
L 110.800656 259.847893 
L 112.063066 260.666073 
L 112.280723 260.815682 
L 112.672506 261.011698 
L 113.456071 261.435941 
L 113.673728 261.505526 
L 114.109042 261.683363 
L 114.762013 262.040709 
L 117.199771 263.15122 
L 117.417428 263.285391 
L 118.592776 263.741272 
L 119.550467 264.15412 
L 119.855187 264.270856 
L 120.334032 264.456489 
L 120.682283 264.589703 
L 125.427206 266.399739 
L 125.601331 266.480864 
L 125.86252 266.587575 
L 126.210771 266.714042 
L 129.91094 267.993696 
L 130.085065 268.047873 
L 130.563911 268.197128 
L 130.912162 268.310289 
L 131.739259 268.551043 
L 132.174573 268.65749 
L 137.311278 270.112952 
L 137.790123 270.233346 
L 138.878408 270.481159 
L 139.57491 270.652789 
L 140.445538 270.869289 
L 142.883297 271.452027 
L 143.405673 271.577758 
L 144.711615 271.867681 
L 145.408118 272.018833 
L 146.322277 272.227625 
L 151.197794 273.237945 
L 152.32961 273.432391 
L 156.900407 274.274998 
L 157.553378 274.386931 
L 158.24988 274.536901 
L 160.905296 275.000003 
L 162.167706 275.213487 
L 164.039556 275.522314 
L 164.823121 275.656041 
L 165.780812 275.791424 
L 167.5656 276.091449 
L 169.176261 276.333769 
L 171.657551 276.713974 
L 172.441116 276.837616 
L 174.530623 277.138625 
L 175.35772 277.270971 
L 182.148618 278.220553 
L 183.019246 278.328053 
L 187.50298 278.922103 
L 188.895985 279.095173 
L 190.376052 279.290779 
L 191.290212 279.402475 
L 191.85612 279.485644 
L 192.900873 279.594948 
L 193.553844 279.684713 
L 195.861009 279.965318 
L 196.426917 280.035386 
L 197.689327 280.176443 
L 198.864675 280.323449 
L 220.107998 282.647615 
L 222.023379 282.837305 
L 222.763413 282.914121 
L 224.287012 283.068853 
L 229.118997 283.538043 
L 232.906229 283.90441 
L 234.168639 284.019819 
L 294.416095 289.415935 
L 297.637418 289.83334 
L 304.254191 290.773523 
L 312.655751 292.369496 
L 314.17935 292.690517 
L 314.832321 292.837848 
L 315.311166 292.956886 
L 316.138263 293.114508 
L 324.278634 293.534212 
L 509.417672 293.6362 
L 516.034445 295.720384 
L 516.861541 296.067439 
L 518.036889 296.521223 
L 519.560488 297.080492 
L 522.694749 298.618321 
L 523.434782 299.02844 
L 524.91485 299.956518 
L 525.045444 300.032613 
L 526.830231 301.363024 
L 527.004357 301.511103 
L 529.659772 304.282948 
L 531.836342 307.501595 
L 533.490535 311.641045 
L 533.969381 313.159467 
L 534.143506 313.527641 
L 534.535289 314.398824 
L 534.752946 314.683104 
L 534.796477 329.296261 
L 534.796477 329.296261 
" clip-path="url(#p158d6b4bfa)" style="fill: none; stroke: #4169e1; stroke-width: 3; stroke-linecap: round"/>
   </g>
   <g id="line2d_13">
    <path d="M 99.526024 55.606781 
L 99.656618 113.188513 
L 99.961338 128.150462 
L 100.570777 142.924947 
L 100.614309 143.063373 
L 100.831966 146.694599 
L 102.703816 172.684578 
L 102.921473 180.786519 
L 103.052067 259.31449 
L 103.13913 259.967144 
L 103.443849 261.167741 
L 103.574444 261.883421 
L 103.748569 265.530124 
L 104.009758 265.983881 
L 104.314477 266.480271 
L 104.445072 266.601561 
L 105.01098 267.298323 
L 105.185105 267.503353 
L 105.446294 267.752083 
L 105.794545 268.164375 
L 106.142796 268.500896 
L 106.491047 268.74995 
L 106.926361 269.185107 
L 107.100487 269.287383 
L 107.318144 269.468569 
L 107.796989 269.970248 
L 107.927584 270.040636 
L 108.275835 270.364905 
L 111.584221 272.834011 
L 111.888941 272.96762 
L 112.237192 273.178107 
L 112.759569 273.439823 
L 115.110264 274.519316 
L 115.458515 274.618013 
L 116.372675 275.044449 
L 116.764457 275.158961 
L 117.504491 275.428403 
L 118.200994 275.677329 
L 119.02809 275.966632 
L 119.811655 276.215788 
L 120.334032 276.343952 
L 121.20466 276.627094 
L 121.683505 276.780101 
L 125.949583 277.971547 
L 126.646085 278.1565 
L 126.994336 278.267323 
L 128.866186 278.735982 
L 129.214437 278.829701 
L 135.918273 280.609887 
L 136.266524 280.713734 
L 137.006558 280.930456 
L 137.746592 281.15297 
L 138.747814 281.437625 
L 139.531379 281.668527 
L 139.792567 281.764236 
L 141.403229 282.285208 
L 141.882074 282.453949 
L 142.273857 282.604738 
L 142.578577 282.729086 
L 142.752702 282.78516 
L 143.100954 282.937616 
L 144.23277 283.549059 
L 144.668084 284.159718 
L 144.929272 313.83432 
L 532.794033 313.83432 
L 532.968159 323.246693 
L 533.229347 324.658648 
L 533.272878 324.677545 
L 533.577598 325.975565 
L 533.882318 326.594568 
L 534.012912 327.68172 
L 534.187038 330.897797 
L 534.230569 330.926182 
L 534.274101 331.152923 
L 534.709415 341.515397 
L 534.796477 352.640131 
L 534.796477 352.640131 
" clip-path="url(#p158d6b4bfa)" style="fill: none; stroke: #87ceeb; stroke-width: 3; stroke-linecap: round"/>
   </g>
   <g id="patch_3">
    <path d="M 77.762501 368.506804 
L 77.762501 19.44 
" style="fill: none; stroke: #cccccc; stroke-width: 1.25; stroke-linejoin: miter; stroke-linecap: square"/>
   </g>
   <g id="patch_4">
    <path d="M 556.56 368.506804 
L 556.56 19.44 
" style="fill: none; stroke: #cccccc; stroke-width: 1.25; stroke-linejoin: miter; stroke-linecap: square"/>
   </g>
   <g id="patch_5">
    <path d="M 77.762501 368.506804 
L 556.56 368.506804 
" style="fill: none; stroke: #cccccc; stroke-width: 1.25; stroke-linejoin: miter; stroke-linecap: square"/>
   </g>
   <g id="patch_6">
    <path d="M 77.762501 19.44 
L 556.56 19.44 
" style="fill: none; stroke: #cccccc; stroke-width: 1.25; stroke-linejoin: miter; stroke-linecap: square"/>
   </g>
   <g id="legend_1">
    <g id="patch_7">
     <path d="M 439.242439 57.36528 
L 549.56 57.36528 
Q 551.56 57.36528 551.56 55.36528 
L 551.56 26.44 
Q 551.56 24.44 549.56 24.44 
L 439.242439 24.44 
Q 437.242439 24.44 437.242439 26.44 
L 437.242439 55.36528 
Q 437.242439 57.36528 439.242439 57.36528 
z
" style="fill: #ffffff; opacity: 0.8; stroke: #cccccc; stroke-linejoin: miter"/>
    </g>
    <g id="line2d_14">
     <path d="M 441.242439 32.41198 
L 451.242439 32.41198 
L 461.242439 32.41198 
" style="fill: none; stroke: #4169e1; stroke-width: 3; stroke-linecap: round"/>
    </g>
    <g id="text_14">
     <!-- LuXry (train) -->
     <g style="fill: #262626" transform="translate(469.242439 35.91198) scale(0.1 -0.1)">
      <defs>
       <path id="CMSS17-58" d="M 2214 2329 
L 3661 4416 
L 3072 4416 
L 1952 2762 
L 800 4416 
L 166 4416 
L 1690 2329 
L 83 0 
L 672 0 
L 1952 1941 
L 3277 0 
L 3910 0 
L 2214 2329 
z
" transform="scale(0.015625)"/>
       <path id="CMSS17-79" d="M 2675 2752 
L 2176 2752 
C 1632 1294 1446 702 1434 383 
L 1427 383 
C 1408 696 1126 1460 902 2007 
L 602 2752 
L 83 2752 
L 1216 13 
C 1146 -178 1043 -465 1011 -529 
C 870 -885 774 -885 672 -885 
C 646 -885 442 -885 211 -809 
L 250 -1229 
C 410 -1261 570 -1280 685 -1280 
C 845 -1280 1165 -1280 1459 -497 
L 2675 2752 
z
" transform="scale(0.015625)"/>
       <path id="CMSS17-28" d="M 1613 4768 
C 1267 4417 474 3601 474 1588 
C 474 -433 1267 -1243 1613 -1600 
L 2003 -1600 
C 1216 -784 960 357 960 1581 
C 960 2798 1203 3946 2003 4768 
L 1613 4768 
z
" transform="scale(0.015625)"/>
       <path id="CMSS17-29" d="M 723 -1600 
C 1069 -1249 1862 -433 1862 1581 
C 1862 3601 1069 4411 723 4768 
L 333 4768 
C 1120 3952 1376 2811 1376 1588 
C 1376 370 1133 -778 333 -1600 
L 723 -1600 
z
" transform="scale(0.015625)"/>
      </defs>
      <use xlink:href="#CMSS17-4c" transform="scale(0.996264)"/>
      <use xlink:href="#CMSS17-75" transform="translate(50.687105 0) scale(0.996264)"/>
      <use xlink:href="#CMSS17-58" transform="translate(98.892048 0) scale(0.996264)"/>
      <use xlink:href="#CMSS17-72" transform="translate(161.109903 0) scale(0.996264)"/>
      <use xlink:href="#CMSS17-79" transform="translate(193.019676 0) scale(0.996264)"/>
      <use xlink:href="#CMSS17-28" transform="translate(267.24893 0) scale(0.996264)"/>
      <use xlink:href="#CMSS17-74" transform="translate(303.682845 0) scale(0.996264)"/>
      <use xlink:href="#CMSS17-72" transform="translate(337.514411 0) scale(0.996264)"/>
      <use xlink:href="#CMSS17-61" transform="translate(369.424184 0) scale(0.996264)"/>
      <use xlink:href="#CMSS17-69" transform="translate(414.346104 0) scale(0.996264)"/>
      <use xlink:href="#CMSS17-6e" transform="translate(436.526827 0) scale(0.996264)"/>
      <use xlink:href="#CMSS17-29" transform="translate(484.731771 0) scale(0.996264)"/>
     </g>
    </g>
    <g id="line2d_15">
     <path d="M 441.242439 47.37462 
L 451.242439 47.37462 
L 461.242439 47.37462 
" style="fill: none; stroke: #87ceeb; stroke-width: 3; stroke-linecap: round"/>
    </g>
    <g id="text_15">
     <!-- Downstream (test) -->
     <g style="fill: #262626" transform="translate(469.242439 50.87462) scale(0.1 -0.1)">
      <defs>
       <path id="CMSS17-44" d="M 570 4416 
L 570 0 
L 2144 0 
C 3194 0 4000 980 4000 2170 
C 4000 3398 3194 4416 2144 4416 
L 570 4416 
z
M 1094 357 
L 1094 4059 
L 2003 4059 
C 2861 4059 3475 3277 3475 2170 
C 3475 1107 2867 357 2003 357 
L 1094 357 
z
" transform="scale(0.015625)"/>
       <path id="CMSS17-77" d="M 4013 2752 
L 3526 2752 
L 3187 1601 
C 3117 1358 2918 685 2893 371 
L 2886 371 
C 2874 564 2765 1024 2586 1633 
L 2259 2752 
L 1818 2752 
L 1498 1658 
C 1338 1101 1216 627 1203 371 
L 1197 371 
C 1171 749 909 1633 870 1773 
L 582 2752 
L 83 2752 
L 915 0 
L 1402 0 
C 1734 1096 1990 1943 2010 2370 
C 2022 2160 2131 1707 2195 1484 
L 2618 0 
L 3181 0 
L 4013 2752 
z
" transform="scale(0.015625)"/>
       <path id="CMSS17-73" d="M 2061 2627 
C 1683 2807 1389 2807 1197 2807 
C 742 2807 198 2648 198 2003 
C 198 1359 902 1218 1094 1179 
C 1389 1122 1715 1058 1715 740 
C 1715 337 1254 337 1171 337 
C 915 337 563 407 243 638 
L 166 210 
C 531 0 883 -64 1178 -64 
C 1965 -64 2163 416 2163 781 
C 2163 1094 1984 1305 1862 1401 
C 1651 1568 1574 1587 1050 1696 
C 960 1709 646 1779 646 2066 
C 646 2432 1050 2432 1139 2432 
C 1555 2432 1811 2303 1984 2208 
L 2061 2627 
z
" transform="scale(0.015625)"/>
      </defs>
      <use xlink:href="#CMSS17-44" transform="scale(0.996264)"/>
      <use xlink:href="#CMSS17-6f" transform="translate(67.542842 0) scale(0.996264)"/>
      <use xlink:href="#CMSS17-77" transform="translate(111.784011 0) scale(0.996264)"/>
      <use xlink:href="#CMSS17-6e" transform="translate(175.603556 0) scale(0.996264)"/>
      <use xlink:href="#CMSS17-73" transform="translate(223.808499 0) scale(0.996264)"/>
      <use xlink:href="#CMSS17-74" transform="translate(259.722041 0) scale(0.996264)"/>
      <use xlink:href="#CMSS17-72" transform="translate(293.553608 0) scale(0.996264)"/>
      <use xlink:href="#CMSS17-65" transform="translate(325.463381 0) scale(0.996264)"/>
      <use xlink:href="#CMSS17-61" transform="translate(367.102203 0) scale(0.996264)"/>
      <use xlink:href="#CMSS17-6d" transform="translate(412.024123 0) scale(0.996264)"/>
      <use xlink:href="#CMSS17-28" transform="translate(517.482491 0) scale(0.996264)"/>
      <use xlink:href="#CMSS17-74" transform="translate(553.916405 0) scale(0.996264)"/>
      <use xlink:href="#CMSS17-65" transform="translate(587.747971 0) scale(0.996264)"/>
      <use xlink:href="#CMSS17-73" transform="translate(629.386794 0) scale(0.996264)"/>
      <use xlink:href="#CMSS17-74" transform="translate(665.300336 0) scale(0.996264)"/>
      <use xlink:href="#CMSS17-29" transform="translate(699.131902 0) scale(0.996264)"/>
     </g>
    </g>
   </g>
  </g>
 </g>
 <defs>
  <clipPath id="p158d6b4bfa">
   <rect x="77.762501" y="19.44" width="478.797499" height="349.066804"/>
  </clipPath>
 </defs>
</svg>
