<?xml version="1.0" encoding="utf-8" standalone="no"?>
<!DOCTYPE svg PUBLIC "-//W3C//DTD SVG 1.1//EN"
  "http://www.w3.org/Graphics/SVG/1.1/DTD/svg11.dtd">
<svg xmlns:xlink="http://www.w3.org/1999/xlink" width="576pt" height="432pt" viewBox="0 0 576 432" xmlns="http://www.w3.org/2000/svg" version="1.1">
 <metadata>
  <rdf:RDF xmlns:dc="http://purl.org/dc/elements/1.1/" xmlns:cc="http://creativecommons.org/ns#" xmlns:rdf="http://www.w3.org/1999/02/22-rdf-syntax-ns#">
   <cc:Work>
    <dc:type rdf:resource="http://purl.org/dc/dcmitype/StillImage"/>
    <dc:date>2024-06-26T14:19:31.154309</dc:date>
    <dc:format>image/svg+xml</dc:format>
    <dc:creator>
     <cc:Agent>
      <dc:title>Matplotlib v3.8.3, https://matplotlib.org/</dc:title>
     </cc:Agent>
    </dc:creator>
   </cc:Work>
  </rdf:RDF>
 </metadata>
 <defs>
  <style type="text/css">*{stroke-linejoin: round; stroke-linecap: butt}</style>
 </defs>
 <g id="figure_1">
  <g id="patch_1">
   <path d="M 0 432 
L 576 432 
L 576 0 
L 0 0 
z
" style="fill: #ffffff"/>
  </g>
  <g id="axes_1">
   <g id="patch_2">
    <path d="M 84.823004 362.194077 
L 553.968 362.194077 
L 553.968 22.032 
L 84.823004 22.032 
z
" style="fill: #ffffff"/>
   </g>
   <g id="matplotlib.axis_1">
    <g id="xtick_1">
     <g id="line2d_1">
      <path d="M 106.147777 362.194077 
L 106.147777 22.032 
" clip-path="url(#p414875e8c8)" style="fill: none; stroke: #cccccc; stroke-linecap: round"/>
     </g>
     <g id="text_1">
      <!-- $\mathdefault{0}$ -->
      <g style="fill: #262626" transform="translate(101.875719 384.63166) scale(0.187 -0.187)">
       <defs>
        <path id="CMR17-30" d="M 2688 2025 
C 2688 2416 2682 3080 2413 3591 
C 2176 4039 1798 4198 1466 4198 
C 1158 4198 768 4058 525 3597 
C 269 3118 243 2524 243 2025 
C 243 1661 250 1106 448 619 
C 723 -39 1216 -128 1466 -128 
C 1760 -128 2208 -7 2470 600 
C 2662 1042 2688 1559 2688 2025 
z
M 1466 -26 
C 1056 -26 813 325 723 812 
C 653 1188 653 1738 653 2096 
C 653 2588 653 2997 736 3387 
C 858 3929 1216 4096 1466 4096 
C 1728 4096 2067 3923 2189 3400 
C 2272 3036 2278 2607 2278 2096 
C 2278 1680 2278 1169 2202 792 
C 2067 95 1690 -26 1466 -26 
z
" transform="scale(0.015625)"/>
       </defs>
       <use xlink:href="#CMR17-30" transform="scale(0.996264)"/>
      </g>
     </g>
    </g>
    <g id="xtick_2">
     <g id="line2d_2">
      <path d="M 189.774336 362.194077 
L 189.774336 22.032 
" clip-path="url(#p414875e8c8)" style="fill: none; stroke: #cccccc; stroke-linecap: round"/>
     </g>
     <g id="text_2">
      <!-- $\mathdefault{50}$ -->
      <g style="fill: #262626" transform="translate(181.230219 384.63166) scale(0.187 -0.187)">
       <defs>
        <path id="CMR17-35" d="M 730 3692 
C 794 3666 1056 3584 1325 3584 
C 1920 3584 2246 3911 2432 4100 
C 2432 4157 2432 4192 2394 4192 
C 2387 4192 2374 4192 2323 4163 
C 2099 4058 1837 3973 1517 3973 
C 1325 3973 1037 3999 723 4139 
C 653 4171 640 4171 634 4171 
C 602 4171 595 4164 595 4037 
L 595 2203 
C 595 2089 595 2057 659 2057 
C 691 2057 704 2070 736 2114 
C 941 2401 1222 2522 1542 2522 
C 1766 2522 2246 2382 2246 1289 
C 2246 1085 2246 715 2054 421 
C 1894 159 1645 25 1370 25 
C 947 25 518 320 403 814 
C 429 807 480 795 506 795 
C 589 795 749 840 749 1038 
C 749 1210 627 1280 506 1280 
C 358 1280 262 1190 262 1011 
C 262 454 704 -128 1382 -128 
C 2042 -128 2669 440 2669 1264 
C 2669 2030 2170 2624 1549 2624 
C 1222 2624 947 2503 730 2274 
L 730 3692 
z
" transform="scale(0.015625)"/>
       </defs>
       <use xlink:href="#CMR17-35" transform="scale(0.996264)"/>
       <use xlink:href="#CMR17-30" transform="translate(45.690477 0) scale(0.996264)"/>
      </g>
     </g>
    </g>
    <g id="xtick_3">
     <g id="line2d_3">
      <path d="M 273.400895 362.194077 
L 273.400895 22.032 
" clip-path="url(#p414875e8c8)" style="fill: none; stroke: #cccccc; stroke-linecap: round"/>
     </g>
     <g id="text_3">
      <!-- $\mathdefault{100}$ -->
      <g style="fill: #262626" transform="translate(260.58472 384.63166) scale(0.187 -0.187)">
       <defs>
        <path id="CMR17-31" d="M 1702 4058 
C 1702 4192 1696 4192 1606 4192 
C 1357 3916 979 3827 621 3827 
C 602 3827 570 3827 563 3808 
C 557 3795 557 3782 557 3648 
C 755 3648 1088 3686 1344 3839 
L 1344 461 
C 1344 236 1331 160 781 160 
L 589 160 
L 589 0 
C 896 0 1216 0 1523 0 
C 1830 0 2150 0 2458 0 
L 2458 160 
L 2266 160 
C 1715 160 1702 230 1702 458 
L 1702 4058 
z
" transform="scale(0.015625)"/>
       </defs>
       <use xlink:href="#CMR17-31" transform="scale(0.996264)"/>
       <use xlink:href="#CMR17-30" transform="translate(45.690477 0) scale(0.996264)"/>
       <use xlink:href="#CMR17-30" transform="translate(91.380954 0) scale(0.996264)"/>
      </g>
     </g>
    </g>
    <g id="xtick_4">
     <g id="line2d_4">
      <path d="M 357.027454 362.194077 
L 357.027454 22.032 
" clip-path="url(#p414875e8c8)" style="fill: none; stroke: #cccccc; stroke-linecap: round"/>
     </g>
     <g id="text_4">
      <!-- $\mathdefault{150}$ -->
      <g style="fill: #262626" transform="translate(344.211279 384.63166) scale(0.187 -0.187)">
       <use xlink:href="#CMR17-31" transform="scale(0.996264)"/>
       <use xlink:href="#CMR17-35" transform="translate(45.690477 0) scale(0.996264)"/>
       <use xlink:href="#CMR17-30" transform="translate(91.380954 0) scale(0.996264)"/>
      </g>
     </g>
    </g>
    <g id="xtick_5">
     <g id="line2d_5">
      <path d="M 440.654013 362.194077 
L 440.654013 22.032 
" clip-path="url(#p414875e8c8)" style="fill: none; stroke: #cccccc; stroke-linecap: round"/>
     </g>
     <g id="text_5">
      <!-- $\mathdefault{200}$ -->
      <g style="fill: #262626" transform="translate(427.837838 384.63166) scale(0.187 -0.187)">
       <defs>
        <path id="CMR17-32" d="M 2669 989 
L 2554 989 
C 2490 536 2438 459 2413 420 
C 2381 369 1920 369 1830 369 
L 602 369 
C 832 619 1280 1072 1824 1597 
C 2214 1967 2669 2402 2669 3035 
C 2669 3790 2067 4224 1395 4224 
C 691 4224 262 3604 262 3030 
C 262 2780 448 2748 525 2748 
C 589 2748 781 2787 781 3010 
C 781 3207 614 3264 525 3264 
C 486 3264 448 3258 422 3245 
C 544 3790 915 4058 1306 4058 
C 1862 4058 2227 3617 2227 3035 
C 2227 2479 1901 2000 1536 1584 
L 262 146 
L 262 0 
L 2515 0 
L 2669 989 
z
" transform="scale(0.015625)"/>
       </defs>
       <use xlink:href="#CMR17-32" transform="scale(0.996264)"/>
       <use xlink:href="#CMR17-30" transform="translate(45.690477 0) scale(0.996264)"/>
       <use xlink:href="#CMR17-30" transform="translate(91.380954 0) scale(0.996264)"/>
      </g>
     </g>
    </g>
    <g id="xtick_6">
     <g id="line2d_6">
      <path d="M 524.280572 362.194077 
L 524.280572 22.032 
" clip-path="url(#p414875e8c8)" style="fill: none; stroke: #cccccc; stroke-linecap: round"/>
     </g>
     <g id="text_6">
      <!-- $\mathdefault{250}$ -->
      <g style="fill: #262626" transform="translate(511.464397 384.63166) scale(0.187 -0.187)">
       <use xlink:href="#CMR17-32" transform="scale(0.996264)"/>
       <use xlink:href="#CMR17-35" transform="translate(45.690477 0) scale(0.996264)"/>
       <use xlink:href="#CMR17-30" transform="translate(91.380954 0) scale(0.996264)"/>
      </g>
     </g>
    </g>
    <g id="text_7">
     <!-- Singular Value Rank Index -->
     <g style="fill: #262626" transform="translate(216.383542 406.092366) scale(0.2 -0.2)">
      <defs>
       <path id="CMSS17-53" d="M 2797 4169 
C 2515 4334 2208 4480 1690 4480 
C 864 4480 333 3879 333 3266 
C 333 3025 403 2753 653 2475 
C 902 2196 1184 2121 1542 2033 
C 1690 1994 1939 1924 1984 1906 
C 2342 1767 2515 1444 2515 1140 
C 2515 742 2202 318 1645 318 
C 1453 318 890 318 358 819 
L 269 318 
C 794 -64 1363 -128 1651 -128 
C 2438 -128 3002 488 3002 1186 
C 3002 1440 2925 1763 2656 2061 
C 2394 2347 2163 2410 1638 2549 
C 1338 2626 1146 2677 986 2873 
C 877 3013 819 3146 819 3317 
C 819 3673 1126 4060 1690 4060 
C 1971 4060 2336 4002 2707 3660 
L 2797 4169 
z
" transform="scale(0.015625)"/>
       <path id="CMSS17-69" d="M 979 4183 
L 442 4183 
L 442 3648 
L 979 3648 
L 979 4183 
z
M 947 2739 
L 474 2739 
L 474 0 
L 947 0 
L 947 2739 
z
" transform="scale(0.015625)"/>
       <path id="CMSS17-6e" d="M 2618 1877 
C 2618 2283 2522 2816 1798 2816 
C 1389 2816 1120 2606 941 2389 
L 941 2758 
L 474 2758 
L 474 0 
L 960 0 
L 960 1559 
C 960 1964 1114 2428 1549 2428 
C 2112 2428 2131 2048 2131 1829 
L 2131 0 
L 2618 0 
L 2618 1877 
z
" transform="scale(0.015625)"/>
       <path id="CMSS17-67" d="M 2848 2808 
C 2483 2808 2170 2738 1914 2617 
C 1702 2777 1485 2808 1338 2808 
C 781 2808 358 2349 358 1814 
C 358 1468 550 1207 563 1195 
C 448 1035 384 863 384 672 
C 384 448 474 289 544 200 
C 211 -3 166 -314 166 -435 
C 166 -898 749 -1280 1498 -1280 
C 2253 -1280 2835 -898 2835 -428 
C 2835 448 1856 448 1587 448 
L 1069 448 
C 973 448 717 448 717 791 
C 717 921 774 1004 781 1010 
C 877 940 1075 832 1338 832 
C 1869 832 2310 1278 2310 1827 
C 2310 2132 2170 2355 2112 2432 
L 2131 2432 
C 2150 2432 2419 2432 2515 2432 
C 2720 2432 2739 2429 2918 2419 
L 2848 2808 
z
M 1338 1182 
C 1120 1182 813 1315 813 1823 
C 813 2375 1165 2464 1331 2464 
C 1549 2464 1856 2331 1856 1823 
C 1856 1271 1504 1182 1338 1182 
z
M 1581 -10 
C 1734 -10 2381 -10 2381 -442 
C 2381 -714 1984 -929 1504 -929 
C 1018 -929 621 -720 621 -435 
C 621 -403 621 -10 1062 -10 
L 1581 -10 
z
" transform="scale(0.015625)"/>
       <path id="CMSS17-75" d="M 2618 2739 
L 2131 2739 
L 2131 972 
C 2131 498 1786 306 1421 306 
C 998 306 960 447 960 709 
L 960 2739 
L 474 2739 
L 474 678 
C 474 179 646 -64 1088 -64 
C 1306 -64 1798 -13 2144 306 
L 2144 0 
L 2618 0 
L 2618 2739 
z
" transform="scale(0.015625)"/>
       <path id="CMSS17-6c" d="M 947 4416 
L 474 4416 
L 474 0 
L 947 0 
L 947 4416 
z
" transform="scale(0.015625)"/>
       <path id="CMSS17-61" d="M 2406 1791 
C 2406 2392 1978 2808 1402 2808 
C 1120 2808 813 2757 461 2553 
L 499 2135 
C 659 2248 934 2432 1395 2432 
C 1722 2432 1920 2180 1920 1782 
L 1920 1536 
C 896 1536 256 1238 256 726 
C 256 461 416 -64 947 -64 
C 1043 -64 1562 -64 1933 217 
L 1933 -19 
L 2406 -19 
L 2406 1791 
z
M 1920 816 
C 1920 701 1920 548 1728 434 
C 1562 325 1350 325 1261 325 
C 941 325 723 511 723 744 
C 723 1211 1722 1211 1920 1211 
L 1920 816 
z
" transform="scale(0.015625)"/>
       <path id="CMSS17-72" d="M 954 1363 
C 954 1965 1395 2368 1958 2368 
L 1958 2789 
C 1549 2789 1165 2585 934 2253 
L 934 2758 
L 480 2758 
L 480 0 
L 954 0 
L 954 1363 
z
" transform="scale(0.015625)"/>
       <path id="CMSS17-56" d="M 3910 4416 
L 3411 4416 
L 2304 1362 
C 2272 1273 2074 688 2035 484 
L 2029 484 
C 1978 726 1773 1292 1664 1604 
L 922 3672 
L 646 4416 
L 83 4416 
L 1715 0 
L 2278 0 
L 3910 4416 
z
" transform="scale(0.015625)"/>
       <path id="CMSS17-65" d="M 2502 1377 
C 2502 1590 2490 2003 2285 2345 
C 2061 2713 1696 2816 1421 2816 
C 755 2816 192 2188 192 1375 
C 192 582 774 -64 1510 -64 
C 1798 -64 2150 19 2470 248 
C 2470 274 2458 414 2451 420 
C 2451 433 2432 630 2432 656 
C 2125 407 1773 325 1517 325 
C 1107 325 666 667 646 1377 
L 2502 1377 
z
M 698 1728 
C 781 2084 1062 2421 1421 2421 
C 1517 2421 1965 2421 2080 1728 
L 698 1728 
z
" transform="scale(0.015625)"/>
       <path id="CMSS17-52" d="M 2522 2109 
L 2534 2115 
C 3533 2459 3539 3147 3539 3268 
C 3539 3873 2925 4453 2003 4453 
L 570 4453 
L 570 32 
L 1094 32 
L 1094 2048 
L 2035 2048 
L 3168 32 
L 3706 32 
L 2522 2109 
z
M 1094 2437 
L 1094 4096 
L 1933 4096 
C 2746 4096 3034 3637 3034 3267 
C 3034 2922 2778 2437 1933 2437 
L 1094 2437 
z
" transform="scale(0.015625)"/>
       <path id="CMSS17-6b" d="M 1696 1688 
L 2688 2739 
L 2074 2739 
L 954 1554 
L 954 4416 
L 480 4416 
L 480 0 
L 947 0 
L 947 892 
L 1376 1344 
L 2278 0 
L 2822 0 
L 1696 1688 
z
" transform="scale(0.015625)"/>
       <path id="CMSS17-49" d="M 1094 4416 
L 557 4416 
L 557 0 
L 1094 0 
L 1094 4416 
z
" transform="scale(0.015625)"/>
       <path id="CMSS17-64" d="M 2611 4416 
L 2138 4416 
L 2138 2438 
C 1939 2603 1613 2756 1254 2756 
C 672 2756 211 2131 211 1347 
C 211 562 666 -64 1235 -64 
C 1677 -64 1971 172 2125 306 
L 2125 -13 
L 2611 -13 
L 2611 4416 
z
M 2125 836 
C 2125 747 2125 653 1926 482 
C 1798 375 1645 325 1498 325 
C 1152 325 698 576 698 1340 
C 698 2134 1210 2368 1562 2368 
C 1798 2368 1990 2254 2125 2065 
L 2125 836 
z
" transform="scale(0.015625)"/>
       <path id="CMSS17-78" d="M 1587 1414 
L 2656 2739 
L 2099 2739 
L 1363 1777 
L 602 2739 
L 32 2739 
L 1139 1414 
L 0 0 
L 563 0 
L 1363 1121 
L 2195 0 
L 2758 0 
L 1587 1414 
z
" transform="scale(0.015625)"/>
      </defs>
      <use xlink:href="#CMSS17-53" transform="scale(0.996264)"/>
      <use xlink:href="#CMSS17-69" transform="translate(52.048516 0) scale(0.996264)"/>
      <use xlink:href="#CMSS17-6e" transform="translate(74.229239 0) scale(0.996264)"/>
      <use xlink:href="#CMSS17-67" transform="translate(122.434182 0) scale(0.996264)"/>
      <use xlink:href="#CMSS17-75" transform="translate(169.277806 0) scale(0.996264)"/>
      <use xlink:href="#CMSS17-6c" transform="translate(217.482749 0) scale(0.996264)"/>
      <use xlink:href="#CMSS17-61" transform="translate(239.663472 0) scale(0.996264)"/>
      <use xlink:href="#CMSS17-72" transform="translate(281.982939 0) scale(0.996264)"/>
      <use xlink:href="#CMSS17-56" transform="translate(345.121824 0) scale(0.996264)"/>
      <use xlink:href="#CMSS17-61" transform="translate(404.737225 0) scale(0.996264)"/>
      <use xlink:href="#CMSS17-6c" transform="translate(449.659146 0) scale(0.996264)"/>
      <use xlink:href="#CMSS17-75" transform="translate(471.839869 0) scale(0.996264)"/>
      <use xlink:href="#CMSS17-65" transform="translate(520.044812 0) scale(0.996264)"/>
      <use xlink:href="#CMSS17-52" transform="translate(592.912747 0) scale(0.996264)"/>
      <use xlink:href="#CMSS17-61" transform="translate(653.328902 0) scale(0.996264)"/>
      <use xlink:href="#CMSS17-6e" transform="translate(698.250822 0) scale(0.996264)"/>
      <use xlink:href="#CMSS17-6b" transform="translate(746.455765 0) scale(0.996264)"/>
      <use xlink:href="#CMSS17-49" transform="translate(823.287367 0) scale(0.996264)"/>
      <use xlink:href="#CMSS17-6e" transform="translate(849.071293 0) scale(0.996264)"/>
      <use xlink:href="#CMSS17-64" transform="translate(897.276236 0) scale(0.996264)"/>
      <use xlink:href="#CMSS17-65" transform="translate(945.481179 0) scale(0.996264)"/>
      <use xlink:href="#CMSS17-78" transform="translate(987.120001 0) scale(0.996264)"/>
     </g>
    </g>
   </g>
   <g id="matplotlib.axis_2">
    <g id="ytick_1">
     <g id="line2d_7">
      <path d="M 84.823004 328.553853 
L 553.968 328.553853 
" clip-path="url(#p414875e8c8)" style="fill: none; stroke: #cccccc; stroke-linecap: round"/>
     </g>
     <g id="text_8">
      <!-- $\mathdefault{−10}$ -->
      <g style="fill: #262626" transform="translate(43.74463 335.022645) scale(0.187 -0.187)">
       <defs>
        <path id="CMSY10-0" d="M 4218 1472 
C 4326 1472 4442 1472 4442 1600 
C 4442 1728 4326 1728 4218 1728 
L 755 1728 
C 646 1728 531 1728 531 1600 
C 531 1472 646 1472 755 1472 
L 4218 1472 
z
" transform="scale(0.015625)"/>
       </defs>
       <use xlink:href="#CMSY10-0" transform="scale(0.996264)"/>
       <use xlink:href="#CMR17-31" transform="translate(77.487468 0) scale(0.996264)"/>
       <use xlink:href="#CMR17-30" transform="translate(123.177945 0) scale(0.996264)"/>
      </g>
     </g>
    </g>
    <g id="ytick_2">
     <g id="line2d_8">
      <path d="M 84.823004 255.57246 
L 553.968 255.57246 
" clip-path="url(#p414875e8c8)" style="fill: none; stroke: #cccccc; stroke-linecap: round"/>
     </g>
     <g id="text_9">
      <!-- $\mathdefault{−5}$ -->
      <g style="fill: #262626" transform="translate(52.288747 262.041251) scale(0.187 -0.187)">
       <use xlink:href="#CMSY10-0" transform="scale(0.996264)"/>
       <use xlink:href="#CMR17-35" transform="translate(77.487468 0) scale(0.996264)"/>
      </g>
     </g>
    </g>
    <g id="ytick_3">
     <g id="line2d_9">
      <path d="M 84.823004 182.591066 
L 553.968 182.591066 
" clip-path="url(#p414875e8c8)" style="fill: none; stroke: #cccccc; stroke-linecap: round"/>
     </g>
     <g id="text_10">
      <!-- $\mathdefault{0}$ -->
      <g style="fill: #262626" transform="translate(66.778888 189.059858) scale(0.187 -0.187)">
       <use xlink:href="#CMR17-30" transform="scale(0.996264)"/>
      </g>
     </g>
    </g>
    <g id="ytick_4">
     <g id="line2d_10">
      <path d="M 84.823004 109.609672 
L 553.968 109.609672 
" clip-path="url(#p414875e8c8)" style="fill: none; stroke: #cccccc; stroke-linecap: round"/>
     </g>
     <g id="text_11">
      <!-- $\mathdefault{5}$ -->
      <g style="fill: #262626" transform="translate(66.778888 116.078464) scale(0.187 -0.187)">
       <use xlink:href="#CMR17-35" transform="scale(0.996264)"/>
      </g>
     </g>
    </g>
    <g id="ytick_5">
     <g id="line2d_11">
      <path d="M 84.823004 36.628279 
L 553.968 36.628279 
" clip-path="url(#p414875e8c8)" style="fill: none; stroke: #cccccc; stroke-linecap: round"/>
     </g>
     <g id="text_12">
      <!-- $\mathdefault{10}$ -->
      <g style="fill: #262626" transform="translate(58.234772 43.09707) scale(0.187 -0.187)">
       <use xlink:href="#CMR17-31" transform="scale(0.996264)"/>
       <use xlink:href="#CMR17-30" transform="translate(45.690477 0) scale(0.996264)"/>
      </g>
     </g>
    </g>
    <g id="text_13">
     <!-- Logarithm of Singular Value -->
     <g style="fill: #262626" transform="translate(35.868997 301.779198) rotate(-90) scale(0.2 -0.2)">
      <defs>
       <path id="CMSS17-4c" d="M 1670 414 
C 1594 414 1517 414 1440 414 
L 1101 414 
L 1101 4416 
L 563 4416 
L 563 0 
L 3002 0 
L 3002 414 
L 1670 414 
z
" transform="scale(0.015625)"/>
       <path id="CMSS17-6f" d="M 2829 1356 
C 2829 2176 2221 2816 1504 2816 
C 768 2816 173 2157 173 1356 
C 173 544 787 -64 1498 -64 
C 2227 -64 2829 563 2829 1356 
z
M 1504 337 
C 1050 337 659 709 659 1408 
C 659 2151 1114 2427 1498 2427 
C 1914 2427 2342 2126 2342 1408 
C 2342 683 1926 337 1504 337 
z
" transform="scale(0.015625)"/>
       <path id="CMSS17-74" d="M 1069 2368 
L 1901 2368 
L 1901 2737 
L 1069 2737 
L 1069 3520 
L 614 3520 
L 614 2737 
L 109 2737 
L 109 2368 
L 602 2368 
L 602 749 
C 602 384 685 -64 1107 -64 
C 1427 -64 1722 25 2003 172 
L 1901 548 
C 1747 414 1562 337 1363 337 
C 1082 337 1069 696 1069 856 
L 1069 2368 
z
" transform="scale(0.015625)"/>
       <path id="CMSS17-68" d="M 2618 1891 
C 2618 2292 2522 2820 1798 2820 
C 1395 2820 1133 2623 947 2407 
L 947 4448 
L 474 4448 
L 474 32 
L 960 32 
L 960 1573 
C 960 1973 1114 2432 1549 2432 
C 2112 2432 2131 2056 2131 1839 
L 2131 32 
L 2618 32 
L 2618 1891 
z
" transform="scale(0.015625)"/>
       <path id="CMSS17-6d" d="M 4288 1877 
C 4288 2308 4179 2816 3462 2816 
C 2982 2816 2694 2516 2566 2331 
C 2451 2670 2182 2816 1798 2816 
C 1363 2816 1088 2568 941 2389 
L 941 2758 
L 474 2758 
L 474 0 
L 960 0 
L 960 1559 
C 960 1939 1101 2428 1555 2428 
C 2138 2428 2138 2016 2138 1829 
L 2138 0 
L 2624 0 
L 2624 1559 
C 2624 1939 2765 2428 3219 2428 
C 3802 2428 3802 2016 3802 1829 
L 3802 0 
L 4288 0 
L 4288 1877 
z
" transform="scale(0.015625)"/>
       <path id="CMSS17-66" d="M 1075 2368 
L 1722 2368 
L 1722 2737 
L 1062 2737 
L 1062 3559 
C 1062 4014 1408 4092 1606 4092 
C 1670 4092 1850 4092 2080 4009 
L 2080 4429 
C 1933 4461 1754 4480 1613 4480 
C 1018 4480 602 3993 602 3359 
L 602 2737 
L 160 2737 
L 160 2368 
L 602 2368 
L 602 0 
L 1075 0 
L 1075 2368 
z
" transform="scale(0.015625)"/>
      </defs>
      <use xlink:href="#CMSS17-4c" transform="scale(0.996264)"/>
      <use xlink:href="#CMSS17-6f" transform="translate(50.687105 0) scale(0.996264)"/>
      <use xlink:href="#CMSS17-67" transform="translate(97.530729 0) scale(0.996264)"/>
      <use xlink:href="#CMSS17-61" transform="translate(144.374352 0) scale(0.996264)"/>
      <use xlink:href="#CMSS17-72" transform="translate(186.693819 0) scale(0.996264)"/>
      <use xlink:href="#CMSS17-69" transform="translate(218.603592 0) scale(0.996264)"/>
      <use xlink:href="#CMSS17-74" transform="translate(240.784315 0) scale(0.996264)"/>
      <use xlink:href="#CMSS17-68" transform="translate(274.615881 0) scale(0.996264)"/>
      <use xlink:href="#CMSS17-6d" transform="translate(322.820824 0) scale(0.996264)"/>
      <use xlink:href="#CMSS17-6f" transform="translate(428.279192 0) scale(0.996264)"/>
      <use xlink:href="#CMSS17-66" transform="translate(475.122815 0) scale(0.996264)"/>
      <use xlink:href="#CMSS17-53" transform="translate(534.978587 0) scale(0.996264)"/>
      <use xlink:href="#CMSS17-69" transform="translate(587.027103 0) scale(0.996264)"/>
      <use xlink:href="#CMSS17-6e" transform="translate(609.207826 0) scale(0.996264)"/>
      <use xlink:href="#CMSS17-67" transform="translate(657.412769 0) scale(0.996264)"/>
      <use xlink:href="#CMSS17-75" transform="translate(704.256393 0) scale(0.996264)"/>
      <use xlink:href="#CMSS17-6c" transform="translate(752.461336 0) scale(0.996264)"/>
      <use xlink:href="#CMSS17-61" transform="translate(774.642059 0) scale(0.996264)"/>
      <use xlink:href="#CMSS17-72" transform="translate(816.961526 0) scale(0.996264)"/>
      <use xlink:href="#CMSS17-56" transform="translate(880.100411 0) scale(0.996264)"/>
      <use xlink:href="#CMSS17-61" transform="translate(939.715812 0) scale(0.996264)"/>
      <use xlink:href="#CMSS17-6c" transform="translate(984.637732 0) scale(0.996264)"/>
      <use xlink:href="#CMSS17-75" transform="translate(1006.818455 0) scale(0.996264)"/>
      <use xlink:href="#CMSS17-65" transform="translate(1055.023399 0) scale(0.996264)"/>
     </g>
    </g>
   </g>
   <g id="line2d_12">
    <path d="M 106.147777 99.777771 
L 107.820308 102.820645 
L 109.492839 106.717896 
L 111.16537 108.481735 
L 112.837901 114.570769 
L 114.510433 116.329839 
L 116.182964 122.277626 
L 119.528026 123.287505 
L 121.200557 126.296485 
L 122.873088 128.329763 
L 124.54562 128.787888 
L 126.218151 129.652598 
L 127.890682 131.745439 
L 129.563213 132.632656 
L 131.235744 133.253379 
L 132.908275 134.173218 
L 134.580807 134.845768 
L 136.253338 135.35665 
L 139.5984 136.84797 
L 141.270931 137.484567 
L 142.943463 138.384213 
L 144.615994 138.598033 
L 146.288525 139.952368 
L 147.961056 141.506119 
L 149.633587 142.118488 
L 151.306118 142.23359 
L 152.97865 143.038278 
L 154.651181 144.332765 
L 156.323712 145.366937 
L 157.996243 145.997523 
L 159.668774 147.349815 
L 161.341306 147.812345 
L 164.686368 149.435293 
L 166.358899 149.762453 
L 169.703961 150.961412 
L 171.376493 152.039325 
L 173.049024 152.626569 
L 174.721555 153.523531 
L 176.394086 154.700565 
L 178.066617 155.553196 
L 179.739149 156.734417 
L 183.084211 156.970647 
L 184.756742 158.263676 
L 186.429273 159.106959 
L 188.101804 159.51448 
L 189.774336 159.807358 
L 191.446867 160.526709 
L 193.119398 161.034467 
L 196.46446 162.26949 
L 199.809523 163.388852 
L 201.482054 164.442601 
L 203.154585 164.967557 
L 206.499647 165.685449 
L 208.172179 166.038702 
L 209.84471 166.960063 
L 211.517241 167.332959 
L 213.189772 167.537852 
L 214.862303 168.664574 
L 216.534834 168.93852 
L 218.207366 169.719525 
L 219.879897 169.811836 
L 221.552428 170.676399 
L 223.224959 171.096239 
L 224.89749 171.631256 
L 228.242553 172.420512 
L 229.915084 173.086506 
L 231.587615 173.267847 
L 233.260146 173.673381 
L 234.932677 174.581285 
L 236.605209 174.891999 
L 238.27774 175.042431 
L 239.950271 175.658696 
L 241.622802 176.038544 
L 243.295333 176.546437 
L 244.967865 176.60392 
L 246.640396 177.418402 
L 248.312927 178.952461 
L 249.985458 179.249617 
L 251.657989 180.049782 
L 253.33052 181.019481 
L 255.003052 181.26283 
L 256.675583 182.013581 
L 260.020645 183.094713 
L 261.693176 183.839166 
L 263.365708 184.336293 
L 265.038239 185.264236 
L 266.71077 186.402732 
L 268.383301 186.738828 
L 270.055832 187.775604 
L 271.728363 188.036825 
L 273.400895 188.437751 
L 276.745957 190.503202 
L 281.76355 192.465306 
L 283.436082 192.842881 
L 285.108613 193.692492 
L 286.781144 194.389047 
L 288.453675 194.698611 
L 291.798738 196.23658 
L 293.471269 197.314787 
L 295.1438 199.13673 
L 296.816331 199.539811 
L 298.488862 200.578483 
L 300.161393 200.967434 
L 301.833925 202.14566 
L 305.178987 203.470523 
L 306.851518 204.442611 
L 308.524049 204.787515 
L 310.196581 205.562445 
L 311.869112 206.105756 
L 313.541643 207.535974 
L 315.214174 208.163443 
L 320.231768 210.504055 
L 321.904299 211.921417 
L 323.57683 212.304108 
L 325.249361 213.266276 
L 326.921892 214.357668 
L 328.594424 214.784081 
L 331.939486 216.60779 
L 333.612017 216.681776 
L 335.284548 217.592522 
L 336.957079 218.764272 
L 338.629611 219.143875 
L 340.302142 220.758479 
L 341.974673 221.044078 
L 343.647204 222.339483 
L 345.319735 222.850721 
L 346.992267 222.977684 
L 350.337329 224.619798 
L 352.00986 225.702408 
L 353.682391 226.471916 
L 355.354922 227.668549 
L 358.699985 229.390706 
L 360.372516 229.978062 
L 362.045047 230.350063 
L 363.717578 231.434682 
L 365.390109 231.913496 
L 367.062641 232.001403 
L 368.735172 233.725256 
L 373.752765 235.281452 
L 375.425297 236.47536 
L 377.097828 236.598143 
L 378.770359 238.143182 
L 380.44289 238.464104 
L 382.115421 240.164925 
L 383.787952 240.806104 
L 385.460484 241.099016 
L 388.805546 243.064254 
L 390.478077 243.279825 
L 392.150608 244.734915 
L 393.82314 245.347982 
L 395.495671 245.456251 
L 397.168202 245.925178 
L 398.840733 247.113537 
L 400.513264 247.451679 
L 402.185795 248.270308 
L 403.858327 248.471581 
L 405.530858 249.637168 
L 408.87592 250.952962 
L 410.548451 251.013942 
L 412.220983 251.938393 
L 413.893514 252.476715 
L 415.566045 253.479879 
L 417.238576 254.289648 
L 418.911107 255.345744 
L 420.583638 255.774033 
L 422.25617 255.962988 
L 423.928701 256.657619 
L 425.601232 257.143623 
L 427.273763 257.756462 
L 428.946294 259.148748 
L 432.291357 260.051489 
L 433.963888 260.409299 
L 435.636419 261.255124 
L 437.30895 261.513429 
L 438.981481 262.383921 
L 440.654013 263.09556 
L 442.326544 263.962805 
L 445.671606 264.726959 
L 447.344137 265.615164 
L 449.016668 265.724266 
L 452.361731 266.529376 
L 454.034262 267.357816 
L 455.706793 268.441332 
L 457.379324 268.704184 
L 459.051856 269.266619 
L 460.724387 269.678988 
L 462.396918 269.884091 
L 464.069449 270.949558 
L 465.74198 271.548954 
L 467.414511 271.697006 
L 469.087043 272.355474 
L 470.759574 272.787794 
L 472.432105 273.423207 
L 474.104636 273.559026 
L 475.777167 273.985355 
L 477.449699 274.916262 
L 479.12223 275.202472 
L 480.794761 276.057649 
L 482.467292 276.253688 
L 485.812354 277.491287 
L 487.484886 277.746192 
L 489.157417 278.454893 
L 492.502479 279.325193 
L 494.17501 280.319466 
L 495.847542 280.504741 
L 497.520073 281.243792 
L 499.192604 281.361836 
L 500.865135 282.360255 
L 504.210197 283.181967 
L 505.882729 283.396649 
L 507.55526 284.52732 
L 509.227791 284.85087 
L 510.900322 285.586655 
L 512.572853 286.007147 
L 514.245384 286.297982 
L 515.917916 287.100401 
L 517.590447 287.155641 
L 519.262978 287.956307 
L 520.935509 288.322605 
L 522.60804 288.476784 
L 524.280572 289.033884 
L 525.953103 290.012881 
L 527.625634 290.570829 
L 529.298165 291.737836 
L 530.970696 292.319341 
L 532.643227 293.40289 
L 532.643227 293.40289 
" clip-path="url(#p414875e8c8)" style="fill: none; stroke: #4169e1; stroke-width: 3; stroke-linecap: round"/>
   </g>
   <g id="line2d_13">
    <path d="M 106.147777 101.42143 
L 107.820308 109.79982 
L 109.492839 111.850814 
L 111.16537 117.298436 
L 114.510433 120.729186 
L 116.182964 123.363757 
L 119.528026 135.349384 
L 121.200557 136.334316 
L 122.873088 146.032501 
L 124.54562 153.441511 
L 126.218151 162.730569 
L 127.890682 170.883524 
L 129.563213 174.078932 
L 131.235744 176.19781 
L 132.908275 178.738988 
L 134.580807 180.993205 
L 136.253338 187.348257 
L 137.925869 187.596565 
L 141.270931 193.643414 
L 142.943463 194.971898 
L 144.615994 195.937538 
L 146.288525 197.627673 
L 147.961056 202.437064 
L 152.97865 208.583133 
L 154.651181 213.065435 
L 156.323712 218.459294 
L 157.996243 219.222827 
L 159.668774 223.231542 
L 161.341306 224.76648 
L 163.013837 227.709802 
L 164.686368 229.73764 
L 166.358899 231.306619 
L 168.03143 233.684653 
L 169.703961 234.519262 
L 171.376493 236.22575 
L 173.049024 238.966189 
L 174.721555 240.192662 
L 176.394086 242.272329 
L 178.066617 243.845999 
L 179.739149 243.907059 
L 181.41168 246.295518 
L 184.756742 248.550564 
L 186.429273 248.958204 
L 188.101804 250.349629 
L 191.446867 250.967745 
L 194.791929 252.748495 
L 196.46446 253.297881 
L 198.136992 254.664164 
L 199.809523 255.106416 
L 201.482054 256.137894 
L 204.827116 257.623246 
L 206.499647 257.968347 
L 208.172179 258.496881 
L 209.84471 258.819335 
L 216.534834 261.268556 
L 219.879897 261.855915 
L 221.552428 262.742261 
L 223.224959 263.043542 
L 224.89749 263.481271 
L 226.570022 263.596443 
L 228.242553 264.601945 
L 229.915084 264.988392 
L 231.587615 265.515273 
L 233.260146 265.891939 
L 236.605209 267.248951 
L 243.295333 268.9333 
L 244.967865 269.224317 
L 246.640396 269.951596 
L 248.312927 270.434921 
L 249.985458 270.594568 
L 253.33052 271.506629 
L 255.003052 272.348268 
L 256.675583 272.817153 
L 258.348114 273.163725 
L 260.020645 273.315443 
L 261.693176 273.780473 
L 265.038239 274.958265 
L 270.055832 276.468714 
L 271.728363 276.766603 
L 273.400895 277.711268 
L 276.745957 278.080461 
L 278.418488 278.40237 
L 280.091019 279.011537 
L 281.76355 279.489677 
L 283.436082 280.402048 
L 285.108613 281.102418 
L 286.781144 281.641993 
L 288.453675 282.034514 
L 290.126206 282.103416 
L 291.798738 282.538014 
L 293.471269 283.222769 
L 295.1438 283.666928 
L 296.816331 283.978449 
L 298.488862 284.904764 
L 300.161393 285.27959 
L 301.833925 285.863225 
L 303.506456 285.930104 
L 305.178987 286.605196 
L 306.851518 286.848881 
L 308.524049 287.52704 
L 310.196581 288.502775 
L 311.869112 289.002357 
L 313.541643 289.663277 
L 315.214174 290.744765 
L 316.886705 291.419531 
L 318.559236 291.589702 
L 321.904299 292.58292 
L 323.57683 293.308714 
L 325.249361 293.675287 
L 326.921892 294.806928 
L 328.594424 295.408486 
L 330.266955 296.210601 
L 331.939486 296.527023 
L 333.612017 298.031896 
L 335.284548 298.573561 
L 338.629611 299.171447 
L 341.974673 300.236613 
L 345.319735 300.767316 
L 346.992267 301.462943 
L 348.664798 301.728133 
L 350.337329 302.951012 
L 352.00986 303.265726 
L 353.682391 303.947756 
L 355.354922 304.259199 
L 357.027454 304.724371 
L 358.699985 304.857532 
L 360.372516 305.177351 
L 362.045047 305.978691 
L 363.717578 306.6187 
L 367.062641 307.096951 
L 368.735172 308.210878 
L 370.407703 308.370628 
L 373.752765 309.025743 
L 375.425297 309.548507 
L 380.44289 310.653243 
L 382.115421 311.570979 
L 383.787952 311.944956 
L 385.460484 312.133368 
L 388.805546 313.377506 
L 390.478077 313.910835 
L 395.495671 314.779682 
L 397.168202 315.288285 
L 398.840733 315.587322 
L 400.513264 316.045261 
L 402.185795 316.735632 
L 403.858327 317.220371 
L 405.530858 317.366814 
L 410.548451 318.745251 
L 412.220983 318.944405 
L 413.893514 319.278177 
L 417.238576 319.549576 
L 418.911107 320.40584 
L 420.583638 320.616235 
L 422.25617 321.020031 
L 423.928701 321.552174 
L 425.601232 321.904654 
L 427.273763 322.074715 
L 428.946294 322.676952 
L 432.291357 323.394069 
L 433.963888 324.042534 
L 442.326544 325.69942 
L 443.999075 326.396209 
L 445.671606 326.57216 
L 447.344137 327.265986 
L 449.016668 327.442165 
L 450.6892 327.941672 
L 454.034262 328.294977 
L 455.706793 328.832531 
L 457.379324 329.14959 
L 459.051856 329.630286 
L 460.724387 329.959741 
L 462.396918 330.163109 
L 464.069449 330.72089 
L 465.74198 330.945688 
L 472.432105 332.946004 
L 475.777167 333.227612 
L 479.12223 333.642886 
L 480.794761 334.201884 
L 482.467292 334.508696 
L 484.139823 335.381872 
L 485.812354 335.568576 
L 489.157417 336.463498 
L 492.502479 337.637348 
L 494.17501 337.949371 
L 495.847542 338.450829 
L 499.192604 338.892341 
L 500.865135 339.547731 
L 502.537666 339.676226 
L 505.882729 340.98725 
L 509.227791 341.37877 
L 510.900322 342.593929 
L 512.572853 342.985456 
L 514.245384 343.165457 
L 522.60804 345.085212 
L 525.953103 346.154716 
L 529.298165 347.64181 
L 530.970696 348.62337 
L 532.643227 349.365484 
L 532.643227 349.365484 
" clip-path="url(#p414875e8c8)" style="fill: none; stroke: #87ceeb; stroke-width: 3; stroke-linecap: round"/>
   </g>
   <g id="line2d_14">
    <path d="M 106.147777 104.015584 
L 107.820308 109.664641 
L 109.492839 110.550686 
L 111.16537 111.068817 
L 112.837901 111.813888 
L 114.510433 112.308663 
L 116.182964 112.482938 
L 117.855495 112.891381 
L 122.873088 113.611389 
L 129.563213 114.334714 
L 131.235744 114.69988 
L 134.580807 114.887409 
L 136.253338 115.335857 
L 142.943463 115.921903 
L 147.961056 116.373549 
L 152.97865 116.688937 
L 154.651181 116.980294 
L 156.323712 117.019609 
L 163.013837 117.627587 
L 168.03143 118.007065 
L 171.376493 118.127639 
L 174.721555 118.25494 
L 179.739149 118.669808 
L 181.41168 118.828112 
L 186.429273 118.976691 
L 188.101804 119.027133 
L 189.774336 119.300433 
L 193.119398 119.395414 
L 194.791929 119.553272 
L 196.46446 119.593778 
L 199.809523 119.849957 
L 204.827116 120.096575 
L 216.534834 120.738215 
L 234.932677 121.702872 
L 238.27774 121.827197 
L 241.622802 121.983942 
L 244.967865 122.161271 
L 249.985458 122.359576 
L 263.365708 122.911832 
L 266.71077 123.15396 
L 271.728363 123.259354 
L 273.400895 123.46769 
L 276.745957 123.59096 
L 285.108613 123.919093 
L 291.798738 124.159298 
L 295.1438 124.275061 
L 305.178987 124.737096 
L 308.524049 124.880675 
L 311.869112 125.05544 
L 316.886705 125.228504 
L 320.231768 125.440818 
L 331.939486 125.861558 
L 333.612017 126.108607 
L 336.957079 126.19669 
L 341.974673 126.531986 
L 372.080234 127.703367 
L 375.425297 127.92377 
L 383.787952 128.252475 
L 387.133015 128.439821 
L 390.478077 128.586016 
L 408.87592 129.38085 
L 413.893514 129.660835 
L 445.671606 131.21775 
L 447.344137 131.221507 
L 450.6892 131.460685 
L 459.051856 131.877846 
L 464.069449 132.224339 
L 469.087043 132.548009 
L 475.777167 132.775142 
L 482.467292 133.292177 
L 487.484886 133.453712 
L 490.829948 133.731598 
L 492.502479 133.963556 
L 494.17501 134.019263 
L 497.520073 134.365178 
L 502.537666 134.651475 
L 507.55526 135.026499 
L 509.227791 135.069364 
L 510.900322 135.43974 
L 512.572853 135.689315 
L 514.245384 135.722435 
L 519.262978 136.132228 
L 522.60804 136.356862 
L 524.280572 136.901431 
L 529.298165 137.450118 
L 530.970696 138.127658 
L 532.643227 144.425259 
L 532.643227 144.425259 
" clip-path="url(#p414875e8c8)" style="fill: none; stroke: #b22222; stroke-width: 3; stroke-linecap: round"/>
   </g>
   <g id="line2d_15">
    <path d="M 106.147777 92.793638 
L 107.820308 98.735677 
L 109.492839 101.404269 
L 111.16537 103.003964 
L 112.837901 103.348629 
L 114.510433 104.029199 
L 116.182964 105.289738 
L 117.855495 105.584209 
L 119.528026 106.384504 
L 122.873088 110.231138 
L 126.218151 111.932331 
L 127.890682 112.366755 
L 129.563213 113.9832 
L 131.235744 114.846524 
L 132.908275 115.332353 
L 134.580807 116.618213 
L 136.253338 116.790724 
L 137.925869 117.745773 
L 139.5984 118.464886 
L 141.270931 118.761915 
L 142.943463 119.575148 
L 144.615994 119.877836 
L 146.288525 120.017543 
L 147.961056 120.609254 
L 149.633587 120.919593 
L 151.306118 121.936892 
L 154.651181 122.819676 
L 159.668774 124.925719 
L 164.686368 126.143344 
L 166.358899 126.276764 
L 168.03143 126.644679 
L 169.703961 126.781453 
L 171.376493 127.629174 
L 173.049024 128.082979 
L 174.721555 128.940496 
L 176.394086 129.005794 
L 178.066617 129.360733 
L 179.739149 129.512731 
L 183.084211 130.567955 
L 184.756742 131.252935 
L 186.429273 131.76602 
L 189.774336 132.250141 
L 191.446867 132.767836 
L 193.119398 132.994143 
L 194.791929 133.472758 
L 196.46446 134.274279 
L 198.136992 134.629743 
L 199.809523 134.721824 
L 204.827116 135.997779 
L 206.499647 136.263762 
L 208.172179 136.389516 
L 209.84471 136.680675 
L 211.517241 136.713554 
L 214.862303 137.464685 
L 216.534834 137.574284 
L 223.224959 139.221722 
L 224.89749 139.454684 
L 226.570022 139.93857 
L 233.260146 140.580879 
L 234.932677 140.823916 
L 236.605209 141.221263 
L 239.950271 141.509991 
L 241.622802 141.840697 
L 243.295333 142.011551 
L 246.640396 142.669467 
L 248.312927 143.069965 
L 251.657989 143.658119 
L 253.33052 144.355273 
L 263.365708 145.315474 
L 265.038239 145.745502 
L 266.71077 145.842676 
L 271.728363 146.765084 
L 273.400895 147.011076 
L 275.073426 147.446732 
L 276.745957 147.46729 
L 281.76355 148.426123 
L 283.436082 148.497578 
L 285.108613 148.812692 
L 286.781144 148.889965 
L 288.453675 149.300064 
L 291.798738 149.931417 
L 295.1438 150.50452 
L 296.816331 150.568802 
L 298.488862 150.814457 
L 300.161393 150.899497 
L 301.833925 151.208204 
L 303.506456 151.671015 
L 308.524049 152.159452 
L 325.249361 154.220703 
L 326.921892 154.307525 
L 335.284548 155.478664 
L 336.957079 156.04239 
L 341.974673 156.622371 
L 343.647204 157.013992 
L 345.319735 157.074666 
L 348.664798 157.765021 
L 350.337329 157.868149 
L 352.00986 158.150077 
L 353.682391 158.211369 
L 355.354922 158.621993 
L 357.027454 158.674883 
L 367.062641 159.991903 
L 370.407703 160.178453 
L 372.080234 160.426229 
L 373.752765 160.554842 
L 375.425297 161.119503 
L 380.44289 161.633441 
L 382.115421 161.914034 
L 385.460484 162.238917 
L 387.133015 162.423822 
L 388.805546 162.836438 
L 390.478077 162.933618 
L 393.82314 163.556888 
L 395.495671 163.619041 
L 405.530858 165.050131 
L 408.87592 165.427616 
L 413.893514 166.447808 
L 415.566045 166.647672 
L 417.238576 166.709833 
L 423.928701 167.426801 
L 425.601232 167.971723 
L 430.618825 168.519402 
L 432.291357 168.927521 
L 433.963888 169.019537 
L 438.981481 169.828642 
L 440.654013 169.875438 
L 442.326544 170.147988 
L 443.999075 170.576037 
L 449.016668 171.016443 
L 452.361731 171.534308 
L 454.034262 171.599713 
L 459.051856 172.21832 
L 460.724387 172.317091 
L 464.069449 173.033575 
L 465.74198 173.114622 
L 469.087043 173.698815 
L 470.759574 174.253076 
L 472.432105 174.372121 
L 474.104636 174.653131 
L 477.449699 174.788662 
L 479.12223 175.294314 
L 484.139823 176.110632 
L 485.812354 176.638493 
L 487.484886 176.715872 
L 490.829948 177.474207 
L 492.502479 177.624467 
L 494.17501 178.056457 
L 495.847542 178.209475 
L 499.192604 178.854764 
L 500.865135 178.917252 
L 502.537666 179.734154 
L 504.210197 179.937591 
L 505.882729 180.640854 
L 507.55526 180.723582 
L 509.227791 181.061961 
L 510.900322 181.570884 
L 512.572853 181.819262 
L 514.245384 182.708344 
L 515.917916 182.917305 
L 517.590447 183.591728 
L 519.262978 183.926638 
L 520.935509 184.133913 
L 524.280572 184.826998 
L 525.953103 185.33983 
L 527.625634 186.088287 
L 529.298165 186.433994 
L 530.970696 187.009849 
L 532.643227 189.865609 
L 532.643227 189.865609 
" clip-path="url(#p414875e8c8)" style="fill: none; stroke: #f08080; stroke-width: 3; stroke-linecap: round"/>
   </g>
   <g id="patch_3">
    <path d="M 84.823004 362.194077 
L 84.823004 22.032 
" style="fill: none; stroke: #cccccc; stroke-width: 1.25; stroke-linejoin: miter; stroke-linecap: square"/>
   </g>
   <g id="patch_4">
    <path d="M 553.968 362.194077 
L 553.968 22.032 
" style="fill: none; stroke: #cccccc; stroke-width: 1.25; stroke-linejoin: miter; stroke-linecap: square"/>
   </g>
   <g id="patch_5">
    <path d="M 84.823004 362.194077 
L 553.968 362.194077 
" style="fill: none; stroke: #cccccc; stroke-width: 1.25; stroke-linejoin: miter; stroke-linecap: square"/>
   </g>
   <g id="patch_6">
    <path d="M 84.823004 22.032 
L 553.968 22.032 
" style="fill: none; stroke: #cccccc; stroke-width: 1.25; stroke-linejoin: miter; stroke-linecap: square"/>
   </g>
   <g id="legend_1">
    <g id="patch_7">
     <path d="M 368.70187 117.022785 
L 544.168 117.022785 
Q 546.968 117.022785 546.968 114.222785 
L 546.968 31.832 
Q 546.968 29.032 544.168 29.032 
L 368.70187 29.032 
Q 365.90187 29.032 365.90187 31.832 
L 365.90187 114.222785 
Q 365.90187 117.022785 368.70187 117.022785 
z
" style="fill: #ffffff; opacity: 0.8; stroke: #cccccc; stroke-linejoin: miter"/>
    </g>
    <g id="line2d_16">
     <path d="M 371.50187 40.192772 
L 385.50187 40.192772 
L 399.50187 40.192772 
" style="fill: none; stroke: #4169e1; stroke-width: 3; stroke-linecap: round"/>
    </g>
    <g id="text_14">
     <!-- LuXry (train) -->
     <g style="fill: #262626" transform="translate(410.70187 45.092772) scale(0.14 -0.14)">
      <defs>
       <path id="CMSS17-58" d="M 2214 2329 
L 3661 4416 
L 3072 4416 
L 1952 2762 
L 800 4416 
L 166 4416 
L 1690 2329 
L 83 0 
L 672 0 
L 1952 1941 
L 3277 0 
L 3910 0 
L 2214 2329 
z
" transform="scale(0.015625)"/>
       <path id="CMSS17-79" d="M 2675 2752 
L 2176 2752 
C 1632 1294 1446 702 1434 383 
L 1427 383 
C 1408 696 1126 1460 902 2007 
L 602 2752 
L 83 2752 
L 1216 13 
C 1146 -178 1043 -465 1011 -529 
C 870 -885 774 -885 672 -885 
C 646 -885 442 -885 211 -809 
L 250 -1229 
C 410 -1261 570 -1280 685 -1280 
C 845 -1280 1165 -1280 1459 -497 
L 2675 2752 
z
" transform="scale(0.015625)"/>
       <path id="CMSS17-28" d="M 1613 4768 
C 1267 4417 474 3601 474 1588 
C 474 -433 1267 -1243 1613 -1600 
L 2003 -1600 
C 1216 -784 960 357 960 1581 
C 960 2798 1203 3946 2003 4768 
L 1613 4768 
z
" transform="scale(0.015625)"/>
       <path id="CMSS17-29" d="M 723 -1600 
C 1069 -1249 1862 -433 1862 1581 
C 1862 3601 1069 4411 723 4768 
L 333 4768 
C 1120 3952 1376 2811 1376 1588 
C 1376 370 1133 -778 333 -1600 
L 723 -1600 
z
" transform="scale(0.015625)"/>
      </defs>
      <use xlink:href="#CMSS17-4c" transform="scale(0.996264)"/>
      <use xlink:href="#CMSS17-75" transform="translate(50.687105 0) scale(0.996264)"/>
      <use xlink:href="#CMSS17-58" transform="translate(98.892048 0) scale(0.996264)"/>
      <use xlink:href="#CMSS17-72" transform="translate(161.109903 0) scale(0.996264)"/>
      <use xlink:href="#CMSS17-79" transform="translate(193.019676 0) scale(0.996264)"/>
      <use xlink:href="#CMSS17-28" transform="translate(267.24893 0) scale(0.996264)"/>
      <use xlink:href="#CMSS17-74" transform="translate(303.682845 0) scale(0.996264)"/>
      <use xlink:href="#CMSS17-72" transform="translate(337.514411 0) scale(0.996264)"/>
      <use xlink:href="#CMSS17-61" transform="translate(369.424184 0) scale(0.996264)"/>
      <use xlink:href="#CMSS17-69" transform="translate(414.346104 0) scale(0.996264)"/>
      <use xlink:href="#CMSS17-6e" transform="translate(436.526827 0) scale(0.996264)"/>
      <use xlink:href="#CMSS17-29" transform="translate(484.731771 0) scale(0.996264)"/>
     </g>
    </g>
    <g id="line2d_17">
     <path d="M 371.50187 61.140468 
L 385.50187 61.140468 
L 399.50187 61.140468 
" style="fill: none; stroke: #87ceeb; stroke-width: 3; stroke-linecap: round"/>
    </g>
    <g id="text_15">
     <!-- Downstream (external) -->
     <g style="fill: #262626" transform="translate(410.70187 66.040468) scale(0.14 -0.14)">
      <defs>
       <path id="CMSS17-44" d="M 570 4416 
L 570 0 
L 2144 0 
C 3194 0 4000 980 4000 2170 
C 4000 3398 3194 4416 2144 4416 
L 570 4416 
z
M 1094 357 
L 1094 4059 
L 2003 4059 
C 2861 4059 3475 3277 3475 2170 
C 3475 1107 2867 357 2003 357 
L 1094 357 
z
" transform="scale(0.015625)"/>
       <path id="CMSS17-77" d="M 4013 2752 
L 3526 2752 
L 3187 1601 
C 3117 1358 2918 685 2893 371 
L 2886 371 
C 2874 564 2765 1024 2586 1633 
L 2259 2752 
L 1818 2752 
L 1498 1658 
C 1338 1101 1216 627 1203 371 
L 1197 371 
C 1171 749 909 1633 870 1773 
L 582 2752 
L 83 2752 
L 915 0 
L 1402 0 
C 1734 1096 1990 1943 2010 2370 
C 2022 2160 2131 1707 2195 1484 
L 2618 0 
L 3181 0 
L 4013 2752 
z
" transform="scale(0.015625)"/>
       <path id="CMSS17-73" d="M 2061 2627 
C 1683 2807 1389 2807 1197 2807 
C 742 2807 198 2648 198 2003 
C 198 1359 902 1218 1094 1179 
C 1389 1122 1715 1058 1715 740 
C 1715 337 1254 337 1171 337 
C 915 337 563 407 243 638 
L 166 210 
C 531 0 883 -64 1178 -64 
C 1965 -64 2163 416 2163 781 
C 2163 1094 1984 1305 1862 1401 
C 1651 1568 1574 1587 1050 1696 
C 960 1709 646 1779 646 2066 
C 646 2432 1050 2432 1139 2432 
C 1555 2432 1811 2303 1984 2208 
L 2061 2627 
z
" transform="scale(0.015625)"/>
      </defs>
      <use xlink:href="#CMSS17-44" transform="scale(0.996264)"/>
      <use xlink:href="#CMSS17-6f" transform="translate(67.542842 0) scale(0.996264)"/>
      <use xlink:href="#CMSS17-77" transform="translate(111.784011 0) scale(0.996264)"/>
      <use xlink:href="#CMSS17-6e" transform="translate(175.603556 0) scale(0.996264)"/>
      <use xlink:href="#CMSS17-73" transform="translate(223.808499 0) scale(0.996264)"/>
      <use xlink:href="#CMSS17-74" transform="translate(259.722041 0) scale(0.996264)"/>
      <use xlink:href="#CMSS17-72" transform="translate(293.553608 0) scale(0.996264)"/>
      <use xlink:href="#CMSS17-65" transform="translate(325.463381 0) scale(0.996264)"/>
      <use xlink:href="#CMSS17-61" transform="translate(367.102203 0) scale(0.996264)"/>
      <use xlink:href="#CMSS17-6d" transform="translate(412.024123 0) scale(0.996264)"/>
      <use xlink:href="#CMSS17-28" transform="translate(517.482491 0) scale(0.996264)"/>
      <use xlink:href="#CMSS17-65" transform="translate(553.916405 0) scale(0.996264)"/>
      <use xlink:href="#CMSS17-78" transform="translate(595.555227 0) scale(0.996264)"/>
      <use xlink:href="#CMSS17-74" transform="translate(638.555369 0) scale(0.996264)"/>
      <use xlink:href="#CMSS17-65" transform="translate(672.386935 0) scale(0.996264)"/>
      <use xlink:href="#CMSS17-72" transform="translate(714.025757 0) scale(0.996264)"/>
      <use xlink:href="#CMSS17-6e" transform="translate(745.93553 0) scale(0.996264)"/>
      <use xlink:href="#CMSS17-61" transform="translate(794.140473 0) scale(0.996264)"/>
      <use xlink:href="#CMSS17-6c" transform="translate(839.062394 0) scale(0.996264)"/>
      <use xlink:href="#CMSS17-29" transform="translate(861.243117 0) scale(0.996264)"/>
     </g>
    </g>
    <g id="line2d_18">
     <path d="M 371.50187 82.088164 
L 385.50187 82.088164 
L 399.50187 82.088164 
" style="fill: none; stroke: #b22222; stroke-width: 3; stroke-linecap: round"/>
    </g>
    <g id="text_16">
     <!-- ImageNet (train) -->
     <g style="fill: #262626" transform="translate(410.70187 86.988164) scale(0.14 -0.14)">
      <defs>
       <path id="CMSS17-4e" d="M 1466 4180 
L 1350 4416 
L 563 4416 
L 563 0 
L 1062 0 
L 1062 3926 
L 1069 3932 
C 1114 3817 1139 3760 1402 3194 
L 2771 236 
L 2886 0 
L 3674 0 
L 3674 4416 
L 3174 4416 
L 3174 490 
L 3168 483 
C 3123 598 3098 655 2835 1221 
L 1466 4180 
z
" transform="scale(0.015625)"/>
      </defs>
      <use xlink:href="#CMSS17-49" transform="scale(0.996264)"/>
      <use xlink:href="#CMSS17-6d" transform="translate(25.783926 0) scale(0.996264)"/>
      <use xlink:href="#CMSS17-61" transform="translate(100.01318 0) scale(0.996264)"/>
      <use xlink:href="#CMSS17-67" transform="translate(144.935101 0) scale(0.996264)"/>
      <use xlink:href="#CMSS17-65" transform="translate(191.778724 0) scale(0.996264)"/>
      <use xlink:href="#CMSS17-4e" transform="translate(233.417546 0) scale(0.996264)"/>
      <use xlink:href="#CMSS17-65" transform="translate(299.479065 0) scale(0.996264)"/>
      <use xlink:href="#CMSS17-74" transform="translate(341.117887 0) scale(0.996264)"/>
      <use xlink:href="#CMSS17-28" transform="translate(406.178567 0) scale(0.996264)"/>
      <use xlink:href="#CMSS17-74" transform="translate(442.612481 0) scale(0.996264)"/>
      <use xlink:href="#CMSS17-72" transform="translate(476.444048 0) scale(0.996264)"/>
      <use xlink:href="#CMSS17-61" transform="translate(508.35382 0) scale(0.996264)"/>
      <use xlink:href="#CMSS17-69" transform="translate(553.275741 0) scale(0.996264)"/>
      <use xlink:href="#CMSS17-6e" transform="translate(575.456464 0) scale(0.996264)"/>
      <use xlink:href="#CMSS17-29" transform="translate(623.661407 0) scale(0.996264)"/>
     </g>
    </g>
    <g id="line2d_19">
     <path d="M 371.50187 103.035861 
L 385.50187 103.035861 
L 399.50187 103.035861 
" style="fill: none; stroke: #f08080; stroke-width: 3; stroke-linecap: round"/>
    </g>
    <g id="text_17">
     <!-- COCO (external) -->
     <g style="fill: #262626" transform="translate(410.70187 107.935861) scale(0.14 -0.14)">
      <defs>
       <path id="CMSS17-43" d="M 3501 714 
C 3072 427 2874 344 2355 344 
C 1459 344 934 1303 934 2179 
C 934 3112 1472 4032 2381 4032 
C 2790 4032 3059 3918 3386 3715 
L 3475 4217 
C 3168 4370 2778 4440 2387 4440 
C 1158 4440 397 3316 397 2179 
C 397 927 1299 -64 2323 -64 
C 2874 -64 3066 -19 3539 280 
L 3501 714 
z
" transform="scale(0.015625)"/>
       <path id="CMSS17-4f" d="M 4096 2178 
C 4096 3503 3219 4497 2214 4497 
C 1210 4497 333 3497 333 2178 
C 333 847 1222 -128 2214 -128 
C 3206 -128 4096 847 4096 2178 
z
M 2214 273 
C 1510 273 870 1057 870 2261 
C 870 3433 1549 4096 2214 4096 
C 2880 4096 3558 3433 3558 2261 
C 3558 1051 2912 273 2214 273 
z
" transform="scale(0.015625)"/>
      </defs>
      <use xlink:href="#CMSS17-43" transform="scale(0.996264)"/>
      <use xlink:href="#CMSS17-4f" transform="translate(59.855772 0) scale(0.996264)"/>
      <use xlink:href="#CMSS17-43" transform="translate(128.880027 0) scale(0.996264)"/>
      <use xlink:href="#CMSS17-4f" transform="translate(188.735798 0) scale(0.996264)"/>
      <use xlink:href="#CMSS17-28" transform="translate(288.989167 0) scale(0.996264)"/>
      <use xlink:href="#CMSS17-65" transform="translate(325.423081 0) scale(0.996264)"/>
      <use xlink:href="#CMSS17-78" transform="translate(367.061903 0) scale(0.996264)"/>
      <use xlink:href="#CMSS17-74" transform="translate(410.062045 0) scale(0.996264)"/>
      <use xlink:href="#CMSS17-65" transform="translate(443.893611 0) scale(0.996264)"/>
      <use xlink:href="#CMSS17-72" transform="translate(485.532433 0) scale(0.996264)"/>
      <use xlink:href="#CMSS17-6e" transform="translate(517.442206 0) scale(0.996264)"/>
      <use xlink:href="#CMSS17-61" transform="translate(565.647149 0) scale(0.996264)"/>
      <use xlink:href="#CMSS17-6c" transform="translate(610.56907 0) scale(0.996264)"/>
      <use xlink:href="#CMSS17-29" transform="translate(632.749793 0) scale(0.996264)"/>
     </g>
    </g>
   </g>
  </g>
 </g>
 <defs>
  <clipPath id="p414875e8c8">
   <rect x="84.823004" y="22.032" width="469.144996" height="340.162077"/>
  </clipPath>
 </defs>
</svg>
