<?xml version="1.0" encoding="utf-8" standalone="no"?>
<!DOCTYPE svg PUBLIC "-//W3C//DTD SVG 1.1//EN"
  "http://www.w3.org/Graphics/SVG/1.1/DTD/svg11.dtd">
<svg xmlns:xlink="http://www.w3.org/1999/xlink" width="576pt" height="432pt" viewBox="0 0 576 432" xmlns="http://www.w3.org/2000/svg" version="1.1">
 <metadata>
  <rdf:RDF xmlns:dc="http://purl.org/dc/elements/1.1/" xmlns:cc="http://creativecommons.org/ns#" xmlns:rdf="http://www.w3.org/1999/02/22-rdf-syntax-ns#">
   <cc:Work>
    <dc:type rdf:resource="http://purl.org/dc/dcmitype/StillImage"/>
    <dc:date>2024-06-26T14:18:15.383764</dc:date>
    <dc:format>image/svg+xml</dc:format>
    <dc:creator>
     <cc:Agent>
      <dc:title>Matplotlib v3.8.3, https://matplotlib.org/</dc:title>
     </cc:Agent>
    </dc:creator>
   </cc:Work>
  </rdf:RDF>
 </metadata>
 <defs>
  <style type="text/css">*{stroke-linejoin: round; stroke-linecap: butt}</style>
 </defs>
 <g id="figure_1">
  <g id="patch_1">
   <path d="M 0 432 
L 576 432 
L 576 0 
L 0 0 
z
" style="fill: #ffffff"/>
  </g>
  <g id="axes_1">
   <g id="patch_2">
    <path d="M 84.823004 362.194077 
L 553.968 362.194077 
L 553.968 28.500792 
L 84.823004 28.500792 
z
" style="fill: #ffffff"/>
   </g>
   <g id="matplotlib.axis_1">
    <g id="xtick_1">
     <g id="line2d_1">
      <path d="M 106.147777 362.194077 
L 106.147777 28.500792 
" clip-path="url(#p65f2e716df)" style="fill: none; stroke: #cccccc; stroke-linecap: round"/>
     </g>
     <g id="text_1">
      <!-- $\mathdefault{0}$ -->
      <g style="fill: #262626" transform="translate(101.875719 384.63166) scale(0.187 -0.187)">
       <defs>
        <path id="CMR17-30" d="M 2688 2025 
C 2688 2416 2682 3080 2413 3591 
C 2176 4039 1798 4198 1466 4198 
C 1158 4198 768 4058 525 3597 
C 269 3118 243 2524 243 2025 
C 243 1661 250 1106 448 619 
C 723 -39 1216 -128 1466 -128 
C 1760 -128 2208 -7 2470 600 
C 2662 1042 2688 1559 2688 2025 
z
M 1466 -26 
C 1056 -26 813 325 723 812 
C 653 1188 653 1738 653 2096 
C 653 2588 653 2997 736 3387 
C 858 3929 1216 4096 1466 4096 
C 1728 4096 2067 3923 2189 3400 
C 2272 3036 2278 2607 2278 2096 
C 2278 1680 2278 1169 2202 792 
C 2067 95 1690 -26 1466 -26 
z
" transform="scale(0.015625)"/>
       </defs>
       <use xlink:href="#CMR17-30" transform="scale(0.996264)"/>
      </g>
     </g>
    </g>
    <g id="xtick_2">
     <g id="line2d_2">
      <path d="M 173.312415 362.194077 
L 173.312415 28.500792 
" clip-path="url(#p65f2e716df)" style="fill: none; stroke: #cccccc; stroke-linecap: round"/>
     </g>
     <g id="text_2">
      <!-- $\mathdefault{20}$ -->
      <g style="fill: #262626" transform="translate(164.768298 384.63166) scale(0.187 -0.187)">
       <defs>
        <path id="CMR17-32" d="M 2669 989 
L 2554 989 
C 2490 536 2438 459 2413 420 
C 2381 369 1920 369 1830 369 
L 602 369 
C 832 619 1280 1072 1824 1597 
C 2214 1967 2669 2402 2669 3035 
C 2669 3790 2067 4224 1395 4224 
C 691 4224 262 3604 262 3030 
C 262 2780 448 2748 525 2748 
C 589 2748 781 2787 781 3010 
C 781 3207 614 3264 525 3264 
C 486 3264 448 3258 422 3245 
C 544 3790 915 4058 1306 4058 
C 1862 4058 2227 3617 2227 3035 
C 2227 2479 1901 2000 1536 1584 
L 262 146 
L 262 0 
L 2515 0 
L 2669 989 
z
" transform="scale(0.015625)"/>
       </defs>
       <use xlink:href="#CMR17-32" transform="scale(0.996264)"/>
       <use xlink:href="#CMR17-30" transform="translate(45.690477 0) scale(0.996264)"/>
      </g>
     </g>
    </g>
    <g id="xtick_3">
     <g id="line2d_3">
      <path d="M 240.477052 362.194077 
L 240.477052 28.500792 
" clip-path="url(#p65f2e716df)" style="fill: none; stroke: #cccccc; stroke-linecap: round"/>
     </g>
     <g id="text_3">
      <!-- $\mathdefault{40}$ -->
      <g style="fill: #262626" transform="translate(231.932936 384.63166) scale(0.187 -0.187)">
       <defs>
        <path id="CMR17-34" d="M 2150 4122 
C 2150 4256 2144 4256 2029 4256 
L 128 1254 
L 128 1088 
L 1779 1088 
L 1779 457 
C 1779 224 1766 160 1318 160 
L 1197 160 
L 1197 0 
C 1402 0 1747 0 1965 0 
C 2182 0 2528 0 2733 0 
L 2733 160 
L 2611 160 
C 2163 160 2150 224 2150 457 
L 2150 1088 
L 2803 1088 
L 2803 1254 
L 2150 1254 
L 2150 4122 
z
M 1798 3703 
L 1798 1254 
L 256 1254 
L 1798 3703 
z
" transform="scale(0.015625)"/>
       </defs>
       <use xlink:href="#CMR17-34" transform="scale(0.996264)"/>
       <use xlink:href="#CMR17-30" transform="translate(45.690477 0) scale(0.996264)"/>
      </g>
     </g>
    </g>
    <g id="xtick_4">
     <g id="line2d_4">
      <path d="M 307.64169 362.194077 
L 307.64169 28.500792 
" clip-path="url(#p65f2e716df)" style="fill: none; stroke: #cccccc; stroke-linecap: round"/>
     </g>
     <g id="text_4">
      <!-- $\mathdefault{60}$ -->
      <g style="fill: #262626" transform="translate(299.097574 384.63166) scale(0.187 -0.187)">
       <defs>
        <path id="CMR17-36" d="M 678 2176 
C 678 3690 1395 4032 1811 4032 
C 1946 4032 2272 4009 2400 3776 
C 2298 3776 2106 3776 2106 3553 
C 2106 3381 2246 3323 2336 3323 
C 2394 3323 2566 3348 2566 3560 
C 2566 3954 2246 4179 1805 4179 
C 1043 4179 243 3390 243 1984 
C 243 253 966 -128 1478 -128 
C 2099 -128 2688 427 2688 1283 
C 2688 2081 2170 2662 1517 2662 
C 1126 2662 838 2407 678 1960 
L 678 2176 
z
M 1478 25 
C 691 25 691 1200 691 1436 
C 691 1896 909 2560 1504 2560 
C 1613 2560 1926 2560 2138 2120 
C 2253 1870 2253 1609 2253 1289 
C 2253 944 2253 690 2118 434 
C 1978 171 1773 25 1478 25 
z
" transform="scale(0.015625)"/>
       </defs>
       <use xlink:href="#CMR17-36" transform="scale(0.996264)"/>
       <use xlink:href="#CMR17-30" transform="translate(45.690477 0) scale(0.996264)"/>
      </g>
     </g>
    </g>
    <g id="xtick_5">
     <g id="line2d_5">
      <path d="M 374.806328 362.194077 
L 374.806328 28.500792 
" clip-path="url(#p65f2e716df)" style="fill: none; stroke: #cccccc; stroke-linecap: round"/>
     </g>
     <g id="text_5">
      <!-- $\mathdefault{80}$ -->
      <g style="fill: #262626" transform="translate(366.262212 384.63166) scale(0.187 -0.187)">
       <defs>
        <path id="CMR17-38" d="M 1741 2264 
C 2144 2467 2554 2773 2554 3263 
C 2554 3841 1990 4179 1472 4179 
C 890 4179 378 3759 378 3180 
C 378 3021 416 2747 666 2505 
C 730 2442 998 2251 1171 2130 
C 883 1983 211 1634 211 934 
C 211 279 838 -128 1459 -128 
C 2144 -128 2720 362 2720 1010 
C 2720 1590 2330 1857 2074 2029 
L 1741 2264 
z
M 902 2822 
C 851 2854 595 3051 595 3351 
C 595 3739 998 4032 1459 4032 
C 1965 4032 2336 3676 2336 3262 
C 2336 2669 1670 2331 1638 2331 
C 1632 2331 1626 2331 1574 2370 
L 902 2822 
z
M 2080 1519 
C 2176 1449 2483 1240 2483 851 
C 2483 381 2010 25 1472 25 
C 890 25 448 438 448 940 
C 448 1443 838 1862 1280 2060 
L 2080 1519 
z
" transform="scale(0.015625)"/>
       </defs>
       <use xlink:href="#CMR17-38" transform="scale(0.996264)"/>
       <use xlink:href="#CMR17-30" transform="translate(45.690477 0) scale(0.996264)"/>
      </g>
     </g>
    </g>
    <g id="xtick_6">
     <g id="line2d_6">
      <path d="M 441.970966 362.194077 
L 441.970966 28.500792 
" clip-path="url(#p65f2e716df)" style="fill: none; stroke: #cccccc; stroke-linecap: round"/>
     </g>
     <g id="text_6">
      <!-- $\mathdefault{100}$ -->
      <g style="fill: #262626" transform="translate(429.154792 384.63166) scale(0.187 -0.187)">
       <defs>
        <path id="CMR17-31" d="M 1702 4058 
C 1702 4192 1696 4192 1606 4192 
C 1357 3916 979 3827 621 3827 
C 602 3827 570 3827 563 3808 
C 557 3795 557 3782 557 3648 
C 755 3648 1088 3686 1344 3839 
L 1344 461 
C 1344 236 1331 160 781 160 
L 589 160 
L 589 0 
C 896 0 1216 0 1523 0 
C 1830 0 2150 0 2458 0 
L 2458 160 
L 2266 160 
C 1715 160 1702 230 1702 458 
L 1702 4058 
z
" transform="scale(0.015625)"/>
       </defs>
       <use xlink:href="#CMR17-31" transform="scale(0.996264)"/>
       <use xlink:href="#CMR17-30" transform="translate(45.690477 0) scale(0.996264)"/>
       <use xlink:href="#CMR17-30" transform="translate(91.380954 0) scale(0.996264)"/>
      </g>
     </g>
    </g>
    <g id="xtick_7">
     <g id="line2d_7">
      <path d="M 509.135604 362.194077 
L 509.135604 28.500792 
" clip-path="url(#p65f2e716df)" style="fill: none; stroke: #cccccc; stroke-linecap: round"/>
     </g>
     <g id="text_7">
      <!-- $\mathdefault{120}$ -->
      <g style="fill: #262626" transform="translate(496.31943 384.63166) scale(0.187 -0.187)">
       <use xlink:href="#CMR17-31" transform="scale(0.996264)"/>
       <use xlink:href="#CMR17-32" transform="translate(45.690477 0) scale(0.996264)"/>
       <use xlink:href="#CMR17-30" transform="translate(91.380954 0) scale(0.996264)"/>
      </g>
     </g>
    </g>
    <g id="text_8">
     <!-- Singular Value Rank Index -->
     <g style="fill: #262626" transform="translate(216.383542 406.092366) scale(0.2 -0.2)">
      <defs>
       <path id="CMSS17-53" d="M 2797 4169 
C 2515 4334 2208 4480 1690 4480 
C 864 4480 333 3879 333 3266 
C 333 3025 403 2753 653 2475 
C 902 2196 1184 2121 1542 2033 
C 1690 1994 1939 1924 1984 1906 
C 2342 1767 2515 1444 2515 1140 
C 2515 742 2202 318 1645 318 
C 1453 318 890 318 358 819 
L 269 318 
C 794 -64 1363 -128 1651 -128 
C 2438 -128 3002 488 3002 1186 
C 3002 1440 2925 1763 2656 2061 
C 2394 2347 2163 2410 1638 2549 
C 1338 2626 1146 2677 986 2873 
C 877 3013 819 3146 819 3317 
C 819 3673 1126 4060 1690 4060 
C 1971 4060 2336 4002 2707 3660 
L 2797 4169 
z
" transform="scale(0.015625)"/>
       <path id="CMSS17-69" d="M 979 4183 
L 442 4183 
L 442 3648 
L 979 3648 
L 979 4183 
z
M 947 2739 
L 474 2739 
L 474 0 
L 947 0 
L 947 2739 
z
" transform="scale(0.015625)"/>
       <path id="CMSS17-6e" d="M 2618 1877 
C 2618 2283 2522 2816 1798 2816 
C 1389 2816 1120 2606 941 2389 
L 941 2758 
L 474 2758 
L 474 0 
L 960 0 
L 960 1559 
C 960 1964 1114 2428 1549 2428 
C 2112 2428 2131 2048 2131 1829 
L 2131 0 
L 2618 0 
L 2618 1877 
z
" transform="scale(0.015625)"/>
       <path id="CMSS17-67" d="M 2848 2808 
C 2483 2808 2170 2738 1914 2617 
C 1702 2777 1485 2808 1338 2808 
C 781 2808 358 2349 358 1814 
C 358 1468 550 1207 563 1195 
C 448 1035 384 863 384 672 
C 384 448 474 289 544 200 
C 211 -3 166 -314 166 -435 
C 166 -898 749 -1280 1498 -1280 
C 2253 -1280 2835 -898 2835 -428 
C 2835 448 1856 448 1587 448 
L 1069 448 
C 973 448 717 448 717 791 
C 717 921 774 1004 781 1010 
C 877 940 1075 832 1338 832 
C 1869 832 2310 1278 2310 1827 
C 2310 2132 2170 2355 2112 2432 
L 2131 2432 
C 2150 2432 2419 2432 2515 2432 
C 2720 2432 2739 2429 2918 2419 
L 2848 2808 
z
M 1338 1182 
C 1120 1182 813 1315 813 1823 
C 813 2375 1165 2464 1331 2464 
C 1549 2464 1856 2331 1856 1823 
C 1856 1271 1504 1182 1338 1182 
z
M 1581 -10 
C 1734 -10 2381 -10 2381 -442 
C 2381 -714 1984 -929 1504 -929 
C 1018 -929 621 -720 621 -435 
C 621 -403 621 -10 1062 -10 
L 1581 -10 
z
" transform="scale(0.015625)"/>
       <path id="CMSS17-75" d="M 2618 2739 
L 2131 2739 
L 2131 972 
C 2131 498 1786 306 1421 306 
C 998 306 960 447 960 709 
L 960 2739 
L 474 2739 
L 474 678 
C 474 179 646 -64 1088 -64 
C 1306 -64 1798 -13 2144 306 
L 2144 0 
L 2618 0 
L 2618 2739 
z
" transform="scale(0.015625)"/>
       <path id="CMSS17-6c" d="M 947 4416 
L 474 4416 
L 474 0 
L 947 0 
L 947 4416 
z
" transform="scale(0.015625)"/>
       <path id="CMSS17-61" d="M 2406 1791 
C 2406 2392 1978 2808 1402 2808 
C 1120 2808 813 2757 461 2553 
L 499 2135 
C 659 2248 934 2432 1395 2432 
C 1722 2432 1920 2180 1920 1782 
L 1920 1536 
C 896 1536 256 1238 256 726 
C 256 461 416 -64 947 -64 
C 1043 -64 1562 -64 1933 217 
L 1933 -19 
L 2406 -19 
L 2406 1791 
z
M 1920 816 
C 1920 701 1920 548 1728 434 
C 1562 325 1350 325 1261 325 
C 941 325 723 511 723 744 
C 723 1211 1722 1211 1920 1211 
L 1920 816 
z
" transform="scale(0.015625)"/>
       <path id="CMSS17-72" d="M 954 1363 
C 954 1965 1395 2368 1958 2368 
L 1958 2789 
C 1549 2789 1165 2585 934 2253 
L 934 2758 
L 480 2758 
L 480 0 
L 954 0 
L 954 1363 
z
" transform="scale(0.015625)"/>
       <path id="CMSS17-56" d="M 3910 4416 
L 3411 4416 
L 2304 1362 
C 2272 1273 2074 688 2035 484 
L 2029 484 
C 1978 726 1773 1292 1664 1604 
L 922 3672 
L 646 4416 
L 83 4416 
L 1715 0 
L 2278 0 
L 3910 4416 
z
" transform="scale(0.015625)"/>
       <path id="CMSS17-65" d="M 2502 1377 
C 2502 1590 2490 2003 2285 2345 
C 2061 2713 1696 2816 1421 2816 
C 755 2816 192 2188 192 1375 
C 192 582 774 -64 1510 -64 
C 1798 -64 2150 19 2470 248 
C 2470 274 2458 414 2451 420 
C 2451 433 2432 630 2432 656 
C 2125 407 1773 325 1517 325 
C 1107 325 666 667 646 1377 
L 2502 1377 
z
M 698 1728 
C 781 2084 1062 2421 1421 2421 
C 1517 2421 1965 2421 2080 1728 
L 698 1728 
z
" transform="scale(0.015625)"/>
       <path id="CMSS17-52" d="M 2522 2109 
L 2534 2115 
C 3533 2459 3539 3147 3539 3268 
C 3539 3873 2925 4453 2003 4453 
L 570 4453 
L 570 32 
L 1094 32 
L 1094 2048 
L 2035 2048 
L 3168 32 
L 3706 32 
L 2522 2109 
z
M 1094 2437 
L 1094 4096 
L 1933 4096 
C 2746 4096 3034 3637 3034 3267 
C 3034 2922 2778 2437 1933 2437 
L 1094 2437 
z
" transform="scale(0.015625)"/>
       <path id="CMSS17-6b" d="M 1696 1688 
L 2688 2739 
L 2074 2739 
L 954 1554 
L 954 4416 
L 480 4416 
L 480 0 
L 947 0 
L 947 892 
L 1376 1344 
L 2278 0 
L 2822 0 
L 1696 1688 
z
" transform="scale(0.015625)"/>
       <path id="CMSS17-49" d="M 1094 4416 
L 557 4416 
L 557 0 
L 1094 0 
L 1094 4416 
z
" transform="scale(0.015625)"/>
       <path id="CMSS17-64" d="M 2611 4416 
L 2138 4416 
L 2138 2438 
C 1939 2603 1613 2756 1254 2756 
C 672 2756 211 2131 211 1347 
C 211 562 666 -64 1235 -64 
C 1677 -64 1971 172 2125 306 
L 2125 -13 
L 2611 -13 
L 2611 4416 
z
M 2125 836 
C 2125 747 2125 653 1926 482 
C 1798 375 1645 325 1498 325 
C 1152 325 698 576 698 1340 
C 698 2134 1210 2368 1562 2368 
C 1798 2368 1990 2254 2125 2065 
L 2125 836 
z
" transform="scale(0.015625)"/>
       <path id="CMSS17-78" d="M 1587 1414 
L 2656 2739 
L 2099 2739 
L 1363 1777 
L 602 2739 
L 32 2739 
L 1139 1414 
L 0 0 
L 563 0 
L 1363 1121 
L 2195 0 
L 2758 0 
L 1587 1414 
z
" transform="scale(0.015625)"/>
      </defs>
      <use xlink:href="#CMSS17-53" transform="scale(0.996264)"/>
      <use xlink:href="#CMSS17-69" transform="translate(52.048516 0) scale(0.996264)"/>
      <use xlink:href="#CMSS17-6e" transform="translate(74.229239 0) scale(0.996264)"/>
      <use xlink:href="#CMSS17-67" transform="translate(122.434182 0) scale(0.996264)"/>
      <use xlink:href="#CMSS17-75" transform="translate(169.277806 0) scale(0.996264)"/>
      <use xlink:href="#CMSS17-6c" transform="translate(217.482749 0) scale(0.996264)"/>
      <use xlink:href="#CMSS17-61" transform="translate(239.663472 0) scale(0.996264)"/>
      <use xlink:href="#CMSS17-72" transform="translate(281.982939 0) scale(0.996264)"/>
      <use xlink:href="#CMSS17-56" transform="translate(345.121824 0) scale(0.996264)"/>
      <use xlink:href="#CMSS17-61" transform="translate(404.737225 0) scale(0.996264)"/>
      <use xlink:href="#CMSS17-6c" transform="translate(449.659146 0) scale(0.996264)"/>
      <use xlink:href="#CMSS17-75" transform="translate(471.839869 0) scale(0.996264)"/>
      <use xlink:href="#CMSS17-65" transform="translate(520.044812 0) scale(0.996264)"/>
      <use xlink:href="#CMSS17-52" transform="translate(592.912747 0) scale(0.996264)"/>
      <use xlink:href="#CMSS17-61" transform="translate(653.328902 0) scale(0.996264)"/>
      <use xlink:href="#CMSS17-6e" transform="translate(698.250822 0) scale(0.996264)"/>
      <use xlink:href="#CMSS17-6b" transform="translate(746.455765 0) scale(0.996264)"/>
      <use xlink:href="#CMSS17-49" transform="translate(823.287367 0) scale(0.996264)"/>
      <use xlink:href="#CMSS17-6e" transform="translate(849.071293 0) scale(0.996264)"/>
      <use xlink:href="#CMSS17-64" transform="translate(897.276236 0) scale(0.996264)"/>
      <use xlink:href="#CMSS17-65" transform="translate(945.481179 0) scale(0.996264)"/>
      <use xlink:href="#CMSS17-78" transform="translate(987.120001 0) scale(0.996264)"/>
     </g>
    </g>
   </g>
   <g id="matplotlib.axis_2">
    <g id="ytick_1">
     <g id="line2d_8">
      <path d="M 84.823004 324.095561 
L 553.968 324.095561 
" clip-path="url(#p65f2e716df)" style="fill: none; stroke: #cccccc; stroke-linecap: round"/>
     </g>
     <g id="text_9">
      <!-- $\mathdefault{−16}$ -->
      <g style="fill: #262626" transform="translate(43.74463 330.564352) scale(0.187 -0.187)">
       <defs>
        <path id="CMSY10-0" d="M 4218 1472 
C 4326 1472 4442 1472 4442 1600 
C 4442 1728 4326 1728 4218 1728 
L 755 1728 
C 646 1728 531 1728 531 1600 
C 531 1472 646 1472 755 1472 
L 4218 1472 
z
" transform="scale(0.015625)"/>
       </defs>
       <use xlink:href="#CMSY10-0" transform="scale(0.996264)"/>
       <use xlink:href="#CMR17-31" transform="translate(77.487468 0) scale(0.996264)"/>
       <use xlink:href="#CMR17-36" transform="translate(123.177945 0) scale(0.996264)"/>
      </g>
     </g>
    </g>
    <g id="ytick_2">
     <g id="line2d_9">
      <path d="M 84.823004 274.829766 
L 553.968 274.829766 
" clip-path="url(#p65f2e716df)" style="fill: none; stroke: #cccccc; stroke-linecap: round"/>
     </g>
     <g id="text_10">
      <!-- $\mathdefault{−14}$ -->
      <g style="fill: #262626" transform="translate(43.74463 281.298557) scale(0.187 -0.187)">
       <use xlink:href="#CMSY10-0" transform="scale(0.996264)"/>
       <use xlink:href="#CMR17-31" transform="translate(77.487468 0) scale(0.996264)"/>
       <use xlink:href="#CMR17-34" transform="translate(123.177945 0) scale(0.996264)"/>
      </g>
     </g>
    </g>
    <g id="ytick_3">
     <g id="line2d_10">
      <path d="M 84.823004 225.563971 
L 553.968 225.563971 
" clip-path="url(#p65f2e716df)" style="fill: none; stroke: #cccccc; stroke-linecap: round"/>
     </g>
     <g id="text_11">
      <!-- $\mathdefault{−12}$ -->
      <g style="fill: #262626" transform="translate(43.74463 232.032763) scale(0.187 -0.187)">
       <use xlink:href="#CMSY10-0" transform="scale(0.996264)"/>
       <use xlink:href="#CMR17-31" transform="translate(77.487468 0) scale(0.996264)"/>
       <use xlink:href="#CMR17-32" transform="translate(123.177945 0) scale(0.996264)"/>
      </g>
     </g>
    </g>
    <g id="ytick_4">
     <g id="line2d_11">
      <path d="M 84.823004 176.298176 
L 553.968 176.298176 
" clip-path="url(#p65f2e716df)" style="fill: none; stroke: #cccccc; stroke-linecap: round"/>
     </g>
     <g id="text_12">
      <!-- $\mathdefault{−10}$ -->
      <g style="fill: #262626" transform="translate(43.74463 182.766968) scale(0.187 -0.187)">
       <use xlink:href="#CMSY10-0" transform="scale(0.996264)"/>
       <use xlink:href="#CMR17-31" transform="translate(77.487468 0) scale(0.996264)"/>
       <use xlink:href="#CMR17-30" transform="translate(123.177945 0) scale(0.996264)"/>
      </g>
     </g>
    </g>
    <g id="ytick_5">
     <g id="line2d_12">
      <path d="M 84.823004 127.032381 
L 553.968 127.032381 
" clip-path="url(#p65f2e716df)" style="fill: none; stroke: #cccccc; stroke-linecap: round"/>
     </g>
     <g id="text_13">
      <!-- $\mathdefault{−8}$ -->
      <g style="fill: #262626" transform="translate(52.288747 133.501173) scale(0.187 -0.187)">
       <use xlink:href="#CMSY10-0" transform="scale(0.996264)"/>
       <use xlink:href="#CMR17-38" transform="translate(77.487468 0) scale(0.996264)"/>
      </g>
     </g>
    </g>
    <g id="ytick_6">
     <g id="line2d_13">
      <path d="M 84.823004 77.766586 
L 553.968 77.766586 
" clip-path="url(#p65f2e716df)" style="fill: none; stroke: #cccccc; stroke-linecap: round"/>
     </g>
     <g id="text_14">
      <!-- $\mathdefault{−6}$ -->
      <g style="fill: #262626" transform="translate(52.288747 84.235378) scale(0.187 -0.187)">
       <use xlink:href="#CMSY10-0" transform="scale(0.996264)"/>
       <use xlink:href="#CMR17-36" transform="translate(77.487468 0) scale(0.996264)"/>
      </g>
     </g>
    </g>
    <g id="ytick_7">
     <g id="line2d_14">
      <path d="M 84.823004 28.500792 
L 553.968 28.500792 
" clip-path="url(#p65f2e716df)" style="fill: none; stroke: #cccccc; stroke-linecap: round"/>
     </g>
     <g id="text_15">
      <!-- $\mathdefault{−4}$ -->
      <g style="fill: #262626" transform="translate(52.288747 34.969583) scale(0.187 -0.187)">
       <use xlink:href="#CMSY10-0" transform="scale(0.996264)"/>
       <use xlink:href="#CMR17-34" transform="translate(77.487468 0) scale(0.996264)"/>
      </g>
     </g>
    </g>
    <g id="text_16">
     <!-- Logarithm of Singular Value -->
     <g style="fill: #262626" transform="translate(35.868997 305.013594) rotate(-90) scale(0.2 -0.2)">
      <defs>
       <path id="CMSS17-4c" d="M 1670 414 
C 1594 414 1517 414 1440 414 
L 1101 414 
L 1101 4416 
L 563 4416 
L 563 0 
L 3002 0 
L 3002 414 
L 1670 414 
z
" transform="scale(0.015625)"/>
       <path id="CMSS17-6f" d="M 2829 1356 
C 2829 2176 2221 2816 1504 2816 
C 768 2816 173 2157 173 1356 
C 173 544 787 -64 1498 -64 
C 2227 -64 2829 563 2829 1356 
z
M 1504 337 
C 1050 337 659 709 659 1408 
C 659 2151 1114 2427 1498 2427 
C 1914 2427 2342 2126 2342 1408 
C 2342 683 1926 337 1504 337 
z
" transform="scale(0.015625)"/>
       <path id="CMSS17-74" d="M 1069 2368 
L 1901 2368 
L 1901 2737 
L 1069 2737 
L 1069 3520 
L 614 3520 
L 614 2737 
L 109 2737 
L 109 2368 
L 602 2368 
L 602 749 
C 602 384 685 -64 1107 -64 
C 1427 -64 1722 25 2003 172 
L 1901 548 
C 1747 414 1562 337 1363 337 
C 1082 337 1069 696 1069 856 
L 1069 2368 
z
" transform="scale(0.015625)"/>
       <path id="CMSS17-68" d="M 2618 1891 
C 2618 2292 2522 2820 1798 2820 
C 1395 2820 1133 2623 947 2407 
L 947 4448 
L 474 4448 
L 474 32 
L 960 32 
L 960 1573 
C 960 1973 1114 2432 1549 2432 
C 2112 2432 2131 2056 2131 1839 
L 2131 32 
L 2618 32 
L 2618 1891 
z
" transform="scale(0.015625)"/>
       <path id="CMSS17-6d" d="M 4288 1877 
C 4288 2308 4179 2816 3462 2816 
C 2982 2816 2694 2516 2566 2331 
C 2451 2670 2182 2816 1798 2816 
C 1363 2816 1088 2568 941 2389 
L 941 2758 
L 474 2758 
L 474 0 
L 960 0 
L 960 1559 
C 960 1939 1101 2428 1555 2428 
C 2138 2428 2138 2016 2138 1829 
L 2138 0 
L 2624 0 
L 2624 1559 
C 2624 1939 2765 2428 3219 2428 
C 3802 2428 3802 2016 3802 1829 
L 3802 0 
L 4288 0 
L 4288 1877 
z
" transform="scale(0.015625)"/>
       <path id="CMSS17-66" d="M 1075 2368 
L 1722 2368 
L 1722 2737 
L 1062 2737 
L 1062 3559 
C 1062 4014 1408 4092 1606 4092 
C 1670 4092 1850 4092 2080 4009 
L 2080 4429 
C 1933 4461 1754 4480 1613 4480 
C 1018 4480 602 3993 602 3359 
L 602 2737 
L 160 2737 
L 160 2368 
L 602 2368 
L 602 0 
L 1075 0 
L 1075 2368 
z
" transform="scale(0.015625)"/>
      </defs>
      <use xlink:href="#CMSS17-4c" transform="scale(0.996264)"/>
      <use xlink:href="#CMSS17-6f" transform="translate(50.687105 0) scale(0.996264)"/>
      <use xlink:href="#CMSS17-67" transform="translate(97.530729 0) scale(0.996264)"/>
      <use xlink:href="#CMSS17-61" transform="translate(144.374352 0) scale(0.996264)"/>
      <use xlink:href="#CMSS17-72" transform="translate(186.693819 0) scale(0.996264)"/>
      <use xlink:href="#CMSS17-69" transform="translate(218.603592 0) scale(0.996264)"/>
      <use xlink:href="#CMSS17-74" transform="translate(240.784315 0) scale(0.996264)"/>
      <use xlink:href="#CMSS17-68" transform="translate(274.615881 0) scale(0.996264)"/>
      <use xlink:href="#CMSS17-6d" transform="translate(322.820824 0) scale(0.996264)"/>
      <use xlink:href="#CMSS17-6f" transform="translate(428.279192 0) scale(0.996264)"/>
      <use xlink:href="#CMSS17-66" transform="translate(475.122815 0) scale(0.996264)"/>
      <use xlink:href="#CMSS17-53" transform="translate(534.978587 0) scale(0.996264)"/>
      <use xlink:href="#CMSS17-69" transform="translate(587.027103 0) scale(0.996264)"/>
      <use xlink:href="#CMSS17-6e" transform="translate(609.207826 0) scale(0.996264)"/>
      <use xlink:href="#CMSS17-67" transform="translate(657.412769 0) scale(0.996264)"/>
      <use xlink:href="#CMSS17-75" transform="translate(704.256393 0) scale(0.996264)"/>
      <use xlink:href="#CMSS17-6c" transform="translate(752.461336 0) scale(0.996264)"/>
      <use xlink:href="#CMSS17-61" transform="translate(774.642059 0) scale(0.996264)"/>
      <use xlink:href="#CMSS17-72" transform="translate(816.961526 0) scale(0.996264)"/>
      <use xlink:href="#CMSS17-56" transform="translate(880.100411 0) scale(0.996264)"/>
      <use xlink:href="#CMSS17-61" transform="translate(939.715812 0) scale(0.996264)"/>
      <use xlink:href="#CMSS17-6c" transform="translate(984.637732 0) scale(0.996264)"/>
      <use xlink:href="#CMSS17-75" transform="translate(1006.818455 0) scale(0.996264)"/>
      <use xlink:href="#CMSS17-65" transform="translate(1055.023399 0) scale(0.996264)"/>
     </g>
    </g>
   </g>
   <g id="line2d_15">
    <path d="M 106.147777 95.281975 
L 109.506009 97.265942 
L 112.86424 97.918863 
L 116.222472 98.951078 
L 122.938936 99.68875 
L 129.6554 100.357675 
L 133.013632 100.53929 
L 136.371864 100.892392 
L 139.730096 101.039644 
L 143.088327 101.404156 
L 146.446559 102.441251 
L 149.804791 102.501302 
L 153.163023 102.90844 
L 163.237719 103.438389 
L 176.670646 104.389958 
L 180.028878 104.46332 
L 190.103574 105.082889 
L 193.461806 105.110377 
L 196.820038 105.586634 
L 200.17827 105.879177 
L 203.536502 105.968425 
L 206.894734 106.411298 
L 210.252965 106.504281 
L 216.969429 107.016304 
L 220.327661 107.265494 
L 223.685893 107.369132 
L 227.044125 107.832218 
L 233.760589 108.123934 
L 237.118821 108.596389 
L 243.835284 109.021721 
L 253.90998 109.533253 
L 257.268212 109.765286 
L 263.984676 110.705426 
L 270.70114 111.39814 
L 274.059371 111.853773 
L 277.417603 112.091986 
L 280.775835 112.554177 
L 284.134067 112.744732 
L 287.492299 113.128325 
L 290.850531 114.124961 
L 294.208763 114.237338 
L 297.566995 114.669834 
L 300.925227 114.98995 
L 304.283459 115.910688 
L 310.999922 116.275229 
L 317.716386 117.754978 
L 321.074618 118.954023 
L 324.43285 120.360097 
L 327.791082 120.639631 
L 334.507546 122.185466 
L 337.865777 123.220793 
L 341.224009 124.847546 
L 344.582241 125.926716 
L 347.940473 126.833572 
L 351.298705 128.873145 
L 354.656937 130.349115 
L 358.015169 131.062008 
L 361.373401 132.302039 
L 364.731633 132.801638 
L 368.089865 134.19532 
L 371.448096 136.347827 
L 378.16456 137.373148 
L 381.522792 139.993799 
L 391.597488 142.729353 
L 394.95572 143.105378 
L 398.313952 144.473295 
L 401.672183 145.351819 
L 405.030415 145.816172 
L 408.388647 148.95225 
L 411.746879 149.106607 
L 415.105111 149.943328 
L 418.463343 150.422054 
L 421.821575 151.756771 
L 425.179807 152.25961 
L 428.538039 152.649852 
L 431.896271 153.230008 
L 435.254502 154.111811 
L 441.970966 155.183226 
L 445.329198 155.33337 
L 448.68743 155.604061 
L 462.120358 157.18245 
L 465.47859 157.810615 
L 468.836821 158.247152 
L 472.195053 158.318396 
L 475.553285 159.097471 
L 482.269749 159.782641 
L 485.627981 160.446553 
L 488.986213 160.767415 
L 495.702677 161.239026 
L 499.060908 161.730183 
L 502.41914 161.941642 
L 512.493836 163.37101 
L 515.852068 163.567641 
L 522.568532 164.238654 
L 525.926764 165.485702 
L 529.284996 165.789575 
L 532.643227 166.331332 
L 532.643227 166.331332 
" clip-path="url(#p65f2e716df)" style="fill: none; stroke: #4169e1; stroke-width: 3; stroke-linecap: round"/>
   </g>
   <g id="line2d_16">
    <path d="M 106.147777 72.327134 
L 109.506009 77.275624 
L 112.86424 80.00741 
L 116.222472 82.591823 
L 119.580704 83.528992 
L 122.938936 84.250951 
L 126.297168 85.173127 
L 129.6554 86.698583 
L 133.013632 90.602012 
L 136.371864 92.28422 
L 139.730096 93.585874 
L 143.088327 94.702193 
L 146.446559 98.30996 
L 149.804791 98.799274 
L 153.163023 101.149619 
L 156.521255 105.972991 
L 159.879487 112.519484 
L 163.237719 112.837117 
L 166.595951 118.049397 
L 169.954183 121.19885 
L 173.312415 123.392069 
L 176.670646 128.314623 
L 183.38711 139.208053 
L 186.745342 143.667905 
L 190.103574 149.937491 
L 193.461806 153.39243 
L 196.820038 156.003383 
L 200.17827 160.18038 
L 203.536502 162.01238 
L 206.894734 164.441157 
L 213.611197 176.976323 
L 216.969429 178.875564 
L 220.327661 181.864813 
L 223.685893 189.930786 
L 227.044125 192.303081 
L 230.402357 198.104425 
L 233.760589 199.033356 
L 237.118821 203.017771 
L 240.477052 203.311039 
L 243.835284 205.431467 
L 247.193516 209.478107 
L 250.551748 212.984661 
L 253.90998 216.09133 
L 257.268212 218.614505 
L 260.626444 220.927984 
L 263.984676 221.59379 
L 267.342908 227.901255 
L 270.70114 228.705919 
L 274.059371 230.287281 
L 277.417603 231.577486 
L 280.775835 233.179428 
L 284.134067 234.464833 
L 287.492299 239.431601 
L 290.850531 239.849465 
L 297.566995 245.246803 
L 300.925227 249.322085 
L 304.283459 250.009831 
L 307.64169 251.139135 
L 310.999922 252.713837 
L 314.358154 254.660202 
L 317.716386 256.80382 
L 321.074618 258.368181 
L 324.43285 259.016802 
L 327.791082 261.761234 
L 331.149314 262.173923 
L 334.507546 263.411219 
L 337.865777 265.353232 
L 341.224009 268.127509 
L 344.582241 268.554225 
L 347.940473 270.373763 
L 351.298705 271.766911 
L 358.015169 273.936374 
L 361.373401 275.157765 
L 364.731633 276.001708 
L 371.448096 279.083848 
L 374.806328 280.157369 
L 378.16456 280.47637 
L 381.522792 282.695266 
L 384.881024 283.683779 
L 388.239256 283.959726 
L 391.597488 287.160788 
L 394.95572 287.67672 
L 398.313952 288.442395 
L 401.672183 290.208431 
L 405.030415 291.373603 
L 408.388647 292.714474 
L 415.105111 294.136682 
L 418.463343 295.354559 
L 421.821575 296.302035 
L 425.179807 298.031002 
L 431.896271 298.761185 
L 435.254502 300.779183 
L 441.970966 302.708747 
L 445.329198 302.967025 
L 448.68743 304.108481 
L 452.045662 305.602844 
L 458.762126 307.846594 
L 462.120358 310.254136 
L 465.47859 311.755681 
L 468.836821 312.93479 
L 472.195053 313.481995 
L 475.553285 314.443311 
L 478.911517 315.767978 
L 482.269749 316.879502 
L 485.627981 318.235875 
L 488.986213 320.471425 
L 492.344445 320.985334 
L 495.702677 322.646482 
L 499.060908 324.613417 
L 502.41914 326.108536 
L 505.777372 327.180874 
L 509.135604 329.200936 
L 512.493836 334.710526 
L 515.852068 335.270743 
L 519.2103 337.469064 
L 522.568532 339.078404 
L 525.926764 340.842855 
L 529.284996 343.502377 
L 532.643227 348.390889 
L 532.643227 348.390889 
" clip-path="url(#p65f2e716df)" style="fill: none; stroke: #87ceeb; stroke-width: 3; stroke-linecap: round"/>
   </g>
   <g id="line2d_17">
    <path d="M 106.147777 129.253693 
L 109.506009 130.499792 
L 112.86424 132.453967 
L 116.222472 132.791513 
L 119.580704 133.925166 
L 126.297168 134.750347 
L 129.6554 135.16701 
L 133.013632 135.251938 
L 136.371864 135.982935 
L 139.730096 135.999742 
L 146.446559 136.322088 
L 149.804791 136.386786 
L 159.879487 137.112623 
L 163.237719 137.47852 
L 166.595951 137.57687 
L 173.312415 138.176242 
L 183.38711 138.484156 
L 186.745342 138.60218 
L 193.461806 139.001208 
L 196.820038 139.106916 
L 200.17827 139.397262 
L 206.894734 139.661616 
L 210.252965 139.685021 
L 250.551748 141.347533 
L 267.342908 141.78004 
L 270.70114 142.121782 
L 277.417603 142.270842 
L 284.134067 142.515383 
L 290.850531 142.717412 
L 294.208763 142.918161 
L 304.283459 143.14953 
L 307.64169 143.321985 
L 314.358154 143.419631 
L 317.716386 143.644083 
L 321.074618 143.677259 
L 327.791082 143.966547 
L 331.149314 144.42797 
L 351.298705 144.912945 
L 388.239256 146.381713 
L 394.95572 146.682173 
L 401.672183 146.845096 
L 405.030415 147.174848 
L 411.746879 147.36792 
L 421.821575 147.822653 
L 431.896271 148.397988 
L 438.612734 148.595005 
L 445.329198 148.869708 
L 448.68743 149.159982 
L 452.045662 149.205217 
L 462.120358 149.696005 
L 465.47859 150.137284 
L 468.836821 150.199117 
L 472.195053 150.426829 
L 475.553285 150.533831 
L 478.911517 150.819807 
L 482.269749 150.990356 
L 488.986213 151.783861 
L 492.344445 151.861247 
L 495.702677 152.11073 
L 502.41914 153.02739 
L 505.777372 153.282373 
L 509.135604 153.909706 
L 512.493836 154.385247 
L 515.852068 155.047453 
L 519.2103 157.421106 
L 522.568532 157.534957 
L 525.926764 160.967153 
L 529.284996 161.190994 
L 532.643227 169.248432 
L 532.643227 169.248432 
" clip-path="url(#p65f2e716df)" style="fill: none; stroke: #b22222; stroke-width: 3; stroke-linecap: round"/>
   </g>
   <g id="line2d_18">
    <path d="M 106.147777 103.23293 
L 109.506009 111.262074 
L 112.86424 112.136842 
L 116.222472 114.036677 
L 119.580704 118.893902 
L 122.938936 120.79013 
L 126.297168 121.272301 
L 129.6554 123.785383 
L 133.013632 124.768076 
L 136.371864 125.478085 
L 139.730096 126.978089 
L 143.088327 127.670441 
L 146.446559 128.138053 
L 153.163023 129.894238 
L 156.521255 130.462039 
L 159.879487 131.987816 
L 163.237719 132.253872 
L 169.954183 133.826656 
L 173.312415 135.375176 
L 176.670646 135.722232 
L 180.028878 136.541306 
L 183.38711 137.64212 
L 186.745342 138.579502 
L 190.103574 139.947958 
L 193.461806 141.040949 
L 196.820038 141.686315 
L 200.17827 142.09344 
L 203.536502 143.005373 
L 206.894734 143.77669 
L 210.252965 144.774841 
L 213.611197 145.212553 
L 216.969429 146.648694 
L 227.044125 148.331702 
L 233.760589 149.89147 
L 237.118821 150.25792 
L 240.477052 151.507847 
L 243.835284 151.805357 
L 247.193516 153.91188 
L 250.551748 154.867679 
L 253.90998 155.125002 
L 257.268212 155.255775 
L 260.626444 155.602649 
L 263.984676 157.439682 
L 277.417603 160.323057 
L 280.775835 160.788722 
L 284.134067 162.171037 
L 287.492299 162.338849 
L 290.850531 162.904157 
L 294.208763 163.746925 
L 297.566995 163.986438 
L 300.925227 164.395935 
L 304.283459 165.151704 
L 307.64169 166.132737 
L 310.999922 166.526373 
L 314.358154 167.27987 
L 317.716386 167.56078 
L 321.074618 168.784016 
L 324.43285 169.454318 
L 327.791082 169.777342 
L 331.149314 170.366718 
L 334.507546 170.601077 
L 337.865777 171.726373 
L 341.224009 172.45666 
L 344.582241 172.793296 
L 347.940473 173.931653 
L 351.298705 174.394591 
L 354.656937 174.721116 
L 358.015169 175.712349 
L 361.373401 176.298548 
L 364.731633 176.392132 
L 371.448096 177.57769 
L 374.806328 178.152893 
L 378.16456 179.684792 
L 384.881024 181.736397 
L 388.239256 182.143888 
L 405.030415 185.111552 
L 408.388647 186.020325 
L 411.746879 186.460427 
L 415.105111 187.398627 
L 418.463343 188.710801 
L 421.821575 189.27696 
L 425.179807 190.416357 
L 431.896271 191.036868 
L 435.254502 191.619554 
L 438.612734 193.231608 
L 441.970966 194.219521 
L 452.045662 197.790374 
L 455.403894 198.183146 
L 458.762126 199.701736 
L 462.120358 200.543053 
L 465.47859 202.257867 
L 468.836821 202.90872 
L 472.195053 205.146696 
L 475.553285 205.691955 
L 482.269749 208.103421 
L 485.627981 210.792188 
L 492.344445 212.11502 
L 495.702677 213.530604 
L 499.060908 215.938061 
L 502.41914 219.383481 
L 505.777372 221.320927 
L 509.135604 224.009661 
L 515.852068 227.13887 
L 519.2103 228.664193 
L 522.568532 231.115201 
L 525.926764 236.335687 
L 529.284996 240.321826 
L 532.643227 249.887912 
L 532.643227 249.887912 
" clip-path="url(#p65f2e716df)" style="fill: none; stroke: #f08080; stroke-width: 3; stroke-linecap: round"/>
   </g>
   <g id="patch_3">
    <path d="M 84.823004 362.194077 
L 84.823004 28.500792 
" style="fill: none; stroke: #cccccc; stroke-width: 1.25; stroke-linejoin: miter; stroke-linecap: square"/>
   </g>
   <g id="patch_4">
    <path d="M 553.968 362.194077 
L 553.968 28.500792 
" style="fill: none; stroke: #cccccc; stroke-width: 1.25; stroke-linejoin: miter; stroke-linecap: square"/>
   </g>
   <g id="patch_5">
    <path d="M 84.823004 362.194077 
L 553.968 362.194077 
" style="fill: none; stroke: #cccccc; stroke-width: 1.25; stroke-linejoin: miter; stroke-linecap: square"/>
   </g>
   <g id="patch_6">
    <path d="M 84.823004 28.500792 
L 553.968 28.500792 
" style="fill: none; stroke: #cccccc; stroke-width: 1.25; stroke-linejoin: miter; stroke-linecap: square"/>
   </g>
   <g id="legend_1">
    <g id="patch_7">
     <path d="M 368.70187 123.491576 
L 544.168 123.491576 
Q 546.968 123.491576 546.968 120.691576 
L 546.968 38.300792 
Q 546.968 35.500792 544.168 35.500792 
L 368.70187 35.500792 
Q 365.90187 35.500792 365.90187 38.300792 
L 365.90187 120.691576 
Q 365.90187 123.491576 368.70187 123.491576 
z
" style="fill: #ffffff; opacity: 0.8; stroke: #cccccc; stroke-linejoin: miter"/>
    </g>
    <g id="line2d_19">
     <path d="M 371.50187 46.661564 
L 385.50187 46.661564 
L 399.50187 46.661564 
" style="fill: none; stroke: #4169e1; stroke-width: 3; stroke-linecap: round"/>
    </g>
    <g id="text_17">
     <!-- LuXry (train) -->
     <g style="fill: #262626" transform="translate(410.70187 51.561564) scale(0.14 -0.14)">
      <defs>
       <path id="CMSS17-58" d="M 2214 2329 
L 3661 4416 
L 3072 4416 
L 1952 2762 
L 800 4416 
L 166 4416 
L 1690 2329 
L 83 0 
L 672 0 
L 1952 1941 
L 3277 0 
L 3910 0 
L 2214 2329 
z
" transform="scale(0.015625)"/>
       <path id="CMSS17-79" d="M 2675 2752 
L 2176 2752 
C 1632 1294 1446 702 1434 383 
L 1427 383 
C 1408 696 1126 1460 902 2007 
L 602 2752 
L 83 2752 
L 1216 13 
C 1146 -178 1043 -465 1011 -529 
C 870 -885 774 -885 672 -885 
C 646 -885 442 -885 211 -809 
L 250 -1229 
C 410 -1261 570 -1280 685 -1280 
C 845 -1280 1165 -1280 1459 -497 
L 2675 2752 
z
" transform="scale(0.015625)"/>
       <path id="CMSS17-28" d="M 1613 4768 
C 1267 4417 474 3601 474 1588 
C 474 -433 1267 -1243 1613 -1600 
L 2003 -1600 
C 1216 -784 960 357 960 1581 
C 960 2798 1203 3946 2003 4768 
L 1613 4768 
z
" transform="scale(0.015625)"/>
       <path id="CMSS17-29" d="M 723 -1600 
C 1069 -1249 1862 -433 1862 1581 
C 1862 3601 1069 4411 723 4768 
L 333 4768 
C 1120 3952 1376 2811 1376 1588 
C 1376 370 1133 -778 333 -1600 
L 723 -1600 
z
" transform="scale(0.015625)"/>
      </defs>
      <use xlink:href="#CMSS17-4c" transform="scale(0.996264)"/>
      <use xlink:href="#CMSS17-75" transform="translate(50.687105 0) scale(0.996264)"/>
      <use xlink:href="#CMSS17-58" transform="translate(98.892048 0) scale(0.996264)"/>
      <use xlink:href="#CMSS17-72" transform="translate(161.109903 0) scale(0.996264)"/>
      <use xlink:href="#CMSS17-79" transform="translate(193.019676 0) scale(0.996264)"/>
      <use xlink:href="#CMSS17-28" transform="translate(267.24893 0) scale(0.996264)"/>
      <use xlink:href="#CMSS17-74" transform="translate(303.682845 0) scale(0.996264)"/>
      <use xlink:href="#CMSS17-72" transform="translate(337.514411 0) scale(0.996264)"/>
      <use xlink:href="#CMSS17-61" transform="translate(369.424184 0) scale(0.996264)"/>
      <use xlink:href="#CMSS17-69" transform="translate(414.346104 0) scale(0.996264)"/>
      <use xlink:href="#CMSS17-6e" transform="translate(436.526827 0) scale(0.996264)"/>
      <use xlink:href="#CMSS17-29" transform="translate(484.731771 0) scale(0.996264)"/>
     </g>
    </g>
    <g id="line2d_20">
     <path d="M 371.50187 67.60926 
L 385.50187 67.60926 
L 399.50187 67.60926 
" style="fill: none; stroke: #87ceeb; stroke-width: 3; stroke-linecap: round"/>
    </g>
    <g id="text_18">
     <!-- Downstream (external) -->
     <g style="fill: #262626" transform="translate(410.70187 72.50926) scale(0.14 -0.14)">
      <defs>
       <path id="CMSS17-44" d="M 570 4416 
L 570 0 
L 2144 0 
C 3194 0 4000 980 4000 2170 
C 4000 3398 3194 4416 2144 4416 
L 570 4416 
z
M 1094 357 
L 1094 4059 
L 2003 4059 
C 2861 4059 3475 3277 3475 2170 
C 3475 1107 2867 357 2003 357 
L 1094 357 
z
" transform="scale(0.015625)"/>
       <path id="CMSS17-77" d="M 4013 2752 
L 3526 2752 
L 3187 1601 
C 3117 1358 2918 685 2893 371 
L 2886 371 
C 2874 564 2765 1024 2586 1633 
L 2259 2752 
L 1818 2752 
L 1498 1658 
C 1338 1101 1216 627 1203 371 
L 1197 371 
C 1171 749 909 1633 870 1773 
L 582 2752 
L 83 2752 
L 915 0 
L 1402 0 
C 1734 1096 1990 1943 2010 2370 
C 2022 2160 2131 1707 2195 1484 
L 2618 0 
L 3181 0 
L 4013 2752 
z
" transform="scale(0.015625)"/>
       <path id="CMSS17-73" d="M 2061 2627 
C 1683 2807 1389 2807 1197 2807 
C 742 2807 198 2648 198 2003 
C 198 1359 902 1218 1094 1179 
C 1389 1122 1715 1058 1715 740 
C 1715 337 1254 337 1171 337 
C 915 337 563 407 243 638 
L 166 210 
C 531 0 883 -64 1178 -64 
C 1965 -64 2163 416 2163 781 
C 2163 1094 1984 1305 1862 1401 
C 1651 1568 1574 1587 1050 1696 
C 960 1709 646 1779 646 2066 
C 646 2432 1050 2432 1139 2432 
C 1555 2432 1811 2303 1984 2208 
L 2061 2627 
z
" transform="scale(0.015625)"/>
      </defs>
      <use xlink:href="#CMSS17-44" transform="scale(0.996264)"/>
      <use xlink:href="#CMSS17-6f" transform="translate(67.542842 0) scale(0.996264)"/>
      <use xlink:href="#CMSS17-77" transform="translate(111.784011 0) scale(0.996264)"/>
      <use xlink:href="#CMSS17-6e" transform="translate(175.603556 0) scale(0.996264)"/>
      <use xlink:href="#CMSS17-73" transform="translate(223.808499 0) scale(0.996264)"/>
      <use xlink:href="#CMSS17-74" transform="translate(259.722041 0) scale(0.996264)"/>
      <use xlink:href="#CMSS17-72" transform="translate(293.553608 0) scale(0.996264)"/>
      <use xlink:href="#CMSS17-65" transform="translate(325.463381 0) scale(0.996264)"/>
      <use xlink:href="#CMSS17-61" transform="translate(367.102203 0) scale(0.996264)"/>
      <use xlink:href="#CMSS17-6d" transform="translate(412.024123 0) scale(0.996264)"/>
      <use xlink:href="#CMSS17-28" transform="translate(517.482491 0) scale(0.996264)"/>
      <use xlink:href="#CMSS17-65" transform="translate(553.916405 0) scale(0.996264)"/>
      <use xlink:href="#CMSS17-78" transform="translate(595.555227 0) scale(0.996264)"/>
      <use xlink:href="#CMSS17-74" transform="translate(638.555369 0) scale(0.996264)"/>
      <use xlink:href="#CMSS17-65" transform="translate(672.386935 0) scale(0.996264)"/>
      <use xlink:href="#CMSS17-72" transform="translate(714.025757 0) scale(0.996264)"/>
      <use xlink:href="#CMSS17-6e" transform="translate(745.93553 0) scale(0.996264)"/>
      <use xlink:href="#CMSS17-61" transform="translate(794.140473 0) scale(0.996264)"/>
      <use xlink:href="#CMSS17-6c" transform="translate(839.062394 0) scale(0.996264)"/>
      <use xlink:href="#CMSS17-29" transform="translate(861.243117 0) scale(0.996264)"/>
     </g>
    </g>
    <g id="line2d_21">
     <path d="M 371.50187 88.556956 
L 385.50187 88.556956 
L 399.50187 88.556956 
" style="fill: none; stroke: #b22222; stroke-width: 3; stroke-linecap: round"/>
    </g>
    <g id="text_19">
     <!-- ImageNet (train) -->
     <g style="fill: #262626" transform="translate(410.70187 93.456956) scale(0.14 -0.14)">
      <defs>
       <path id="CMSS17-4e" d="M 1466 4180 
L 1350 4416 
L 563 4416 
L 563 0 
L 1062 0 
L 1062 3926 
L 1069 3932 
C 1114 3817 1139 3760 1402 3194 
L 2771 236 
L 2886 0 
L 3674 0 
L 3674 4416 
L 3174 4416 
L 3174 490 
L 3168 483 
C 3123 598 3098 655 2835 1221 
L 1466 4180 
z
" transform="scale(0.015625)"/>
      </defs>
      <use xlink:href="#CMSS17-49" transform="scale(0.996264)"/>
      <use xlink:href="#CMSS17-6d" transform="translate(25.783926 0) scale(0.996264)"/>
      <use xlink:href="#CMSS17-61" transform="translate(100.01318 0) scale(0.996264)"/>
      <use xlink:href="#CMSS17-67" transform="translate(144.935101 0) scale(0.996264)"/>
      <use xlink:href="#CMSS17-65" transform="translate(191.778724 0) scale(0.996264)"/>
      <use xlink:href="#CMSS17-4e" transform="translate(233.417546 0) scale(0.996264)"/>
      <use xlink:href="#CMSS17-65" transform="translate(299.479065 0) scale(0.996264)"/>
      <use xlink:href="#CMSS17-74" transform="translate(341.117887 0) scale(0.996264)"/>
      <use xlink:href="#CMSS17-28" transform="translate(406.178567 0) scale(0.996264)"/>
      <use xlink:href="#CMSS17-74" transform="translate(442.612481 0) scale(0.996264)"/>
      <use xlink:href="#CMSS17-72" transform="translate(476.444048 0) scale(0.996264)"/>
      <use xlink:href="#CMSS17-61" transform="translate(508.35382 0) scale(0.996264)"/>
      <use xlink:href="#CMSS17-69" transform="translate(553.275741 0) scale(0.996264)"/>
      <use xlink:href="#CMSS17-6e" transform="translate(575.456464 0) scale(0.996264)"/>
      <use xlink:href="#CMSS17-29" transform="translate(623.661407 0) scale(0.996264)"/>
     </g>
    </g>
    <g id="line2d_22">
     <path d="M 371.50187 109.504652 
L 385.50187 109.504652 
L 399.50187 109.504652 
" style="fill: none; stroke: #f08080; stroke-width: 3; stroke-linecap: round"/>
    </g>
    <g id="text_20">
     <!-- COCO (external) -->
     <g style="fill: #262626" transform="translate(410.70187 114.404652) scale(0.14 -0.14)">
      <defs>
       <path id="CMSS17-43" d="M 3501 714 
C 3072 427 2874 344 2355 344 
C 1459 344 934 1303 934 2179 
C 934 3112 1472 4032 2381 4032 
C 2790 4032 3059 3918 3386 3715 
L 3475 4217 
C 3168 4370 2778 4440 2387 4440 
C 1158 4440 397 3316 397 2179 
C 397 927 1299 -64 2323 -64 
C 2874 -64 3066 -19 3539 280 
L 3501 714 
z
" transform="scale(0.015625)"/>
       <path id="CMSS17-4f" d="M 4096 2178 
C 4096 3503 3219 4497 2214 4497 
C 1210 4497 333 3497 333 2178 
C 333 847 1222 -128 2214 -128 
C 3206 -128 4096 847 4096 2178 
z
M 2214 273 
C 1510 273 870 1057 870 2261 
C 870 3433 1549 4096 2214 4096 
C 2880 4096 3558 3433 3558 2261 
C 3558 1051 2912 273 2214 273 
z
" transform="scale(0.015625)"/>
      </defs>
      <use xlink:href="#CMSS17-43" transform="scale(0.996264)"/>
      <use xlink:href="#CMSS17-4f" transform="translate(59.855772 0) scale(0.996264)"/>
      <use xlink:href="#CMSS17-43" transform="translate(128.880027 0) scale(0.996264)"/>
      <use xlink:href="#CMSS17-4f" transform="translate(188.735798 0) scale(0.996264)"/>
      <use xlink:href="#CMSS17-28" transform="translate(288.989167 0) scale(0.996264)"/>
      <use xlink:href="#CMSS17-65" transform="translate(325.423081 0) scale(0.996264)"/>
      <use xlink:href="#CMSS17-78" transform="translate(367.061903 0) scale(0.996264)"/>
      <use xlink:href="#CMSS17-74" transform="translate(410.062045 0) scale(0.996264)"/>
      <use xlink:href="#CMSS17-65" transform="translate(443.893611 0) scale(0.996264)"/>
      <use xlink:href="#CMSS17-72" transform="translate(485.532433 0) scale(0.996264)"/>
      <use xlink:href="#CMSS17-6e" transform="translate(517.442206 0) scale(0.996264)"/>
      <use xlink:href="#CMSS17-61" transform="translate(565.647149 0) scale(0.996264)"/>
      <use xlink:href="#CMSS17-6c" transform="translate(610.56907 0) scale(0.996264)"/>
      <use xlink:href="#CMSS17-29" transform="translate(632.749793 0) scale(0.996264)"/>
     </g>
    </g>
   </g>
  </g>
 </g>
 <defs>
  <clipPath id="p65f2e716df">
   <rect x="84.823004" y="28.500792" width="469.144996" height="333.693285"/>
  </clipPath>
 </defs>
</svg>
