<?xml version="1.0" encoding="utf-8" standalone="no"?>
<!DOCTYPE svg PUBLIC "-//W3C//DTD SVG 1.1//EN"
  "http://www.w3.org/Graphics/SVG/1.1/DTD/svg11.dtd">
<svg xmlns:xlink="http://www.w3.org/1999/xlink" width="576pt" height="432pt" viewBox="0 0 576 432" xmlns="http://www.w3.org/2000/svg" version="1.1">
 <metadata>
  <rdf:RDF xmlns:dc="http://purl.org/dc/elements/1.1/" xmlns:cc="http://creativecommons.org/ns#" xmlns:rdf="http://www.w3.org/1999/02/22-rdf-syntax-ns#">
   <cc:Work>
    <dc:type rdf:resource="http://purl.org/dc/dcmitype/StillImage"/>
    <dc:date>2024-06-14T12:46:32.769175</dc:date>
    <dc:format>image/svg+xml</dc:format>
    <dc:creator>
     <cc:Agent>
      <dc:title>Matplotlib v3.8.3, https://matplotlib.org/</dc:title>
     </cc:Agent>
    </dc:creator>
   </cc:Work>
  </rdf:RDF>
 </metadata>
 <defs>
  <style type="text/css">*{stroke-linejoin: round; stroke-linecap: butt}</style>
 </defs>
 <g id="figure_1">
  <g id="patch_1">
   <path d="M 0 432 
L 576 432 
L 576 0 
L 0 0 
z
" style="fill: #ffffff"/>
  </g>
  <g id="axes_1">
   <g id="patch_2">
    <path d="M 84.823004 362.194077 
L 553.968 362.194077 
L 553.968 22.032 
L 84.823004 22.032 
z
" style="fill: #ffffff"/>
   </g>
   <g id="matplotlib.axis_1">
    <g id="xtick_1">
     <g id="line2d_1">
      <path d="M 106.147777 362.194077 
L 106.147777 22.032 
" clip-path="url(#pee453f404a)" style="fill: none; stroke: #cccccc; stroke-linecap: round"/>
     </g>
     <g id="text_1">
      <!-- $\mathdefault{0}$ -->
      <g style="fill: #262626" transform="translate(101.875719 384.63166) scale(0.187 -0.187)">
       <defs>
        <path id="CMR17-30" d="M 2688 2025 
C 2688 2416 2682 3080 2413 3591 
C 2176 4039 1798 4198 1466 4198 
C 1158 4198 768 4058 525 3597 
C 269 3118 243 2524 243 2025 
C 243 1661 250 1106 448 619 
C 723 -39 1216 -128 1466 -128 
C 1760 -128 2208 -7 2470 600 
C 2662 1042 2688 1559 2688 2025 
z
M 1466 -26 
C 1056 -26 813 325 723 812 
C 653 1188 653 1738 653 2096 
C 653 2588 653 2997 736 3387 
C 858 3929 1216 4096 1466 4096 
C 1728 4096 2067 3923 2189 3400 
C 2272 3036 2278 2607 2278 2096 
C 2278 1680 2278 1169 2202 792 
C 2067 95 1690 -26 1466 -26 
z
" transform="scale(0.015625)"/>
       </defs>
       <use xlink:href="#CMR17-30" transform="scale(0.996264)"/>
      </g>
     </g>
    </g>
    <g id="xtick_2">
     <g id="line2d_2">
      <path d="M 210.285355 362.194077 
L 210.285355 22.032 
" clip-path="url(#pee453f404a)" style="fill: none; stroke: #cccccc; stroke-linecap: round"/>
     </g>
     <g id="text_2">
      <!-- $\mathdefault{2000}$ -->
      <g style="fill: #262626" transform="translate(193.197122 384.63166) scale(0.187 -0.187)">
       <defs>
        <path id="CMR17-32" d="M 2669 989 
L 2554 989 
C 2490 536 2438 459 2413 420 
C 2381 369 1920 369 1830 369 
L 602 369 
C 832 619 1280 1072 1824 1597 
C 2214 1967 2669 2402 2669 3035 
C 2669 3790 2067 4224 1395 4224 
C 691 4224 262 3604 262 3030 
C 262 2780 448 2748 525 2748 
C 589 2748 781 2787 781 3010 
C 781 3207 614 3264 525 3264 
C 486 3264 448 3258 422 3245 
C 544 3790 915 4058 1306 4058 
C 1862 4058 2227 3617 2227 3035 
C 2227 2479 1901 2000 1536 1584 
L 262 146 
L 262 0 
L 2515 0 
L 2669 989 
z
" transform="scale(0.015625)"/>
       </defs>
       <use xlink:href="#CMR17-32" transform="scale(0.996264)"/>
       <use xlink:href="#CMR17-30" transform="translate(45.690477 0) scale(0.996264)"/>
       <use xlink:href="#CMR17-30" transform="translate(91.380954 0) scale(0.996264)"/>
       <use xlink:href="#CMR17-30" transform="translate(137.071431 0) scale(0.996264)"/>
      </g>
     </g>
    </g>
    <g id="xtick_3">
     <g id="line2d_3">
      <path d="M 314.422933 362.194077 
L 314.422933 22.032 
" clip-path="url(#pee453f404a)" style="fill: none; stroke: #cccccc; stroke-linecap: round"/>
     </g>
     <g id="text_3">
      <!-- $\mathdefault{4000}$ -->
      <g style="fill: #262626" transform="translate(297.3347 384.63166) scale(0.187 -0.187)">
       <defs>
        <path id="CMR17-34" d="M 2150 4122 
C 2150 4256 2144 4256 2029 4256 
L 128 1254 
L 128 1088 
L 1779 1088 
L 1779 457 
C 1779 224 1766 160 1318 160 
L 1197 160 
L 1197 0 
C 1402 0 1747 0 1965 0 
C 2182 0 2528 0 2733 0 
L 2733 160 
L 2611 160 
C 2163 160 2150 224 2150 457 
L 2150 1088 
L 2803 1088 
L 2803 1254 
L 2150 1254 
L 2150 4122 
z
M 1798 3703 
L 1798 1254 
L 256 1254 
L 1798 3703 
z
" transform="scale(0.015625)"/>
       </defs>
       <use xlink:href="#CMR17-34" transform="scale(0.996264)"/>
       <use xlink:href="#CMR17-30" transform="translate(45.690477 0) scale(0.996264)"/>
       <use xlink:href="#CMR17-30" transform="translate(91.380954 0) scale(0.996264)"/>
       <use xlink:href="#CMR17-30" transform="translate(137.071431 0) scale(0.996264)"/>
      </g>
     </g>
    </g>
    <g id="xtick_4">
     <g id="line2d_4">
      <path d="M 418.560511 362.194077 
L 418.560511 22.032 
" clip-path="url(#pee453f404a)" style="fill: none; stroke: #cccccc; stroke-linecap: round"/>
     </g>
     <g id="text_4">
      <!-- $\mathdefault{6000}$ -->
      <g style="fill: #262626" transform="translate(401.472278 384.63166) scale(0.187 -0.187)">
       <defs>
        <path id="CMR17-36" d="M 678 2176 
C 678 3690 1395 4032 1811 4032 
C 1946 4032 2272 4009 2400 3776 
C 2298 3776 2106 3776 2106 3553 
C 2106 3381 2246 3323 2336 3323 
C 2394 3323 2566 3348 2566 3560 
C 2566 3954 2246 4179 1805 4179 
C 1043 4179 243 3390 243 1984 
C 243 253 966 -128 1478 -128 
C 2099 -128 2688 427 2688 1283 
C 2688 2081 2170 2662 1517 2662 
C 1126 2662 838 2407 678 1960 
L 678 2176 
z
M 1478 25 
C 691 25 691 1200 691 1436 
C 691 1896 909 2560 1504 2560 
C 1613 2560 1926 2560 2138 2120 
C 2253 1870 2253 1609 2253 1289 
C 2253 944 2253 690 2118 434 
C 1978 171 1773 25 1478 25 
z
" transform="scale(0.015625)"/>
       </defs>
       <use xlink:href="#CMR17-36" transform="scale(0.996264)"/>
       <use xlink:href="#CMR17-30" transform="translate(45.690477 0) scale(0.996264)"/>
       <use xlink:href="#CMR17-30" transform="translate(91.380954 0) scale(0.996264)"/>
       <use xlink:href="#CMR17-30" transform="translate(137.071431 0) scale(0.996264)"/>
      </g>
     </g>
    </g>
    <g id="xtick_5">
     <g id="line2d_5">
      <path d="M 522.698089 362.194077 
L 522.698089 22.032 
" clip-path="url(#pee453f404a)" style="fill: none; stroke: #cccccc; stroke-linecap: round"/>
     </g>
     <g id="text_5">
      <!-- $\mathdefault{8000}$ -->
      <g style="fill: #262626" transform="translate(505.609856 384.63166) scale(0.187 -0.187)">
       <defs>
        <path id="CMR17-38" d="M 1741 2264 
C 2144 2467 2554 2773 2554 3263 
C 2554 3841 1990 4179 1472 4179 
C 890 4179 378 3759 378 3180 
C 378 3021 416 2747 666 2505 
C 730 2442 998 2251 1171 2130 
C 883 1983 211 1634 211 934 
C 211 279 838 -128 1459 -128 
C 2144 -128 2720 362 2720 1010 
C 2720 1590 2330 1857 2074 2029 
L 1741 2264 
z
M 902 2822 
C 851 2854 595 3051 595 3351 
C 595 3739 998 4032 1459 4032 
C 1965 4032 2336 3676 2336 3262 
C 2336 2669 1670 2331 1638 2331 
C 1632 2331 1626 2331 1574 2370 
L 902 2822 
z
M 2080 1519 
C 2176 1449 2483 1240 2483 851 
C 2483 381 2010 25 1472 25 
C 890 25 448 438 448 940 
C 448 1443 838 1862 1280 2060 
L 2080 1519 
z
" transform="scale(0.015625)"/>
       </defs>
       <use xlink:href="#CMR17-38" transform="scale(0.996264)"/>
       <use xlink:href="#CMR17-30" transform="translate(45.690477 0) scale(0.996264)"/>
       <use xlink:href="#CMR17-30" transform="translate(91.380954 0) scale(0.996264)"/>
       <use xlink:href="#CMR17-30" transform="translate(137.071431 0) scale(0.996264)"/>
      </g>
     </g>
    </g>
    <g id="text_6">
     <!-- Singular Value Rank Index -->
     <g style="fill: #262626" transform="translate(216.383542 406.092366) scale(0.2 -0.2)">
      <defs>
       <path id="CMSS17-53" d="M 2797 4169 
C 2515 4334 2208 4480 1690 4480 
C 864 4480 333 3879 333 3266 
C 333 3025 403 2753 653 2475 
C 902 2196 1184 2121 1542 2033 
C 1690 1994 1939 1924 1984 1906 
C 2342 1767 2515 1444 2515 1140 
C 2515 742 2202 318 1645 318 
C 1453 318 890 318 358 819 
L 269 318 
C 794 -64 1363 -128 1651 -128 
C 2438 -128 3002 488 3002 1186 
C 3002 1440 2925 1763 2656 2061 
C 2394 2347 2163 2410 1638 2549 
C 1338 2626 1146 2677 986 2873 
C 877 3013 819 3146 819 3317 
C 819 3673 1126 4060 1690 4060 
C 1971 4060 2336 4002 2707 3660 
L 2797 4169 
z
" transform="scale(0.015625)"/>
       <path id="CMSS17-69" d="M 979 4183 
L 442 4183 
L 442 3648 
L 979 3648 
L 979 4183 
z
M 947 2739 
L 474 2739 
L 474 0 
L 947 0 
L 947 2739 
z
" transform="scale(0.015625)"/>
       <path id="CMSS17-6e" d="M 2618 1877 
C 2618 2283 2522 2816 1798 2816 
C 1389 2816 1120 2606 941 2389 
L 941 2758 
L 474 2758 
L 474 0 
L 960 0 
L 960 1559 
C 960 1964 1114 2428 1549 2428 
C 2112 2428 2131 2048 2131 1829 
L 2131 0 
L 2618 0 
L 2618 1877 
z
" transform="scale(0.015625)"/>
       <path id="CMSS17-67" d="M 2848 2808 
C 2483 2808 2170 2738 1914 2617 
C 1702 2777 1485 2808 1338 2808 
C 781 2808 358 2349 358 1814 
C 358 1468 550 1207 563 1195 
C 448 1035 384 863 384 672 
C 384 448 474 289 544 200 
C 211 -3 166 -314 166 -435 
C 166 -898 749 -1280 1498 -1280 
C 2253 -1280 2835 -898 2835 -428 
C 2835 448 1856 448 1587 448 
L 1069 448 
C 973 448 717 448 717 791 
C 717 921 774 1004 781 1010 
C 877 940 1075 832 1338 832 
C 1869 832 2310 1278 2310 1827 
C 2310 2132 2170 2355 2112 2432 
L 2131 2432 
C 2150 2432 2419 2432 2515 2432 
C 2720 2432 2739 2429 2918 2419 
L 2848 2808 
z
M 1338 1182 
C 1120 1182 813 1315 813 1823 
C 813 2375 1165 2464 1331 2464 
C 1549 2464 1856 2331 1856 1823 
C 1856 1271 1504 1182 1338 1182 
z
M 1581 -10 
C 1734 -10 2381 -10 2381 -442 
C 2381 -714 1984 -929 1504 -929 
C 1018 -929 621 -720 621 -435 
C 621 -403 621 -10 1062 -10 
L 1581 -10 
z
" transform="scale(0.015625)"/>
       <path id="CMSS17-75" d="M 2618 2739 
L 2131 2739 
L 2131 972 
C 2131 498 1786 306 1421 306 
C 998 306 960 447 960 709 
L 960 2739 
L 474 2739 
L 474 678 
C 474 179 646 -64 1088 -64 
C 1306 -64 1798 -13 2144 306 
L 2144 0 
L 2618 0 
L 2618 2739 
z
" transform="scale(0.015625)"/>
       <path id="CMSS17-6c" d="M 947 4416 
L 474 4416 
L 474 0 
L 947 0 
L 947 4416 
z
" transform="scale(0.015625)"/>
       <path id="CMSS17-61" d="M 2406 1791 
C 2406 2392 1978 2808 1402 2808 
C 1120 2808 813 2757 461 2553 
L 499 2135 
C 659 2248 934 2432 1395 2432 
C 1722 2432 1920 2180 1920 1782 
L 1920 1536 
C 896 1536 256 1238 256 726 
C 256 461 416 -64 947 -64 
C 1043 -64 1562 -64 1933 217 
L 1933 -19 
L 2406 -19 
L 2406 1791 
z
M 1920 816 
C 1920 701 1920 548 1728 434 
C 1562 325 1350 325 1261 325 
C 941 325 723 511 723 744 
C 723 1211 1722 1211 1920 1211 
L 1920 816 
z
" transform="scale(0.015625)"/>
       <path id="CMSS17-72" d="M 954 1363 
C 954 1965 1395 2368 1958 2368 
L 1958 2789 
C 1549 2789 1165 2585 934 2253 
L 934 2758 
L 480 2758 
L 480 0 
L 954 0 
L 954 1363 
z
" transform="scale(0.015625)"/>
       <path id="CMSS17-56" d="M 3910 4416 
L 3411 4416 
L 2304 1362 
C 2272 1273 2074 688 2035 484 
L 2029 484 
C 1978 726 1773 1292 1664 1604 
L 922 3672 
L 646 4416 
L 83 4416 
L 1715 0 
L 2278 0 
L 3910 4416 
z
" transform="scale(0.015625)"/>
       <path id="CMSS17-65" d="M 2502 1377 
C 2502 1590 2490 2003 2285 2345 
C 2061 2713 1696 2816 1421 2816 
C 755 2816 192 2188 192 1375 
C 192 582 774 -64 1510 -64 
C 1798 -64 2150 19 2470 248 
C 2470 274 2458 414 2451 420 
C 2451 433 2432 630 2432 656 
C 2125 407 1773 325 1517 325 
C 1107 325 666 667 646 1377 
L 2502 1377 
z
M 698 1728 
C 781 2084 1062 2421 1421 2421 
C 1517 2421 1965 2421 2080 1728 
L 698 1728 
z
" transform="scale(0.015625)"/>
       <path id="CMSS17-52" d="M 2522 2109 
L 2534 2115 
C 3533 2459 3539 3147 3539 3268 
C 3539 3873 2925 4453 2003 4453 
L 570 4453 
L 570 32 
L 1094 32 
L 1094 2048 
L 2035 2048 
L 3168 32 
L 3706 32 
L 2522 2109 
z
M 1094 2437 
L 1094 4096 
L 1933 4096 
C 2746 4096 3034 3637 3034 3267 
C 3034 2922 2778 2437 1933 2437 
L 1094 2437 
z
" transform="scale(0.015625)"/>
       <path id="CMSS17-6b" d="M 1696 1688 
L 2688 2739 
L 2074 2739 
L 954 1554 
L 954 4416 
L 480 4416 
L 480 0 
L 947 0 
L 947 892 
L 1376 1344 
L 2278 0 
L 2822 0 
L 1696 1688 
z
" transform="scale(0.015625)"/>
       <path id="CMSS17-49" d="M 1094 4416 
L 557 4416 
L 557 0 
L 1094 0 
L 1094 4416 
z
" transform="scale(0.015625)"/>
       <path id="CMSS17-64" d="M 2611 4416 
L 2138 4416 
L 2138 2438 
C 1939 2603 1613 2756 1254 2756 
C 672 2756 211 2131 211 1347 
C 211 562 666 -64 1235 -64 
C 1677 -64 1971 172 2125 306 
L 2125 -13 
L 2611 -13 
L 2611 4416 
z
M 2125 836 
C 2125 747 2125 653 1926 482 
C 1798 375 1645 325 1498 325 
C 1152 325 698 576 698 1340 
C 698 2134 1210 2368 1562 2368 
C 1798 2368 1990 2254 2125 2065 
L 2125 836 
z
" transform="scale(0.015625)"/>
       <path id="CMSS17-78" d="M 1587 1414 
L 2656 2739 
L 2099 2739 
L 1363 1777 
L 602 2739 
L 32 2739 
L 1139 1414 
L 0 0 
L 563 0 
L 1363 1121 
L 2195 0 
L 2758 0 
L 1587 1414 
z
" transform="scale(0.015625)"/>
      </defs>
      <use xlink:href="#CMSS17-53" transform="scale(0.996264)"/>
      <use xlink:href="#CMSS17-69" transform="translate(52.048516 0) scale(0.996264)"/>
      <use xlink:href="#CMSS17-6e" transform="translate(74.229239 0) scale(0.996264)"/>
      <use xlink:href="#CMSS17-67" transform="translate(122.434182 0) scale(0.996264)"/>
      <use xlink:href="#CMSS17-75" transform="translate(169.277806 0) scale(0.996264)"/>
      <use xlink:href="#CMSS17-6c" transform="translate(217.482749 0) scale(0.996264)"/>
      <use xlink:href="#CMSS17-61" transform="translate(239.663472 0) scale(0.996264)"/>
      <use xlink:href="#CMSS17-72" transform="translate(281.982939 0) scale(0.996264)"/>
      <use xlink:href="#CMSS17-56" transform="translate(345.121824 0) scale(0.996264)"/>
      <use xlink:href="#CMSS17-61" transform="translate(404.737225 0) scale(0.996264)"/>
      <use xlink:href="#CMSS17-6c" transform="translate(449.659146 0) scale(0.996264)"/>
      <use xlink:href="#CMSS17-75" transform="translate(471.839869 0) scale(0.996264)"/>
      <use xlink:href="#CMSS17-65" transform="translate(520.044812 0) scale(0.996264)"/>
      <use xlink:href="#CMSS17-52" transform="translate(592.912747 0) scale(0.996264)"/>
      <use xlink:href="#CMSS17-61" transform="translate(653.328902 0) scale(0.996264)"/>
      <use xlink:href="#CMSS17-6e" transform="translate(698.250822 0) scale(0.996264)"/>
      <use xlink:href="#CMSS17-6b" transform="translate(746.455765 0) scale(0.996264)"/>
      <use xlink:href="#CMSS17-49" transform="translate(823.287367 0) scale(0.996264)"/>
      <use xlink:href="#CMSS17-6e" transform="translate(849.071293 0) scale(0.996264)"/>
      <use xlink:href="#CMSS17-64" transform="translate(897.276236 0) scale(0.996264)"/>
      <use xlink:href="#CMSS17-65" transform="translate(945.481179 0) scale(0.996264)"/>
      <use xlink:href="#CMSS17-78" transform="translate(987.120001 0) scale(0.996264)"/>
     </g>
    </g>
   </g>
   <g id="matplotlib.axis_2">
    <g id="ytick_1">
     <g id="line2d_6">
      <path d="M 84.823004 348.489856 
L 553.968 348.489856 
" clip-path="url(#pee453f404a)" style="fill: none; stroke: #cccccc; stroke-linecap: round"/>
     </g>
     <g id="text_7">
      <!-- $\mathdefault{−35}$ -->
      <g style="fill: #262626" transform="translate(43.74463 354.958647) scale(0.187 -0.187)">
       <defs>
        <path id="CMSY10-0" d="M 4218 1472 
C 4326 1472 4442 1472 4442 1600 
C 4442 1728 4326 1728 4218 1728 
L 755 1728 
C 646 1728 531 1728 531 1600 
C 531 1472 646 1472 755 1472 
L 4218 1472 
z
" transform="scale(0.015625)"/>
        <path id="CMR17-33" d="M 1414 2157 
C 1984 2157 2234 1662 2234 1090 
C 2234 320 1824 25 1453 25 
C 1114 25 563 194 390 693 
C 422 680 454 680 486 680 
C 640 680 755 782 755 948 
C 755 1133 614 1216 486 1216 
C 378 1216 211 1165 211 926 
C 211 335 787 -128 1466 -128 
C 2176 -128 2720 430 2720 1085 
C 2720 1707 2208 2157 1600 2227 
C 2086 2328 2554 2756 2554 3329 
C 2554 3820 2048 4179 1472 4179 
C 890 4179 378 3829 378 3329 
C 378 3110 544 3072 627 3072 
C 762 3072 877 3155 877 3321 
C 877 3486 762 3569 627 3569 
C 602 3569 570 3569 544 3557 
C 730 3959 1235 4032 1459 4032 
C 1683 4032 2106 3925 2106 3320 
C 2106 3143 2080 2828 1862 2550 
C 1670 2304 1453 2304 1242 2284 
C 1210 2284 1062 2269 1037 2269 
C 992 2263 966 2257 966 2208 
C 966 2163 973 2157 1101 2157 
L 1414 2157 
z
" transform="scale(0.015625)"/>
        <path id="CMR17-35" d="M 730 3692 
C 794 3666 1056 3584 1325 3584 
C 1920 3584 2246 3911 2432 4100 
C 2432 4157 2432 4192 2394 4192 
C 2387 4192 2374 4192 2323 4163 
C 2099 4058 1837 3973 1517 3973 
C 1325 3973 1037 3999 723 4139 
C 653 4171 640 4171 634 4171 
C 602 4171 595 4164 595 4037 
L 595 2203 
C 595 2089 595 2057 659 2057 
C 691 2057 704 2070 736 2114 
C 941 2401 1222 2522 1542 2522 
C 1766 2522 2246 2382 2246 1289 
C 2246 1085 2246 715 2054 421 
C 1894 159 1645 25 1370 25 
C 947 25 518 320 403 814 
C 429 807 480 795 506 795 
C 589 795 749 840 749 1038 
C 749 1210 627 1280 506 1280 
C 358 1280 262 1190 262 1011 
C 262 454 704 -128 1382 -128 
C 2042 -128 2669 440 2669 1264 
C 2669 2030 2170 2624 1549 2624 
C 1222 2624 947 2503 730 2274 
L 730 3692 
z
" transform="scale(0.015625)"/>
       </defs>
       <use xlink:href="#CMSY10-0" transform="scale(0.996264)"/>
       <use xlink:href="#CMR17-33" transform="translate(77.487468 0) scale(0.996264)"/>
       <use xlink:href="#CMR17-35" transform="translate(123.177945 0) scale(0.996264)"/>
      </g>
     </g>
    </g>
    <g id="ytick_2">
     <g id="line2d_7">
      <path d="M 84.823004 309.625825 
L 553.968 309.625825 
" clip-path="url(#pee453f404a)" style="fill: none; stroke: #cccccc; stroke-linecap: round"/>
     </g>
     <g id="text_8">
      <!-- $\mathdefault{−30}$ -->
      <g style="fill: #262626" transform="translate(43.74463 316.094617) scale(0.187 -0.187)">
       <use xlink:href="#CMSY10-0" transform="scale(0.996264)"/>
       <use xlink:href="#CMR17-33" transform="translate(77.487468 0) scale(0.996264)"/>
       <use xlink:href="#CMR17-30" transform="translate(123.177945 0) scale(0.996264)"/>
      </g>
     </g>
    </g>
    <g id="ytick_3">
     <g id="line2d_8">
      <path d="M 84.823004 270.761795 
L 553.968 270.761795 
" clip-path="url(#pee453f404a)" style="fill: none; stroke: #cccccc; stroke-linecap: round"/>
     </g>
     <g id="text_9">
      <!-- $\mathdefault{−25}$ -->
      <g style="fill: #262626" transform="translate(43.74463 277.230587) scale(0.187 -0.187)">
       <use xlink:href="#CMSY10-0" transform="scale(0.996264)"/>
       <use xlink:href="#CMR17-32" transform="translate(77.487468 0) scale(0.996264)"/>
       <use xlink:href="#CMR17-35" transform="translate(123.177945 0) scale(0.996264)"/>
      </g>
     </g>
    </g>
    <g id="ytick_4">
     <g id="line2d_9">
      <path d="M 84.823004 231.897764 
L 553.968 231.897764 
" clip-path="url(#pee453f404a)" style="fill: none; stroke: #cccccc; stroke-linecap: round"/>
     </g>
     <g id="text_10">
      <!-- $\mathdefault{−20}$ -->
      <g style="fill: #262626" transform="translate(43.74463 238.366556) scale(0.187 -0.187)">
       <use xlink:href="#CMSY10-0" transform="scale(0.996264)"/>
       <use xlink:href="#CMR17-32" transform="translate(77.487468 0) scale(0.996264)"/>
       <use xlink:href="#CMR17-30" transform="translate(123.177945 0) scale(0.996264)"/>
      </g>
     </g>
    </g>
    <g id="ytick_5">
     <g id="line2d_10">
      <path d="M 84.823004 193.033734 
L 553.968 193.033734 
" clip-path="url(#pee453f404a)" style="fill: none; stroke: #cccccc; stroke-linecap: round"/>
     </g>
     <g id="text_11">
      <!-- $\mathdefault{−15}$ -->
      <g style="fill: #262626" transform="translate(43.74463 199.502526) scale(0.187 -0.187)">
       <defs>
        <path id="CMR17-31" d="M 1702 4058 
C 1702 4192 1696 4192 1606 4192 
C 1357 3916 979 3827 621 3827 
C 602 3827 570 3827 563 3808 
C 557 3795 557 3782 557 3648 
C 755 3648 1088 3686 1344 3839 
L 1344 461 
C 1344 236 1331 160 781 160 
L 589 160 
L 589 0 
C 896 0 1216 0 1523 0 
C 1830 0 2150 0 2458 0 
L 2458 160 
L 2266 160 
C 1715 160 1702 230 1702 458 
L 1702 4058 
z
" transform="scale(0.015625)"/>
       </defs>
       <use xlink:href="#CMSY10-0" transform="scale(0.996264)"/>
       <use xlink:href="#CMR17-31" transform="translate(77.487468 0) scale(0.996264)"/>
       <use xlink:href="#CMR17-35" transform="translate(123.177945 0) scale(0.996264)"/>
      </g>
     </g>
    </g>
    <g id="ytick_6">
     <g id="line2d_11">
      <path d="M 84.823004 154.169704 
L 553.968 154.169704 
" clip-path="url(#pee453f404a)" style="fill: none; stroke: #cccccc; stroke-linecap: round"/>
     </g>
     <g id="text_12">
      <!-- $\mathdefault{−10}$ -->
      <g style="fill: #262626" transform="translate(43.74463 160.638495) scale(0.187 -0.187)">
       <use xlink:href="#CMSY10-0" transform="scale(0.996264)"/>
       <use xlink:href="#CMR17-31" transform="translate(77.487468 0) scale(0.996264)"/>
       <use xlink:href="#CMR17-30" transform="translate(123.177945 0) scale(0.996264)"/>
      </g>
     </g>
    </g>
    <g id="ytick_7">
     <g id="line2d_12">
      <path d="M 84.823004 115.305673 
L 553.968 115.305673 
" clip-path="url(#pee453f404a)" style="fill: none; stroke: #cccccc; stroke-linecap: round"/>
     </g>
     <g id="text_13">
      <!-- $\mathdefault{−5}$ -->
      <g style="fill: #262626" transform="translate(52.288747 121.774465) scale(0.187 -0.187)">
       <use xlink:href="#CMSY10-0" transform="scale(0.996264)"/>
       <use xlink:href="#CMR17-35" transform="translate(77.487468 0) scale(0.996264)"/>
      </g>
     </g>
    </g>
    <g id="ytick_8">
     <g id="line2d_13">
      <path d="M 84.823004 76.441643 
L 553.968 76.441643 
" clip-path="url(#pee453f404a)" style="fill: none; stroke: #cccccc; stroke-linecap: round"/>
     </g>
     <g id="text_14">
      <!-- $\mathdefault{0}$ -->
      <g style="fill: #262626" transform="translate(66.778888 82.910434) scale(0.187 -0.187)">
       <use xlink:href="#CMR17-30" transform="scale(0.996264)"/>
      </g>
     </g>
    </g>
    <g id="ytick_9">
     <g id="line2d_14">
      <path d="M 84.823004 37.577612 
L 553.968 37.577612 
" clip-path="url(#pee453f404a)" style="fill: none; stroke: #cccccc; stroke-linecap: round"/>
     </g>
     <g id="text_15">
      <!-- $\mathdefault{5}$ -->
      <g style="fill: #262626" transform="translate(66.778888 44.046404) scale(0.187 -0.187)">
       <use xlink:href="#CMR17-35" transform="scale(0.996264)"/>
      </g>
     </g>
    </g>
    <g id="text_16">
     <!-- Logarithm of Singular Value -->
     <g style="fill: #262626" transform="translate(35.868997 301.779198) rotate(-90) scale(0.2 -0.2)">
      <defs>
       <path id="CMSS17-4c" d="M 1670 414 
C 1594 414 1517 414 1440 414 
L 1101 414 
L 1101 4416 
L 563 4416 
L 563 0 
L 3002 0 
L 3002 414 
L 1670 414 
z
" transform="scale(0.015625)"/>
       <path id="CMSS17-6f" d="M 2829 1356 
C 2829 2176 2221 2816 1504 2816 
C 768 2816 173 2157 173 1356 
C 173 544 787 -64 1498 -64 
C 2227 -64 2829 563 2829 1356 
z
M 1504 337 
C 1050 337 659 709 659 1408 
C 659 2151 1114 2427 1498 2427 
C 1914 2427 2342 2126 2342 1408 
C 2342 683 1926 337 1504 337 
z
" transform="scale(0.015625)"/>
       <path id="CMSS17-74" d="M 1069 2368 
L 1901 2368 
L 1901 2737 
L 1069 2737 
L 1069 3520 
L 614 3520 
L 614 2737 
L 109 2737 
L 109 2368 
L 602 2368 
L 602 749 
C 602 384 685 -64 1107 -64 
C 1427 -64 1722 25 2003 172 
L 1901 548 
C 1747 414 1562 337 1363 337 
C 1082 337 1069 696 1069 856 
L 1069 2368 
z
" transform="scale(0.015625)"/>
       <path id="CMSS17-68" d="M 2618 1891 
C 2618 2292 2522 2820 1798 2820 
C 1395 2820 1133 2623 947 2407 
L 947 4448 
L 474 4448 
L 474 32 
L 960 32 
L 960 1573 
C 960 1973 1114 2432 1549 2432 
C 2112 2432 2131 2056 2131 1839 
L 2131 32 
L 2618 32 
L 2618 1891 
z
" transform="scale(0.015625)"/>
       <path id="CMSS17-6d" d="M 4288 1877 
C 4288 2308 4179 2816 3462 2816 
C 2982 2816 2694 2516 2566 2331 
C 2451 2670 2182 2816 1798 2816 
C 1363 2816 1088 2568 941 2389 
L 941 2758 
L 474 2758 
L 474 0 
L 960 0 
L 960 1559 
C 960 1939 1101 2428 1555 2428 
C 2138 2428 2138 2016 2138 1829 
L 2138 0 
L 2624 0 
L 2624 1559 
C 2624 1939 2765 2428 3219 2428 
C 3802 2428 3802 2016 3802 1829 
L 3802 0 
L 4288 0 
L 4288 1877 
z
" transform="scale(0.015625)"/>
       <path id="CMSS17-66" d="M 1075 2368 
L 1722 2368 
L 1722 2737 
L 1062 2737 
L 1062 3559 
C 1062 4014 1408 4092 1606 4092 
C 1670 4092 1850 4092 2080 4009 
L 2080 4429 
C 1933 4461 1754 4480 1613 4480 
C 1018 4480 602 3993 602 3359 
L 602 2737 
L 160 2737 
L 160 2368 
L 602 2368 
L 602 0 
L 1075 0 
L 1075 2368 
z
" transform="scale(0.015625)"/>
      </defs>
      <use xlink:href="#CMSS17-4c" transform="scale(0.996264)"/>
      <use xlink:href="#CMSS17-6f" transform="translate(50.687105 0) scale(0.996264)"/>
      <use xlink:href="#CMSS17-67" transform="translate(97.530729 0) scale(0.996264)"/>
      <use xlink:href="#CMSS17-61" transform="translate(144.374352 0) scale(0.996264)"/>
      <use xlink:href="#CMSS17-72" transform="translate(186.693819 0) scale(0.996264)"/>
      <use xlink:href="#CMSS17-69" transform="translate(218.603592 0) scale(0.996264)"/>
      <use xlink:href="#CMSS17-74" transform="translate(240.784315 0) scale(0.996264)"/>
      <use xlink:href="#CMSS17-68" transform="translate(274.615881 0) scale(0.996264)"/>
      <use xlink:href="#CMSS17-6d" transform="translate(322.820824 0) scale(0.996264)"/>
      <use xlink:href="#CMSS17-6f" transform="translate(428.279192 0) scale(0.996264)"/>
      <use xlink:href="#CMSS17-66" transform="translate(475.122815 0) scale(0.996264)"/>
      <use xlink:href="#CMSS17-53" transform="translate(534.978587 0) scale(0.996264)"/>
      <use xlink:href="#CMSS17-69" transform="translate(587.027103 0) scale(0.996264)"/>
      <use xlink:href="#CMSS17-6e" transform="translate(609.207826 0) scale(0.996264)"/>
      <use xlink:href="#CMSS17-67" transform="translate(657.412769 0) scale(0.996264)"/>
      <use xlink:href="#CMSS17-75" transform="translate(704.256393 0) scale(0.996264)"/>
      <use xlink:href="#CMSS17-6c" transform="translate(752.461336 0) scale(0.996264)"/>
      <use xlink:href="#CMSS17-61" transform="translate(774.642059 0) scale(0.996264)"/>
      <use xlink:href="#CMSS17-72" transform="translate(816.961526 0) scale(0.996264)"/>
      <use xlink:href="#CMSS17-56" transform="translate(880.100411 0) scale(0.996264)"/>
      <use xlink:href="#CMSS17-61" transform="translate(939.715812 0) scale(0.996264)"/>
      <use xlink:href="#CMSS17-6c" transform="translate(984.637732 0) scale(0.996264)"/>
      <use xlink:href="#CMSS17-75" transform="translate(1006.818455 0) scale(0.996264)"/>
      <use xlink:href="#CMSS17-65" transform="translate(1055.023399 0) scale(0.996264)"/>
     </g>
    </g>
   </g>
   <g id="line2d_15">
    <path d="M 106.147777 50.839032 
L 106.303983 53.0277 
L 106.564327 58.971988 
L 106.772602 59.974807 
L 106.928808 61.608306 
L 107.605703 66.896338 
L 107.761909 67.348324 
L 108.907422 72.599057 
L 109.219835 73.365979 
L 109.271904 73.428773 
L 109.480179 74.0312 
L 109.532248 74.065281 
L 110.052936 75.940548 
L 110.209142 76.36734 
L 110.677761 77.510532 
L 111.198449 78.844123 
L 111.614999 79.595468 
L 111.875343 80.12574 
L 112.86465 82.061619 
L 112.968788 82.289132 
L 114.634989 85.211947 
L 114.947402 85.846977 
L 115.46809 86.543102 
L 115.676365 87.023974 
L 115.832571 87.301254 
L 116.353259 88.373868 
L 116.457397 88.433572 
L 116.717741 88.844433 
L 118.748424 91.906364 
L 119.164974 92.538055 
L 119.32118 92.672063 
L 119.581524 93.106743 
L 119.737731 93.256661 
L 120.050143 93.724462 
L 120.154281 93.862356 
L 120.6229 94.468899 
L 120.831175 94.752253 
L 123.486683 98.811586 
L 124.007371 99.550717 
L 124.163578 99.726281 
L 124.528059 100.341005 
L 124.632197 100.468358 
L 127.704255 105.589853 
L 128.38115 106.998007 
L 128.901837 108.019008 
L 129.318388 108.928731 
L 129.422525 109.038369 
L 129.682869 109.704939 
L 129.995282 110.255025 
L 130.255626 110.862895 
L 130.359764 111.002851 
L 130.880451 112.319115 
L 131.609414 114.093439 
L 135.25423 122.211927 
L 135.358367 122.31085 
L 135.879055 123.206035 
L 137.180775 125.311493 
L 137.38905 125.501775 
L 137.597325 125.851913 
L 138.899045 127.498355 
L 139.159389 127.827756 
L 139.315595 127.997909 
L 139.680077 128.405173 
L 140.40904 129.089567 
L 140.669384 129.336242 
L 140.773521 129.469829 
L 141.814897 130.358349 
L 142.283516 130.763799 
L 142.54386 130.956832 
L 143.272823 131.55136 
L 143.533167 131.709601 
L 144.105924 132.208541 
L 144.730749 132.538397 
L 145.1473 132.864573 
L 145.511781 133.063446 
L 148.011083 134.48008 
L 148.219358 134.647889 
L 149.885559 135.47605 
L 150.197972 135.626318 
L 150.666591 135.829978 
L 152.124517 136.496565 
L 152.541068 136.652329 
L 152.801412 136.76945 
L 153.842787 137.222527 
L 154.780026 137.567544 
L 155.04037 137.689181 
L 164.621027 140.832115 
L 165.34999 141.033277 
L 166.287228 141.286823 
L 168.526186 141.890984 
L 169.723768 142.194995 
L 170.661006 142.434229 
L 171.442038 142.636729 
L 172.483414 142.888252 
L 174.514097 143.337497 
L 175.295128 143.53183 
L 176.128229 143.722806 
L 176.753055 143.864343 
L 185.760955 145.733011 
L 187.479225 146.053716 
L 187.895775 146.154269 
L 188.57267 146.284714 
L 197.059882 147.811351 
L 198.101258 147.997204 
L 198.986427 148.158129 
L 201.277454 148.542025 
L 202.266761 148.725567 
L 203.047793 148.838907 
L 203.724687 148.951896 
L 207.681915 149.605714 
L 208.306741 149.709674 
L 209.19191 149.846038 
L 212.732588 150.42744 
L 216.741884 151.049019 
L 217.627054 151.176297 
L 223.458758 152.066463 
L 224.291859 152.193175 
L 225.853923 152.419595 
L 227.25978 152.640966 
L 252.825555 156.29999 
L 253.814862 156.430178 
L 255.116582 156.610769 
L 255.949683 156.732162 
L 257.667953 156.964266 
L 258.969672 157.143593 
L 261.989662 157.560854 
L 262.666556 157.669151 
L 265.009652 157.989791 
L 268.446192 158.454393 
L 269.539637 158.607494 
L 272.976177 159.077683 
L 274.902722 159.34926 
L 302.551249 163.148291 
L 303.332281 163.262888 
L 305.93572 163.624827 
L 309.007779 164.054156 
L 316.037065 165.039054 
L 321.712563 165.862953 
L 322.337389 165.957232 
L 339.572158 168.446449 
L 340.092846 168.535522 
L 342.696285 168.915889 
L 343.581455 169.039557 
L 344.102142 169.126988 
L 345.143518 169.279692 
L 350.454535 170.091315 
L 351.49591 170.250969 
L 353.214181 170.515446 
L 354.203487 170.670541 
L 356.286239 170.989122 
L 364.669314 172.284811 
L 365.554484 172.431674 
L 370.553087 173.234852 
L 371.28205 173.35446 
L 372.219288 173.513959 
L 373.88549 173.790421 
L 376.384792 174.197211 
L 377.165823 174.325829 
L 377.73858 174.412159 
L 378.779956 174.591429 
L 379.977538 174.783516 
L 380.862707 174.934789 
L 382.06029 175.131525 
L 384.038904 175.47058 
L 387.110962 175.990223 
L 388.673026 176.259541 
L 390.026814 176.501801 
L 392.161635 176.877677 
L 393.307148 177.094742 
L 395.494037 177.471369 
L 396.587482 177.671049 
L 397.576789 177.847855 
L 398.461958 178.016788 
L 400.284366 178.347739 
L 403.304356 178.912254 
L 404.918488 179.213271 
L 405.595382 179.332482 
L 407.469859 179.686822 
L 408.407097 179.8864 
L 410.281573 180.23629 
L 411.062605 180.393 
L 414.186732 181.005266 
L 415.071902 181.176701 
L 416.894309 181.523124 
L 417.987754 181.757501 
L 418.872923 181.93734 
L 419.86223 182.15552 
L 421.16395 182.426496 
L 425.90221 183.407498 
L 426.787379 183.580138 
L 427.724618 183.791777 
L 428.245305 183.895054 
L 429.963576 184.273058 
L 432.671153 184.874786 
L 433.243909 185.010798 
L 434.129079 185.196042 
L 434.753904 185.368558 
L 436.055624 185.631877 
L 436.368037 185.724114 
L 439.23182 186.390856 
L 439.856645 186.537465 
L 441.418709 186.908511 
L 441.783191 187.004136 
L 442.460085 187.162239 
L 463.964495 192.916309 
L 465.110008 193.321669 
L 465.682765 193.456393 
L 466.047246 193.580002 
L 466.620003 193.763701 
L 469.119305 194.522474 
L 469.535855 194.667392 
L 470.056543 194.832921 
L 470.525162 194.993903 
L 472.035157 195.486833 
L 472.607914 195.669261 
L 473.388946 195.946834 
L 474.013771 196.140121 
L 474.794803 196.420226 
L 476.773417 197.114854 
L 477.450311 197.366766 
L 477.814793 197.480499 
L 480.001682 198.293825 
L 480.886851 198.630177 
L 482.032365 199.078414 
L 482.344777 199.212768 
L 484.167185 199.907799 
L 484.479598 200.057961 
L 484.79201 200.179438 
L 485.104423 200.298997 
L 485.312698 200.391739 
L 485.67718 200.559586 
L 487.39545 201.249144 
L 487.655794 201.373998 
L 495.049562 204.843066 
L 495.466112 205.055036 
L 496.247144 205.435623 
L 496.663694 205.647082 
L 499.683684 207.333053 
L 500.620922 207.883781 
L 501.037473 208.112738 
L 501.506092 208.416285 
L 502.235055 208.861029 
L 502.807811 209.201317 
L 503.380568 209.525119 
L 505.515388 210.929412 
L 505.87987 211.240589 
L 506.088145 211.360155 
L 506.400558 211.584931 
L 506.660902 211.761194 
L 507.129521 212.081667 
L 507.59814 212.389754 
L 508.118828 212.821241 
L 508.483309 213.086723 
L 508.743653 213.235935 
L 512.023987 215.938855 
L 512.180193 216.046826 
L 512.388469 216.239734 
L 512.805019 216.612025 
L 513.117432 216.918044 
L 513.481913 217.220166 
L 513.742257 217.482837 
L 514.367083 218.084894 
L 514.523289 218.263255 
L 515.35639 219.134848 
L 515.564665 219.329315 
L 515.77294 219.636785 
L 515.981215 219.79838 
L 516.137421 219.900581 
L 516.345696 220.195475 
L 516.658109 220.627995 
L 516.762247 220.683097 
L 516.970522 221.035395 
L 517.178797 221.178679 
L 517.543279 221.625277 
L 518.011898 222.206723 
L 518.32431 222.497062 
L 519.782237 224.530091 
L 520.094649 224.970658 
L 520.615337 225.74751 
L 520.875681 226.113224 
L 521.448438 226.920619 
L 521.656713 227.259545 
L 521.917057 227.649328 
L 522.281538 228.392793 
L 523.322914 230.255883 
L 523.583258 230.76131 
L 525.613941 235.423395 
L 526.603248 238.300621 
L 526.655317 238.351514 
L 527.123936 239.868117 
L 527.280142 240.578262 
L 527.696693 241.982606 
L 527.957036 242.877308 
L 528.269449 244.300788 
L 528.581862 245.847545 
L 528.790137 246.978828 
L 528.894275 247.192443 
L 529.362894 250.266853 
L 529.831513 253.268415 
L 530.195994 255.882795 
L 530.352201 257.081811 
L 530.872889 263.140483 
L 531.549783 274.005276 
L 531.862196 287.594233 
L 532.174608 340.722503 
L 532.643227 340.722503 
L 532.643227 340.722503 
" clip-path="url(#pee453f404a)" style="fill: none; stroke: #006400; stroke-width: 3; stroke-linecap: round"/>
   </g>
   <g id="line2d_16">
    <path d="M 106.147777 48.395545 
L 106.356052 58.253581 
L 106.408121 58.656633 
L 106.824671 70.069441 
L 107.761909 82.001291 
L 107.866047 82.361773 
L 107.970184 83.438992 
L 108.386735 86.17391 
L 108.438803 86.351023 
L 108.647078 87.664511 
L 109.063629 90.574296 
L 109.115698 90.640013 
L 109.844661 94.72295 
L 109.948798 95.084832 
L 111.667068 101.914861 
L 111.771206 102.153285 
L 112.135687 103.667223 
L 112.343963 104.383294 
L 112.604306 105.509415 
L 112.708444 105.756785 
L 113.020857 106.733344 
L 113.281201 107.53348 
L 113.906026 109.530215 
L 114.16637 110.273549 
L 114.218439 110.306654 
L 114.478783 111.083898 
L 114.739127 111.697882 
L 115.207746 113.005658 
L 116.092915 115.098424 
L 116.457397 115.952064 
L 116.717741 116.419581 
L 116.978085 117.030811 
L 118.383942 119.91409 
L 118.748424 120.553979 
L 118.956699 120.989585 
L 119.269111 121.546792 
L 120.050143 122.950533 
L 120.154281 123.135115 
L 120.362556 123.374677 
L 121.351863 125.303341 
L 121.716345 125.869321 
L 121.92462 126.18892 
L 122.028757 126.271663 
L 122.393239 126.9508 
L 122.497376 127.044752 
L 123.851165 129.164951 
L 124.007371 129.229732 
L 124.944609 130.685318 
L 124.996678 130.696186 
L 125.257022 131.093299 
L 125.413229 131.331094 
L 125.881848 132.024423 
L 126.038054 132.222592 
L 126.714948 133.107088 
L 126.819086 133.189596 
L 127.027361 133.483728 
L 127.235636 133.675449 
L 128.120806 134.821971 
L 128.224943 134.895801 
L 128.589425 135.42829 
L 131.505277 138.684277 
L 131.661483 138.896773 
L 132.806997 140.054973 
L 133.119409 140.430159 
L 133.327684 140.643487 
L 134.36906 141.711182 
L 135.202161 142.395773 
L 135.566642 142.845434 
L 136.08733 143.269024 
L 136.295605 143.511952 
L 137.961807 144.980004 
L 138.482495 145.406634 
L 139.211458 146.095802 
L 139.52387 146.341527 
L 140.096627 146.839582 
L 141.346278 147.746122 
L 141.606622 147.956576 
L 141.971103 148.240717 
L 142.179379 148.453482 
L 146.553157 152.026616 
L 146.657294 152.136456 
L 146.917638 152.349407 
L 147.542464 152.798181 
L 147.959014 153.158648 
L 148.427633 153.539622 
L 148.740046 153.855933 
L 149.521078 154.398991 
L 149.937628 154.884596 
L 150.250041 155.071841 
L 150.562454 155.398029 
L 151.447623 156.188048 
L 152.645205 157.292718 
L 152.905549 157.516633 
L 153.217962 157.773383 
L 153.426237 157.986566 
L 155.196576 159.86957 
L 155.508989 160.188344 
L 155.717264 160.51425 
L 155.925539 160.730689 
L 157.17519 162.536426 
L 157.435534 163.078996 
L 157.539671 163.213287 
L 157.747947 163.735812 
L 158.164497 164.799197 
L 158.424841 165.82343 
L 158.581047 166.707017 
L 158.633116 166.947882 
L 158.841391 176.414233 
L 158.89346 176.510108 
L 160.143111 194.343765 
L 160.299317 324.401357 
L 160.559661 329.352126 
L 160.872074 336.096604 
L 532.434952 336.096604 
L 532.53909 336.528572 
L 532.643227 347.204334 
L 532.643227 347.204334 
" clip-path="url(#pee453f404a)" style="fill: none; stroke: #3cb371; stroke-width: 3; stroke-linecap: round"/>
   </g>
   <g id="line2d_17">
    <path d="M 106.147777 47.409475 
L 106.303983 55.392602 
L 106.720533 59.665342 
L 106.928808 62.83445 
L 106.980877 62.945664 
L 107.345359 64.864128 
L 107.605703 65.880252 
L 107.813978 66.682153 
L 108.230528 68.582416 
L 109.42811 72.859373 
L 109.532248 72.947495 
L 110.573624 75.957655 
L 110.781899 76.205216 
L 111.510862 77.280349 
L 111.614999 77.485522 
L 112.083619 78.347329 
L 112.135687 78.402011 
L 112.343963 78.890831 
L 112.812582 79.715212 
L 113.437407 80.840806 
L 114.062233 81.932182 
L 114.16637 82.037331 
L 114.426714 82.458984 
L 114.530852 82.564097 
L 114.947402 83.298217 
L 115.259815 83.69641 
L 115.676365 84.455376 
L 115.832571 84.664467 
L 117.134291 86.327646 
L 118.071529 87.404864 
L 121.143588 91.300957 
L 121.299794 91.525496 
L 121.664276 91.891894 
L 122.34117 92.617628 
L 122.809789 93.25799 
L 123.590821 94.115753 
L 124.05944 94.712557 
L 124.111509 94.724179 
L 124.423922 95.23788 
L 124.528059 95.336747 
L 124.736334 95.539258 
L 125.204953 96.086126 
L 125.465297 96.413287 
L 125.673572 96.589525 
L 126.350467 97.420572 
L 126.454604 97.55284 
L 127.027361 98.221494 
L 127.183567 98.449964 
L 127.443911 98.754214 
L 127.652186 99.07195 
L 128.641493 100.353937 
L 128.693562 100.366903 
L 128.953906 100.788908 
L 129.266319 101.146456 
L 129.578732 101.618964 
L 129.839076 102.080393 
L 130.047351 102.296217 
L 130.255626 102.68672 
L 130.463901 102.92919 
L 131.609414 104.709073 
L 131.869758 105.082848 
L 132.182171 105.658325 
L 132.494584 106.084013 
L 134.525267 109.655676 
L 134.733542 110.139352 
L 134.941817 110.501913 
L 135.826986 112.325547 
L 135.879055 112.338262 
L 136.139399 113.000415 
L 136.243537 113.106201 
L 136.660087 113.953547 
L 137.284912 115.133058 
L 137.8056 116.242306 
L 137.961807 116.469166 
L 140.877659 121.253852 
L 141.138003 121.518536 
L 141.346278 121.811561 
L 142.023172 122.677934 
L 144.001786 124.734017 
L 144.105924 124.841447 
L 144.522474 125.243268 
L 144.67868 125.377137 
L 145.043162 125.742603 
L 145.876263 126.370849 
L 146.240744 126.739859 
L 146.657294 127.034685 
L 147.69867 127.762747 
L 148.063152 128.022014 
L 148.375565 128.250846 
L 149.104528 128.704017 
L 149.364871 128.893019 
L 149.781422 129.135216 
L 152.176586 130.463915 
L 152.541068 130.631993 
L 155.04037 131.880002 
L 155.45692 132.070499 
L 156.706571 132.590208 
L 156.914846 132.705508 
L 157.852084 133.060032 
L 160.61173 134.139991 
L 161.601037 134.478884 
L 162.694481 134.843377 
L 163.683788 135.142231 
L 164.100339 135.298988 
L 164.673095 135.457746 
L 164.933439 135.571412 
L 166.235159 135.962795 
L 166.755847 136.132148 
L 175.24306 138.406853 
L 175.867885 138.534566 
L 176.336504 138.680516 
L 177.325811 138.910469 
L 178.992012 139.295364 
L 180.241663 139.572959 
L 180.554076 139.663635 
L 192.00921 142.019362 
L 192.790242 142.167361 
L 193.987824 142.403623 
L 201.485729 143.761025 
L 202.631243 143.974092 
L 212.472244 145.614474 
L 213.357413 145.752483 
L 214.450858 145.918983 
L 215.075683 146.027736 
L 217.991535 146.492658 
L 218.616361 146.597586 
L 221.688419 147.071179 
L 223.979446 147.420911 
L 224.291859 147.478383 
L 225.12496 147.592254 
L 226.634954 147.825838 
L 227.572193 147.977643 
L 229.342531 148.242812 
L 232.466659 148.702461 
L 234.13286 148.94171 
L 254.023137 151.797503 
L 254.908307 151.921465 
L 256.366233 152.119972 
L 265.374133 153.374168 
L 275.735822 154.803701 
L 276.308579 154.880837 
L 277.662368 155.063363 
L 278.85995 155.228254 
L 281.775802 155.626868 
L 285.212342 156.094435 
L 286.566131 156.288856 
L 294.428518 157.358545 
L 295.521962 157.50517 
L 297.812989 157.815483 
L 299.114709 158.000918 
L 301.770217 158.354151 
L 302.707455 158.492387 
L 304.113312 158.685747 
L 305.727445 158.899542 
L 307.185371 159.103663 
L 308.174678 159.248976 
L 310.049154 159.499298 
L 311.142599 159.647667 
L 315.41224 160.238676 
L 315.984996 160.317113 
L 321.452219 161.081871 
L 343.269042 164.207673 
L 344.674899 164.41261 
L 351.235567 165.377952 
L 352.485217 165.571445 
L 358.993816 166.54974 
L 360.243467 166.740785 
L 370.344812 168.309055 
L 371.177913 168.444041 
L 373.937559 168.860421 
L 374.458246 168.938826 
L 375.135141 169.05828 
L 379.717194 169.790771 
L 380.498226 169.929057 
L 382.841321 170.29067 
L 388.256476 171.192408 
L 416.529828 176.271586 
L 417.31086 176.419168 
L 418.664648 176.675626 
L 421.424294 177.220715 
L 422.205326 177.387545 
L 427.672549 178.476811 
L 427.984962 178.557876 
L 429.182544 178.799955 
L 431.525639 179.27921 
L 432.202533 179.430038 
L 441.36664 181.43998 
L 441.939397 181.571208 
L 444.282492 182.107082 
L 445.636281 182.438893 
L 446.833863 182.689608 
L 447.562826 182.875673 
L 458.913822 185.74372 
L 459.382441 185.880891 
L 460.892436 186.275664 
L 461.56933 186.476903 
L 464.901733 187.417221 
L 465.47449 187.56079 
L 465.943109 187.715279 
L 466.515865 187.873168 
L 467.713448 188.226611 
L 471.983088 189.519646 
L 473.336877 189.924349 
L 473.909633 190.100129 
L 476.773417 191.060459 
L 477.398242 191.289508 
L 478.8041 191.740505 
L 487.447519 194.91013 
L 488.020275 195.140093 
L 490.155096 196.003913 
L 490.467508 196.132037 
L 491.821297 196.704343 
L 492.13371 196.858132 
L 492.602329 197.049854 
L 493.539567 197.47709 
L 494.372668 197.851975 
L 494.737149 198.034413 
L 495.674387 198.431674 
L 496.40335 198.808548 
L 496.767832 198.982422 
L 497.236451 199.202243 
L 497.70507 199.481739 
L 498.329895 199.768499 
L 498.798515 200.055442 
L 499.162996 200.187141 
L 499.735753 200.479308 
L 504.9947 203.486725 
L 505.46332 203.727285 
L 506.817108 204.536022 
L 507.025383 204.749277 
L 507.233658 204.873289 
L 507.59814 205.098928 
L 509.73296 206.608416 
L 510.201579 206.971311 
L 510.461923 207.129756 
L 510.878474 207.463331 
L 511.45123 207.865118 
L 511.919849 208.266838 
L 514.575358 210.515094 
L 514.88777 210.839577 
L 517.439141 213.315277 
L 517.855691 213.726501 
L 518.79293 214.656746 
L 519.157411 215.321386 
L 519.573961 215.73474 
L 519.990512 216.188606 
L 520.146718 216.441048 
L 520.563268 216.940152 
L 521.812919 218.716884 
L 523.999808 222.317163 
L 524.208084 222.708245 
L 524.260152 222.729931 
L 524.468428 223.218724 
L 526.08256 226.525845 
L 526.551179 227.811566 
L 526.759454 228.414897 
L 527.123936 229.377288 
L 527.176005 229.434267 
L 527.38428 230.186063 
L 527.488417 230.41954 
L 527.80083 231.41814 
L 527.904968 231.650804 
L 528.529793 233.731012 
L 528.633931 233.860712 
L 530.300132 242.44112 
L 530.508407 243.735109 
L 531.081164 249.33254 
L 531.966333 261.100234 
L 532.174608 267.712993 
L 532.278746 270.383008 
L 532.53909 284.337896 
L 532.643227 319.156434 
L 532.643227 319.156434 
" clip-path="url(#pee453f404a)" style="fill: none; stroke: #ff8c00; stroke-width: 3; stroke-linecap: round"/>
   </g>
   <g id="line2d_18">
    <path d="M 106.147777 49.203666 
L 106.356052 57.469462 
L 106.824671 69.016538 
L 106.87674 69.078958 
L 107.397428 77.018832 
L 107.449496 77.054567 
L 107.70984 79.900599 
L 108.386735 86.31769 
L 108.542941 87.131884 
L 109.115698 90.628919 
L 109.792592 93.820482 
L 110.000867 94.980909 
L 110.052936 95.012165 
L 110.261211 96.140021 
L 112.812582 105.981705 
L 113.072926 106.593995 
L 113.489476 108.054394 
L 116.613603 115.308462 
L 119.112905 119.98792 
L 119.269111 120.123978 
L 119.581524 120.688576 
L 119.685662 120.816289 
L 121.03945 122.787261 
L 121.143588 122.9124 
L 121.403932 123.405357 
L 122.132895 124.255408 
L 122.34117 124.5591 
L 122.965995 125.412244 
L 123.330477 125.866433 
L 123.538752 126.076933 
L 124.007371 126.696213 
L 124.215646 126.896958 
L 124.684266 127.488472 
L 124.944609 127.713313 
L 125.465297 128.383051 
L 125.673572 128.600714 
L 125.985985 129.028881 
L 126.090123 129.115016 
L 126.350467 129.378179 
L 126.402536 129.393804 
L 126.558742 129.649845 
L 127.027361 130.111468 
L 128.38115 131.566159 
L 128.745631 131.91668 
L 129.526663 132.663716 
L 129.787007 132.927353 
L 129.995282 133.110791 
L 130.411832 133.499138 
L 130.828383 133.895098 
L 131.765621 134.728019 
L 131.973896 134.969974 
L 132.390446 135.276516 
L 132.911134 135.741913 
L 133.900441 136.589339 
L 138.951114 140.692168 
L 139.315595 140.972679 
L 139.680077 141.270231 
L 140.200765 141.703608 
L 140.617315 142.029713 
L 140.773521 142.170376 
L 141.085934 142.448213 
L 141.502484 142.743712 
L 141.866966 143.064512 
L 142.804204 143.711031 
L 143.481098 144.271899 
L 144.001786 144.643152 
L 144.626612 145.135697 
L 144.939024 145.322829 
L 145.199368 145.557207 
L 145.876263 146.063421 
L 146.188675 146.321163 
L 147.906945 147.670225 
L 148.115221 147.859641 
L 149.208665 148.675761 
L 149.521078 148.990401 
L 150.041766 149.409826 
L 150.250041 149.574277 
L 150.406247 149.682486 
L 150.666591 149.953479 
L 151.395554 150.566133 
L 151.864173 151.036277 
L 152.072449 151.182869 
L 152.85348 151.891169 
L 153.113824 152.151943 
L 153.322099 152.374426 
L 153.478306 152.490937 
L 153.686581 152.716991 
L 157.018983 156.527106 
L 157.331396 157.043634 
L 157.487603 157.293715 
L 158.060359 158.481451 
L 158.581047 160.476562 
L 158.633116 161.085469 
L 158.89346 168.75702 
L 158.945529 169.002995 
L 159.362079 175.426097 
L 159.466217 175.953169 
L 159.622423 180.887857 
L 160.091042 189.735995 
L 160.143111 193.417894 
L 160.299317 323.104189 
L 160.351386 323.523076 
L 160.559661 328.827547 
L 160.61173 328.874209 
L 160.872074 336.371273 
L 161.02828 336.603688 
L 532.434952 336.603688 
L 532.643227 342.354683 
L 532.643227 342.354683 
" clip-path="url(#pee453f404a)" style="fill: none; stroke: #ffa500; stroke-width: 3; stroke-linecap: round"/>
   </g>
   <g id="line2d_19">
    <path d="M 106.147777 55.487928 
L 106.460189 62.708442 
L 106.87674 66.311118 
L 106.980877 66.920269 
L 107.501565 70.049143 
L 107.553634 70.130784 
L 107.866047 71.597336 
L 108.699147 75.368626 
L 108.855354 75.867915 
L 109.115698 76.774018 
L 109.167766 76.795718 
L 109.636385 78.132596 
L 109.688454 78.192441 
L 109.948798 79.081056 
L 110.052936 79.391405 
L 111.14638 81.896228 
L 111.198449 81.913247 
L 111.510862 82.499697 
L 112.968788 85.121911 
L 113.124994 85.507399 
L 113.281201 85.668418 
L 113.541545 86.156596 
L 113.801889 86.52441 
L 114.58292 87.543978 
L 114.739127 87.666295 
L 115.676365 89.134505 
L 115.832571 89.366981 
L 116.040847 89.663839 
L 118.071529 92.194315 
L 118.331873 92.642766 
L 118.644286 92.976122 
L 119.060836 93.484502 
L 119.217043 93.637776 
L 119.373249 93.904791 
L 119.477387 93.968545 
L 119.789799 94.292047 
L 119.893937 94.426903 
L 120.883244 95.608465 
L 121.091519 95.900115 
L 121.820482 96.662836 
L 122.184964 97.139026 
L 122.34117 97.266697 
L 122.75772 97.720272 
L 123.174271 98.093394 
L 123.434615 98.407776 
L 123.590821 98.475105 
L 123.851165 98.832293 
L 124.528059 99.563868 
L 125.933916 100.942952 
L 126.19426 101.254053 
L 126.923223 101.925325 
L 127.131499 102.066517 
L 127.391843 102.410647 
L 127.652186 102.625536 
L 128.172874 103.154221 
L 129.058044 104.051742 
L 129.422525 104.403488 
L 129.734938 104.773746 
L 129.943213 104.952001 
L 130.51597 105.561869 
L 130.776314 105.760288 
L 131.192864 106.285495 
L 132.338377 107.633195 
L 132.65079 107.981028 
L 133.119409 108.465724 
L 133.53596 109.010363 
L 134.004579 109.511111 
L 134.160785 109.78089 
L 134.36906 109.967102 
L 134.629404 110.345202 
L 136.920431 113.059104 
L 137.180775 113.369575 
L 137.493188 113.724706 
L 137.701463 114.022278 
L 137.961807 114.287367 
L 138.170082 114.587392 
L 139.315595 116.008539 
L 139.940421 116.760963 
L 144.574543 122.381077 
L 144.730749 122.556845 
L 144.939024 122.788765 
L 145.1473 122.981724 
L 145.772125 123.698088 
L 146.084538 124.034823 
L 146.292813 124.259812 
L 146.449019 124.422439 
L 147.177982 125.102984 
L 147.69867 125.557647 
L 147.959014 125.810554 
L 148.219358 126.020559 
L 150.093835 127.641098 
L 150.250041 127.805331 
L 151.291417 128.515285 
L 151.812105 128.864323 
L 152.176586 129.145042 
L 152.384861 129.269255 
L 152.593136 129.453851 
L 153.061756 129.737335 
L 153.790719 130.224447 
L 154.103131 130.370138 
L 158.320703 132.648082 
L 158.841391 132.905874 
L 159.414148 133.160709 
L 160.038973 133.435809 
L 160.299317 133.557516 
L 160.61173 133.706549 
L 166.599641 136.074886 
L 173.056171 138.120151 
L 174.722372 138.612267 
L 175.347197 138.788938 
L 176.440642 139.092177 
L 176.753055 139.175318 
L 177.534086 139.385529 
L 178.627531 139.675114 
L 180.502007 140.152943 
L 181.595452 140.420968 
L 182.376484 140.605222 
L 189.145426 142.155788 
L 191.228178 142.610961 
L 191.644728 142.687228 
L 202.839518 144.894972 
L 203.932962 145.088345 
L 205.859508 145.435621 
L 207.629846 145.748138 
L 213.461551 146.766664 
L 214.086376 146.873806 
L 214.919477 147.007674 
L 215.64844 147.132384 
L 223.771171 148.455593 
L 225.385303 148.713281 
L 229.707013 149.408142 
L 230.852526 149.584298 
L 233.039415 149.918026 
L 234.809754 150.172426 
L 237.413194 150.578868 
L 242.828348 151.3889 
L 243.557311 151.491341 
L 243.921792 151.554249 
L 244.859031 151.688256 
L 247.097988 152.020711 
L 247.566608 152.097065 
L 249.59729 152.389028 
L 256.678646 153.411924 
L 257.407609 153.537089 
L 259.906911 153.885856 
L 261.364837 154.100815 
L 263.760001 154.431981 
L 265.374133 154.676841 
L 268.498261 155.110814 
L 269.227224 155.220296 
L 274.277896 155.936015 
L 275.42341 156.090897 
L 282.660971 157.100087 
L 283.650278 157.247717 
L 292.918523 158.554647 
L 293.855761 158.679045 
L 294.584724 158.786152 
L 297.552645 159.204907 
L 298.333677 159.316482 
L 299.375053 159.457304 
L 302.030561 159.839407 
L 302.967799 159.964315 
L 304.21745 160.142691 
L 307.497784 160.621245 
L 308.643297 160.779982 
L 309.736742 160.923709 
L 314.266726 161.581474 
L 315.203965 161.714623 
L 319.26533 162.297446 
L 320.046362 162.408753 
L 321.712563 162.6455 
L 334.573554 164.537325 
L 344.102142 165.964658 
L 345.247656 166.138814 
L 348.163508 166.57423 
L 349.152815 166.720913 
L 353.214181 167.344108 
L 355.244863 167.655003 
L 357.796234 168.060689 
L 359.202091 168.270456 
L 360.868292 168.536825 
L 367.84551 169.649618 
L 383.101665 172.159497 
L 384.038904 172.326154 
L 385.757174 172.618428 
L 386.746481 172.789559 
L 391.224396 173.572442 
L 392.421979 173.773435 
L 394.400593 174.116235 
L 394.869212 174.22013 
L 396.743688 174.549088 
L 397.316445 174.6509 
L 398.305752 174.840853 
L 400.596779 175.242558 
L 401.794361 175.461082 
L 425.798072 180.141775 
L 426.31876 180.261662 
L 428.141168 180.634814 
L 452.249017 186.243438 
L 453.186255 186.495069 
L 454.2797 186.767527 
L 470.993781 191.537076 
L 471.4624 191.681151 
L 475.679972 193.048638 
L 476.461004 193.311537 
L 477.970999 193.82268 
L 478.283412 193.941543 
L 478.960306 194.172992 
L 479.480994 194.35134 
L 480.93892 194.899023 
L 481.511677 195.101485 
L 482.813396 195.560892 
L 484.739942 196.285198 
L 485.416836 196.572916 
L 488.905445 197.979735 
L 489.894752 198.376364 
L 490.83199 198.781148 
L 491.196471 198.966299 
L 491.456815 199.080298 
L 499.891959 203.158991 
L 500.72506 203.582138 
L 501.297816 203.870254 
L 502.339192 204.460114 
L 502.599536 204.617574 
L 503.536774 205.157265 
L 504.630219 205.817361 
L 504.9947 206.033259 
L 505.255044 206.199605 
L 505.46332 206.322165 
L 506.088145 206.739963 
L 506.29642 206.865468 
L 509.108135 208.794179 
L 509.524685 209.138212 
L 511.295024 210.419646 
L 512.544675 211.462193 
L 512.700881 211.603975 
L 512.909156 211.815502 
L 513.117432 211.937147 
L 513.690188 212.440685 
L 513.898463 212.593868 
L 514.158807 212.863588 
L 514.47122 213.125642 
L 514.731564 213.38768 
L 514.991908 213.593254 
L 515.408458 213.975694 
L 515.929146 214.411059 
L 516.137421 214.645566 
L 516.60604 215.08663 
L 520.459131 219.498266 
L 520.667406 219.77606 
L 520.92775 220.141243 
L 521.760851 221.377967 
L 521.969126 221.656381 
L 522.22947 222.187466 
L 524.260152 225.49517 
L 524.468428 225.858648 
L 524.728772 226.274863 
L 524.832909 226.502667 
L 525.145322 227.296216 
L 525.457735 228.074728 
L 525.822216 228.898583 
L 526.915661 231.571951 
L 527.071867 232.150596 
L 527.176005 232.359776 
L 528.633931 237.105005 
L 528.998412 238.947641 
L 529.310825 240.15755 
L 530.195994 244.817051 
L 530.40427 246.184747 
L 530.456338 246.37235 
L 530.768751 248.797413 
L 530.82082 248.874508 
L 531.393577 255.308466 
L 531.549783 257.188174 
L 532.018402 266.264687 
L 532.487021 284.033951 
L 532.591159 296.868308 
L 532.643227 325.868401 
L 532.643227 325.868401 
" clip-path="url(#pee453f404a)" style="fill: none; stroke: #4169e1; stroke-width: 3; stroke-linecap: round"/>
   </g>
   <g id="line2d_20">
    <path d="M 106.147777 50.571315 
L 106.356052 66.292077 
L 106.616396 73.274167 
L 106.668465 73.530556 
L 106.87674 76.863037 
L 107.241221 82.163344 
L 107.449496 85.043672 
L 107.866047 88.356481 
L 108.126391 90.214511 
L 108.334666 91.468654 
L 108.542941 93.082336 
L 109.01156 95.431573 
L 109.376042 97.277857 
L 109.480179 97.353719 
L 109.792592 99.156679 
L 109.896729 99.609831 
L 110.677761 102.971769 
L 112.135687 107.824945 
L 112.291894 108.123126 
L 112.552238 109.177905 
L 112.760513 109.862667 
L 112.968788 110.417616 
L 113.906026 112.832941 
L 114.218439 113.680532 
L 114.426714 114.036952 
L 114.634989 114.567339 
L 117.030154 119.563067 
L 117.18636 119.750079 
L 117.811185 121.012589 
L 118.019461 121.246306 
L 118.48808 122.054676 
L 118.592217 122.188454 
L 119.112905 123.142136 
L 119.269111 123.30312 
L 122.497376 127.885046 
L 123.64289 129.22035 
L 123.903234 129.559628 
L 125.36116 131.190663 
L 125.569435 131.39253 
L 125.77771 131.649037 
L 126.142192 131.976052 
L 126.19426 131.984596 
L 126.402536 132.272579 
L 126.662879 132.491099 
L 126.923223 132.871297 
L 129.995282 135.767307 
L 130.151488 135.894885 
L 130.411832 136.167143 
L 130.724245 136.449024 
L 131.036658 136.72693 
L 131.297002 136.92724 
L 131.557346 137.229371 
L 131.921827 137.505074 
L 140.252833 144.173447 
L 140.721453 144.526924 
L 141.190072 144.922101 
L 145.303506 148.03717 
L 145.56385 148.243992 
L 145.876263 148.498984 
L 146.084538 148.655736 
L 146.605226 149.061572 
L 146.86557 149.288443 
L 147.28212 149.635306 
L 147.750739 149.999332 
L 148.063152 150.184398 
L 149.521078 151.355741 
L 149.781422 151.592884 
L 150.250041 151.964713 
L 150.562454 152.220887 
L 150.770729 152.392541 
L 151.13521 152.732181 
L 151.343485 152.880238 
L 151.551761 153.093026 
L 151.760036 153.190754 
L 152.124517 153.598127 
L 152.488999 153.911487 
L 152.749343 154.207062 
L 153.270031 154.655841 
L 153.374168 154.747785 
L 153.946925 155.363844 
L 154.1552 155.522513 
L 154.363475 155.779652 
L 154.623819 155.983778 
L 155.248645 156.723335 
L 155.45692 156.987913 
L 155.561057 157.057018 
L 155.821401 157.40249 
L 156.914846 159.029317 
L 157.487603 159.942237 
L 157.747947 160.442676 
L 158.320703 162.247809 
L 158.89346 169.831777 
L 159.101735 176.25111 
L 159.257941 178.22862 
L 159.414148 180.692953 
L 159.466217 180.873325 
L 159.726561 184.432393 
L 159.830698 186.391905 
L 159.934836 188.660742 
L 160.091042 195.145027 
L 160.143111 195.808262 
L 160.299317 331.321609 
L 160.61173 338.024814 
L 532.487021 338.024814 
L 532.53909 338.661471 
L 532.643227 346.293717 
L 532.643227 346.293717 
" clip-path="url(#pee453f404a)" style="fill: none; stroke: #87ceeb; stroke-width: 3; stroke-linecap: round"/>
   </g>
   <g id="patch_3">
    <path d="M 84.823004 362.194077 
L 84.823004 22.032 
" style="fill: none; stroke: #cccccc; stroke-width: 1.25; stroke-linejoin: miter; stroke-linecap: square"/>
   </g>
   <g id="patch_4">
    <path d="M 553.968 362.194077 
L 553.968 22.032 
" style="fill: none; stroke: #cccccc; stroke-width: 1.25; stroke-linejoin: miter; stroke-linecap: square"/>
   </g>
   <g id="patch_5">
    <path d="M 84.823004 362.194077 
L 553.968 362.194077 
" style="fill: none; stroke: #cccccc; stroke-width: 1.25; stroke-linejoin: miter; stroke-linecap: square"/>
   </g>
   <g id="patch_6">
    <path d="M 84.823004 22.032 
L 553.968 22.032 
" style="fill: none; stroke: #cccccc; stroke-width: 1.25; stroke-linejoin: miter; stroke-linecap: square"/>
   </g>
   <g id="legend_1">
    <g id="patch_7">
     <path d="M 357.348434 158.918177 
L 544.168 158.918177 
Q 546.968 158.918177 546.968 156.118177 
L 546.968 31.832 
Q 546.968 29.032 544.168 29.032 
L 357.348434 29.032 
Q 354.548434 29.032 354.548434 31.832 
L 354.548434 156.118177 
Q 354.548434 158.918177 357.348434 158.918177 
z
" style="fill: #ffffff; opacity: 0.8; stroke: #cccccc; stroke-linejoin: miter"/>
    </g>
    <g id="line2d_21">
     <path d="M 360.148434 40.192772 
L 374.148434 40.192772 
L 388.148434 40.192772 
" style="fill: none; stroke: #006400; stroke-width: 3; stroke-linecap: round"/>
    </g>
    <g id="text_17">
     <!-- LuXry (train) c=10 -->
     <g style="fill: #262626" transform="translate(399.348434 45.092772) scale(0.14 -0.14)">
      <defs>
       <path id="CMSS17-58" d="M 2214 2329 
L 3661 4416 
L 3072 4416 
L 1952 2762 
L 800 4416 
L 166 4416 
L 1690 2329 
L 83 0 
L 672 0 
L 1952 1941 
L 3277 0 
L 3910 0 
L 2214 2329 
z
" transform="scale(0.015625)"/>
       <path id="CMSS17-79" d="M 2675 2752 
L 2176 2752 
C 1632 1294 1446 702 1434 383 
L 1427 383 
C 1408 696 1126 1460 902 2007 
L 602 2752 
L 83 2752 
L 1216 13 
C 1146 -178 1043 -465 1011 -529 
C 870 -885 774 -885 672 -885 
C 646 -885 442 -885 211 -809 
L 250 -1229 
C 410 -1261 570 -1280 685 -1280 
C 845 -1280 1165 -1280 1459 -497 
L 2675 2752 
z
" transform="scale(0.015625)"/>
       <path id="CMSS17-28" d="M 1613 4768 
C 1267 4417 474 3601 474 1588 
C 474 -433 1267 -1243 1613 -1600 
L 2003 -1600 
C 1216 -784 960 357 960 1581 
C 960 2798 1203 3946 2003 4768 
L 1613 4768 
z
" transform="scale(0.015625)"/>
       <path id="CMSS17-29" d="M 723 -1600 
C 1069 -1249 1862 -433 1862 1581 
C 1862 3601 1069 4411 723 4768 
L 333 4768 
C 1120 3952 1376 2811 1376 1588 
C 1376 370 1133 -778 333 -1600 
L 723 -1600 
z
" transform="scale(0.015625)"/>
       <path id="CMSS17-63" d="M 2464 2541 
C 2464 2585 2170 2714 2093 2739 
C 1882 2816 1613 2816 1542 2816 
C 710 2816 211 2093 211 1363 
C 211 595 768 -64 1517 -64 
C 1946 -64 2253 76 2502 242 
L 2464 664 
C 2189 453 1869 337 1523 337 
C 1024 337 698 774 698 1369 
C 698 1831 909 2414 1549 2414 
C 1901 2414 2099 2343 2394 2145 
L 2464 2541 
z
" transform="scale(0.015625)"/>
       <path id="CMSS17-3d" d="M 4147 2017 
C 4243 2017 4339 2017 4339 2125 
C 4339 2240 4230 2240 4122 2240 
L 550 2240 
C 442 2240 333 2240 333 2125 
C 333 2017 429 2017 525 2017 
L 4147 2017 
z
M 4122 896 
C 4230 896 4339 896 4339 1011 
C 4339 1119 4243 1119 4147 1119 
L 525 1119 
C 429 1119 333 1119 333 1011 
C 333 896 442 896 550 896 
L 4122 896 
z
" transform="scale(0.015625)"/>
       <path id="CMSS17-31" d="M 1818 4288 
L 1696 4288 
C 1350 3940 947 3890 538 3890 
L 538 3520 
C 723 3520 1024 3520 1325 3667 
L 1325 369 
L 570 369 
L 570 0 
L 2573 0 
L 2573 369 
L 1818 369 
L 1818 4288 
z
" transform="scale(0.015625)"/>
       <path id="CMSS17-30" d="M 2758 2044 
C 2758 2405 2752 3077 2490 3596 
C 2227 4096 1805 4229 1504 4229 
C 1069 4229 698 3975 506 3570 
C 301 3146 243 2709 243 2044 
C 243 1589 262 1031 493 543 
C 755 5 1197 -128 1498 -128 
C 1894 -128 2278 81 2496 518 
C 2720 974 2758 1474 2758 2044 
z
M 1498 261 
C 1011 261 864 811 819 995 
C 742 1310 730 1614 730 2114 
C 730 2506 730 2948 851 3297 
C 998 3701 1254 3840 1498 3840 
C 1971 3840 2125 3372 2176 3208 
C 2272 2873 2272 2481 2272 2114 
C 2272 1526 2272 261 1498 261 
z
" transform="scale(0.015625)"/>
      </defs>
      <use xlink:href="#CMSS17-4c" transform="scale(0.996264)"/>
      <use xlink:href="#CMSS17-75" transform="translate(50.687105 0) scale(0.996264)"/>
      <use xlink:href="#CMSS17-58" transform="translate(98.892048 0) scale(0.996264)"/>
      <use xlink:href="#CMSS17-72" transform="translate(161.109903 0) scale(0.996264)"/>
      <use xlink:href="#CMSS17-79" transform="translate(193.019676 0) scale(0.996264)"/>
      <use xlink:href="#CMSS17-28" transform="translate(267.24893 0) scale(0.996264)"/>
      <use xlink:href="#CMSS17-74" transform="translate(303.682845 0) scale(0.996264)"/>
      <use xlink:href="#CMSS17-72" transform="translate(337.514411 0) scale(0.996264)"/>
      <use xlink:href="#CMSS17-61" transform="translate(369.424184 0) scale(0.996264)"/>
      <use xlink:href="#CMSS17-69" transform="translate(414.346104 0) scale(0.996264)"/>
      <use xlink:href="#CMSS17-6e" transform="translate(436.526827 0) scale(0.996264)"/>
      <use xlink:href="#CMSS17-29" transform="translate(484.731771 0) scale(0.996264)"/>
      <use xlink:href="#CMSS17-63" transform="translate(552.394798 0) scale(0.996264)"/>
      <use xlink:href="#CMSS17-3d" transform="translate(594.03362 0) scale(0.996264)"/>
      <use xlink:href="#CMSS17-31" transform="translate(666.901554 0) scale(0.996264)"/>
      <use xlink:href="#CMSS17-30" transform="translate(713.745178 0) scale(0.996264)"/>
     </g>
    </g>
    <g id="line2d_22">
     <path d="M 360.148434 61.140468 
L 374.148434 61.140468 
L 388.148434 61.140468 
" style="fill: none; stroke: #3cb371; stroke-width: 3; stroke-linecap: round"/>
    </g>
    <g id="text_18">
     <!-- Downstream (test) c=10 -->
     <g style="fill: #262626" transform="translate(399.348434 66.040468) scale(0.14 -0.14)">
      <defs>
       <path id="CMSS17-44" d="M 570 4416 
L 570 0 
L 2144 0 
C 3194 0 4000 980 4000 2170 
C 4000 3398 3194 4416 2144 4416 
L 570 4416 
z
M 1094 357 
L 1094 4059 
L 2003 4059 
C 2861 4059 3475 3277 3475 2170 
C 3475 1107 2867 357 2003 357 
L 1094 357 
z
" transform="scale(0.015625)"/>
       <path id="CMSS17-77" d="M 4013 2752 
L 3526 2752 
L 3187 1601 
C 3117 1358 2918 685 2893 371 
L 2886 371 
C 2874 564 2765 1024 2586 1633 
L 2259 2752 
L 1818 2752 
L 1498 1658 
C 1338 1101 1216 627 1203 371 
L 1197 371 
C 1171 749 909 1633 870 1773 
L 582 2752 
L 83 2752 
L 915 0 
L 1402 0 
C 1734 1096 1990 1943 2010 2370 
C 2022 2160 2131 1707 2195 1484 
L 2618 0 
L 3181 0 
L 4013 2752 
z
" transform="scale(0.015625)"/>
       <path id="CMSS17-73" d="M 2061 2627 
C 1683 2807 1389 2807 1197 2807 
C 742 2807 198 2648 198 2003 
C 198 1359 902 1218 1094 1179 
C 1389 1122 1715 1058 1715 740 
C 1715 337 1254 337 1171 337 
C 915 337 563 407 243 638 
L 166 210 
C 531 0 883 -64 1178 -64 
C 1965 -64 2163 416 2163 781 
C 2163 1094 1984 1305 1862 1401 
C 1651 1568 1574 1587 1050 1696 
C 960 1709 646 1779 646 2066 
C 646 2432 1050 2432 1139 2432 
C 1555 2432 1811 2303 1984 2208 
L 2061 2627 
z
" transform="scale(0.015625)"/>
      </defs>
      <use xlink:href="#CMSS17-44" transform="scale(0.996264)"/>
      <use xlink:href="#CMSS17-6f" transform="translate(67.542842 0) scale(0.996264)"/>
      <use xlink:href="#CMSS17-77" transform="translate(111.784011 0) scale(0.996264)"/>
      <use xlink:href="#CMSS17-6e" transform="translate(175.603556 0) scale(0.996264)"/>
      <use xlink:href="#CMSS17-73" transform="translate(223.808499 0) scale(0.996264)"/>
      <use xlink:href="#CMSS17-74" transform="translate(259.722041 0) scale(0.996264)"/>
      <use xlink:href="#CMSS17-72" transform="translate(293.553608 0) scale(0.996264)"/>
      <use xlink:href="#CMSS17-65" transform="translate(325.463381 0) scale(0.996264)"/>
      <use xlink:href="#CMSS17-61" transform="translate(367.102203 0) scale(0.996264)"/>
      <use xlink:href="#CMSS17-6d" transform="translate(412.024123 0) scale(0.996264)"/>
      <use xlink:href="#CMSS17-28" transform="translate(517.482491 0) scale(0.996264)"/>
      <use xlink:href="#CMSS17-74" transform="translate(553.916405 0) scale(0.996264)"/>
      <use xlink:href="#CMSS17-65" transform="translate(587.747971 0) scale(0.996264)"/>
      <use xlink:href="#CMSS17-73" transform="translate(629.386794 0) scale(0.996264)"/>
      <use xlink:href="#CMSS17-74" transform="translate(665.300336 0) scale(0.996264)"/>
      <use xlink:href="#CMSS17-29" transform="translate(699.131902 0) scale(0.996264)"/>
      <use xlink:href="#CMSS17-63" transform="translate(766.794929 0) scale(0.996264)"/>
      <use xlink:href="#CMSS17-3d" transform="translate(808.433751 0) scale(0.996264)"/>
      <use xlink:href="#CMSS17-31" transform="translate(881.301686 0) scale(0.996264)"/>
      <use xlink:href="#CMSS17-30" transform="translate(928.14531 0) scale(0.996264)"/>
     </g>
    </g>
    <g id="line2d_23">
     <path d="M 360.148434 82.088164 
L 374.148434 82.088164 
L 388.148434 82.088164 
" style="fill: none; stroke: #ff8c00; stroke-width: 3; stroke-linecap: round"/>
    </g>
    <g id="text_19">
     <!-- LuXry (train) c=25 -->
     <g style="fill: #262626" transform="translate(399.348434 86.988164) scale(0.14 -0.14)">
      <defs>
       <path id="CMSS17-32" d="M 1651 1357 
C 1830 1541 2099 1764 2285 1987 
C 2464 2204 2701 2511 2701 2957 
C 2701 3657 2227 4288 1421 4288 
C 787 4288 422 3893 250 3274 
L 499 2929 
C 640 3510 838 3880 1338 3880 
C 1888 3880 2195 3433 2195 2942 
C 2195 2355 1747 1901 1408 1563 
C 1030 1187 659 804 301 408 
L 301 0 
L 2701 0 
L 2701 433 
L 1613 433 
C 1536 433 1459 433 1382 433 
L 742 433 
L 742 439 
L 1651 1357 
z
" transform="scale(0.015625)"/>
       <path id="CMSS17-35" d="M 934 3752 
L 2502 3752 
L 2502 4160 
L 467 4160 
L 467 1781 
L 896 1781 
C 1011 2046 1248 2240 1555 2240 
C 1843 2240 2163 1989 2163 1266 
C 2163 493 1709 267 1376 267 
C 966 267 589 512 422 851 
L 218 499 
C 512 49 992 -128 1376 -128 
C 2118 -128 2701 497 2701 1253 
C 2701 2030 2182 2629 1562 2629 
C 1338 2629 1120 2553 934 2399 
L 934 3752 
z
" transform="scale(0.015625)"/>
      </defs>
      <use xlink:href="#CMSS17-4c" transform="scale(0.996264)"/>
      <use xlink:href="#CMSS17-75" transform="translate(50.687105 0) scale(0.996264)"/>
      <use xlink:href="#CMSS17-58" transform="translate(98.892048 0) scale(0.996264)"/>
      <use xlink:href="#CMSS17-72" transform="translate(161.109903 0) scale(0.996264)"/>
      <use xlink:href="#CMSS17-79" transform="translate(193.019676 0) scale(0.996264)"/>
      <use xlink:href="#CMSS17-28" transform="translate(267.24893 0) scale(0.996264)"/>
      <use xlink:href="#CMSS17-74" transform="translate(303.682845 0) scale(0.996264)"/>
      <use xlink:href="#CMSS17-72" transform="translate(337.514411 0) scale(0.996264)"/>
      <use xlink:href="#CMSS17-61" transform="translate(369.424184 0) scale(0.996264)"/>
      <use xlink:href="#CMSS17-69" transform="translate(414.346104 0) scale(0.996264)"/>
      <use xlink:href="#CMSS17-6e" transform="translate(436.526827 0) scale(0.996264)"/>
      <use xlink:href="#CMSS17-29" transform="translate(484.731771 0) scale(0.996264)"/>
      <use xlink:href="#CMSS17-63" transform="translate(552.394798 0) scale(0.996264)"/>
      <use xlink:href="#CMSS17-3d" transform="translate(594.03362 0) scale(0.996264)"/>
      <use xlink:href="#CMSS17-32" transform="translate(666.901554 0) scale(0.996264)"/>
      <use xlink:href="#CMSS17-35" transform="translate(713.745178 0) scale(0.996264)"/>
     </g>
    </g>
    <g id="line2d_24">
     <path d="M 360.148434 103.035861 
L 374.148434 103.035861 
L 388.148434 103.035861 
" style="fill: none; stroke: #ffa500; stroke-width: 3; stroke-linecap: round"/>
    </g>
    <g id="text_20">
     <!-- Downstream (test) c=25 -->
     <g style="fill: #262626" transform="translate(399.348434 107.935861) scale(0.14 -0.14)">
      <use xlink:href="#CMSS17-44" transform="scale(0.996264)"/>
      <use xlink:href="#CMSS17-6f" transform="translate(67.542842 0) scale(0.996264)"/>
      <use xlink:href="#CMSS17-77" transform="translate(111.784011 0) scale(0.996264)"/>
      <use xlink:href="#CMSS17-6e" transform="translate(175.603556 0) scale(0.996264)"/>
      <use xlink:href="#CMSS17-73" transform="translate(223.808499 0) scale(0.996264)"/>
      <use xlink:href="#CMSS17-74" transform="translate(259.722041 0) scale(0.996264)"/>
      <use xlink:href="#CMSS17-72" transform="translate(293.553608 0) scale(0.996264)"/>
      <use xlink:href="#CMSS17-65" transform="translate(325.463381 0) scale(0.996264)"/>
      <use xlink:href="#CMSS17-61" transform="translate(367.102203 0) scale(0.996264)"/>
      <use xlink:href="#CMSS17-6d" transform="translate(412.024123 0) scale(0.996264)"/>
      <use xlink:href="#CMSS17-28" transform="translate(517.482491 0) scale(0.996264)"/>
      <use xlink:href="#CMSS17-74" transform="translate(553.916405 0) scale(0.996264)"/>
      <use xlink:href="#CMSS17-65" transform="translate(587.747971 0) scale(0.996264)"/>
      <use xlink:href="#CMSS17-73" transform="translate(629.386794 0) scale(0.996264)"/>
      <use xlink:href="#CMSS17-74" transform="translate(665.300336 0) scale(0.996264)"/>
      <use xlink:href="#CMSS17-29" transform="translate(699.131902 0) scale(0.996264)"/>
      <use xlink:href="#CMSS17-63" transform="translate(766.794929 0) scale(0.996264)"/>
      <use xlink:href="#CMSS17-3d" transform="translate(808.433751 0) scale(0.996264)"/>
      <use xlink:href="#CMSS17-32" transform="translate(881.301686 0) scale(0.996264)"/>
      <use xlink:href="#CMSS17-35" transform="translate(928.14531 0) scale(0.996264)"/>
     </g>
    </g>
    <g id="line2d_25">
     <path d="M 360.148434 123.983557 
L 374.148434 123.983557 
L 388.148434 123.983557 
" style="fill: none; stroke: #4169e1; stroke-width: 3; stroke-linecap: round"/>
    </g>
    <g id="text_21">
     <!-- LuXry (train) c=50 -->
     <g style="fill: #262626" transform="translate(399.348434 128.883557) scale(0.14 -0.14)">
      <use xlink:href="#CMSS17-4c" transform="scale(0.996264)"/>
      <use xlink:href="#CMSS17-75" transform="translate(50.687105 0) scale(0.996264)"/>
      <use xlink:href="#CMSS17-58" transform="translate(98.892048 0) scale(0.996264)"/>
      <use xlink:href="#CMSS17-72" transform="translate(161.109903 0) scale(0.996264)"/>
      <use xlink:href="#CMSS17-79" transform="translate(193.019676 0) scale(0.996264)"/>
      <use xlink:href="#CMSS17-28" transform="translate(267.24893 0) scale(0.996264)"/>
      <use xlink:href="#CMSS17-74" transform="translate(303.682845 0) scale(0.996264)"/>
      <use xlink:href="#CMSS17-72" transform="translate(337.514411 0) scale(0.996264)"/>
      <use xlink:href="#CMSS17-61" transform="translate(369.424184 0) scale(0.996264)"/>
      <use xlink:href="#CMSS17-69" transform="translate(414.346104 0) scale(0.996264)"/>
      <use xlink:href="#CMSS17-6e" transform="translate(436.526827 0) scale(0.996264)"/>
      <use xlink:href="#CMSS17-29" transform="translate(484.731771 0) scale(0.996264)"/>
      <use xlink:href="#CMSS17-63" transform="translate(552.394798 0) scale(0.996264)"/>
      <use xlink:href="#CMSS17-3d" transform="translate(594.03362 0) scale(0.996264)"/>
      <use xlink:href="#CMSS17-35" transform="translate(666.901554 0) scale(0.996264)"/>
      <use xlink:href="#CMSS17-30" transform="translate(713.745178 0) scale(0.996264)"/>
     </g>
    </g>
    <g id="line2d_26">
     <path d="M 360.148434 144.931253 
L 374.148434 144.931253 
L 388.148434 144.931253 
" style="fill: none; stroke: #87ceeb; stroke-width: 3; stroke-linecap: round"/>
    </g>
    <g id="text_22">
     <!-- Downstream (test) c=50 -->
     <g style="fill: #262626" transform="translate(399.348434 149.831253) scale(0.14 -0.14)">
      <use xlink:href="#CMSS17-44" transform="scale(0.996264)"/>
      <use xlink:href="#CMSS17-6f" transform="translate(67.542842 0) scale(0.996264)"/>
      <use xlink:href="#CMSS17-77" transform="translate(111.784011 0) scale(0.996264)"/>
      <use xlink:href="#CMSS17-6e" transform="translate(175.603556 0) scale(0.996264)"/>
      <use xlink:href="#CMSS17-73" transform="translate(223.808499 0) scale(0.996264)"/>
      <use xlink:href="#CMSS17-74" transform="translate(259.722041 0) scale(0.996264)"/>
      <use xlink:href="#CMSS17-72" transform="translate(293.553608 0) scale(0.996264)"/>
      <use xlink:href="#CMSS17-65" transform="translate(325.463381 0) scale(0.996264)"/>
      <use xlink:href="#CMSS17-61" transform="translate(367.102203 0) scale(0.996264)"/>
      <use xlink:href="#CMSS17-6d" transform="translate(412.024123 0) scale(0.996264)"/>
      <use xlink:href="#CMSS17-28" transform="translate(517.482491 0) scale(0.996264)"/>
      <use xlink:href="#CMSS17-74" transform="translate(553.916405 0) scale(0.996264)"/>
      <use xlink:href="#CMSS17-65" transform="translate(587.747971 0) scale(0.996264)"/>
      <use xlink:href="#CMSS17-73" transform="translate(629.386794 0) scale(0.996264)"/>
      <use xlink:href="#CMSS17-74" transform="translate(665.300336 0) scale(0.996264)"/>
      <use xlink:href="#CMSS17-29" transform="translate(699.131902 0) scale(0.996264)"/>
      <use xlink:href="#CMSS17-63" transform="translate(766.794929 0) scale(0.996264)"/>
      <use xlink:href="#CMSS17-3d" transform="translate(808.433751 0) scale(0.996264)"/>
      <use xlink:href="#CMSS17-35" transform="translate(881.301686 0) scale(0.996264)"/>
      <use xlink:href="#CMSS17-30" transform="translate(928.14531 0) scale(0.996264)"/>
     </g>
    </g>
   </g>
  </g>
 </g>
 <defs>
  <clipPath id="pee453f404a">
   <rect x="84.823004" y="22.032" width="469.144996" height="340.162077"/>
  </clipPath>
 </defs>
</svg>
