<?xml version="1.0" encoding="utf-8" standalone="no"?>
<!DOCTYPE svg PUBLIC "-//W3C//DTD SVG 1.1//EN"
  "http://www.w3.org/Graphics/SVG/1.1/DTD/svg11.dtd">
<svg xmlns:xlink="http://www.w3.org/1999/xlink" width="576pt" height="432pt" viewBox="0 0 576 432" xmlns="http://www.w3.org/2000/svg" version="1.1">
 <metadata>
  <rdf:RDF xmlns:dc="http://purl.org/dc/elements/1.1/" xmlns:cc="http://creativecommons.org/ns#" xmlns:rdf="http://www.w3.org/1999/02/22-rdf-syntax-ns#">
   <cc:Work>
    <dc:type rdf:resource="http://purl.org/dc/dcmitype/StillImage"/>
    <dc:date>2024-06-26T14:19:59.774602</dc:date>
    <dc:format>image/svg+xml</dc:format>
    <dc:creator>
     <cc:Agent>
      <dc:title>Matplotlib v3.8.3, https://matplotlib.org/</dc:title>
     </cc:Agent>
    </dc:creator>
   </cc:Work>
  </rdf:RDF>
 </metadata>
 <defs>
  <style type="text/css">*{stroke-linejoin: round; stroke-linecap: butt}</style>
 </defs>
 <g id="figure_1">
  <g id="patch_1">
   <path d="M 0 432 
L 576 432 
L 576 0 
L 0 0 
z
" style="fill: #ffffff"/>
  </g>
  <g id="axes_1">
   <g id="patch_2">
    <path d="M 84.823004 362.194077 
L 553.968 362.194077 
L 553.968 22.032 
L 84.823004 22.032 
z
" style="fill: #ffffff"/>
   </g>
   <g id="matplotlib.axis_1">
    <g id="xtick_1">
     <g id="line2d_1">
      <path d="M 106.147777 362.194077 
L 106.147777 22.032 
" clip-path="url(#p6d0945968d)" style="fill: none; stroke: #cccccc; stroke-linecap: round"/>
     </g>
     <g id="text_1">
      <!-- $\mathdefault{0}$ -->
      <g style="fill: #262626" transform="translate(101.875719 384.63166) scale(0.187 -0.187)">
       <defs>
        <path id="CMR17-30" d="M 2688 2025 
C 2688 2416 2682 3080 2413 3591 
C 2176 4039 1798 4198 1466 4198 
C 1158 4198 768 4058 525 3597 
C 269 3118 243 2524 243 2025 
C 243 1661 250 1106 448 619 
C 723 -39 1216 -128 1466 -128 
C 1760 -128 2208 -7 2470 600 
C 2662 1042 2688 1559 2688 2025 
z
M 1466 -26 
C 1056 -26 813 325 723 812 
C 653 1188 653 1738 653 2096 
C 653 2588 653 2997 736 3387 
C 858 3929 1216 4096 1466 4096 
C 1728 4096 2067 3923 2189 3400 
C 2272 3036 2278 2607 2278 2096 
C 2278 1680 2278 1169 2202 792 
C 2067 95 1690 -26 1466 -26 
z
" transform="scale(0.015625)"/>
       </defs>
       <use xlink:href="#CMR17-30" transform="scale(0.996264)"/>
      </g>
     </g>
    </g>
    <g id="xtick_2">
     <g id="line2d_2">
      <path d="M 210.285355 362.194077 
L 210.285355 22.032 
" clip-path="url(#p6d0945968d)" style="fill: none; stroke: #cccccc; stroke-linecap: round"/>
     </g>
     <g id="text_2">
      <!-- $\mathdefault{2000}$ -->
      <g style="fill: #262626" transform="translate(193.197122 384.63166) scale(0.187 -0.187)">
       <defs>
        <path id="CMR17-32" d="M 2669 989 
L 2554 989 
C 2490 536 2438 459 2413 420 
C 2381 369 1920 369 1830 369 
L 602 369 
C 832 619 1280 1072 1824 1597 
C 2214 1967 2669 2402 2669 3035 
C 2669 3790 2067 4224 1395 4224 
C 691 4224 262 3604 262 3030 
C 262 2780 448 2748 525 2748 
C 589 2748 781 2787 781 3010 
C 781 3207 614 3264 525 3264 
C 486 3264 448 3258 422 3245 
C 544 3790 915 4058 1306 4058 
C 1862 4058 2227 3617 2227 3035 
C 2227 2479 1901 2000 1536 1584 
L 262 146 
L 262 0 
L 2515 0 
L 2669 989 
z
" transform="scale(0.015625)"/>
       </defs>
       <use xlink:href="#CMR17-32" transform="scale(0.996264)"/>
       <use xlink:href="#CMR17-30" transform="translate(45.690477 0) scale(0.996264)"/>
       <use xlink:href="#CMR17-30" transform="translate(91.380954 0) scale(0.996264)"/>
       <use xlink:href="#CMR17-30" transform="translate(137.071431 0) scale(0.996264)"/>
      </g>
     </g>
    </g>
    <g id="xtick_3">
     <g id="line2d_3">
      <path d="M 314.422933 362.194077 
L 314.422933 22.032 
" clip-path="url(#p6d0945968d)" style="fill: none; stroke: #cccccc; stroke-linecap: round"/>
     </g>
     <g id="text_3">
      <!-- $\mathdefault{4000}$ -->
      <g style="fill: #262626" transform="translate(297.3347 384.63166) scale(0.187 -0.187)">
       <defs>
        <path id="CMR17-34" d="M 2150 4122 
C 2150 4256 2144 4256 2029 4256 
L 128 1254 
L 128 1088 
L 1779 1088 
L 1779 457 
C 1779 224 1766 160 1318 160 
L 1197 160 
L 1197 0 
C 1402 0 1747 0 1965 0 
C 2182 0 2528 0 2733 0 
L 2733 160 
L 2611 160 
C 2163 160 2150 224 2150 457 
L 2150 1088 
L 2803 1088 
L 2803 1254 
L 2150 1254 
L 2150 4122 
z
M 1798 3703 
L 1798 1254 
L 256 1254 
L 1798 3703 
z
" transform="scale(0.015625)"/>
       </defs>
       <use xlink:href="#CMR17-34" transform="scale(0.996264)"/>
       <use xlink:href="#CMR17-30" transform="translate(45.690477 0) scale(0.996264)"/>
       <use xlink:href="#CMR17-30" transform="translate(91.380954 0) scale(0.996264)"/>
       <use xlink:href="#CMR17-30" transform="translate(137.071431 0) scale(0.996264)"/>
      </g>
     </g>
    </g>
    <g id="xtick_4">
     <g id="line2d_4">
      <path d="M 418.560511 362.194077 
L 418.560511 22.032 
" clip-path="url(#p6d0945968d)" style="fill: none; stroke: #cccccc; stroke-linecap: round"/>
     </g>
     <g id="text_4">
      <!-- $\mathdefault{6000}$ -->
      <g style="fill: #262626" transform="translate(401.472278 384.63166) scale(0.187 -0.187)">
       <defs>
        <path id="CMR17-36" d="M 678 2176 
C 678 3690 1395 4032 1811 4032 
C 1946 4032 2272 4009 2400 3776 
C 2298 3776 2106 3776 2106 3553 
C 2106 3381 2246 3323 2336 3323 
C 2394 3323 2566 3348 2566 3560 
C 2566 3954 2246 4179 1805 4179 
C 1043 4179 243 3390 243 1984 
C 243 253 966 -128 1478 -128 
C 2099 -128 2688 427 2688 1283 
C 2688 2081 2170 2662 1517 2662 
C 1126 2662 838 2407 678 1960 
L 678 2176 
z
M 1478 25 
C 691 25 691 1200 691 1436 
C 691 1896 909 2560 1504 2560 
C 1613 2560 1926 2560 2138 2120 
C 2253 1870 2253 1609 2253 1289 
C 2253 944 2253 690 2118 434 
C 1978 171 1773 25 1478 25 
z
" transform="scale(0.015625)"/>
       </defs>
       <use xlink:href="#CMR17-36" transform="scale(0.996264)"/>
       <use xlink:href="#CMR17-30" transform="translate(45.690477 0) scale(0.996264)"/>
       <use xlink:href="#CMR17-30" transform="translate(91.380954 0) scale(0.996264)"/>
       <use xlink:href="#CMR17-30" transform="translate(137.071431 0) scale(0.996264)"/>
      </g>
     </g>
    </g>
    <g id="xtick_5">
     <g id="line2d_5">
      <path d="M 522.698089 362.194077 
L 522.698089 22.032 
" clip-path="url(#p6d0945968d)" style="fill: none; stroke: #cccccc; stroke-linecap: round"/>
     </g>
     <g id="text_5">
      <!-- $\mathdefault{8000}$ -->
      <g style="fill: #262626" transform="translate(505.609856 384.63166) scale(0.187 -0.187)">
       <defs>
        <path id="CMR17-38" d="M 1741 2264 
C 2144 2467 2554 2773 2554 3263 
C 2554 3841 1990 4179 1472 4179 
C 890 4179 378 3759 378 3180 
C 378 3021 416 2747 666 2505 
C 730 2442 998 2251 1171 2130 
C 883 1983 211 1634 211 934 
C 211 279 838 -128 1459 -128 
C 2144 -128 2720 362 2720 1010 
C 2720 1590 2330 1857 2074 2029 
L 1741 2264 
z
M 902 2822 
C 851 2854 595 3051 595 3351 
C 595 3739 998 4032 1459 4032 
C 1965 4032 2336 3676 2336 3262 
C 2336 2669 1670 2331 1638 2331 
C 1632 2331 1626 2331 1574 2370 
L 902 2822 
z
M 2080 1519 
C 2176 1449 2483 1240 2483 851 
C 2483 381 2010 25 1472 25 
C 890 25 448 438 448 940 
C 448 1443 838 1862 1280 2060 
L 2080 1519 
z
" transform="scale(0.015625)"/>
       </defs>
       <use xlink:href="#CMR17-38" transform="scale(0.996264)"/>
       <use xlink:href="#CMR17-30" transform="translate(45.690477 0) scale(0.996264)"/>
       <use xlink:href="#CMR17-30" transform="translate(91.380954 0) scale(0.996264)"/>
       <use xlink:href="#CMR17-30" transform="translate(137.071431 0) scale(0.996264)"/>
      </g>
     </g>
    </g>
    <g id="text_6">
     <!-- Singular Value Rank Index -->
     <g style="fill: #262626" transform="translate(216.383542 406.092366) scale(0.2 -0.2)">
      <defs>
       <path id="CMSS17-53" d="M 2797 4169 
C 2515 4334 2208 4480 1690 4480 
C 864 4480 333 3879 333 3266 
C 333 3025 403 2753 653 2475 
C 902 2196 1184 2121 1542 2033 
C 1690 1994 1939 1924 1984 1906 
C 2342 1767 2515 1444 2515 1140 
C 2515 742 2202 318 1645 318 
C 1453 318 890 318 358 819 
L 269 318 
C 794 -64 1363 -128 1651 -128 
C 2438 -128 3002 488 3002 1186 
C 3002 1440 2925 1763 2656 2061 
C 2394 2347 2163 2410 1638 2549 
C 1338 2626 1146 2677 986 2873 
C 877 3013 819 3146 819 3317 
C 819 3673 1126 4060 1690 4060 
C 1971 4060 2336 4002 2707 3660 
L 2797 4169 
z
" transform="scale(0.015625)"/>
       <path id="CMSS17-69" d="M 979 4183 
L 442 4183 
L 442 3648 
L 979 3648 
L 979 4183 
z
M 947 2739 
L 474 2739 
L 474 0 
L 947 0 
L 947 2739 
z
" transform="scale(0.015625)"/>
       <path id="CMSS17-6e" d="M 2618 1877 
C 2618 2283 2522 2816 1798 2816 
C 1389 2816 1120 2606 941 2389 
L 941 2758 
L 474 2758 
L 474 0 
L 960 0 
L 960 1559 
C 960 1964 1114 2428 1549 2428 
C 2112 2428 2131 2048 2131 1829 
L 2131 0 
L 2618 0 
L 2618 1877 
z
" transform="scale(0.015625)"/>
       <path id="CMSS17-67" d="M 2848 2808 
C 2483 2808 2170 2738 1914 2617 
C 1702 2777 1485 2808 1338 2808 
C 781 2808 358 2349 358 1814 
C 358 1468 550 1207 563 1195 
C 448 1035 384 863 384 672 
C 384 448 474 289 544 200 
C 211 -3 166 -314 166 -435 
C 166 -898 749 -1280 1498 -1280 
C 2253 -1280 2835 -898 2835 -428 
C 2835 448 1856 448 1587 448 
L 1069 448 
C 973 448 717 448 717 791 
C 717 921 774 1004 781 1010 
C 877 940 1075 832 1338 832 
C 1869 832 2310 1278 2310 1827 
C 2310 2132 2170 2355 2112 2432 
L 2131 2432 
C 2150 2432 2419 2432 2515 2432 
C 2720 2432 2739 2429 2918 2419 
L 2848 2808 
z
M 1338 1182 
C 1120 1182 813 1315 813 1823 
C 813 2375 1165 2464 1331 2464 
C 1549 2464 1856 2331 1856 1823 
C 1856 1271 1504 1182 1338 1182 
z
M 1581 -10 
C 1734 -10 2381 -10 2381 -442 
C 2381 -714 1984 -929 1504 -929 
C 1018 -929 621 -720 621 -435 
C 621 -403 621 -10 1062 -10 
L 1581 -10 
z
" transform="scale(0.015625)"/>
       <path id="CMSS17-75" d="M 2618 2739 
L 2131 2739 
L 2131 972 
C 2131 498 1786 306 1421 306 
C 998 306 960 447 960 709 
L 960 2739 
L 474 2739 
L 474 678 
C 474 179 646 -64 1088 -64 
C 1306 -64 1798 -13 2144 306 
L 2144 0 
L 2618 0 
L 2618 2739 
z
" transform="scale(0.015625)"/>
       <path id="CMSS17-6c" d="M 947 4416 
L 474 4416 
L 474 0 
L 947 0 
L 947 4416 
z
" transform="scale(0.015625)"/>
       <path id="CMSS17-61" d="M 2406 1791 
C 2406 2392 1978 2808 1402 2808 
C 1120 2808 813 2757 461 2553 
L 499 2135 
C 659 2248 934 2432 1395 2432 
C 1722 2432 1920 2180 1920 1782 
L 1920 1536 
C 896 1536 256 1238 256 726 
C 256 461 416 -64 947 -64 
C 1043 -64 1562 -64 1933 217 
L 1933 -19 
L 2406 -19 
L 2406 1791 
z
M 1920 816 
C 1920 701 1920 548 1728 434 
C 1562 325 1350 325 1261 325 
C 941 325 723 511 723 744 
C 723 1211 1722 1211 1920 1211 
L 1920 816 
z
" transform="scale(0.015625)"/>
       <path id="CMSS17-72" d="M 954 1363 
C 954 1965 1395 2368 1958 2368 
L 1958 2789 
C 1549 2789 1165 2585 934 2253 
L 934 2758 
L 480 2758 
L 480 0 
L 954 0 
L 954 1363 
z
" transform="scale(0.015625)"/>
       <path id="CMSS17-56" d="M 3910 4416 
L 3411 4416 
L 2304 1362 
C 2272 1273 2074 688 2035 484 
L 2029 484 
C 1978 726 1773 1292 1664 1604 
L 922 3672 
L 646 4416 
L 83 4416 
L 1715 0 
L 2278 0 
L 3910 4416 
z
" transform="scale(0.015625)"/>
       <path id="CMSS17-65" d="M 2502 1377 
C 2502 1590 2490 2003 2285 2345 
C 2061 2713 1696 2816 1421 2816 
C 755 2816 192 2188 192 1375 
C 192 582 774 -64 1510 -64 
C 1798 -64 2150 19 2470 248 
C 2470 274 2458 414 2451 420 
C 2451 433 2432 630 2432 656 
C 2125 407 1773 325 1517 325 
C 1107 325 666 667 646 1377 
L 2502 1377 
z
M 698 1728 
C 781 2084 1062 2421 1421 2421 
C 1517 2421 1965 2421 2080 1728 
L 698 1728 
z
" transform="scale(0.015625)"/>
       <path id="CMSS17-52" d="M 2522 2109 
L 2534 2115 
C 3533 2459 3539 3147 3539 3268 
C 3539 3873 2925 4453 2003 4453 
L 570 4453 
L 570 32 
L 1094 32 
L 1094 2048 
L 2035 2048 
L 3168 32 
L 3706 32 
L 2522 2109 
z
M 1094 2437 
L 1094 4096 
L 1933 4096 
C 2746 4096 3034 3637 3034 3267 
C 3034 2922 2778 2437 1933 2437 
L 1094 2437 
z
" transform="scale(0.015625)"/>
       <path id="CMSS17-6b" d="M 1696 1688 
L 2688 2739 
L 2074 2739 
L 954 1554 
L 954 4416 
L 480 4416 
L 480 0 
L 947 0 
L 947 892 
L 1376 1344 
L 2278 0 
L 2822 0 
L 1696 1688 
z
" transform="scale(0.015625)"/>
       <path id="CMSS17-49" d="M 1094 4416 
L 557 4416 
L 557 0 
L 1094 0 
L 1094 4416 
z
" transform="scale(0.015625)"/>
       <path id="CMSS17-64" d="M 2611 4416 
L 2138 4416 
L 2138 2438 
C 1939 2603 1613 2756 1254 2756 
C 672 2756 211 2131 211 1347 
C 211 562 666 -64 1235 -64 
C 1677 -64 1971 172 2125 306 
L 2125 -13 
L 2611 -13 
L 2611 4416 
z
M 2125 836 
C 2125 747 2125 653 1926 482 
C 1798 375 1645 325 1498 325 
C 1152 325 698 576 698 1340 
C 698 2134 1210 2368 1562 2368 
C 1798 2368 1990 2254 2125 2065 
L 2125 836 
z
" transform="scale(0.015625)"/>
       <path id="CMSS17-78" d="M 1587 1414 
L 2656 2739 
L 2099 2739 
L 1363 1777 
L 602 2739 
L 32 2739 
L 1139 1414 
L 0 0 
L 563 0 
L 1363 1121 
L 2195 0 
L 2758 0 
L 1587 1414 
z
" transform="scale(0.015625)"/>
      </defs>
      <use xlink:href="#CMSS17-53" transform="scale(0.996264)"/>
      <use xlink:href="#CMSS17-69" transform="translate(52.048516 0) scale(0.996264)"/>
      <use xlink:href="#CMSS17-6e" transform="translate(74.229239 0) scale(0.996264)"/>
      <use xlink:href="#CMSS17-67" transform="translate(122.434182 0) scale(0.996264)"/>
      <use xlink:href="#CMSS17-75" transform="translate(169.277806 0) scale(0.996264)"/>
      <use xlink:href="#CMSS17-6c" transform="translate(217.482749 0) scale(0.996264)"/>
      <use xlink:href="#CMSS17-61" transform="translate(239.663472 0) scale(0.996264)"/>
      <use xlink:href="#CMSS17-72" transform="translate(281.982939 0) scale(0.996264)"/>
      <use xlink:href="#CMSS17-56" transform="translate(345.121824 0) scale(0.996264)"/>
      <use xlink:href="#CMSS17-61" transform="translate(404.737225 0) scale(0.996264)"/>
      <use xlink:href="#CMSS17-6c" transform="translate(449.659146 0) scale(0.996264)"/>
      <use xlink:href="#CMSS17-75" transform="translate(471.839869 0) scale(0.996264)"/>
      <use xlink:href="#CMSS17-65" transform="translate(520.044812 0) scale(0.996264)"/>
      <use xlink:href="#CMSS17-52" transform="translate(592.912747 0) scale(0.996264)"/>
      <use xlink:href="#CMSS17-61" transform="translate(653.328902 0) scale(0.996264)"/>
      <use xlink:href="#CMSS17-6e" transform="translate(698.250822 0) scale(0.996264)"/>
      <use xlink:href="#CMSS17-6b" transform="translate(746.455765 0) scale(0.996264)"/>
      <use xlink:href="#CMSS17-49" transform="translate(823.287367 0) scale(0.996264)"/>
      <use xlink:href="#CMSS17-6e" transform="translate(849.071293 0) scale(0.996264)"/>
      <use xlink:href="#CMSS17-64" transform="translate(897.276236 0) scale(0.996264)"/>
      <use xlink:href="#CMSS17-65" transform="translate(945.481179 0) scale(0.996264)"/>
      <use xlink:href="#CMSS17-78" transform="translate(987.120001 0) scale(0.996264)"/>
     </g>
    </g>
   </g>
   <g id="matplotlib.axis_2">
    <g id="ytick_1">
     <g id="line2d_6">
      <path d="M 84.823004 345.979347 
L 553.968 345.979347 
" clip-path="url(#p6d0945968d)" style="fill: none; stroke: #cccccc; stroke-linecap: round"/>
     </g>
     <g id="text_7">
      <!-- $\mathdefault{−35}$ -->
      <g style="fill: #262626" transform="translate(43.74463 352.448139) scale(0.187 -0.187)">
       <defs>
        <path id="CMSY10-0" d="M 4218 1472 
C 4326 1472 4442 1472 4442 1600 
C 4442 1728 4326 1728 4218 1728 
L 755 1728 
C 646 1728 531 1728 531 1600 
C 531 1472 646 1472 755 1472 
L 4218 1472 
z
" transform="scale(0.015625)"/>
        <path id="CMR17-33" d="M 1414 2157 
C 1984 2157 2234 1662 2234 1090 
C 2234 320 1824 25 1453 25 
C 1114 25 563 194 390 693 
C 422 680 454 680 486 680 
C 640 680 755 782 755 948 
C 755 1133 614 1216 486 1216 
C 378 1216 211 1165 211 926 
C 211 335 787 -128 1466 -128 
C 2176 -128 2720 430 2720 1085 
C 2720 1707 2208 2157 1600 2227 
C 2086 2328 2554 2756 2554 3329 
C 2554 3820 2048 4179 1472 4179 
C 890 4179 378 3829 378 3329 
C 378 3110 544 3072 627 3072 
C 762 3072 877 3155 877 3321 
C 877 3486 762 3569 627 3569 
C 602 3569 570 3569 544 3557 
C 730 3959 1235 4032 1459 4032 
C 1683 4032 2106 3925 2106 3320 
C 2106 3143 2080 2828 1862 2550 
C 1670 2304 1453 2304 1242 2284 
C 1210 2284 1062 2269 1037 2269 
C 992 2263 966 2257 966 2208 
C 966 2163 973 2157 1101 2157 
L 1414 2157 
z
" transform="scale(0.015625)"/>
        <path id="CMR17-35" d="M 730 3692 
C 794 3666 1056 3584 1325 3584 
C 1920 3584 2246 3911 2432 4100 
C 2432 4157 2432 4192 2394 4192 
C 2387 4192 2374 4192 2323 4163 
C 2099 4058 1837 3973 1517 3973 
C 1325 3973 1037 3999 723 4139 
C 653 4171 640 4171 634 4171 
C 602 4171 595 4164 595 4037 
L 595 2203 
C 595 2089 595 2057 659 2057 
C 691 2057 704 2070 736 2114 
C 941 2401 1222 2522 1542 2522 
C 1766 2522 2246 2382 2246 1289 
C 2246 1085 2246 715 2054 421 
C 1894 159 1645 25 1370 25 
C 947 25 518 320 403 814 
C 429 807 480 795 506 795 
C 589 795 749 840 749 1038 
C 749 1210 627 1280 506 1280 
C 358 1280 262 1190 262 1011 
C 262 454 704 -128 1382 -128 
C 2042 -128 2669 440 2669 1264 
C 2669 2030 2170 2624 1549 2624 
C 1222 2624 947 2503 730 2274 
L 730 3692 
z
" transform="scale(0.015625)"/>
       </defs>
       <use xlink:href="#CMSY10-0" transform="scale(0.996264)"/>
       <use xlink:href="#CMR17-33" transform="translate(77.487468 0) scale(0.996264)"/>
       <use xlink:href="#CMR17-35" transform="translate(123.177945 0) scale(0.996264)"/>
      </g>
     </g>
    </g>
    <g id="ytick_2">
     <g id="line2d_7">
      <path d="M 84.823004 307.61941 
L 553.968 307.61941 
" clip-path="url(#p6d0945968d)" style="fill: none; stroke: #cccccc; stroke-linecap: round"/>
     </g>
     <g id="text_8">
      <!-- $\mathdefault{−30}$ -->
      <g style="fill: #262626" transform="translate(43.74463 314.088202) scale(0.187 -0.187)">
       <use xlink:href="#CMSY10-0" transform="scale(0.996264)"/>
       <use xlink:href="#CMR17-33" transform="translate(77.487468 0) scale(0.996264)"/>
       <use xlink:href="#CMR17-30" transform="translate(123.177945 0) scale(0.996264)"/>
      </g>
     </g>
    </g>
    <g id="ytick_3">
     <g id="line2d_8">
      <path d="M 84.823004 269.259473 
L 553.968 269.259473 
" clip-path="url(#p6d0945968d)" style="fill: none; stroke: #cccccc; stroke-linecap: round"/>
     </g>
     <g id="text_9">
      <!-- $\mathdefault{−25}$ -->
      <g style="fill: #262626" transform="translate(43.74463 275.728265) scale(0.187 -0.187)">
       <use xlink:href="#CMSY10-0" transform="scale(0.996264)"/>
       <use xlink:href="#CMR17-32" transform="translate(77.487468 0) scale(0.996264)"/>
       <use xlink:href="#CMR17-35" transform="translate(123.177945 0) scale(0.996264)"/>
      </g>
     </g>
    </g>
    <g id="ytick_4">
     <g id="line2d_9">
      <path d="M 84.823004 230.899537 
L 553.968 230.899537 
" clip-path="url(#p6d0945968d)" style="fill: none; stroke: #cccccc; stroke-linecap: round"/>
     </g>
     <g id="text_10">
      <!-- $\mathdefault{−20}$ -->
      <g style="fill: #262626" transform="translate(43.74463 237.368328) scale(0.187 -0.187)">
       <use xlink:href="#CMSY10-0" transform="scale(0.996264)"/>
       <use xlink:href="#CMR17-32" transform="translate(77.487468 0) scale(0.996264)"/>
       <use xlink:href="#CMR17-30" transform="translate(123.177945 0) scale(0.996264)"/>
      </g>
     </g>
    </g>
    <g id="ytick_5">
     <g id="line2d_10">
      <path d="M 84.823004 192.5396 
L 553.968 192.5396 
" clip-path="url(#p6d0945968d)" style="fill: none; stroke: #cccccc; stroke-linecap: round"/>
     </g>
     <g id="text_11">
      <!-- $\mathdefault{−15}$ -->
      <g style="fill: #262626" transform="translate(43.74463 199.008391) scale(0.187 -0.187)">
       <defs>
        <path id="CMR17-31" d="M 1702 4058 
C 1702 4192 1696 4192 1606 4192 
C 1357 3916 979 3827 621 3827 
C 602 3827 570 3827 563 3808 
C 557 3795 557 3782 557 3648 
C 755 3648 1088 3686 1344 3839 
L 1344 461 
C 1344 236 1331 160 781 160 
L 589 160 
L 589 0 
C 896 0 1216 0 1523 0 
C 1830 0 2150 0 2458 0 
L 2458 160 
L 2266 160 
C 1715 160 1702 230 1702 458 
L 1702 4058 
z
" transform="scale(0.015625)"/>
       </defs>
       <use xlink:href="#CMSY10-0" transform="scale(0.996264)"/>
       <use xlink:href="#CMR17-31" transform="translate(77.487468 0) scale(0.996264)"/>
       <use xlink:href="#CMR17-35" transform="translate(123.177945 0) scale(0.996264)"/>
      </g>
     </g>
    </g>
    <g id="ytick_6">
     <g id="line2d_11">
      <path d="M 84.823004 154.179663 
L 553.968 154.179663 
" clip-path="url(#p6d0945968d)" style="fill: none; stroke: #cccccc; stroke-linecap: round"/>
     </g>
     <g id="text_12">
      <!-- $\mathdefault{−10}$ -->
      <g style="fill: #262626" transform="translate(43.74463 160.648455) scale(0.187 -0.187)">
       <use xlink:href="#CMSY10-0" transform="scale(0.996264)"/>
       <use xlink:href="#CMR17-31" transform="translate(77.487468 0) scale(0.996264)"/>
       <use xlink:href="#CMR17-30" transform="translate(123.177945 0) scale(0.996264)"/>
      </g>
     </g>
    </g>
    <g id="ytick_7">
     <g id="line2d_12">
      <path d="M 84.823004 115.819726 
L 553.968 115.819726 
" clip-path="url(#p6d0945968d)" style="fill: none; stroke: #cccccc; stroke-linecap: round"/>
     </g>
     <g id="text_13">
      <!-- $\mathdefault{−5}$ -->
      <g style="fill: #262626" transform="translate(52.288747 122.288518) scale(0.187 -0.187)">
       <use xlink:href="#CMSY10-0" transform="scale(0.996264)"/>
       <use xlink:href="#CMR17-35" transform="translate(77.487468 0) scale(0.996264)"/>
      </g>
     </g>
    </g>
    <g id="ytick_8">
     <g id="line2d_13">
      <path d="M 84.823004 77.45979 
L 553.968 77.45979 
" clip-path="url(#p6d0945968d)" style="fill: none; stroke: #cccccc; stroke-linecap: round"/>
     </g>
     <g id="text_14">
      <!-- $\mathdefault{0}$ -->
      <g style="fill: #262626" transform="translate(66.778888 83.928581) scale(0.187 -0.187)">
       <use xlink:href="#CMR17-30" transform="scale(0.996264)"/>
      </g>
     </g>
    </g>
    <g id="ytick_9">
     <g id="line2d_14">
      <path d="M 84.823004 39.099853 
L 553.968 39.099853 
" clip-path="url(#p6d0945968d)" style="fill: none; stroke: #cccccc; stroke-linecap: round"/>
     </g>
     <g id="text_15">
      <!-- $\mathdefault{5}$ -->
      <g style="fill: #262626" transform="translate(66.778888 45.568644) scale(0.187 -0.187)">
       <use xlink:href="#CMR17-35" transform="scale(0.996264)"/>
      </g>
     </g>
    </g>
    <g id="text_16">
     <!-- Logarithm of Singular Value -->
     <g style="fill: #262626" transform="translate(35.868997 301.779198) rotate(-90) scale(0.2 -0.2)">
      <defs>
       <path id="CMSS17-4c" d="M 1670 414 
C 1594 414 1517 414 1440 414 
L 1101 414 
L 1101 4416 
L 563 4416 
L 563 0 
L 3002 0 
L 3002 414 
L 1670 414 
z
" transform="scale(0.015625)"/>
       <path id="CMSS17-6f" d="M 2829 1356 
C 2829 2176 2221 2816 1504 2816 
C 768 2816 173 2157 173 1356 
C 173 544 787 -64 1498 -64 
C 2227 -64 2829 563 2829 1356 
z
M 1504 337 
C 1050 337 659 709 659 1408 
C 659 2151 1114 2427 1498 2427 
C 1914 2427 2342 2126 2342 1408 
C 2342 683 1926 337 1504 337 
z
" transform="scale(0.015625)"/>
       <path id="CMSS17-74" d="M 1069 2368 
L 1901 2368 
L 1901 2737 
L 1069 2737 
L 1069 3520 
L 614 3520 
L 614 2737 
L 109 2737 
L 109 2368 
L 602 2368 
L 602 749 
C 602 384 685 -64 1107 -64 
C 1427 -64 1722 25 2003 172 
L 1901 548 
C 1747 414 1562 337 1363 337 
C 1082 337 1069 696 1069 856 
L 1069 2368 
z
" transform="scale(0.015625)"/>
       <path id="CMSS17-68" d="M 2618 1891 
C 2618 2292 2522 2820 1798 2820 
C 1395 2820 1133 2623 947 2407 
L 947 4448 
L 474 4448 
L 474 32 
L 960 32 
L 960 1573 
C 960 1973 1114 2432 1549 2432 
C 2112 2432 2131 2056 2131 1839 
L 2131 32 
L 2618 32 
L 2618 1891 
z
" transform="scale(0.015625)"/>
       <path id="CMSS17-6d" d="M 4288 1877 
C 4288 2308 4179 2816 3462 2816 
C 2982 2816 2694 2516 2566 2331 
C 2451 2670 2182 2816 1798 2816 
C 1363 2816 1088 2568 941 2389 
L 941 2758 
L 474 2758 
L 474 0 
L 960 0 
L 960 1559 
C 960 1939 1101 2428 1555 2428 
C 2138 2428 2138 2016 2138 1829 
L 2138 0 
L 2624 0 
L 2624 1559 
C 2624 1939 2765 2428 3219 2428 
C 3802 2428 3802 2016 3802 1829 
L 3802 0 
L 4288 0 
L 4288 1877 
z
" transform="scale(0.015625)"/>
       <path id="CMSS17-66" d="M 1075 2368 
L 1722 2368 
L 1722 2737 
L 1062 2737 
L 1062 3559 
C 1062 4014 1408 4092 1606 4092 
C 1670 4092 1850 4092 2080 4009 
L 2080 4429 
C 1933 4461 1754 4480 1613 4480 
C 1018 4480 602 3993 602 3359 
L 602 2737 
L 160 2737 
L 160 2368 
L 602 2368 
L 602 0 
L 1075 0 
L 1075 2368 
z
" transform="scale(0.015625)"/>
      </defs>
      <use xlink:href="#CMSS17-4c" transform="scale(0.996264)"/>
      <use xlink:href="#CMSS17-6f" transform="translate(50.687105 0) scale(0.996264)"/>
      <use xlink:href="#CMSS17-67" transform="translate(97.530729 0) scale(0.996264)"/>
      <use xlink:href="#CMSS17-61" transform="translate(144.374352 0) scale(0.996264)"/>
      <use xlink:href="#CMSS17-72" transform="translate(186.693819 0) scale(0.996264)"/>
      <use xlink:href="#CMSS17-69" transform="translate(218.603592 0) scale(0.996264)"/>
      <use xlink:href="#CMSS17-74" transform="translate(240.784315 0) scale(0.996264)"/>
      <use xlink:href="#CMSS17-68" transform="translate(274.615881 0) scale(0.996264)"/>
      <use xlink:href="#CMSS17-6d" transform="translate(322.820824 0) scale(0.996264)"/>
      <use xlink:href="#CMSS17-6f" transform="translate(428.279192 0) scale(0.996264)"/>
      <use xlink:href="#CMSS17-66" transform="translate(475.122815 0) scale(0.996264)"/>
      <use xlink:href="#CMSS17-53" transform="translate(534.978587 0) scale(0.996264)"/>
      <use xlink:href="#CMSS17-69" transform="translate(587.027103 0) scale(0.996264)"/>
      <use xlink:href="#CMSS17-6e" transform="translate(609.207826 0) scale(0.996264)"/>
      <use xlink:href="#CMSS17-67" transform="translate(657.412769 0) scale(0.996264)"/>
      <use xlink:href="#CMSS17-75" transform="translate(704.256393 0) scale(0.996264)"/>
      <use xlink:href="#CMSS17-6c" transform="translate(752.461336 0) scale(0.996264)"/>
      <use xlink:href="#CMSS17-61" transform="translate(774.642059 0) scale(0.996264)"/>
      <use xlink:href="#CMSS17-72" transform="translate(816.961526 0) scale(0.996264)"/>
      <use xlink:href="#CMSS17-56" transform="translate(880.100411 0) scale(0.996264)"/>
      <use xlink:href="#CMSS17-61" transform="translate(939.715812 0) scale(0.996264)"/>
      <use xlink:href="#CMSS17-6c" transform="translate(984.637732 0) scale(0.996264)"/>
      <use xlink:href="#CMSS17-75" transform="translate(1006.818455 0) scale(0.996264)"/>
      <use xlink:href="#CMSS17-65" transform="translate(1055.023399 0) scale(0.996264)"/>
     </g>
    </g>
   </g>
   <g id="line2d_15">
    <path d="M 106.147777 40.717794 
L 106.512258 52.079447 
L 106.720533 53.600394 
L 107.397428 57.02036 
L 107.657771 59.003877 
L 107.70984 59.104213 
L 107.970184 60.306503 
L 108.230528 61.066486 
L 108.647078 62.379043 
L 108.803285 62.742474 
L 109.219835 63.952951 
L 109.42811 64.415717 
L 109.740523 65.363026 
L 111.406724 68.457098 
L 111.562931 68.58717 
L 112.083619 69.538273 
L 112.187756 69.681374 
L 112.604306 70.453585 
L 112.760513 70.699547 
L 113.74982 72.536795 
L 113.906026 72.768557 
L 114.114301 73.076359 
L 114.218439 73.191707 
L 115.624296 74.965164 
L 115.832571 75.316106 
L 116.249122 75.872084 
L 116.405328 76.061064 
L 118.436011 79.301366 
L 119.112905 80.345664 
L 119.998074 82.170785 
L 120.050143 82.181524 
L 120.310487 82.741451 
L 121.92462 85.756696 
L 122.34117 86.759167 
L 122.497376 86.974791 
L 122.861858 87.809951 
L 122.965995 87.989749 
L 123.747027 90.021696 
L 123.955302 90.504672 
L 124.423922 91.810774 
L 125.465297 95.502975 
L 126.298398 100.001692 
L 126.350467 100.161873 
L 126.662879 102.525955 
L 126.767017 103.097555 
L 126.975292 104.566476 
L 127.027361 104.790338 
L 127.235636 107.020926 
L 127.443911 108.004981 
L 127.652186 109.8822 
L 129.058044 118.318016 
L 130.984589 124.582101 
L 131.297002 125.044027 
L 132.65079 127.907083 
L 132.911134 128.252702 
L 133.171478 128.827572 
L 133.327684 129.029667 
L 133.640097 129.613966 
L 133.900441 129.962122 
L 134.316991 130.441953 
L 135.358367 131.717549 
L 135.722849 132.051452 
L 136.555949 132.987068 
L 136.868362 133.289428 
L 137.597325 133.939773 
L 137.701463 134.00416 
L 137.961807 134.233531 
L 138.586632 134.80675 
L 138.794907 135.001593 
L 139.055251 135.15104 
L 139.367664 135.423917 
L 139.732146 135.716657 
L 140.044558 135.962846 
L 142.491791 137.516828 
L 143.116617 137.911933 
L 143.637305 138.239155 
L 144.626612 138.757917 
L 144.991093 138.976108 
L 145.355575 139.141517 
L 145.876263 139.389111 
L 146.344882 139.570338 
L 146.553157 139.741416 
L 147.073845 139.950346 
L 148.167289 140.473583 
L 156.342089 143.464818 
L 157.071052 143.667216 
L 158.424841 144.087267 
L 159.049666 144.249234 
L 160.559661 144.693445 
L 161.392762 144.908465 
L 161.705174 144.995426 
L 176.07616 148.317427 
L 177.534086 148.613346 
L 179.616838 149.030047 
L 180.189595 149.141367 
L 181.074764 149.307157 
L 182.272346 149.526142 
L 183.157516 149.679414 
L 186.281643 150.249777 
L 188.57267 150.671192 
L 205.911576 153.511668 
L 206.848815 153.648308 
L 207.47364 153.751409 
L 213.773964 154.689597 
L 214.763271 154.834548 
L 226.634954 156.549853 
L 227.936674 156.747086 
L 229.238394 156.933455 
L 230.488045 157.105142 
L 237.777675 158.127288 
L 239.70422 158.38564 
L 240.953871 158.564864 
L 242.203522 158.73503 
L 263.083107 161.548786 
L 264.020345 161.675203 
L 266.36344 161.979898 
L 270.789287 162.582197 
L 274.902722 163.119574 
L 323.430833 169.670103 
L 326.294617 170.059612 
L 362.27415 175.272527 
L 364.252764 175.577676 
L 369.824124 176.425349 
L 370.917569 176.604724 
L 372.635839 176.866486 
L 386.434068 179.091503 
L 387.319237 179.233584 
L 388.725095 179.471119 
L 400.284366 181.436284 
L 401.065398 181.585416 
L 401.950567 181.72648 
L 405.855726 182.411782 
L 421.007744 185.249958 
L 421.944982 185.432569 
L 423.507046 185.743842 
L 425.121178 186.068426 
L 427.516342 186.544352 
L 428.557718 186.770119 
L 429.547025 186.970845 
L 431.109089 187.30535 
L 431.681846 187.426196 
L 434.649767 188.030172 
L 436.576312 188.453924 
L 437.097 188.560008 
L 438.190444 188.803016 
L 440.325265 189.275841 
L 440.95009 189.402518 
L 442.512154 189.772312 
L 444.959387 190.338365 
L 446.573519 190.718685 
L 448.291789 191.106058 
L 448.864546 191.264828 
L 449.489371 191.403501 
L 451.780398 191.975734 
L 452.665568 192.188635 
L 453.86315 192.465997 
L 456.518658 193.152272 
L 457.403827 193.378169 
L 458.705547 193.717076 
L 460.059336 194.091918 
L 469.32758 196.706274 
L 477.866861 199.386287 
L 478.335481 199.547881 
L 479.897544 200.092988 
L 480.678576 200.347904 
L 485.052354 201.940318 
L 489.634408 203.732056 
L 490.936127 204.257171 
L 491.977503 204.695805 
L 492.498191 204.945629 
L 493.018879 205.145901 
L 493.435429 205.364872 
L 494.112324 205.668342 
L 498.069552 207.507753 
L 498.277827 207.612893 
L 499.42334 208.219505 
L 503.588843 210.54793 
L 503.849187 210.668366 
L 504.213669 210.859494 
L 504.421944 210.947391 
L 504.630219 211.138664 
L 505.931939 211.922263 
L 506.556764 212.331056 
L 506.660902 212.424318 
L 507.389865 212.863768 
L 507.59814 212.989985 
L 508.847791 213.826339 
L 509.160204 214.055809 
L 511.659505 215.929156 
L 511.867781 216.107629 
L 515.512596 219.260853 
L 516.345696 220.101004 
L 516.501903 220.281909 
L 517.49121 221.279706 
L 517.959829 221.915888 
L 518.116035 222.024752 
L 521.760851 226.643302 
L 522.22947 227.329043 
L 522.333607 227.509864 
L 522.906364 228.418087 
L 523.06257 228.576739 
L 523.322914 229.134739 
L 523.687396 229.750749 
L 523.791533 229.869508 
L 524.156015 230.557992 
L 524.260152 230.740595 
L 524.624634 231.611485 
L 524.832909 231.980602 
L 525.145322 232.641634 
L 525.353597 232.9724 
L 526.134629 234.734436 
L 526.186698 234.763145 
L 526.915661 236.847672 
L 526.967729 236.865475 
L 527.38428 238.285686 
L 527.488417 238.546952 
L 527.696693 239.215871 
L 527.748761 239.2752 
L 528.113243 240.51039 
L 528.165312 240.53939 
L 528.425656 241.786207 
L 528.477724 241.842794 
L 529.050481 244.223455 
L 529.206687 244.653658 
L 529.467031 246.373282 
L 530.612545 253.231242 
L 530.768751 254.543306 
L 530.977026 256.420374 
L 531.133233 257.523799 
L 531.341508 260.53743 
L 531.497714 262.531889 
L 531.705989 265.819679 
L 531.810127 268.232094 
L 532.12254 276.862459 
L 532.382884 285.317159 
L 532.591159 311.958727 
L 532.643227 326.697357 
L 532.643227 326.697357 
" clip-path="url(#p6d0945968d)" style="fill: none; stroke: #4169e1; stroke-width: 3; stroke-linecap: round"/>
   </g>
   <g id="line2d_16">
    <path d="M 106.147777 37.493913 
L 106.303983 48.471072 
L 106.460189 52.146042 
L 106.720533 57.090603 
L 107.29329 63.838475 
L 107.553634 65.881335 
L 107.918115 70.176258 
L 107.970184 70.312284 
L 108.126391 71.939594 
L 108.230528 72.152114 
L 108.490872 73.693859 
L 108.751216 75.960154 
L 109.063629 77.326129 
L 109.532248 80.669167 
L 109.792592 81.978774 
L 110.157073 83.716433 
L 110.417417 85.100864 
L 110.625692 86.087837 
L 110.886036 87.186703 
L 111.250518 88.825663 
L 112.03155 91.726395 
L 112.239825 92.591433 
L 112.396031 93.327123 
L 113.281201 96.229823 
L 113.801889 98.112637 
L 114.010164 98.610195 
L 114.270508 99.331988 
L 115.05154 101.807843 
L 115.207746 102.104204 
L 115.46809 102.982586 
L 116.30119 105.004683 
L 116.353259 105.042517 
L 116.76981 106.231531 
L 117.030154 106.991054 
L 117.60291 108.467221 
L 117.759117 108.626263 
L 120.987381 115.624935 
L 121.299794 116.126056 
L 122.132895 117.816608 
L 122.393239 118.383403 
L 122.809789 119.232213 
L 123.070133 119.800737 
L 123.330477 120.424949 
L 124.632197 123.14662 
L 124.788403 123.551592 
L 124.944609 124.058519 
L 125.413229 125.179858 
L 125.725641 126.071871 
L 125.829779 126.222566 
L 125.985985 126.776477 
L 126.506673 128.548144 
L 126.610811 128.872473 
L 127.49598 132.418106 
L 127.548049 132.44657 
L 127.91253 133.822328 
L 128.068737 134.03997 
L 128.433218 134.989399 
L 128.901837 135.919084 
L 129.110113 136.525539 
L 129.21425 136.596988 
L 129.422525 137.10708 
L 129.578732 137.441527 
L 130.09942 138.254532 
L 130.307695 138.54542 
L 131.140795 139.667624 
L 131.557346 140.199772 
L 131.973896 140.752514 
L 132.182171 140.945536 
L 133.431822 142.314917 
L 133.796304 142.681308 
L 134.056648 142.868256 
L 136.08733 144.646265 
L 136.243537 144.775063 
L 136.816293 145.259677 
L 137.076637 145.49238 
L 137.597325 145.909827 
L 137.857669 146.036492 
L 138.378357 146.468022 
L 138.742839 146.683131 
L 139.055251 146.970751 
L 140.252833 147.817211 
L 141.24214 148.525443 
L 145.407644 151.285145 
L 145.720056 151.500397 
L 146.084538 151.719097 
L 146.449019 151.951736 
L 146.709363 152.1617 
L 147.073845 152.371971 
L 147.750739 152.853146 
L 148.687977 153.43986 
L 148.948321 153.571608 
L 149.208665 153.765752 
L 149.677284 154.094947 
L 150.145903 154.413335 
L 150.354178 154.558606 
L 151.707967 155.471109 
L 151.916242 155.654689 
L 153.165893 156.614864 
L 153.426237 156.818445 
L 153.894856 157.211603 
L 157.018983 160.200275 
L 157.747947 161.173593 
L 157.800015 161.204533 
L 158.060359 161.769638 
L 158.216566 161.954941 
L 158.528978 163.488237 
L 158.581047 164.61887 
L 158.737254 170.483306 
L 158.945529 173.586887 
L 159.101735 178.771247 
L 159.414148 181.531331 
L 159.830698 187.336246 
L 160.038973 192.150402 
L 160.143111 192.933764 
L 160.299317 310.350342 
L 160.559661 316.615797 
L 160.663799 318.743822 
L 160.872074 322.630598 
L 532.382884 322.630598 
L 532.434952 323.295195 
L 532.643227 331.754093 
L 532.643227 331.754093 
" clip-path="url(#p6d0945968d)" style="fill: none; stroke: #87ceeb; stroke-width: 3; stroke-linecap: round"/>
   </g>
   <g id="line2d_17">
    <path d="M 106.147777 54.142565 
L 106.460189 56.47577 
L 106.720533 57.580275 
L 107.137084 57.997796 
L 107.345359 58.694002 
L 109.219835 60.529539 
L 109.740523 60.790597 
L 109.844661 60.894963 
L 110.31328 61.151774 
L 110.469486 61.271404 
L 111.042243 61.783349 
L 111.458793 61.955606 
L 111.719137 62.105205 
L 114.16637 62.734448 
L 115.832571 63.28761 
L 116.197053 63.50992 
L 122.861858 65.060237 
L 123.64289 65.179621 
L 124.111509 65.268698 
L 124.944609 65.401637 
L 126.871155 65.614995 
L 129.943213 66.001498 
L 131.244933 66.183976 
L 135.67078 66.828238 
L 138.274219 67.090345 
L 144.366268 67.848231 
L 145.720056 68.025441 
L 150.30211 68.459731 
L 154.051063 68.791999 
L 162.173794 69.519514 
L 168.942736 70.113166 
L 169.723768 70.179145 
L 184.875786 71.327754 
L 186.541987 71.437305 
L 189.561977 71.652645 
L 193.519205 71.92291 
L 196.851607 72.182331 
L 205.286751 72.823055 
L 206.952952 72.954464 
L 208.306741 73.048167 
L 217.158435 73.668471 
L 234.236998 74.992983 
L 235.278373 75.094925 
L 238.558707 75.355186 
L 240.693527 75.546504 
L 242.359729 75.673478 
L 245.900406 75.954362 
L 247.618676 76.101411 
L 256.05382 76.878682 
L 260.531736 77.313187 
L 266.675853 77.931935 
L 269.852049 78.292197 
L 273.653071 78.731245 
L 274.53824 78.846188 
L 288.857157 80.941802 
L 290.627496 81.252192 
L 291.148184 81.385058 
L 291.616803 81.484071 
L 295.20955 82.211051 
L 296.719544 82.5499 
L 297.34437 82.697894 
L 297.917127 82.85513 
L 298.958502 83.15371 
L 299.270915 83.262374 
L 300.572635 83.738341 
L 303.176074 84.878293 
L 305.050551 86.267911 
L 305.571239 86.760968 
L 305.831582 87.197478 
L 305.883651 87.217626 
L 306.091926 87.598481 
L 306.300202 87.807483 
L 306.977096 88.974798 
L 307.445715 89.846307 
L 307.758128 90.668974 
L 307.966403 91.347973 
L 308.122609 91.633755 
L 308.435022 92.907398 
L 308.903641 94.839072 
L 309.007779 95.075342 
L 309.320191 96.45046 
L 309.37226 96.542516 
L 309.840879 99.150181 
L 309.892948 99.224023 
L 310.25743 101.191705 
L 310.361567 101.602439 
L 311.246737 106.76969 
L 311.298805 106.796758 
L 314.318795 123.187904 
L 314.370864 123.286283 
L 314.579139 124.530701 
L 314.891552 125.862554 
L 314.943621 125.943219 
L 315.203965 127.424351 
L 315.256033 127.494186 
L 315.672584 129.829978 
L 315.776721 130.017345 
L 316.24534 131.87523 
L 317.494991 136.979698 
L 317.54706 137.027554 
L 317.755335 138.050842 
L 318.067748 139.12833 
L 318.692573 141.38995 
L 318.900849 142.074475 
L 319.109124 142.73081 
L 319.942224 145.417785 
L 320.202568 146.264617 
L 320.306706 146.508361 
L 320.619119 147.492211 
L 321.504288 149.613796 
L 321.712563 150.312448 
L 322.077045 151.206262 
L 322.493595 152.259991 
L 322.70187 152.807359 
L 323.482902 154.528003 
L 323.534971 154.55345 
L 323.899452 155.444713 
L 324.055659 155.686047 
L 324.211865 156.037149 
L 324.472209 156.574759 
L 324.732553 157.07177 
L 324.83669 157.338255 
L 325.253241 158.173351 
L 325.72186 159.044011 
L 325.825997 159.247424 
L 326.13841 159.735405 
L 326.346685 160.145607 
L 326.659098 160.729005 
L 327.02358 161.39346 
L 328.169093 163.328636 
L 328.377368 163.772897 
L 328.481506 163.87735 
L 328.898056 164.586145 
L 329.002194 164.748678 
L 329.262538 165.063588 
L 329.470813 165.37791 
L 329.627019 165.577251 
L 330.46012 166.773404 
L 331.241152 167.77368 
L 331.449427 168.077232 
L 331.605633 168.270679 
L 332.855284 169.64123 
L 338.114232 174.732216 
L 338.63492 175.132584 
L 338.843195 175.294621 
L 339.520089 175.880203 
L 339.936639 176.16344 
L 342.644216 178.177571 
L 343.321111 178.574075 
L 343.529386 178.7505 
L 344.674899 179.549018 
L 344.987312 179.763452 
L 345.664206 180.234995 
L 346.184894 180.536161 
L 346.653513 180.819097 
L 347.070063 181.073768 
L 347.851095 181.553716 
L 348.632127 182.051286 
L 348.892471 182.201138 
L 349.673503 182.636083 
L 350.194191 182.948609 
L 350.923154 183.346698 
L 351.131429 183.420163 
L 351.443842 183.66138 
L 351.860392 183.842803 
L 352.745561 184.328848 
L 353.057974 184.485216 
L 362.482425 188.694365 
L 363.159319 188.97082 
L 364.981727 189.686686 
L 366.179309 190.169974 
L 367.168616 190.493018 
L 367.741373 190.711727 
L 382.268565 195.52961 
L 382.633046 195.646347 
L 385.080279 196.37798 
L 385.444761 196.497591 
L 391.536809 198.260559 
L 391.745084 198.368361 
L 392.890598 198.686321 
L 432.098396 209.583742 
L 432.827359 209.78864 
L 435.587005 210.584063 
L 436.055624 210.713958 
L 436.888724 210.932685 
L 437.9301 211.258846 
L 446.052831 213.659863 
L 446.729726 213.87477 
L 459.382441 217.860504 
L 460.111404 218.101383 
L 463.912426 219.381141 
L 464.537251 219.603378 
L 465.110008 219.79775 
L 465.422421 219.93192 
L 466.203453 220.195513 
L 466.880347 220.420135 
L 467.557241 220.673392 
L 468.546548 221.045914 
L 469.067236 221.228272 
L 469.431718 221.360947 
L 470.160681 221.640744 
L 470.889644 221.923253 
L 471.306194 222.063237 
L 472.035157 222.313001 
L 472.712051 222.575081 
L 473.388946 222.882463 
L 474.638596 223.360287 
L 475.107216 223.536197 
L 475.888247 223.845881 
L 477.08583 224.32464 
L 477.450311 224.488824 
L 487.655794 229.047591 
L 487.968206 229.201811 
L 489.061651 229.764078 
L 489.478201 229.992381 
L 490.259233 230.398216 
L 490.571646 230.554888 
L 495.778525 233.512887 
L 497.757139 234.757913 
L 498.12162 235.034895 
L 500.829197 236.920844 
L 501.506092 237.405157 
L 501.766436 237.644067 
L 501.974711 237.769663 
L 502.339192 238.056654 
L 502.495399 238.184449 
L 503.172293 238.692521 
L 503.797118 239.196796 
L 504.057462 239.436639 
L 504.734357 240.02196 
L 506.973314 242.065978 
L 507.233658 242.35386 
L 511.399162 247.37064 
L 511.919849 248.165327 
L 512.076056 248.323147 
L 512.284331 248.711053 
L 512.648812 249.266562 
L 512.805019 249.506812 
L 513.117432 250.158264 
L 514.575358 252.981205 
L 514.939839 253.667183 
L 515.096046 253.980419 
L 515.408458 254.853661 
L 515.460527 254.880085 
L 515.77294 255.695048 
L 515.929146 256.096009 
L 516.18949 257.074 
L 516.345696 257.441592 
L 516.658109 258.689823 
L 517.126728 261.060796 
L 517.282935 262.851056 
L 517.387072 270.033588 
L 517.543279 328.39314 
L 517.90776 328.611695 
L 518.636723 328.974664 
L 519.20948 329.211277 
L 519.886374 329.626773 
L 520.250856 329.813096 
L 520.979819 330.301299 
L 521.500507 330.792296 
L 522.333607 331.049742 
L 529.93565 331.714807 
L 530.977026 332.761893 
L 531.341508 333.129927 
L 531.914264 333.711226 
L 532.591159 334.312233 
L 532.643227 334.417627 
L 532.643227 334.417627 
" clip-path="url(#p6d0945968d)" style="fill: none; stroke: #b22222; stroke-width: 3; stroke-linecap: round"/>
   </g>
   <g id="line2d_18">
    <path d="M 106.147777 44.054818 
L 106.199845 44.317219 
L 106.408121 47.162254 
L 106.616396 49.409476 
L 106.928808 50.630966 
L 107.137084 52.719801 
L 107.189152 52.862034 
L 107.345359 54.001377 
L 107.657771 55.305788 
L 107.70984 55.343129 
L 107.970184 56.641775 
L 108.074322 56.775621 
L 108.230528 57.523205 
L 108.282597 57.541665 
L 108.855354 59.389238 
L 109.063629 59.471829 
L 109.636385 60.542731 
L 109.792592 60.718021 
L 110.157073 61.296305 
L 111.667068 63.334979 
L 112.03155 63.809675 
L 112.135687 63.968045 
L 112.968788 64.92336 
L 113.177063 65.14316 
L 113.541545 65.475278 
L 114.114301 66.069527 
L 114.530852 66.438507 
L 114.739127 66.580493 
L 114.999471 66.905846 
L 115.207746 67.060206 
L 117.134291 68.778945 
L 117.394635 68.928863 
L 117.915323 69.407321 
L 118.383942 69.663559 
L 118.90463 70.062977 
L 119.529455 70.478836 
L 120.258418 71.025079 
L 120.570831 71.222839 
L 123.122202 72.856002 
L 123.434615 72.993838 
L 124.111509 73.378519 
L 124.684266 73.686514 
L 125.100816 73.91123 
L 126.558742 74.707887 
L 126.975292 74.965059 
L 127.443911 75.165358 
L 127.964599 75.494473 
L 128.224943 75.614437 
L 128.589425 75.787054 
L 129.370457 76.30643 
L 129.6308 76.422823 
L 129.995282 76.596786 
L 131.505277 77.260461 
L 131.81769 77.359999 
L 132.130102 77.519956 
L 132.702859 77.79332 
L 133.640097 78.17412 
L 136.868362 79.674514 
L 137.232844 79.790961 
L 139.211458 80.671671 
L 139.784214 80.923067 
L 140.40904 81.186293 
L 142.335585 81.924597 
L 143.116617 82.236229 
L 143.376961 82.33613 
L 143.84558 82.528983 
L 144.626612 82.853341 
L 146.084538 83.40893 
L 146.86557 83.694552 
L 147.334189 83.842597 
L 147.802808 84.036184 
L 148.58384 84.277594 
L 148.844184 84.395835 
L 150.041766 84.784951 
L 150.874866 85.0615 
L 151.447623 85.270761 
L 152.124517 85.535109 
L 153.790719 86.118791 
L 154.623819 86.389521 
L 164.725164 89.792623 
L 165.141715 89.956576 
L 166.599641 90.447939 
L 167.06826 90.569918 
L 167.380672 90.67179 
L 168.161704 90.885359 
L 169.567562 91.292996 
L 172.22307 92.074473 
L 172.691689 92.209045 
L 173.94134 92.576681 
L 175.972023 93.127749 
L 176.544779 93.307397 
L 177.534086 93.617487 
L 178.419256 93.8907 
L 179.044081 94.112358 
L 179.408563 94.22258 
L 180.085457 94.414482 
L 180.658214 94.570967 
L 182.584759 95.138579 
L 183.730272 95.489534 
L 184.303029 95.693858 
L 184.927854 95.897975 
L 186.437849 96.37828 
L 187.114744 96.557148 
L 189.197495 97.279996 
L 189.926458 97.474804 
L 198.205396 100.261299 
L 213.617757 105.632952 
L 214.034307 105.775734 
L 215.960853 106.472903 
L 216.533609 106.677979 
L 223.042208 109.206043 
L 223.458758 109.366094 
L 224.65634 109.855264 
L 233.247691 113.209885 
L 235.330442 114.131717 
L 235.746992 114.343047 
L 236.423887 114.6275 
L 236.840437 114.821962 
L 237.309056 115.054627 
L 237.673538 115.171015 
L 238.662845 115.610052 
L 239.235601 115.874052 
L 239.70422 116.078362 
L 240.381115 116.392397 
L 240.953871 116.684195 
L 241.630766 116.965762 
L 241.89111 117.11163 
L 242.099385 117.2286 
L 242.568004 117.512889 
L 243.088692 117.784765 
L 243.817655 118.134484 
L 244.234205 118.36197 
L 245.171443 118.787856 
L 245.640062 119.033524 
L 245.848338 119.1635 
L 246.473163 119.463997 
L 246.837645 119.668158 
L 247.254195 119.847303 
L 248.503846 120.444804 
L 248.816259 120.604488 
L 249.336946 120.876906 
L 249.59729 120.997981 
L 251.419698 121.888959 
L 251.680042 122.020798 
L 266.051028 129.570747 
L 266.259303 129.736605 
L 266.83206 130.011283 
L 267.873435 130.596203 
L 275.163066 134.791138 
L 277.297886 136.151849 
L 277.662368 136.369371 
L 278.755812 137.130905 
L 284.066829 140.66993 
L 284.43131 140.997356 
L 284.951998 141.288744 
L 285.160273 141.45063 
L 285.368548 141.590245 
L 285.680961 141.872656 
L 285.785099 141.918819 
L 286.14958 142.249045 
L 286.982681 142.81191 
L 287.243025 143.064314 
L 287.503369 143.208056 
L 288.388538 143.843263 
L 288.700951 144.106999 
L 289.221639 144.513102 
L 289.898533 145.080946 
L 290.210946 145.35341 
L 290.731634 145.72367 
L 291.044046 146.034466 
L 291.200253 146.160158 
L 291.512666 146.359359 
L 292.293697 147.046937 
L 293.178867 147.758395 
L 293.595417 148.121521 
L 299.375053 153.606802 
L 299.583328 153.807328 
L 299.791603 153.981241 
L 300.104016 154.311024 
L 300.520566 154.811241 
L 300.937116 155.170229 
L 301.093323 155.33669 
L 301.614011 155.856653 
L 305.623307 160.158706 
L 305.779514 160.388631 
L 306.143995 160.719723 
L 306.35227 161.011741 
L 306.664683 161.465902 
L 306.977096 161.77672 
L 307.497784 162.384871 
L 307.706059 162.568482 
L 308.018472 163.04994 
L 308.487091 163.547035 
L 309.424329 164.619095 
L 310.517774 166.084444 
L 310.621911 166.231914 
L 311.715356 167.47265 
L 311.923631 167.713583 
L 312.496387 168.485554 
L 312.652594 168.661611 
L 313.641901 169.758936 
L 313.798107 170.003767 
L 313.902245 170.080842 
L 314.214658 170.582264 
L 314.266726 170.593835 
L 314.475001 170.884705 
L 316.661891 173.486674 
L 316.818097 173.68523 
L 317.234647 174.201234 
L 318.171885 175.328428 
L 318.484298 175.748025 
L 318.640505 175.877352 
L 318.900849 176.199356 
L 319.26533 176.571856 
L 319.525674 177.004177 
L 319.942224 177.427501 
L 320.254637 177.813836 
L 320.723256 178.365582 
L 320.9836 178.722766 
L 321.243944 179.047962 
L 321.556357 179.365037 
L 321.816701 179.664297 
L 322.910145 181.027003 
L 324.00359 182.285308 
L 324.628415 182.919326 
L 324.784622 183.179374 
L 325.253241 183.710742 
L 325.565654 183.981143 
L 328.845987 187.426325 
L 329.314606 187.876714 
L 329.627019 188.23438 
L 329.783225 188.358392 
L 329.991501 188.548052 
L 331.449427 189.870323 
L 331.761839 190.133229 
L 332.334596 190.625648 
L 337.385269 194.474519 
L 337.541475 194.609549 
L 337.853888 194.766656 
L 338.999401 195.536079 
L 339.259745 195.690867 
L 339.520089 195.883272 
L 339.780433 196.044259 
L 339.988708 196.196933 
L 342.019391 197.436807 
L 342.331804 197.65137 
L 344.102142 198.716612 
L 344.466624 198.929333 
L 345.195587 199.40898 
L 345.455931 199.548721 
L 345.92455 199.804873 
L 347.017995 200.425813 
L 347.278339 200.541141 
L 347.486614 200.690921 
L 347.851095 200.898609 
L 348.94454 201.459128 
L 349.152815 201.594832 
L 349.569365 201.840675 
L 350.66281 202.425563 
L 353.474524 203.877697 
L 353.786937 203.988662 
L 354.307625 204.25983 
L 356.702789 205.486672 
L 357.067271 205.66059 
L 357.692096 205.972614 
L 359.931054 207.0212 
L 360.295536 207.193404 
L 360.764155 207.40451 
L 361.909668 207.928358 
L 362.742769 208.350386 
L 363.003113 208.46637 
L 363.732076 208.802813 
L 364.773452 209.300609 
L 365.242071 209.515408 
L 365.658621 209.6943 
L 366.856203 210.248718 
L 367.324822 210.45301 
L 368.105854 210.80027 
L 368.626542 211.056125 
L 369.14723 211.265374 
L 369.719987 211.532068 
L 370.292743 211.772994 
L 372.115151 212.613877 
L 372.375495 212.736695 
L 372.896183 212.965037 
L 378.519612 215.531174 
L 378.884093 215.680711 
L 379.45685 215.905563 
L 380.289951 216.280321 
L 380.862707 216.510043 
L 381.17512 216.679491 
L 381.591671 216.854853 
L 382.216496 217.166936 
L 382.997528 217.496017 
L 383.674422 217.808694 
L 384.403385 218.108023 
L 386.225793 218.950687 
L 386.642343 219.146623 
L 387.006825 219.282202 
L 388.412682 219.924547 
L 388.829232 220.119411 
L 395.285762 223.110553 
L 395.754381 223.349212 
L 396.327138 223.586973 
L 397.368514 224.14652 
L 397.94127 224.373506 
L 402.315049 226.582736 
L 402.731599 226.770116 
L 402.991943 226.897442 
L 403.408493 227.087562 
L 405.69952 228.277555 
L 407.053308 228.954243 
L 407.469859 229.188058 
L 408.094684 229.490825 
L 408.459166 229.702298 
L 409.240197 230.135015 
L 409.708817 230.449241 
L 409.917092 230.570785 
L 410.281573 230.73332 
L 411.947775 231.601161 
L 412.15605 231.738051 
L 413.041219 232.223734 
L 413.770182 232.690009 
L 414.134664 232.875378 
L 414.499145 233.066134 
L 415.280177 233.542438 
L 416.00914 233.971807 
L 416.998447 234.575052 
L 417.883616 235.107457 
L 418.14396 235.256318 
L 419.393611 236.028772 
L 419.810162 236.291509 
L 420.434987 236.697765 
L 421.997051 237.675859 
L 422.205326 237.82874 
L 422.517739 238.045949 
L 423.350839 238.649931 
L 424.236009 239.209542 
L 424.704628 239.579484 
L 424.912903 239.69327 
L 425.90221 240.417007 
L 426.058416 240.497949 
L 426.266691 240.720349 
L 426.943586 241.162871 
L 427.776686 241.783715 
L 428.141168 242.059606 
L 428.349443 242.202138 
L 429.286681 242.97386 
L 431.161158 244.485961 
L 432.410809 245.578038 
L 432.723221 245.845402 
L 436.055624 248.935638 
L 436.576312 249.4266 
L 436.680449 249.506442 
L 437.461481 250.362903 
L 438.502857 251.344652 
L 438.81527 251.781145 
L 439.544233 252.527928 
L 439.752508 252.775415 
L 439.856645 252.851783 
L 440.064921 253.220129 
L 440.481471 253.686628 
L 440.689746 253.839425 
L 441.470778 254.886673 
L 441.522847 254.897856 
L 441.835259 255.43271 
L 442.043535 255.656035 
L 442.355947 256.0575 
L 442.512154 256.169474 
L 443.397323 257.588827 
L 443.605598 257.954681 
L 445.584212 261.267667 
L 445.792487 261.625644 
L 447.302482 264.78199 
L 447.510757 265.198146 
L 448.291789 266.722307 
L 448.395927 266.980999 
L 448.812477 268.018744 
L 448.916615 268.275589 
L 449.072821 268.802428 
L 449.176959 269.017516 
L 449.95799 271.50331 
L 450.010059 271.618384 
L 450.218334 272.477041 
L 450.791091 274.845503 
L 450.895229 274.999318 
L 451.051435 275.748876 
L 451.155573 276.074988 
L 451.832467 278.992189 
L 453.030049 284.727737 
L 453.186255 285.593691 
L 453.394531 286.595177 
L 453.654875 288.369536 
L 453.811081 289.846155 
L 453.967287 291.892665 
L 454.019356 292.004554 
L 454.800388 297.755684 
L 454.956594 302.659242 
L 455.58142 313.900454 
L 455.789695 321.248235 
L 456.050039 322.279706 
L 456.466589 325.150698 
L 456.674864 326.574861 
L 456.726933 326.791262 
L 457.039346 330.349763 
L 532.226677 330.349763 
L 532.591159 340.478108 
L 532.643227 346.732164 
L 532.643227 346.732164 
" clip-path="url(#p6d0945968d)" style="fill: none; stroke: #f08080; stroke-width: 3; stroke-linecap: round"/>
   </g>
   <g id="patch_3">
    <path d="M 84.823004 362.194077 
L 84.823004 22.032 
" style="fill: none; stroke: #cccccc; stroke-width: 1.25; stroke-linejoin: miter; stroke-linecap: square"/>
   </g>
   <g id="patch_4">
    <path d="M 553.968 362.194077 
L 553.968 22.032 
" style="fill: none; stroke: #cccccc; stroke-width: 1.25; stroke-linejoin: miter; stroke-linecap: square"/>
   </g>
   <g id="patch_5">
    <path d="M 84.823004 362.194077 
L 553.968 362.194077 
" style="fill: none; stroke: #cccccc; stroke-width: 1.25; stroke-linejoin: miter; stroke-linecap: square"/>
   </g>
   <g id="patch_6">
    <path d="M 84.823004 22.032 
L 553.968 22.032 
" style="fill: none; stroke: #cccccc; stroke-width: 1.25; stroke-linejoin: miter; stroke-linecap: square"/>
   </g>
   <g id="legend_1">
    <g id="patch_7">
     <path d="M 368.70187 117.022785 
L 544.168 117.022785 
Q 546.968 117.022785 546.968 114.222785 
L 546.968 31.832 
Q 546.968 29.032 544.168 29.032 
L 368.70187 29.032 
Q 365.90187 29.032 365.90187 31.832 
L 365.90187 114.222785 
Q 365.90187 117.022785 368.70187 117.022785 
z
" style="fill: #ffffff; opacity: 0.8; stroke: #cccccc; stroke-linejoin: miter"/>
    </g>
    <g id="line2d_19">
     <path d="M 371.50187 40.192772 
L 385.50187 40.192772 
L 399.50187 40.192772 
" style="fill: none; stroke: #4169e1; stroke-width: 3; stroke-linecap: round"/>
    </g>
    <g id="text_17">
     <!-- LuXry (train) -->
     <g style="fill: #262626" transform="translate(410.70187 45.092772) scale(0.14 -0.14)">
      <defs>
       <path id="CMSS17-58" d="M 2214 2329 
L 3661 4416 
L 3072 4416 
L 1952 2762 
L 800 4416 
L 166 4416 
L 1690 2329 
L 83 0 
L 672 0 
L 1952 1941 
L 3277 0 
L 3910 0 
L 2214 2329 
z
" transform="scale(0.015625)"/>
       <path id="CMSS17-79" d="M 2675 2752 
L 2176 2752 
C 1632 1294 1446 702 1434 383 
L 1427 383 
C 1408 696 1126 1460 902 2007 
L 602 2752 
L 83 2752 
L 1216 13 
C 1146 -178 1043 -465 1011 -529 
C 870 -885 774 -885 672 -885 
C 646 -885 442 -885 211 -809 
L 250 -1229 
C 410 -1261 570 -1280 685 -1280 
C 845 -1280 1165 -1280 1459 -497 
L 2675 2752 
z
" transform="scale(0.015625)"/>
       <path id="CMSS17-28" d="M 1613 4768 
C 1267 4417 474 3601 474 1588 
C 474 -433 1267 -1243 1613 -1600 
L 2003 -1600 
C 1216 -784 960 357 960 1581 
C 960 2798 1203 3946 2003 4768 
L 1613 4768 
z
" transform="scale(0.015625)"/>
       <path id="CMSS17-29" d="M 723 -1600 
C 1069 -1249 1862 -433 1862 1581 
C 1862 3601 1069 4411 723 4768 
L 333 4768 
C 1120 3952 1376 2811 1376 1588 
C 1376 370 1133 -778 333 -1600 
L 723 -1600 
z
" transform="scale(0.015625)"/>
      </defs>
      <use xlink:href="#CMSS17-4c" transform="scale(0.996264)"/>
      <use xlink:href="#CMSS17-75" transform="translate(50.687105 0) scale(0.996264)"/>
      <use xlink:href="#CMSS17-58" transform="translate(98.892048 0) scale(0.996264)"/>
      <use xlink:href="#CMSS17-72" transform="translate(161.109903 0) scale(0.996264)"/>
      <use xlink:href="#CMSS17-79" transform="translate(193.019676 0) scale(0.996264)"/>
      <use xlink:href="#CMSS17-28" transform="translate(267.24893 0) scale(0.996264)"/>
      <use xlink:href="#CMSS17-74" transform="translate(303.682845 0) scale(0.996264)"/>
      <use xlink:href="#CMSS17-72" transform="translate(337.514411 0) scale(0.996264)"/>
      <use xlink:href="#CMSS17-61" transform="translate(369.424184 0) scale(0.996264)"/>
      <use xlink:href="#CMSS17-69" transform="translate(414.346104 0) scale(0.996264)"/>
      <use xlink:href="#CMSS17-6e" transform="translate(436.526827 0) scale(0.996264)"/>
      <use xlink:href="#CMSS17-29" transform="translate(484.731771 0) scale(0.996264)"/>
     </g>
    </g>
    <g id="line2d_20">
     <path d="M 371.50187 61.140468 
L 385.50187 61.140468 
L 399.50187 61.140468 
" style="fill: none; stroke: #87ceeb; stroke-width: 3; stroke-linecap: round"/>
    </g>
    <g id="text_18">
     <!-- Downstream (external) -->
     <g style="fill: #262626" transform="translate(410.70187 66.040468) scale(0.14 -0.14)">
      <defs>
       <path id="CMSS17-44" d="M 570 4416 
L 570 0 
L 2144 0 
C 3194 0 4000 980 4000 2170 
C 4000 3398 3194 4416 2144 4416 
L 570 4416 
z
M 1094 357 
L 1094 4059 
L 2003 4059 
C 2861 4059 3475 3277 3475 2170 
C 3475 1107 2867 357 2003 357 
L 1094 357 
z
" transform="scale(0.015625)"/>
       <path id="CMSS17-77" d="M 4013 2752 
L 3526 2752 
L 3187 1601 
C 3117 1358 2918 685 2893 371 
L 2886 371 
C 2874 564 2765 1024 2586 1633 
L 2259 2752 
L 1818 2752 
L 1498 1658 
C 1338 1101 1216 627 1203 371 
L 1197 371 
C 1171 749 909 1633 870 1773 
L 582 2752 
L 83 2752 
L 915 0 
L 1402 0 
C 1734 1096 1990 1943 2010 2370 
C 2022 2160 2131 1707 2195 1484 
L 2618 0 
L 3181 0 
L 4013 2752 
z
" transform="scale(0.015625)"/>
       <path id="CMSS17-73" d="M 2061 2627 
C 1683 2807 1389 2807 1197 2807 
C 742 2807 198 2648 198 2003 
C 198 1359 902 1218 1094 1179 
C 1389 1122 1715 1058 1715 740 
C 1715 337 1254 337 1171 337 
C 915 337 563 407 243 638 
L 166 210 
C 531 0 883 -64 1178 -64 
C 1965 -64 2163 416 2163 781 
C 2163 1094 1984 1305 1862 1401 
C 1651 1568 1574 1587 1050 1696 
C 960 1709 646 1779 646 2066 
C 646 2432 1050 2432 1139 2432 
C 1555 2432 1811 2303 1984 2208 
L 2061 2627 
z
" transform="scale(0.015625)"/>
      </defs>
      <use xlink:href="#CMSS17-44" transform="scale(0.996264)"/>
      <use xlink:href="#CMSS17-6f" transform="translate(67.542842 0) scale(0.996264)"/>
      <use xlink:href="#CMSS17-77" transform="translate(111.784011 0) scale(0.996264)"/>
      <use xlink:href="#CMSS17-6e" transform="translate(175.603556 0) scale(0.996264)"/>
      <use xlink:href="#CMSS17-73" transform="translate(223.808499 0) scale(0.996264)"/>
      <use xlink:href="#CMSS17-74" transform="translate(259.722041 0) scale(0.996264)"/>
      <use xlink:href="#CMSS17-72" transform="translate(293.553608 0) scale(0.996264)"/>
      <use xlink:href="#CMSS17-65" transform="translate(325.463381 0) scale(0.996264)"/>
      <use xlink:href="#CMSS17-61" transform="translate(367.102203 0) scale(0.996264)"/>
      <use xlink:href="#CMSS17-6d" transform="translate(412.024123 0) scale(0.996264)"/>
      <use xlink:href="#CMSS17-28" transform="translate(517.482491 0) scale(0.996264)"/>
      <use xlink:href="#CMSS17-65" transform="translate(553.916405 0) scale(0.996264)"/>
      <use xlink:href="#CMSS17-78" transform="translate(595.555227 0) scale(0.996264)"/>
      <use xlink:href="#CMSS17-74" transform="translate(638.555369 0) scale(0.996264)"/>
      <use xlink:href="#CMSS17-65" transform="translate(672.386935 0) scale(0.996264)"/>
      <use xlink:href="#CMSS17-72" transform="translate(714.025757 0) scale(0.996264)"/>
      <use xlink:href="#CMSS17-6e" transform="translate(745.93553 0) scale(0.996264)"/>
      <use xlink:href="#CMSS17-61" transform="translate(794.140473 0) scale(0.996264)"/>
      <use xlink:href="#CMSS17-6c" transform="translate(839.062394 0) scale(0.996264)"/>
      <use xlink:href="#CMSS17-29" transform="translate(861.243117 0) scale(0.996264)"/>
     </g>
    </g>
    <g id="line2d_21">
     <path d="M 371.50187 82.088164 
L 385.50187 82.088164 
L 399.50187 82.088164 
" style="fill: none; stroke: #b22222; stroke-width: 3; stroke-linecap: round"/>
    </g>
    <g id="text_19">
     <!-- ImageNet (train) -->
     <g style="fill: #262626" transform="translate(410.70187 86.988164) scale(0.14 -0.14)">
      <defs>
       <path id="CMSS17-4e" d="M 1466 4180 
L 1350 4416 
L 563 4416 
L 563 0 
L 1062 0 
L 1062 3926 
L 1069 3932 
C 1114 3817 1139 3760 1402 3194 
L 2771 236 
L 2886 0 
L 3674 0 
L 3674 4416 
L 3174 4416 
L 3174 490 
L 3168 483 
C 3123 598 3098 655 2835 1221 
L 1466 4180 
z
" transform="scale(0.015625)"/>
      </defs>
      <use xlink:href="#CMSS17-49" transform="scale(0.996264)"/>
      <use xlink:href="#CMSS17-6d" transform="translate(25.783926 0) scale(0.996264)"/>
      <use xlink:href="#CMSS17-61" transform="translate(100.01318 0) scale(0.996264)"/>
      <use xlink:href="#CMSS17-67" transform="translate(144.935101 0) scale(0.996264)"/>
      <use xlink:href="#CMSS17-65" transform="translate(191.778724 0) scale(0.996264)"/>
      <use xlink:href="#CMSS17-4e" transform="translate(233.417546 0) scale(0.996264)"/>
      <use xlink:href="#CMSS17-65" transform="translate(299.479065 0) scale(0.996264)"/>
      <use xlink:href="#CMSS17-74" transform="translate(341.117887 0) scale(0.996264)"/>
      <use xlink:href="#CMSS17-28" transform="translate(406.178567 0) scale(0.996264)"/>
      <use xlink:href="#CMSS17-74" transform="translate(442.612481 0) scale(0.996264)"/>
      <use xlink:href="#CMSS17-72" transform="translate(476.444048 0) scale(0.996264)"/>
      <use xlink:href="#CMSS17-61" transform="translate(508.35382 0) scale(0.996264)"/>
      <use xlink:href="#CMSS17-69" transform="translate(553.275741 0) scale(0.996264)"/>
      <use xlink:href="#CMSS17-6e" transform="translate(575.456464 0) scale(0.996264)"/>
      <use xlink:href="#CMSS17-29" transform="translate(623.661407 0) scale(0.996264)"/>
     </g>
    </g>
    <g id="line2d_22">
     <path d="M 371.50187 103.035861 
L 385.50187 103.035861 
L 399.50187 103.035861 
" style="fill: none; stroke: #f08080; stroke-width: 3; stroke-linecap: round"/>
    </g>
    <g id="text_20">
     <!-- COCO (external) -->
     <g style="fill: #262626" transform="translate(410.70187 107.935861) scale(0.14 -0.14)">
      <defs>
       <path id="CMSS17-43" d="M 3501 714 
C 3072 427 2874 344 2355 344 
C 1459 344 934 1303 934 2179 
C 934 3112 1472 4032 2381 4032 
C 2790 4032 3059 3918 3386 3715 
L 3475 4217 
C 3168 4370 2778 4440 2387 4440 
C 1158 4440 397 3316 397 2179 
C 397 927 1299 -64 2323 -64 
C 2874 -64 3066 -19 3539 280 
L 3501 714 
z
" transform="scale(0.015625)"/>
       <path id="CMSS17-4f" d="M 4096 2178 
C 4096 3503 3219 4497 2214 4497 
C 1210 4497 333 3497 333 2178 
C 333 847 1222 -128 2214 -128 
C 3206 -128 4096 847 4096 2178 
z
M 2214 273 
C 1510 273 870 1057 870 2261 
C 870 3433 1549 4096 2214 4096 
C 2880 4096 3558 3433 3558 2261 
C 3558 1051 2912 273 2214 273 
z
" transform="scale(0.015625)"/>
      </defs>
      <use xlink:href="#CMSS17-43" transform="scale(0.996264)"/>
      <use xlink:href="#CMSS17-4f" transform="translate(59.855772 0) scale(0.996264)"/>
      <use xlink:href="#CMSS17-43" transform="translate(128.880027 0) scale(0.996264)"/>
      <use xlink:href="#CMSS17-4f" transform="translate(188.735798 0) scale(0.996264)"/>
      <use xlink:href="#CMSS17-28" transform="translate(288.989167 0) scale(0.996264)"/>
      <use xlink:href="#CMSS17-65" transform="translate(325.423081 0) scale(0.996264)"/>
      <use xlink:href="#CMSS17-78" transform="translate(367.061903 0) scale(0.996264)"/>
      <use xlink:href="#CMSS17-74" transform="translate(410.062045 0) scale(0.996264)"/>
      <use xlink:href="#CMSS17-65" transform="translate(443.893611 0) scale(0.996264)"/>
      <use xlink:href="#CMSS17-72" transform="translate(485.532433 0) scale(0.996264)"/>
      <use xlink:href="#CMSS17-6e" transform="translate(517.442206 0) scale(0.996264)"/>
      <use xlink:href="#CMSS17-61" transform="translate(565.647149 0) scale(0.996264)"/>
      <use xlink:href="#CMSS17-6c" transform="translate(610.56907 0) scale(0.996264)"/>
      <use xlink:href="#CMSS17-29" transform="translate(632.749793 0) scale(0.996264)"/>
     </g>
    </g>
   </g>
  </g>
 </g>
 <defs>
  <clipPath id="p6d0945968d">
   <rect x="84.823004" y="22.032" width="469.144996" height="340.162077"/>
  </clipPath>
 </defs>
</svg>
