<?xml version="1.0" encoding="utf-8" standalone="no"?>
<!DOCTYPE svg PUBLIC "-//W3C//DTD SVG 1.1//EN"
  "http://www.w3.org/Graphics/SVG/1.1/DTD/svg11.dtd">
<svg xmlns:xlink="http://www.w3.org/1999/xlink" width="576pt" height="432pt" viewBox="0 0 576 432" xmlns="http://www.w3.org/2000/svg" version="1.1">
 <metadata>
  <rdf:RDF xmlns:dc="http://purl.org/dc/elements/1.1/" xmlns:cc="http://creativecommons.org/ns#" xmlns:rdf="http://www.w3.org/1999/02/22-rdf-syntax-ns#">
   <cc:Work>
    <dc:type rdf:resource="http://purl.org/dc/dcmitype/StillImage"/>
    <dc:date>2024-06-26T14:20:20.963071</dc:date>
    <dc:format>image/svg+xml</dc:format>
    <dc:creator>
     <cc:Agent>
      <dc:title>Matplotlib v3.8.3, https://matplotlib.org/</dc:title>
     </cc:Agent>
    </dc:creator>
   </cc:Work>
  </rdf:RDF>
 </metadata>
 <defs>
  <style type="text/css">*{stroke-linejoin: round; stroke-linecap: butt}</style>
 </defs>
 <g id="figure_1">
  <g id="patch_1">
   <path d="M 0 432 
L 576 432 
L 576 0 
L 0 0 
z
" style="fill: #ffffff"/>
  </g>
  <g id="axes_1">
   <g id="patch_2">
    <path d="M 84.823004 362.194077 
L 553.968 362.194077 
L 553.968 22.032 
L 84.823004 22.032 
z
" style="fill: #ffffff"/>
   </g>
   <g id="matplotlib.axis_1">
    <g id="xtick_1">
     <g id="line2d_1">
      <path d="M 106.147777 362.194077 
L 106.147777 22.032 
" clip-path="url(#p894dea3624)" style="fill: none; stroke: #cccccc; stroke-linecap: round"/>
     </g>
     <g id="text_1">
      <!-- $\mathdefault{0}$ -->
      <g style="fill: #262626" transform="translate(101.875719 384.63166) scale(0.187 -0.187)">
       <defs>
        <path id="CMR17-30" d="M 2688 2025 
C 2688 2416 2682 3080 2413 3591 
C 2176 4039 1798 4198 1466 4198 
C 1158 4198 768 4058 525 3597 
C 269 3118 243 2524 243 2025 
C 243 1661 250 1106 448 619 
C 723 -39 1216 -128 1466 -128 
C 1760 -128 2208 -7 2470 600 
C 2662 1042 2688 1559 2688 2025 
z
M 1466 -26 
C 1056 -26 813 325 723 812 
C 653 1188 653 1738 653 2096 
C 653 2588 653 2997 736 3387 
C 858 3929 1216 4096 1466 4096 
C 1728 4096 2067 3923 2189 3400 
C 2272 3036 2278 2607 2278 2096 
C 2278 1680 2278 1169 2202 792 
C 2067 95 1690 -26 1466 -26 
z
" transform="scale(0.015625)"/>
       </defs>
       <use xlink:href="#CMR17-30" transform="scale(0.996264)"/>
      </g>
     </g>
    </g>
    <g id="xtick_2">
     <g id="line2d_2">
      <path d="M 210.285355 362.194077 
L 210.285355 22.032 
" clip-path="url(#p894dea3624)" style="fill: none; stroke: #cccccc; stroke-linecap: round"/>
     </g>
     <g id="text_2">
      <!-- $\mathdefault{2000}$ -->
      <g style="fill: #262626" transform="translate(193.197122 384.63166) scale(0.187 -0.187)">
       <defs>
        <path id="CMR17-32" d="M 2669 989 
L 2554 989 
C 2490 536 2438 459 2413 420 
C 2381 369 1920 369 1830 369 
L 602 369 
C 832 619 1280 1072 1824 1597 
C 2214 1967 2669 2402 2669 3035 
C 2669 3790 2067 4224 1395 4224 
C 691 4224 262 3604 262 3030 
C 262 2780 448 2748 525 2748 
C 589 2748 781 2787 781 3010 
C 781 3207 614 3264 525 3264 
C 486 3264 448 3258 422 3245 
C 544 3790 915 4058 1306 4058 
C 1862 4058 2227 3617 2227 3035 
C 2227 2479 1901 2000 1536 1584 
L 262 146 
L 262 0 
L 2515 0 
L 2669 989 
z
" transform="scale(0.015625)"/>
       </defs>
       <use xlink:href="#CMR17-32" transform="scale(0.996264)"/>
       <use xlink:href="#CMR17-30" transform="translate(45.690477 0) scale(0.996264)"/>
       <use xlink:href="#CMR17-30" transform="translate(91.380954 0) scale(0.996264)"/>
       <use xlink:href="#CMR17-30" transform="translate(137.071431 0) scale(0.996264)"/>
      </g>
     </g>
    </g>
    <g id="xtick_3">
     <g id="line2d_3">
      <path d="M 314.422933 362.194077 
L 314.422933 22.032 
" clip-path="url(#p894dea3624)" style="fill: none; stroke: #cccccc; stroke-linecap: round"/>
     </g>
     <g id="text_3">
      <!-- $\mathdefault{4000}$ -->
      <g style="fill: #262626" transform="translate(297.3347 384.63166) scale(0.187 -0.187)">
       <defs>
        <path id="CMR17-34" d="M 2150 4122 
C 2150 4256 2144 4256 2029 4256 
L 128 1254 
L 128 1088 
L 1779 1088 
L 1779 457 
C 1779 224 1766 160 1318 160 
L 1197 160 
L 1197 0 
C 1402 0 1747 0 1965 0 
C 2182 0 2528 0 2733 0 
L 2733 160 
L 2611 160 
C 2163 160 2150 224 2150 457 
L 2150 1088 
L 2803 1088 
L 2803 1254 
L 2150 1254 
L 2150 4122 
z
M 1798 3703 
L 1798 1254 
L 256 1254 
L 1798 3703 
z
" transform="scale(0.015625)"/>
       </defs>
       <use xlink:href="#CMR17-34" transform="scale(0.996264)"/>
       <use xlink:href="#CMR17-30" transform="translate(45.690477 0) scale(0.996264)"/>
       <use xlink:href="#CMR17-30" transform="translate(91.380954 0) scale(0.996264)"/>
       <use xlink:href="#CMR17-30" transform="translate(137.071431 0) scale(0.996264)"/>
      </g>
     </g>
    </g>
    <g id="xtick_4">
     <g id="line2d_4">
      <path d="M 418.560511 362.194077 
L 418.560511 22.032 
" clip-path="url(#p894dea3624)" style="fill: none; stroke: #cccccc; stroke-linecap: round"/>
     </g>
     <g id="text_4">
      <!-- $\mathdefault{6000}$ -->
      <g style="fill: #262626" transform="translate(401.472278 384.63166) scale(0.187 -0.187)">
       <defs>
        <path id="CMR17-36" d="M 678 2176 
C 678 3690 1395 4032 1811 4032 
C 1946 4032 2272 4009 2400 3776 
C 2298 3776 2106 3776 2106 3553 
C 2106 3381 2246 3323 2336 3323 
C 2394 3323 2566 3348 2566 3560 
C 2566 3954 2246 4179 1805 4179 
C 1043 4179 243 3390 243 1984 
C 243 253 966 -128 1478 -128 
C 2099 -128 2688 427 2688 1283 
C 2688 2081 2170 2662 1517 2662 
C 1126 2662 838 2407 678 1960 
L 678 2176 
z
M 1478 25 
C 691 25 691 1200 691 1436 
C 691 1896 909 2560 1504 2560 
C 1613 2560 1926 2560 2138 2120 
C 2253 1870 2253 1609 2253 1289 
C 2253 944 2253 690 2118 434 
C 1978 171 1773 25 1478 25 
z
" transform="scale(0.015625)"/>
       </defs>
       <use xlink:href="#CMR17-36" transform="scale(0.996264)"/>
       <use xlink:href="#CMR17-30" transform="translate(45.690477 0) scale(0.996264)"/>
       <use xlink:href="#CMR17-30" transform="translate(91.380954 0) scale(0.996264)"/>
       <use xlink:href="#CMR17-30" transform="translate(137.071431 0) scale(0.996264)"/>
      </g>
     </g>
    </g>
    <g id="xtick_5">
     <g id="line2d_5">
      <path d="M 522.698089 362.194077 
L 522.698089 22.032 
" clip-path="url(#p894dea3624)" style="fill: none; stroke: #cccccc; stroke-linecap: round"/>
     </g>
     <g id="text_5">
      <!-- $\mathdefault{8000}$ -->
      <g style="fill: #262626" transform="translate(505.609856 384.63166) scale(0.187 -0.187)">
       <defs>
        <path id="CMR17-38" d="M 1741 2264 
C 2144 2467 2554 2773 2554 3263 
C 2554 3841 1990 4179 1472 4179 
C 890 4179 378 3759 378 3180 
C 378 3021 416 2747 666 2505 
C 730 2442 998 2251 1171 2130 
C 883 1983 211 1634 211 934 
C 211 279 838 -128 1459 -128 
C 2144 -128 2720 362 2720 1010 
C 2720 1590 2330 1857 2074 2029 
L 1741 2264 
z
M 902 2822 
C 851 2854 595 3051 595 3351 
C 595 3739 998 4032 1459 4032 
C 1965 4032 2336 3676 2336 3262 
C 2336 2669 1670 2331 1638 2331 
C 1632 2331 1626 2331 1574 2370 
L 902 2822 
z
M 2080 1519 
C 2176 1449 2483 1240 2483 851 
C 2483 381 2010 25 1472 25 
C 890 25 448 438 448 940 
C 448 1443 838 1862 1280 2060 
L 2080 1519 
z
" transform="scale(0.015625)"/>
       </defs>
       <use xlink:href="#CMR17-38" transform="scale(0.996264)"/>
       <use xlink:href="#CMR17-30" transform="translate(45.690477 0) scale(0.996264)"/>
       <use xlink:href="#CMR17-30" transform="translate(91.380954 0) scale(0.996264)"/>
       <use xlink:href="#CMR17-30" transform="translate(137.071431 0) scale(0.996264)"/>
      </g>
     </g>
    </g>
    <g id="text_6">
     <!-- Singular Value Rank Index -->
     <g style="fill: #262626" transform="translate(216.383542 406.092366) scale(0.2 -0.2)">
      <defs>
       <path id="CMSS17-53" d="M 2797 4169 
C 2515 4334 2208 4480 1690 4480 
C 864 4480 333 3879 333 3266 
C 333 3025 403 2753 653 2475 
C 902 2196 1184 2121 1542 2033 
C 1690 1994 1939 1924 1984 1906 
C 2342 1767 2515 1444 2515 1140 
C 2515 742 2202 318 1645 318 
C 1453 318 890 318 358 819 
L 269 318 
C 794 -64 1363 -128 1651 -128 
C 2438 -128 3002 488 3002 1186 
C 3002 1440 2925 1763 2656 2061 
C 2394 2347 2163 2410 1638 2549 
C 1338 2626 1146 2677 986 2873 
C 877 3013 819 3146 819 3317 
C 819 3673 1126 4060 1690 4060 
C 1971 4060 2336 4002 2707 3660 
L 2797 4169 
z
" transform="scale(0.015625)"/>
       <path id="CMSS17-69" d="M 979 4183 
L 442 4183 
L 442 3648 
L 979 3648 
L 979 4183 
z
M 947 2739 
L 474 2739 
L 474 0 
L 947 0 
L 947 2739 
z
" transform="scale(0.015625)"/>
       <path id="CMSS17-6e" d="M 2618 1877 
C 2618 2283 2522 2816 1798 2816 
C 1389 2816 1120 2606 941 2389 
L 941 2758 
L 474 2758 
L 474 0 
L 960 0 
L 960 1559 
C 960 1964 1114 2428 1549 2428 
C 2112 2428 2131 2048 2131 1829 
L 2131 0 
L 2618 0 
L 2618 1877 
z
" transform="scale(0.015625)"/>
       <path id="CMSS17-67" d="M 2848 2808 
C 2483 2808 2170 2738 1914 2617 
C 1702 2777 1485 2808 1338 2808 
C 781 2808 358 2349 358 1814 
C 358 1468 550 1207 563 1195 
C 448 1035 384 863 384 672 
C 384 448 474 289 544 200 
C 211 -3 166 -314 166 -435 
C 166 -898 749 -1280 1498 -1280 
C 2253 -1280 2835 -898 2835 -428 
C 2835 448 1856 448 1587 448 
L 1069 448 
C 973 448 717 448 717 791 
C 717 921 774 1004 781 1010 
C 877 940 1075 832 1338 832 
C 1869 832 2310 1278 2310 1827 
C 2310 2132 2170 2355 2112 2432 
L 2131 2432 
C 2150 2432 2419 2432 2515 2432 
C 2720 2432 2739 2429 2918 2419 
L 2848 2808 
z
M 1338 1182 
C 1120 1182 813 1315 813 1823 
C 813 2375 1165 2464 1331 2464 
C 1549 2464 1856 2331 1856 1823 
C 1856 1271 1504 1182 1338 1182 
z
M 1581 -10 
C 1734 -10 2381 -10 2381 -442 
C 2381 -714 1984 -929 1504 -929 
C 1018 -929 621 -720 621 -435 
C 621 -403 621 -10 1062 -10 
L 1581 -10 
z
" transform="scale(0.015625)"/>
       <path id="CMSS17-75" d="M 2618 2739 
L 2131 2739 
L 2131 972 
C 2131 498 1786 306 1421 306 
C 998 306 960 447 960 709 
L 960 2739 
L 474 2739 
L 474 678 
C 474 179 646 -64 1088 -64 
C 1306 -64 1798 -13 2144 306 
L 2144 0 
L 2618 0 
L 2618 2739 
z
" transform="scale(0.015625)"/>
       <path id="CMSS17-6c" d="M 947 4416 
L 474 4416 
L 474 0 
L 947 0 
L 947 4416 
z
" transform="scale(0.015625)"/>
       <path id="CMSS17-61" d="M 2406 1791 
C 2406 2392 1978 2808 1402 2808 
C 1120 2808 813 2757 461 2553 
L 499 2135 
C 659 2248 934 2432 1395 2432 
C 1722 2432 1920 2180 1920 1782 
L 1920 1536 
C 896 1536 256 1238 256 726 
C 256 461 416 -64 947 -64 
C 1043 -64 1562 -64 1933 217 
L 1933 -19 
L 2406 -19 
L 2406 1791 
z
M 1920 816 
C 1920 701 1920 548 1728 434 
C 1562 325 1350 325 1261 325 
C 941 325 723 511 723 744 
C 723 1211 1722 1211 1920 1211 
L 1920 816 
z
" transform="scale(0.015625)"/>
       <path id="CMSS17-72" d="M 954 1363 
C 954 1965 1395 2368 1958 2368 
L 1958 2789 
C 1549 2789 1165 2585 934 2253 
L 934 2758 
L 480 2758 
L 480 0 
L 954 0 
L 954 1363 
z
" transform="scale(0.015625)"/>
       <path id="CMSS17-56" d="M 3910 4416 
L 3411 4416 
L 2304 1362 
C 2272 1273 2074 688 2035 484 
L 2029 484 
C 1978 726 1773 1292 1664 1604 
L 922 3672 
L 646 4416 
L 83 4416 
L 1715 0 
L 2278 0 
L 3910 4416 
z
" transform="scale(0.015625)"/>
       <path id="CMSS17-65" d="M 2502 1377 
C 2502 1590 2490 2003 2285 2345 
C 2061 2713 1696 2816 1421 2816 
C 755 2816 192 2188 192 1375 
C 192 582 774 -64 1510 -64 
C 1798 -64 2150 19 2470 248 
C 2470 274 2458 414 2451 420 
C 2451 433 2432 630 2432 656 
C 2125 407 1773 325 1517 325 
C 1107 325 666 667 646 1377 
L 2502 1377 
z
M 698 1728 
C 781 2084 1062 2421 1421 2421 
C 1517 2421 1965 2421 2080 1728 
L 698 1728 
z
" transform="scale(0.015625)"/>
       <path id="CMSS17-52" d="M 2522 2109 
L 2534 2115 
C 3533 2459 3539 3147 3539 3268 
C 3539 3873 2925 4453 2003 4453 
L 570 4453 
L 570 32 
L 1094 32 
L 1094 2048 
L 2035 2048 
L 3168 32 
L 3706 32 
L 2522 2109 
z
M 1094 2437 
L 1094 4096 
L 1933 4096 
C 2746 4096 3034 3637 3034 3267 
C 3034 2922 2778 2437 1933 2437 
L 1094 2437 
z
" transform="scale(0.015625)"/>
       <path id="CMSS17-6b" d="M 1696 1688 
L 2688 2739 
L 2074 2739 
L 954 1554 
L 954 4416 
L 480 4416 
L 480 0 
L 947 0 
L 947 892 
L 1376 1344 
L 2278 0 
L 2822 0 
L 1696 1688 
z
" transform="scale(0.015625)"/>
       <path id="CMSS17-49" d="M 1094 4416 
L 557 4416 
L 557 0 
L 1094 0 
L 1094 4416 
z
" transform="scale(0.015625)"/>
       <path id="CMSS17-64" d="M 2611 4416 
L 2138 4416 
L 2138 2438 
C 1939 2603 1613 2756 1254 2756 
C 672 2756 211 2131 211 1347 
C 211 562 666 -64 1235 -64 
C 1677 -64 1971 172 2125 306 
L 2125 -13 
L 2611 -13 
L 2611 4416 
z
M 2125 836 
C 2125 747 2125 653 1926 482 
C 1798 375 1645 325 1498 325 
C 1152 325 698 576 698 1340 
C 698 2134 1210 2368 1562 2368 
C 1798 2368 1990 2254 2125 2065 
L 2125 836 
z
" transform="scale(0.015625)"/>
       <path id="CMSS17-78" d="M 1587 1414 
L 2656 2739 
L 2099 2739 
L 1363 1777 
L 602 2739 
L 32 2739 
L 1139 1414 
L 0 0 
L 563 0 
L 1363 1121 
L 2195 0 
L 2758 0 
L 1587 1414 
z
" transform="scale(0.015625)"/>
      </defs>
      <use xlink:href="#CMSS17-53" transform="scale(0.996264)"/>
      <use xlink:href="#CMSS17-69" transform="translate(52.048516 0) scale(0.996264)"/>
      <use xlink:href="#CMSS17-6e" transform="translate(74.229239 0) scale(0.996264)"/>
      <use xlink:href="#CMSS17-67" transform="translate(122.434182 0) scale(0.996264)"/>
      <use xlink:href="#CMSS17-75" transform="translate(169.277806 0) scale(0.996264)"/>
      <use xlink:href="#CMSS17-6c" transform="translate(217.482749 0) scale(0.996264)"/>
      <use xlink:href="#CMSS17-61" transform="translate(239.663472 0) scale(0.996264)"/>
      <use xlink:href="#CMSS17-72" transform="translate(281.982939 0) scale(0.996264)"/>
      <use xlink:href="#CMSS17-56" transform="translate(345.121824 0) scale(0.996264)"/>
      <use xlink:href="#CMSS17-61" transform="translate(404.737225 0) scale(0.996264)"/>
      <use xlink:href="#CMSS17-6c" transform="translate(449.659146 0) scale(0.996264)"/>
      <use xlink:href="#CMSS17-75" transform="translate(471.839869 0) scale(0.996264)"/>
      <use xlink:href="#CMSS17-65" transform="translate(520.044812 0) scale(0.996264)"/>
      <use xlink:href="#CMSS17-52" transform="translate(592.912747 0) scale(0.996264)"/>
      <use xlink:href="#CMSS17-61" transform="translate(653.328902 0) scale(0.996264)"/>
      <use xlink:href="#CMSS17-6e" transform="translate(698.250822 0) scale(0.996264)"/>
      <use xlink:href="#CMSS17-6b" transform="translate(746.455765 0) scale(0.996264)"/>
      <use xlink:href="#CMSS17-49" transform="translate(823.287367 0) scale(0.996264)"/>
      <use xlink:href="#CMSS17-6e" transform="translate(849.071293 0) scale(0.996264)"/>
      <use xlink:href="#CMSS17-64" transform="translate(897.276236 0) scale(0.996264)"/>
      <use xlink:href="#CMSS17-65" transform="translate(945.481179 0) scale(0.996264)"/>
      <use xlink:href="#CMSS17-78" transform="translate(987.120001 0) scale(0.996264)"/>
     </g>
    </g>
   </g>
   <g id="matplotlib.axis_2">
    <g id="ytick_1">
     <g id="line2d_6">
      <path d="M 84.823004 354.776449 
L 553.968 354.776449 
" clip-path="url(#p894dea3624)" style="fill: none; stroke: #cccccc; stroke-linecap: round"/>
     </g>
     <g id="text_7">
      <!-- $\mathdefault{−35}$ -->
      <g style="fill: #262626" transform="translate(43.74463 361.245241) scale(0.187 -0.187)">
       <defs>
        <path id="CMSY10-0" d="M 4218 1472 
C 4326 1472 4442 1472 4442 1600 
C 4442 1728 4326 1728 4218 1728 
L 755 1728 
C 646 1728 531 1728 531 1600 
C 531 1472 646 1472 755 1472 
L 4218 1472 
z
" transform="scale(0.015625)"/>
        <path id="CMR17-33" d="M 1414 2157 
C 1984 2157 2234 1662 2234 1090 
C 2234 320 1824 25 1453 25 
C 1114 25 563 194 390 693 
C 422 680 454 680 486 680 
C 640 680 755 782 755 948 
C 755 1133 614 1216 486 1216 
C 378 1216 211 1165 211 926 
C 211 335 787 -128 1466 -128 
C 2176 -128 2720 430 2720 1085 
C 2720 1707 2208 2157 1600 2227 
C 2086 2328 2554 2756 2554 3329 
C 2554 3820 2048 4179 1472 4179 
C 890 4179 378 3829 378 3329 
C 378 3110 544 3072 627 3072 
C 762 3072 877 3155 877 3321 
C 877 3486 762 3569 627 3569 
C 602 3569 570 3569 544 3557 
C 730 3959 1235 4032 1459 4032 
C 1683 4032 2106 3925 2106 3320 
C 2106 3143 2080 2828 1862 2550 
C 1670 2304 1453 2304 1242 2284 
C 1210 2284 1062 2269 1037 2269 
C 992 2263 966 2257 966 2208 
C 966 2163 973 2157 1101 2157 
L 1414 2157 
z
" transform="scale(0.015625)"/>
        <path id="CMR17-35" d="M 730 3692 
C 794 3666 1056 3584 1325 3584 
C 1920 3584 2246 3911 2432 4100 
C 2432 4157 2432 4192 2394 4192 
C 2387 4192 2374 4192 2323 4163 
C 2099 4058 1837 3973 1517 3973 
C 1325 3973 1037 3999 723 4139 
C 653 4171 640 4171 634 4171 
C 602 4171 595 4164 595 4037 
L 595 2203 
C 595 2089 595 2057 659 2057 
C 691 2057 704 2070 736 2114 
C 941 2401 1222 2522 1542 2522 
C 1766 2522 2246 2382 2246 1289 
C 2246 1085 2246 715 2054 421 
C 1894 159 1645 25 1370 25 
C 947 25 518 320 403 814 
C 429 807 480 795 506 795 
C 589 795 749 840 749 1038 
C 749 1210 627 1280 506 1280 
C 358 1280 262 1190 262 1011 
C 262 454 704 -128 1382 -128 
C 2042 -128 2669 440 2669 1264 
C 2669 2030 2170 2624 1549 2624 
C 1222 2624 947 2503 730 2274 
L 730 3692 
z
" transform="scale(0.015625)"/>
       </defs>
       <use xlink:href="#CMSY10-0" transform="scale(0.996264)"/>
       <use xlink:href="#CMR17-33" transform="translate(77.487468 0) scale(0.996264)"/>
       <use xlink:href="#CMR17-35" transform="translate(123.177945 0) scale(0.996264)"/>
      </g>
     </g>
    </g>
    <g id="ytick_2">
     <g id="line2d_7">
      <path d="M 84.823004 316.053941 
L 553.968 316.053941 
" clip-path="url(#p894dea3624)" style="fill: none; stroke: #cccccc; stroke-linecap: round"/>
     </g>
     <g id="text_8">
      <!-- $\mathdefault{−30}$ -->
      <g style="fill: #262626" transform="translate(43.74463 322.522733) scale(0.187 -0.187)">
       <use xlink:href="#CMSY10-0" transform="scale(0.996264)"/>
       <use xlink:href="#CMR17-33" transform="translate(77.487468 0) scale(0.996264)"/>
       <use xlink:href="#CMR17-30" transform="translate(123.177945 0) scale(0.996264)"/>
      </g>
     </g>
    </g>
    <g id="ytick_3">
     <g id="line2d_8">
      <path d="M 84.823004 277.331433 
L 553.968 277.331433 
" clip-path="url(#p894dea3624)" style="fill: none; stroke: #cccccc; stroke-linecap: round"/>
     </g>
     <g id="text_9">
      <!-- $\mathdefault{−25}$ -->
      <g style="fill: #262626" transform="translate(43.74463 283.800224) scale(0.187 -0.187)">
       <use xlink:href="#CMSY10-0" transform="scale(0.996264)"/>
       <use xlink:href="#CMR17-32" transform="translate(77.487468 0) scale(0.996264)"/>
       <use xlink:href="#CMR17-35" transform="translate(123.177945 0) scale(0.996264)"/>
      </g>
     </g>
    </g>
    <g id="ytick_4">
     <g id="line2d_9">
      <path d="M 84.823004 238.608925 
L 553.968 238.608925 
" clip-path="url(#p894dea3624)" style="fill: none; stroke: #cccccc; stroke-linecap: round"/>
     </g>
     <g id="text_10">
      <!-- $\mathdefault{−20}$ -->
      <g style="fill: #262626" transform="translate(43.74463 245.077716) scale(0.187 -0.187)">
       <use xlink:href="#CMSY10-0" transform="scale(0.996264)"/>
       <use xlink:href="#CMR17-32" transform="translate(77.487468 0) scale(0.996264)"/>
       <use xlink:href="#CMR17-30" transform="translate(123.177945 0) scale(0.996264)"/>
      </g>
     </g>
    </g>
    <g id="ytick_5">
     <g id="line2d_10">
      <path d="M 84.823004 199.886416 
L 553.968 199.886416 
" clip-path="url(#p894dea3624)" style="fill: none; stroke: #cccccc; stroke-linecap: round"/>
     </g>
     <g id="text_11">
      <!-- $\mathdefault{−15}$ -->
      <g style="fill: #262626" transform="translate(43.74463 206.355208) scale(0.187 -0.187)">
       <defs>
        <path id="CMR17-31" d="M 1702 4058 
C 1702 4192 1696 4192 1606 4192 
C 1357 3916 979 3827 621 3827 
C 602 3827 570 3827 563 3808 
C 557 3795 557 3782 557 3648 
C 755 3648 1088 3686 1344 3839 
L 1344 461 
C 1344 236 1331 160 781 160 
L 589 160 
L 589 0 
C 896 0 1216 0 1523 0 
C 1830 0 2150 0 2458 0 
L 2458 160 
L 2266 160 
C 1715 160 1702 230 1702 458 
L 1702 4058 
z
" transform="scale(0.015625)"/>
       </defs>
       <use xlink:href="#CMSY10-0" transform="scale(0.996264)"/>
       <use xlink:href="#CMR17-31" transform="translate(77.487468 0) scale(0.996264)"/>
       <use xlink:href="#CMR17-35" transform="translate(123.177945 0) scale(0.996264)"/>
      </g>
     </g>
    </g>
    <g id="ytick_6">
     <g id="line2d_11">
      <path d="M 84.823004 161.163908 
L 553.968 161.163908 
" clip-path="url(#p894dea3624)" style="fill: none; stroke: #cccccc; stroke-linecap: round"/>
     </g>
     <g id="text_12">
      <!-- $\mathdefault{−10}$ -->
      <g style="fill: #262626" transform="translate(43.74463 167.6327) scale(0.187 -0.187)">
       <use xlink:href="#CMSY10-0" transform="scale(0.996264)"/>
       <use xlink:href="#CMR17-31" transform="translate(77.487468 0) scale(0.996264)"/>
       <use xlink:href="#CMR17-30" transform="translate(123.177945 0) scale(0.996264)"/>
      </g>
     </g>
    </g>
    <g id="ytick_7">
     <g id="line2d_12">
      <path d="M 84.823004 122.4414 
L 553.968 122.4414 
" clip-path="url(#p894dea3624)" style="fill: none; stroke: #cccccc; stroke-linecap: round"/>
     </g>
     <g id="text_13">
      <!-- $\mathdefault{−5}$ -->
      <g style="fill: #262626" transform="translate(52.288747 128.910192) scale(0.187 -0.187)">
       <use xlink:href="#CMSY10-0" transform="scale(0.996264)"/>
       <use xlink:href="#CMR17-35" transform="translate(77.487468 0) scale(0.996264)"/>
      </g>
     </g>
    </g>
    <g id="ytick_8">
     <g id="line2d_13">
      <path d="M 84.823004 83.718892 
L 553.968 83.718892 
" clip-path="url(#p894dea3624)" style="fill: none; stroke: #cccccc; stroke-linecap: round"/>
     </g>
     <g id="text_14">
      <!-- $\mathdefault{0}$ -->
      <g style="fill: #262626" transform="translate(66.778888 90.187683) scale(0.187 -0.187)">
       <use xlink:href="#CMR17-30" transform="scale(0.996264)"/>
      </g>
     </g>
    </g>
    <g id="ytick_9">
     <g id="line2d_14">
      <path d="M 84.823004 44.996384 
L 553.968 44.996384 
" clip-path="url(#p894dea3624)" style="fill: none; stroke: #cccccc; stroke-linecap: round"/>
     </g>
     <g id="text_15">
      <!-- $\mathdefault{5}$ -->
      <g style="fill: #262626" transform="translate(66.778888 51.465175) scale(0.187 -0.187)">
       <use xlink:href="#CMR17-35" transform="scale(0.996264)"/>
      </g>
     </g>
    </g>
    <g id="text_16">
     <!-- Logarithm of Singular Value -->
     <g style="fill: #262626" transform="translate(35.868997 301.779198) rotate(-90) scale(0.2 -0.2)">
      <defs>
       <path id="CMSS17-4c" d="M 1670 414 
C 1594 414 1517 414 1440 414 
L 1101 414 
L 1101 4416 
L 563 4416 
L 563 0 
L 3002 0 
L 3002 414 
L 1670 414 
z
" transform="scale(0.015625)"/>
       <path id="CMSS17-6f" d="M 2829 1356 
C 2829 2176 2221 2816 1504 2816 
C 768 2816 173 2157 173 1356 
C 173 544 787 -64 1498 -64 
C 2227 -64 2829 563 2829 1356 
z
M 1504 337 
C 1050 337 659 709 659 1408 
C 659 2151 1114 2427 1498 2427 
C 1914 2427 2342 2126 2342 1408 
C 2342 683 1926 337 1504 337 
z
" transform="scale(0.015625)"/>
       <path id="CMSS17-74" d="M 1069 2368 
L 1901 2368 
L 1901 2737 
L 1069 2737 
L 1069 3520 
L 614 3520 
L 614 2737 
L 109 2737 
L 109 2368 
L 602 2368 
L 602 749 
C 602 384 685 -64 1107 -64 
C 1427 -64 1722 25 2003 172 
L 1901 548 
C 1747 414 1562 337 1363 337 
C 1082 337 1069 696 1069 856 
L 1069 2368 
z
" transform="scale(0.015625)"/>
       <path id="CMSS17-68" d="M 2618 1891 
C 2618 2292 2522 2820 1798 2820 
C 1395 2820 1133 2623 947 2407 
L 947 4448 
L 474 4448 
L 474 32 
L 960 32 
L 960 1573 
C 960 1973 1114 2432 1549 2432 
C 2112 2432 2131 2056 2131 1839 
L 2131 32 
L 2618 32 
L 2618 1891 
z
" transform="scale(0.015625)"/>
       <path id="CMSS17-6d" d="M 4288 1877 
C 4288 2308 4179 2816 3462 2816 
C 2982 2816 2694 2516 2566 2331 
C 2451 2670 2182 2816 1798 2816 
C 1363 2816 1088 2568 941 2389 
L 941 2758 
L 474 2758 
L 474 0 
L 960 0 
L 960 1559 
C 960 1939 1101 2428 1555 2428 
C 2138 2428 2138 2016 2138 1829 
L 2138 0 
L 2624 0 
L 2624 1559 
C 2624 1939 2765 2428 3219 2428 
C 3802 2428 3802 2016 3802 1829 
L 3802 0 
L 4288 0 
L 4288 1877 
z
" transform="scale(0.015625)"/>
       <path id="CMSS17-66" d="M 1075 2368 
L 1722 2368 
L 1722 2737 
L 1062 2737 
L 1062 3559 
C 1062 4014 1408 4092 1606 4092 
C 1670 4092 1850 4092 2080 4009 
L 2080 4429 
C 1933 4461 1754 4480 1613 4480 
C 1018 4480 602 3993 602 3359 
L 602 2737 
L 160 2737 
L 160 2368 
L 602 2368 
L 602 0 
L 1075 0 
L 1075 2368 
z
" transform="scale(0.015625)"/>
      </defs>
      <use xlink:href="#CMSS17-4c" transform="scale(0.996264)"/>
      <use xlink:href="#CMSS17-6f" transform="translate(50.687105 0) scale(0.996264)"/>
      <use xlink:href="#CMSS17-67" transform="translate(97.530729 0) scale(0.996264)"/>
      <use xlink:href="#CMSS17-61" transform="translate(144.374352 0) scale(0.996264)"/>
      <use xlink:href="#CMSS17-72" transform="translate(186.693819 0) scale(0.996264)"/>
      <use xlink:href="#CMSS17-69" transform="translate(218.603592 0) scale(0.996264)"/>
      <use xlink:href="#CMSS17-74" transform="translate(240.784315 0) scale(0.996264)"/>
      <use xlink:href="#CMSS17-68" transform="translate(274.615881 0) scale(0.996264)"/>
      <use xlink:href="#CMSS17-6d" transform="translate(322.820824 0) scale(0.996264)"/>
      <use xlink:href="#CMSS17-6f" transform="translate(428.279192 0) scale(0.996264)"/>
      <use xlink:href="#CMSS17-66" transform="translate(475.122815 0) scale(0.996264)"/>
      <use xlink:href="#CMSS17-53" transform="translate(534.978587 0) scale(0.996264)"/>
      <use xlink:href="#CMSS17-69" transform="translate(587.027103 0) scale(0.996264)"/>
      <use xlink:href="#CMSS17-6e" transform="translate(609.207826 0) scale(0.996264)"/>
      <use xlink:href="#CMSS17-67" transform="translate(657.412769 0) scale(0.996264)"/>
      <use xlink:href="#CMSS17-75" transform="translate(704.256393 0) scale(0.996264)"/>
      <use xlink:href="#CMSS17-6c" transform="translate(752.461336 0) scale(0.996264)"/>
      <use xlink:href="#CMSS17-61" transform="translate(774.642059 0) scale(0.996264)"/>
      <use xlink:href="#CMSS17-72" transform="translate(816.961526 0) scale(0.996264)"/>
      <use xlink:href="#CMSS17-56" transform="translate(880.100411 0) scale(0.996264)"/>
      <use xlink:href="#CMSS17-61" transform="translate(939.715812 0) scale(0.996264)"/>
      <use xlink:href="#CMSS17-6c" transform="translate(984.637732 0) scale(0.996264)"/>
      <use xlink:href="#CMSS17-75" transform="translate(1006.818455 0) scale(0.996264)"/>
      <use xlink:href="#CMSS17-65" transform="translate(1055.023399 0) scale(0.996264)"/>
     </g>
    </g>
   </g>
   <g id="line2d_15">
    <path d="M 106.147777 39.935198 
L 106.199845 41.549096 
L 106.356052 53.989133 
L 106.720533 61.035226 
L 107.397428 64.791773 
L 107.605703 66.566006 
L 107.813978 67.971995 
L 107.970184 68.918237 
L 108.282597 70.060011 
L 108.490872 71.033342 
L 108.59501 71.254564 
L 109.844661 76.161514 
L 111.406724 79.711148 
L 111.667068 80.850652 
L 112.343963 82.279905 
L 112.86465 83.825517 
L 113.124994 84.311251 
L 113.645682 85.603393 
L 113.801889 85.725968 
L 114.010164 86.271061 
L 114.218439 86.657025 
L 116.717741 91.892074 
L 116.926016 92.151743 
L 117.082222 92.407971 
L 117.18636 92.549642 
L 117.707048 93.429369 
L 118.123598 94.111074 
L 118.331873 94.54448 
L 118.644286 95.045802 
L 118.90463 95.59851 
L 119.373249 96.614106 
L 119.685662 97.126843 
L 120.310487 98.322297 
L 120.362556 98.375374 
L 120.518762 98.773129 
L 120.883244 99.464831 
L 120.987381 99.584137 
L 121.247725 100.222084 
L 121.403932 100.533504 
L 121.664276 101.173015 
L 122.080826 102.031951 
L 122.34117 102.866954 
L 122.809789 104.268428 
L 122.965995 104.762731 
L 124.371853 109.701677 
L 124.892541 112.662757 
L 124.996678 112.95554 
L 125.257022 115.045533 
L 125.517366 116.696162 
L 126.298398 122.267905 
L 127.07943 126.262885 
L 127.235636 126.852399 
L 127.548049 128.542367 
L 128.277012 131.188461 
L 128.329081 131.260605 
L 128.589425 132.137523 
L 128.641493 132.147186 
L 128.849769 132.662429 
L 129.318388 133.907716 
L 129.995282 135.32164 
L 130.047351 135.34471 
L 130.307695 135.932425 
L 132.025965 138.794262 
L 132.130102 138.942232 
L 132.806997 139.903026 
L 133.53596 140.660827 
L 133.744235 141.011262 
L 134.056648 141.307442 
L 134.681473 142.034482 
L 135.045955 142.393896 
L 135.514574 142.817127 
L 135.826986 143.136511 
L 136.035262 143.36831 
L 136.243537 143.528901 
L 136.451812 143.695672 
L 136.920431 144.100799 
L 137.857669 144.882 
L 138.274219 145.193358 
L 138.638701 145.439427 
L 139.628008 146.157656 
L 139.940421 146.352732 
L 140.200765 146.547625 
L 140.461109 146.734745 
L 140.877659 146.981507 
L 145.511781 149.573091 
L 145.824194 149.724169 
L 146.292813 149.964872 
L 146.553157 150.079986 
L 147.854877 150.669164 
L 148.115221 150.808705 
L 148.479702 150.970549 
L 149.937628 151.579334 
L 150.406247 151.77756 
L 151.13521 152.100195 
L 151.551761 152.229812 
L 152.02038 152.405115 
L 152.801412 152.692878 
L 153.165893 152.856614 
L 154.311406 153.240765 
L 156.498296 153.977697 
L 157.071052 154.158 
L 158.112428 154.509359 
L 158.528978 154.605345 
L 159.205873 154.822599 
L 159.570354 154.94411 
L 159.830698 155.03129 
L 162.434138 155.795018 
L 162.902757 155.939896 
L 164.308614 156.304172 
L 164.621027 156.393645 
L 168.109636 157.320859 
L 171.494107 158.146304 
L 172.431345 158.363714 
L 174.201684 158.784127 
L 177.429949 159.502691 
L 178.106843 159.665625 
L 179.252356 159.897542 
L 190.186802 162.119554 
L 193.050585 162.655225 
L 193.415067 162.72748 
L 195.081268 163.038237 
L 198.726083 163.693965 
L 199.350909 163.802643 
L 200.027803 163.923365 
L 202.527105 164.368602 
L 209.400185 165.538391 
L 210.597767 165.741043 
L 211.899487 165.954472 
L 214.242583 166.346427 
L 218.356017 167.015753 
L 219.866012 167.238035 
L 220.282562 167.324639 
L 221.323938 167.478674 
L 222.93807 167.742598 
L 224.083584 167.913713 
L 225.593579 168.156746 
L 226.530817 168.299789 
L 229.082187 168.687993 
L 229.811151 168.795343 
L 231.164939 169.013918 
L 234.653548 169.545729 
L 235.590786 169.681146 
L 237.517331 169.967489 
L 238.819051 170.168403 
L 239.912496 170.345927 
L 242.568004 170.741825 
L 244.182136 170.976785 
L 261.000355 173.444787 
L 265.165858 174.047327 
L 266.727922 174.276325 
L 268.133779 174.474045 
L 269.38343 174.654144 
L 270.476875 174.809114 
L 282.556834 176.531805 
L 283.025453 176.597593 
L 284.951998 176.885773 
L 288.805088 177.433368 
L 290.158877 177.628532 
L 292.866454 178.020396 
L 299.375053 178.95727 
L 301.561942 179.26567 
L 302.447111 179.403537 
L 303.488487 179.551848 
L 304.842276 179.745762 
L 308.851572 180.331127 
L 313.433626 180.995823 
L 314.214658 181.112922 
L 315.41224 181.281459 
L 319.838087 181.92919 
L 320.931531 182.079672 
L 321.86877 182.228932 
L 324.628415 182.625222 
L 325.878066 182.813161 
L 326.919442 182.963776 
L 327.44013 183.04547 
L 328.845987 183.253282 
L 330.147707 183.450348 
L 332.022183 183.735522 
L 333.89666 184.000965 
L 337.437337 184.545951 
L 338.582851 184.709698 
L 340.873878 185.065854 
L 341.654909 185.183921 
L 345.091449 185.708035 
L 346.601444 185.943189 
L 348.736265 186.271537 
L 349.725572 186.425814 
L 350.871085 186.614745 
L 354.672107 187.198362 
L 361.857599 188.331539 
L 364.617245 188.777249 
L 365.658621 188.936716 
L 366.699997 189.116006 
L 367.84551 189.299367 
L 370.188606 189.681556 
L 371.594463 189.901878 
L 374.30204 190.352587 
L 375.916173 190.626751 
L 376.697204 190.753662 
L 377.73858 190.940589 
L 379.45685 191.229467 
L 380.706501 191.440727 
L 384.455454 192.064776 
L 384.872004 192.140446 
L 385.600967 192.248576 
L 385.91338 192.314667 
L 386.694412 192.46187 
L 387.996132 192.683984 
L 389.714402 192.999659 
L 390.755777 193.186964 
L 391.849222 193.365254 
L 393.20301 193.607802 
L 393.827836 193.731055 
L 401.013329 195.043329 
L 404.501938 195.6853 
L 405.387107 195.848702 
L 406.845033 196.123322 
L 407.730203 196.296589 
L 408.771578 196.491993 
L 409.344335 196.606019 
L 413.613976 197.426837 
L 414.030526 197.510646 
L 415.384315 197.782598 
L 416.946378 198.092552 
L 418.14396 198.322821 
L 436.003555 202.157367 
L 436.732518 202.336049 
L 438.034238 202.637469 
L 439.388026 202.954031 
L 440.898021 203.288799 
L 441.626984 203.459535 
L 442.564222 203.666988 
L 443.08491 203.801024 
L 446.261106 204.581133 
L 446.833863 204.728563 
L 447.614895 204.911319 
L 453.967287 206.541851 
L 454.904525 206.792774 
L 459.330373 208.022296 
L 459.798992 208.135539 
L 460.892436 208.446042 
L 461.465193 208.617813 
L 461.985881 208.757223 
L 462.558637 208.918532 
L 463.183463 209.089738 
L 464.433114 209.464475 
L 466.359659 210.03382 
L 466.776209 210.162541 
L 469.535855 210.998968 
L 470.004474 211.154558 
L 471.4624 211.596481 
L 472.659983 211.998789 
L 474.742734 212.695917 
L 475.315491 212.916194 
L 476.669279 213.35605 
L 477.137898 213.50287 
L 489.009582 218.067587 
L 489.790614 218.401909 
L 490.155096 218.555888 
L 494.997493 220.760439 
L 495.622318 221.084621 
L 496.351282 221.406197 
L 496.663694 221.601709 
L 497.028176 221.764781 
L 497.392657 221.970221 
L 498.069552 222.315634 
L 498.954721 222.783397 
L 499.683684 223.153232 
L 500.048166 223.375564 
L 500.568853 223.64793 
L 500.777129 223.766541 
L 501.245748 224.04031 
L 501.610229 224.248096 
L 501.870573 224.390732 
L 502.182986 224.59737 
L 502.599536 224.843306 
L 503.172293 225.118244 
L 503.536774 225.358881 
L 504.369875 225.922255 
L 504.682288 226.058834 
L 505.255044 226.464617 
L 505.931939 226.862782 
L 506.244351 227.057718 
L 506.556764 227.292783 
L 506.921246 227.491451 
L 507.233658 227.748559 
L 507.441934 227.86785 
L 508.066759 228.3069 
L 508.483309 228.59086 
L 508.847791 228.898831 
L 509.31641 229.208231 
L 509.837098 229.603854 
L 510.149511 229.81566 
L 510.461923 230.072407 
L 510.61813 230.191717 
L 511.190886 230.686627 
L 511.347093 230.780468 
L 511.555368 231.001625 
L 511.971918 231.348575 
L 512.3364 231.714752 
L 513.221569 232.433566 
L 513.377776 232.60507 
L 514.627426 233.728769 
L 515.096046 234.165724 
L 515.564665 234.646441 
L 516.397765 235.522723 
L 517.751554 237.037641 
L 517.959829 237.253876 
L 518.220173 237.566465 
L 518.428448 237.80155 
L 518.688792 238.023461 
L 519.053274 238.536941 
L 519.365686 238.969779 
L 519.573961 239.280457 
L 519.886374 239.700577 
L 520.250856 240.242654 
L 520.459131 240.431809 
L 520.979819 241.237947 
L 522.906364 244.192998 
L 523.06257 244.65583 
L 524.312221 247.020457 
L 524.572565 247.635435 
L 524.884978 248.19949 
L 526.030491 250.857007 
L 526.394973 252.061142 
L 527.176005 254.210572 
L 527.488417 255.400052 
L 528.425656 258.884437 
L 529.154619 261.860637 
L 529.414963 263.498118 
L 529.831513 265.914836 
L 530.039788 267.428052 
L 530.143926 268.21502 
L 530.300132 269.204363 
L 531.133233 276.992023 
L 531.497714 282.149911 
L 531.549783 282.547402 
L 532.070471 295.239633 
L 532.434952 327.00017 
L 532.591159 327.00017 
L 532.643227 336.107403 
L 532.643227 336.107403 
" clip-path="url(#p894dea3624)" style="fill: none; stroke: #4169e1; stroke-width: 3; stroke-linecap: round"/>
   </g>
   <g id="line2d_16">
    <path d="M 106.147777 37.493913 
L 106.408121 59.907342 
L 106.824671 68.81357 
L 106.928808 70.314718 
L 107.137084 73.091045 
L 107.345359 75.864444 
L 107.553634 78.952319 
L 107.70984 80.905889 
L 108.126391 84.721207 
L 108.178459 84.765502 
L 108.647078 88.295952 
L 109.636385 94.847057 
L 109.688454 94.882843 
L 110.938105 101.526613 
L 111.042243 101.77487 
L 111.354656 102.826391 
L 111.614999 104.129118 
L 113.74982 110.811397 
L 114.010164 111.403062 
L 114.374645 112.563735 
L 114.426714 112.598953 
L 114.687058 113.422216 
L 117.082222 119.077359 
L 117.238429 119.365876 
L 119.008768 122.980108 
L 119.112905 123.157147 
L 119.269111 123.587292 
L 119.685662 124.375811 
L 120.674969 126.560013 
L 121.247725 127.701061 
L 121.508069 128.359804 
L 121.716345 128.737558 
L 122.861858 131.450499 
L 122.965995 131.673532 
L 123.122202 131.968684 
L 123.330477 132.689835 
L 123.486683 133.043384 
L 125.36116 138.904222 
L 125.621504 140.206132 
L 126.506673 143.570544 
L 126.975292 144.918046 
L 127.287705 145.875977 
L 128.433218 148.69666 
L 128.485287 148.70687 
L 128.849769 149.415612 
L 129.110113 149.791016 
L 130.568039 152.167081 
L 130.828383 152.410932 
L 131.088727 152.835365 
L 131.921827 153.858042 
L 132.546653 154.650192 
L 135.462505 157.706774 
L 135.774918 157.983381 
L 136.660087 158.832835 
L 137.753532 159.886544 
L 139.52387 161.446054 
L 139.784214 161.640887 
L 140.044558 161.896642 
L 140.148696 161.947063 
L 140.356971 162.159575 
L 143.220754 164.52653 
L 143.637305 164.858035 
L 145.615919 166.441567 
L 146.032469 166.809253 
L 146.240744 166.94168 
L 146.761432 167.407438 
L 151.864173 171.769719 
L 152.645205 172.56338 
L 152.85348 172.719407 
L 153.374168 173.347245 
L 153.582443 173.49046 
L 154.884163 174.966491 
L 155.092438 175.276674 
L 155.196576 175.353597 
L 155.404851 175.649305 
L 155.87347 176.25182 
L 156.75864 177.574831 
L 156.862777 177.725247 
L 157.227259 178.364528 
L 157.487603 178.878526 
L 157.800015 179.655397 
L 158.112428 180.552186 
L 158.164497 180.600381 
L 158.528978 182.587438 
L 158.581047 183.053727 
L 158.945529 192.337356 
L 158.997597 192.454307 
L 159.205873 195.930677 
L 159.466217 199.611907 
L 159.934836 209.532482 
L 160.143111 214.778231 
L 160.299317 318.220556 
L 160.559661 324.107294 
L 532.487021 324.107294 
L 532.643227 329.930155 
L 532.643227 329.930155 
" clip-path="url(#p894dea3624)" style="fill: none; stroke: #87ceeb; stroke-width: 3; stroke-linecap: round"/>
   </g>
   <g id="line2d_17">
    <path d="M 106.147777 57.111678 
L 106.460189 61.462998 
L 106.824671 63.067522 
L 107.085015 63.203364 
L 107.449496 63.496392 
L 107.605703 63.996277 
L 107.970184 64.438016 
L 110.573624 65.819504 
L 110.886036 65.977099 
L 111.094312 66.071382 
L 111.458793 66.216395 
L 111.719137 66.361492 
L 112.03155 66.441844 
L 112.239825 66.543226 
L 112.4481 66.589167 
L 112.656375 66.768158 
L 113.124994 66.895362 
L 116.821878 67.829703 
L 119.425318 68.271791 
L 119.998074 68.414348 
L 120.987381 68.613366 
L 121.768413 68.811587 
L 122.34117 68.943962 
L 123.64289 69.18171 
L 128.172874 69.846296 
L 148.115221 72.306531 
L 166.807916 74.18926 
L 168.369979 74.331523 
L 200.704697 77.950927 
L 202.110555 78.133392 
L 203.724687 78.339749 
L 205.33882 78.551312 
L 207.525709 78.83213 
L 218.408086 80.595171 
L 222.729795 81.484092 
L 223.614965 81.693646 
L 229.915288 83.659122 
L 230.435976 83.875551 
L 230.748389 84.023522 
L 232.466659 84.98789 
L 233.664241 86.084568 
L 234.080791 86.65861 
L 234.289066 86.849788 
L 234.601479 87.676001 
L 234.913892 88.392259 
L 235.070098 88.86475 
L 235.330442 89.324111 
L 235.642855 90.499983 
L 235.799061 91.005468 
L 236.423887 93.112235 
L 237.829744 99.425162 
L 237.933882 99.838201 
L 238.194226 101.186944 
L 238.558707 102.851933 
L 238.610776 102.957598 
L 238.87112 104.36325 
L 238.975257 104.726776 
L 239.339739 106.687207 
L 239.495945 107.081282 
L 241.370422 115.5778 
L 241.682834 116.741509 
L 241.995247 118.196693 
L 242.515935 120.365783 
L 242.932485 121.778115 
L 243.192829 122.5197 
L 244.077999 125.987411 
L 244.338343 126.897626 
L 244.546618 127.575942 
L 245.223512 130.121408 
L 245.379718 130.41187 
L 245.587994 131.15779 
L 245.952475 132.386675 
L 246.16075 132.906124 
L 247.46247 136.710799 
L 247.670745 137.214664 
L 247.826952 137.786148 
L 248.295571 138.981744 
L 248.555915 139.724742 
L 248.868327 140.571138 
L 249.076602 141.196407 
L 250.274185 144.18263 
L 250.378322 144.360067 
L 251.680042 147.500297 
L 251.940386 148.088516 
L 252.252799 148.557517 
L 252.565211 149.28156 
L 252.877624 149.945919 
L 252.981762 150.090037 
L 253.190037 150.585652 
L 253.346243 150.826674 
L 253.658656 151.488658 
L 253.866931 151.817442 
L 254.127275 152.484584 
L 254.33555 152.84223 
L 254.960376 154.020327 
L 255.533132 155.006382 
L 255.689339 155.316291 
L 255.845545 155.510618 
L 257.303471 157.906582 
L 257.511746 158.328326 
L 257.667953 158.536254 
L 257.876228 158.78914 
L 259.282085 160.935636 
L 259.594498 161.36821 
L 259.854842 161.748109 
L 259.958979 161.825841 
L 260.219323 162.265694 
L 260.427598 162.517035 
L 260.583805 162.702795 
L 260.740011 162.840644 
L 261.156562 163.466461 
L 264.749308 167.74044 
L 265.53034 168.510445 
L 265.790684 168.816586 
L 266.259303 169.323987 
L 266.675853 169.700345 
L 266.779991 169.820195 
L 268.96688 171.922987 
L 269.227224 172.140794 
L 269.487568 172.268799 
L 270.424806 173.160259 
L 270.68515 173.370343 
L 270.841356 173.520277 
L 271.934801 174.393894 
L 272.195145 174.605906 
L 272.611695 174.918443 
L 275.475478 176.971757 
L 275.579616 177.018448 
L 275.735822 177.187018 
L 275.996166 177.33576 
L 277.402024 178.24572 
L 277.662368 178.394811 
L 278.755812 179.048689 
L 278.964087 179.234153 
L 279.2765 179.412423 
L 287.555438 183.71655 
L 288.492676 184.168002 
L 289.377845 184.562408 
L 289.794395 184.752344 
L 290.731634 185.186391 
L 291.200253 185.401598 
L 291.929216 185.700134 
L 292.397835 185.872995 
L 292.710248 186.005435 
L 302.08263 189.693122 
L 302.603318 189.874814 
L 302.91573 189.986367 
L 303.696762 190.268515 
L 306.508477 191.289812 
L 307.029165 191.443648 
L 307.497784 191.609649 
L 309.268123 192.190396 
L 309.736742 192.366612 
L 317.078441 194.709295 
L 317.859473 194.952984 
L 319.213261 195.339633 
L 319.629812 195.459348 
L 337.124925 200.482887 
L 338.374576 200.83912 
L 342.279735 201.861282 
L 343.060767 202.0614 
L 344.935243 202.585504 
L 345.716275 202.757769 
L 346.549376 202.984531 
L 347.486614 203.238494 
L 348.319714 203.478471 
L 348.996609 203.646235 
L 352.901768 204.673763 
L 353.526593 204.82299 
L 354.463831 205.063433 
L 354.932451 205.200044 
L 355.713482 205.376952 
L 356.077964 205.47429 
L 357.275546 205.812184 
L 358.004509 205.97864 
L 361.753462 206.910227 
L 362.326219 207.062334 
L 363.784145 207.432122 
L 365.71069 207.903741 
L 366.491722 208.125476 
L 370.8655 209.192224 
L 372.323426 209.561005 
L 374.041696 209.971436 
L 374.458246 210.067566 
L 375.395485 210.303918 
L 377.426167 210.815915 
L 378.415474 211.050716 
L 380.75857 211.625149 
L 381.331327 211.766348 
L 382.320634 212.008853 
L 384.090972 212.426217 
L 417.623273 220.398259 
L 418.039823 220.513128 
L 420.278781 221.043949 
L 421.840844 221.407878 
L 422.673945 221.602966 
L 423.454977 221.812914 
L 423.975665 221.927517 
L 449.333165 228.440551 
L 450.218334 228.681246 
L 451.155573 228.964411 
L 452.925911 229.45632 
L 453.394531 229.582918 
L 454.123494 229.80994 
L 455.321076 230.123884 
L 455.737626 230.284587 
L 456.935208 230.624057 
L 458.236928 231.0224 
L 459.746923 231.47844 
L 471.358263 235.251861 
L 471.774813 235.378147 
L 474.013771 236.178993 
L 474.48239 236.349586 
L 475.055147 236.567135 
L 476.61721 237.150589 
L 477.137898 237.345292 
L 477.658586 237.54745 
L 478.699962 237.958762 
L 479.272719 238.188545 
L 483.282015 239.857224 
L 485.312698 240.718029 
L 485.520973 240.831057 
L 485.833386 240.979014 
L 486.354074 241.26408 
L 486.770624 241.424687 
L 489.217857 242.546028 
L 489.478201 242.712043 
L 490.363371 243.140295 
L 492.13371 244.027358 
L 495.414043 245.864607 
L 495.726456 246.071168 
L 496.351282 246.455504 
L 500.308509 249.059539 
L 500.72506 249.364 
L 501.193679 249.704473 
L 502.078848 250.352652 
L 502.495399 250.627071 
L 502.755743 250.845248 
L 503.224362 251.206624 
L 508.691585 256.441839 
L 509.576754 257.463184 
L 509.889167 257.800822 
L 510.149511 258.19373 
L 510.670198 258.816247 
L 510.982611 259.315895 
L 511.086749 259.432591 
L 512.180193 260.994766 
L 512.544675 261.741295 
L 513.377776 263.092161 
L 513.586051 263.713632 
L 514.106739 264.660053 
L 514.47122 265.518939 
L 514.627426 265.784997 
L 514.991908 266.847935 
L 515.408458 268.080354 
L 515.981215 270.047958 
L 516.449834 272.704849 
L 516.501903 274.078085 
L 516.814316 337.230015 
L 516.970522 337.534198 
L 517.022591 337.534694 
L 517.178797 338.872367 
L 517.543279 338.994077 
L 531.966333 339.734895 
L 532.330815 340.248605 
L 532.487021 340.767495 
L 532.53909 340.825739 
L 532.643227 342.298204 
L 532.643227 342.298204 
" clip-path="url(#p894dea3624)" style="fill: none; stroke: #b22222; stroke-width: 3; stroke-linecap: round"/>
   </g>
   <g id="line2d_18">
    <path d="M 106.147777 43.559164 
L 106.460189 51.649233 
L 106.512258 51.789067 
L 106.980877 55.987057 
L 107.29329 57.312063 
L 107.813978 59.977993 
L 108.855354 62.546516 
L 108.907422 62.584744 
L 109.115698 63.08695 
L 109.323973 63.378077 
L 109.636385 63.94102 
L 109.740523 64.065935 
L 109.948798 64.389883 
L 110.105005 64.693475 
L 110.31328 64.953823 
L 110.573624 65.154845 
L 110.677761 65.21805 
L 111.14638 66.102985 
L 111.406724 66.353651 
L 111.719137 66.69994 
L 112.4481 67.737459 
L 112.604306 68.069347 
L 112.708444 68.136129 
L 112.916719 68.432073 
L 113.177063 68.720871 
L 113.489476 69.161901 
L 113.593613 69.239695 
L 113.853957 69.604221 
L 114.16637 69.873364 
L 114.739127 70.456452 
L 115.05154 70.740516 
L 115.259815 71.068622 
L 115.46809 71.196471 
L 115.780503 71.597198 
L 115.988778 71.764646 
L 118.123598 73.812106 
L 118.331873 73.94191 
L 119.112905 74.549667 
L 119.529455 74.876794 
L 120.102212 75.40906 
L 120.466694 75.823675 
L 120.987381 76.155391 
L 121.612207 76.70431 
L 121.976688 76.892195 
L 122.34117 77.224956 
L 123.64289 78.111237 
L 125.36116 79.155274 
L 125.985985 79.528439 
L 126.402536 79.819267 
L 126.714948 79.983857 
L 128.849769 81.274832 
L 129.370457 81.534842 
L 130.255626 81.9877 
L 130.620107 82.266632 
L 131.088727 82.463745 
L 132.078034 83.015407 
L 132.546653 83.214649 
L 133.327684 83.634034 
L 133.796304 83.809002 
L 134.993886 84.407479 
L 135.25423 84.502281 
L 135.566642 84.670977 
L 135.879055 84.781088 
L 136.191468 84.981818 
L 137.232844 85.434342 
L 137.493188 85.577907 
L 137.857669 85.701399 
L 138.274219 85.903059 
L 139.055251 86.265639 
L 139.575939 86.525512 
L 168.682392 98.720517 
L 168.890667 98.81015 
L 184.146823 105.595266 
L 184.407167 105.725996 
L 184.719579 105.84623 
L 185.031992 106.004756 
L 185.292336 106.163516 
L 186.541987 106.801727 
L 186.906468 106.958147 
L 187.114744 107.117985 
L 187.583363 107.315981 
L 188.051982 107.571307 
L 189.561977 108.367593 
L 190.238871 108.702165 
L 192.373691 109.832439 
L 192.738173 110.020796 
L 194.039892 110.709832 
L 194.404374 110.915614 
L 195.029199 111.265004 
L 195.758163 111.687301 
L 196.435057 112.121308 
L 199.663322 113.873873 
L 199.923666 114.048016 
L 200.652629 114.472863 
L 200.860904 114.618746 
L 201.069179 114.758027 
L 202.214692 115.427773 
L 202.579174 115.633212 
L 203.047793 115.933961 
L 208.358809 119.18884 
L 208.567085 119.32452 
L 209.139841 119.69484 
L 209.296048 119.795736 
L 209.764667 120.109845 
L 210.025011 120.26677 
L 210.701905 120.752879 
L 211.066386 120.987393 
L 211.535006 121.281107 
L 212.888794 122.226001 
L 213.253276 122.468265 
L 213.617757 122.698631 
L 213.826032 122.888611 
L 214.502927 123.371541 
L 215.804646 124.376003 
L 216.429472 124.856332 
L 216.637747 125.052167 
L 218.043604 126.184046 
L 219.761874 127.451753 
L 220.022218 127.680167 
L 220.334631 127.930782 
L 220.542906 128.10429 
L 222.833933 130.189524 
L 223.302552 130.584357 
L 223.667033 130.914396 
L 224.031515 131.301439 
L 224.291859 131.467592 
L 224.500134 131.617177 
L 225.12496 132.183604 
L 225.385303 132.420722 
L 225.905991 132.893239 
L 226.582886 133.527308 
L 226.895298 133.753822 
L 229.186325 135.80372 
L 229.238394 135.8101 
L 229.446669 136.066466 
L 229.811151 136.435932 
L 230.123563 136.778529 
L 232.206315 138.903581 
L 233.091484 139.93066 
L 233.403897 140.195285 
L 233.768378 140.722712 
L 234.289066 141.296334 
L 234.54941 141.604065 
L 238.038019 145.963672 
L 238.87112 147.00431 
L 238.975257 147.154865 
L 239.183533 147.459964 
L 239.235601 147.483056 
L 239.443876 147.918781 
L 239.964564 148.534347 
L 240.224908 149.013199 
L 240.433183 149.258241 
L 241.214215 150.392313 
L 241.42249 150.797102 
L 241.682834 151.15355 
L 242.568004 152.375747 
L 243.036623 153.077912 
L 243.192829 153.188381 
L 243.505242 153.860745 
L 244.286274 155.087216 
L 244.494549 155.587557 
L 244.546618 155.59746 
L 245.015237 156.527485 
L 245.171443 156.707103 
L 245.431787 157.20175 
L 247.566608 161.135833 
L 247.983158 161.976348 
L 248.139364 162.077182 
L 248.347639 162.554314 
L 248.660052 163.118328 
L 248.816259 163.460661 
L 249.024534 163.862691 
L 249.076602 163.883593 
L 249.545222 164.970964 
L 250.430391 166.503647 
L 250.690735 167.042886 
L 250.846941 167.303249 
L 251.211423 168.131368 
L 251.523836 168.664937 
L 252.304867 170.074378 
L 252.565211 170.522845 
L 252.773486 170.827965 
L 253.137968 171.565334 
L 253.554518 172.13045 
L 255.22072 174.621553 
L 255.428995 174.872864 
L 255.585201 175.136479 
L 255.689339 175.231642 
L 256.105889 175.91539 
L 256.210027 176.059304 
L 257.043127 177.119263 
L 257.251402 177.370884 
L 258.605191 179.112272 
L 258.709328 179.188159 
L 258.969672 179.527949 
L 259.230016 179.782414 
L 261.20863 181.879512 
L 261.364837 182.02574 
L 262.354144 183.018757 
L 262.406212 183.040474 
L 262.562419 183.262192 
L 263.135176 183.788268 
L 263.395519 184.010371 
L 263.655863 184.231218 
L 263.864139 184.412233 
L 264.176551 184.653765 
L 265.269996 185.628903 
L 265.478271 185.774577 
L 265.686546 185.953979 
L 265.894821 186.094963 
L 266.36344 186.511626 
L 268.237917 187.921585 
L 268.55033 188.197273 
L 270.164462 189.254711 
L 270.424806 189.483205 
L 270.68515 189.621189 
L 270.893425 189.75966 
L 271.1017 189.905979 
L 271.414113 190.129428 
L 272.40342 190.769435 
L 272.715833 190.953831 
L 272.976177 191.105614 
L 273.288589 191.30043 
L 273.548933 191.493364 
L 274.53824 192.06054 
L 274.902722 192.262287 
L 275.215135 192.485827 
L 275.579616 192.667069 
L 278.183056 194.169221 
L 278.755812 194.434408 
L 279.068225 194.621308 
L 279.484775 194.87121 
L 279.849257 195.042658 
L 280.422013 195.334201 
L 280.838564 195.561051 
L 281.723733 196.029922 
L 282.088215 196.220607 
L 282.400627 196.367354 
L 282.921315 196.609799 
L 283.285797 196.803115 
L 293.387142 201.454931 
L 293.90783 201.654523 
L 294.32438 201.853243 
L 295.313687 202.26815 
L 300.051947 204.185358 
L 300.989185 204.540036 
L 301.561942 204.784255 
L 304.113312 205.743198 
L 304.425725 205.849939 
L 305.362963 206.217207 
L 305.831582 206.352116 
L 306.872958 206.771019 
L 312.652594 208.824117 
L 313.069144 208.999017 
L 314.006382 209.284364 
L 314.52707 209.479004 
L 315.047758 209.655239 
L 315.620515 209.833331 
L 316.349478 210.085523 
L 316.818097 210.254621 
L 317.234647 210.377924 
L 318.276023 210.71935 
L 318.84878 210.916731 
L 323.743246 212.508614 
L 324.992897 212.930978 
L 325.72186 213.145658 
L 334.365279 215.850817 
L 335.406655 216.158873 
L 335.927343 216.328474 
L 338.374576 217.072965 
L 339.988708 217.581892 
L 340.873878 217.8519 
L 343.841798 218.730353 
L 352.641424 221.347191 
L 353.266249 221.509579 
L 353.578662 221.627808 
L 356.182101 222.388073 
L 356.650721 222.519275 
L 359.306229 223.304971 
L 359.67071 223.418743 
L 370.136537 226.537467 
L 370.761362 226.726074 
L 371.229982 226.879201 
L 375.551691 228.166784 
L 376.072379 228.327313 
L 377.009617 228.62579 
L 377.582374 228.781445 
L 379.613057 229.403681 
L 383.466147 230.620109 
L 383.830628 230.739646 
L 388.620957 232.221753 
L 388.93337 232.344447 
L 389.558195 232.532026 
L 391.588878 233.172919 
L 392.421979 233.430802 
L 392.838529 233.579381 
L 406.376414 238.176036 
L 406.688827 238.271086 
L 407.00124 238.390851 
L 409.656748 239.34188 
L 410.229504 239.566609 
L 410.646055 239.701249 
L 413.666045 240.822979 
L 414.082595 240.987831 
L 414.863627 241.257897 
L 415.280177 241.423073 
L 416.165346 241.756181 
L 416.529828 241.907382 
L 417.258791 242.15787 
L 417.831548 242.426483 
L 418.456373 242.650084 
L 419.02913 242.856926 
L 423.142564 244.513221 
L 423.402908 244.645755 
L 423.76739 244.773657 
L 424.18394 244.942919 
L 424.444284 245.049727 
L 424.704628 245.146787 
L 425.173247 245.3432 
L 436.680449 250.558463 
L 437.201137 250.781654 
L 438.971476 251.697457 
L 439.64837 252.038522 
L 449.072821 257.384695 
L 449.437303 257.588529 
L 451.676261 259.05948 
L 452.040742 259.273624 
L 452.301086 259.505753 
L 452.56143 259.646295 
L 452.769705 259.844878 
L 452.97798 259.984806 
L 453.602806 260.365327 
L 453.759012 260.490785 
L 455.373145 261.645432 
L 460.527955 265.764674 
L 460.840367 266.111889 
L 461.413124 266.549066 
L 461.673468 266.874204 
L 461.933812 267.061024 
L 462.142087 267.329089 
L 462.350362 267.464883 
L 462.662775 267.743135 
L 462.87105 267.903531 
L 463.495876 268.596276 
L 463.75622 268.834209 
L 464.120701 269.17525 
L 464.276907 269.317165 
L 464.58932 269.625826 
L 464.849664 269.902815 
L 465.005871 270.08349 
L 465.162077 270.213257 
L 465.370352 270.41646 
L 466.724141 272.007851 
L 467.973791 273.347409 
L 468.077929 273.467721 
L 468.442411 273.99241 
L 468.546548 274.103401 
L 468.806892 274.423645 
L 468.91103 274.622491 
L 469.32758 275.124469 
L 469.587924 275.389535 
L 471.097919 277.351571 
L 471.202056 277.46014 
L 471.4624 278.03384 
L 471.722744 278.360807 
L 472.035157 278.874326 
L 472.087226 278.884474 
L 472.399639 279.451744 
L 472.868258 280.192005 
L 473.024464 280.331534 
L 473.18067 280.590503 
L 473.64929 281.413321 
L 473.909633 281.785877 
L 474.274115 282.489633 
L 474.690665 283.322787 
L 474.89894 283.671063 
L 475.159284 284.273611 
L 475.836179 285.492504 
L 476.148591 286.133269 
L 476.721348 287.158411 
L 476.981692 287.861028 
L 477.242036 288.446849 
L 477.50238 288.927728 
L 478.595824 291.695933 
L 478.8041 292.522967 
L 478.856168 292.545596 
L 480.366163 297.255235 
L 480.730645 298.598122 
L 480.834782 298.820364 
L 481.719952 302.646429 
L 481.980296 304.16405 
L 482.032365 304.214952 
L 482.500984 306.764573 
L 483.334084 312.605945 
L 483.594428 315.475271 
L 483.698566 316.125835 
L 483.906841 319.672873 
L 484.115116 322.145848 
L 484.37546 325.52045 
L 484.79201 331.241831 
L 484.948217 331.950026 
L 532.330815 331.950026 
L 532.591159 340.953366 
L 532.643227 346.732164 
L 532.643227 346.732164 
" clip-path="url(#p894dea3624)" style="fill: none; stroke: #f08080; stroke-width: 3; stroke-linecap: round"/>
   </g>
   <g id="patch_3">
    <path d="M 84.823004 362.194077 
L 84.823004 22.032 
" style="fill: none; stroke: #cccccc; stroke-width: 1.25; stroke-linejoin: miter; stroke-linecap: square"/>
   </g>
   <g id="patch_4">
    <path d="M 553.968 362.194077 
L 553.968 22.032 
" style="fill: none; stroke: #cccccc; stroke-width: 1.25; stroke-linejoin: miter; stroke-linecap: square"/>
   </g>
   <g id="patch_5">
    <path d="M 84.823004 362.194077 
L 553.968 362.194077 
" style="fill: none; stroke: #cccccc; stroke-width: 1.25; stroke-linejoin: miter; stroke-linecap: square"/>
   </g>
   <g id="patch_6">
    <path d="M 84.823004 22.032 
L 553.968 22.032 
" style="fill: none; stroke: #cccccc; stroke-width: 1.25; stroke-linejoin: miter; stroke-linecap: square"/>
   </g>
   <g id="legend_1">
    <g id="patch_7">
     <path d="M 368.70187 117.022785 
L 544.168 117.022785 
Q 546.968 117.022785 546.968 114.222785 
L 546.968 31.832 
Q 546.968 29.032 544.168 29.032 
L 368.70187 29.032 
Q 365.90187 29.032 365.90187 31.832 
L 365.90187 114.222785 
Q 365.90187 117.022785 368.70187 117.022785 
z
" style="fill: #ffffff; opacity: 0.8; stroke: #cccccc; stroke-linejoin: miter"/>
    </g>
    <g id="line2d_19">
     <path d="M 371.50187 40.192772 
L 385.50187 40.192772 
L 399.50187 40.192772 
" style="fill: none; stroke: #4169e1; stroke-width: 3; stroke-linecap: round"/>
    </g>
    <g id="text_17">
     <!-- LuXry (train) -->
     <g style="fill: #262626" transform="translate(410.70187 45.092772) scale(0.14 -0.14)">
      <defs>
       <path id="CMSS17-58" d="M 2214 2329 
L 3661 4416 
L 3072 4416 
L 1952 2762 
L 800 4416 
L 166 4416 
L 1690 2329 
L 83 0 
L 672 0 
L 1952 1941 
L 3277 0 
L 3910 0 
L 2214 2329 
z
" transform="scale(0.015625)"/>
       <path id="CMSS17-79" d="M 2675 2752 
L 2176 2752 
C 1632 1294 1446 702 1434 383 
L 1427 383 
C 1408 696 1126 1460 902 2007 
L 602 2752 
L 83 2752 
L 1216 13 
C 1146 -178 1043 -465 1011 -529 
C 870 -885 774 -885 672 -885 
C 646 -885 442 -885 211 -809 
L 250 -1229 
C 410 -1261 570 -1280 685 -1280 
C 845 -1280 1165 -1280 1459 -497 
L 2675 2752 
z
" transform="scale(0.015625)"/>
       <path id="CMSS17-28" d="M 1613 4768 
C 1267 4417 474 3601 474 1588 
C 474 -433 1267 -1243 1613 -1600 
L 2003 -1600 
C 1216 -784 960 357 960 1581 
C 960 2798 1203 3946 2003 4768 
L 1613 4768 
z
" transform="scale(0.015625)"/>
       <path id="CMSS17-29" d="M 723 -1600 
C 1069 -1249 1862 -433 1862 1581 
C 1862 3601 1069 4411 723 4768 
L 333 4768 
C 1120 3952 1376 2811 1376 1588 
C 1376 370 1133 -778 333 -1600 
L 723 -1600 
z
" transform="scale(0.015625)"/>
      </defs>
      <use xlink:href="#CMSS17-4c" transform="scale(0.996264)"/>
      <use xlink:href="#CMSS17-75" transform="translate(50.687105 0) scale(0.996264)"/>
      <use xlink:href="#CMSS17-58" transform="translate(98.892048 0) scale(0.996264)"/>
      <use xlink:href="#CMSS17-72" transform="translate(161.109903 0) scale(0.996264)"/>
      <use xlink:href="#CMSS17-79" transform="translate(193.019676 0) scale(0.996264)"/>
      <use xlink:href="#CMSS17-28" transform="translate(267.24893 0) scale(0.996264)"/>
      <use xlink:href="#CMSS17-74" transform="translate(303.682845 0) scale(0.996264)"/>
      <use xlink:href="#CMSS17-72" transform="translate(337.514411 0) scale(0.996264)"/>
      <use xlink:href="#CMSS17-61" transform="translate(369.424184 0) scale(0.996264)"/>
      <use xlink:href="#CMSS17-69" transform="translate(414.346104 0) scale(0.996264)"/>
      <use xlink:href="#CMSS17-6e" transform="translate(436.526827 0) scale(0.996264)"/>
      <use xlink:href="#CMSS17-29" transform="translate(484.731771 0) scale(0.996264)"/>
     </g>
    </g>
    <g id="line2d_20">
     <path d="M 371.50187 61.140468 
L 385.50187 61.140468 
L 399.50187 61.140468 
" style="fill: none; stroke: #87ceeb; stroke-width: 3; stroke-linecap: round"/>
    </g>
    <g id="text_18">
     <!-- Downstream (external) -->
     <g style="fill: #262626" transform="translate(410.70187 66.040468) scale(0.14 -0.14)">
      <defs>
       <path id="CMSS17-44" d="M 570 4416 
L 570 0 
L 2144 0 
C 3194 0 4000 980 4000 2170 
C 4000 3398 3194 4416 2144 4416 
L 570 4416 
z
M 1094 357 
L 1094 4059 
L 2003 4059 
C 2861 4059 3475 3277 3475 2170 
C 3475 1107 2867 357 2003 357 
L 1094 357 
z
" transform="scale(0.015625)"/>
       <path id="CMSS17-77" d="M 4013 2752 
L 3526 2752 
L 3187 1601 
C 3117 1358 2918 685 2893 371 
L 2886 371 
C 2874 564 2765 1024 2586 1633 
L 2259 2752 
L 1818 2752 
L 1498 1658 
C 1338 1101 1216 627 1203 371 
L 1197 371 
C 1171 749 909 1633 870 1773 
L 582 2752 
L 83 2752 
L 915 0 
L 1402 0 
C 1734 1096 1990 1943 2010 2370 
C 2022 2160 2131 1707 2195 1484 
L 2618 0 
L 3181 0 
L 4013 2752 
z
" transform="scale(0.015625)"/>
       <path id="CMSS17-73" d="M 2061 2627 
C 1683 2807 1389 2807 1197 2807 
C 742 2807 198 2648 198 2003 
C 198 1359 902 1218 1094 1179 
C 1389 1122 1715 1058 1715 740 
C 1715 337 1254 337 1171 337 
C 915 337 563 407 243 638 
L 166 210 
C 531 0 883 -64 1178 -64 
C 1965 -64 2163 416 2163 781 
C 2163 1094 1984 1305 1862 1401 
C 1651 1568 1574 1587 1050 1696 
C 960 1709 646 1779 646 2066 
C 646 2432 1050 2432 1139 2432 
C 1555 2432 1811 2303 1984 2208 
L 2061 2627 
z
" transform="scale(0.015625)"/>
      </defs>
      <use xlink:href="#CMSS17-44" transform="scale(0.996264)"/>
      <use xlink:href="#CMSS17-6f" transform="translate(67.542842 0) scale(0.996264)"/>
      <use xlink:href="#CMSS17-77" transform="translate(111.784011 0) scale(0.996264)"/>
      <use xlink:href="#CMSS17-6e" transform="translate(175.603556 0) scale(0.996264)"/>
      <use xlink:href="#CMSS17-73" transform="translate(223.808499 0) scale(0.996264)"/>
      <use xlink:href="#CMSS17-74" transform="translate(259.722041 0) scale(0.996264)"/>
      <use xlink:href="#CMSS17-72" transform="translate(293.553608 0) scale(0.996264)"/>
      <use xlink:href="#CMSS17-65" transform="translate(325.463381 0) scale(0.996264)"/>
      <use xlink:href="#CMSS17-61" transform="translate(367.102203 0) scale(0.996264)"/>
      <use xlink:href="#CMSS17-6d" transform="translate(412.024123 0) scale(0.996264)"/>
      <use xlink:href="#CMSS17-28" transform="translate(517.482491 0) scale(0.996264)"/>
      <use xlink:href="#CMSS17-65" transform="translate(553.916405 0) scale(0.996264)"/>
      <use xlink:href="#CMSS17-78" transform="translate(595.555227 0) scale(0.996264)"/>
      <use xlink:href="#CMSS17-74" transform="translate(638.555369 0) scale(0.996264)"/>
      <use xlink:href="#CMSS17-65" transform="translate(672.386935 0) scale(0.996264)"/>
      <use xlink:href="#CMSS17-72" transform="translate(714.025757 0) scale(0.996264)"/>
      <use xlink:href="#CMSS17-6e" transform="translate(745.93553 0) scale(0.996264)"/>
      <use xlink:href="#CMSS17-61" transform="translate(794.140473 0) scale(0.996264)"/>
      <use xlink:href="#CMSS17-6c" transform="translate(839.062394 0) scale(0.996264)"/>
      <use xlink:href="#CMSS17-29" transform="translate(861.243117 0) scale(0.996264)"/>
     </g>
    </g>
    <g id="line2d_21">
     <path d="M 371.50187 82.088164 
L 385.50187 82.088164 
L 399.50187 82.088164 
" style="fill: none; stroke: #b22222; stroke-width: 3; stroke-linecap: round"/>
    </g>
    <g id="text_19">
     <!-- ImageNet (train) -->
     <g style="fill: #262626" transform="translate(410.70187 86.988164) scale(0.14 -0.14)">
      <defs>
       <path id="CMSS17-4e" d="M 1466 4180 
L 1350 4416 
L 563 4416 
L 563 0 
L 1062 0 
L 1062 3926 
L 1069 3932 
C 1114 3817 1139 3760 1402 3194 
L 2771 236 
L 2886 0 
L 3674 0 
L 3674 4416 
L 3174 4416 
L 3174 490 
L 3168 483 
C 3123 598 3098 655 2835 1221 
L 1466 4180 
z
" transform="scale(0.015625)"/>
      </defs>
      <use xlink:href="#CMSS17-49" transform="scale(0.996264)"/>
      <use xlink:href="#CMSS17-6d" transform="translate(25.783926 0) scale(0.996264)"/>
      <use xlink:href="#CMSS17-61" transform="translate(100.01318 0) scale(0.996264)"/>
      <use xlink:href="#CMSS17-67" transform="translate(144.935101 0) scale(0.996264)"/>
      <use xlink:href="#CMSS17-65" transform="translate(191.778724 0) scale(0.996264)"/>
      <use xlink:href="#CMSS17-4e" transform="translate(233.417546 0) scale(0.996264)"/>
      <use xlink:href="#CMSS17-65" transform="translate(299.479065 0) scale(0.996264)"/>
      <use xlink:href="#CMSS17-74" transform="translate(341.117887 0) scale(0.996264)"/>
      <use xlink:href="#CMSS17-28" transform="translate(406.178567 0) scale(0.996264)"/>
      <use xlink:href="#CMSS17-74" transform="translate(442.612481 0) scale(0.996264)"/>
      <use xlink:href="#CMSS17-72" transform="translate(476.444048 0) scale(0.996264)"/>
      <use xlink:href="#CMSS17-61" transform="translate(508.35382 0) scale(0.996264)"/>
      <use xlink:href="#CMSS17-69" transform="translate(553.275741 0) scale(0.996264)"/>
      <use xlink:href="#CMSS17-6e" transform="translate(575.456464 0) scale(0.996264)"/>
      <use xlink:href="#CMSS17-29" transform="translate(623.661407 0) scale(0.996264)"/>
     </g>
    </g>
    <g id="line2d_22">
     <path d="M 371.50187 103.035861 
L 385.50187 103.035861 
L 399.50187 103.035861 
" style="fill: none; stroke: #f08080; stroke-width: 3; stroke-linecap: round"/>
    </g>
    <g id="text_20">
     <!-- COCO (external) -->
     <g style="fill: #262626" transform="translate(410.70187 107.935861) scale(0.14 -0.14)">
      <defs>
       <path id="CMSS17-43" d="M 3501 714 
C 3072 427 2874 344 2355 344 
C 1459 344 934 1303 934 2179 
C 934 3112 1472 4032 2381 4032 
C 2790 4032 3059 3918 3386 3715 
L 3475 4217 
C 3168 4370 2778 4440 2387 4440 
C 1158 4440 397 3316 397 2179 
C 397 927 1299 -64 2323 -64 
C 2874 -64 3066 -19 3539 280 
L 3501 714 
z
" transform="scale(0.015625)"/>
       <path id="CMSS17-4f" d="M 4096 2178 
C 4096 3503 3219 4497 2214 4497 
C 1210 4497 333 3497 333 2178 
C 333 847 1222 -128 2214 -128 
C 3206 -128 4096 847 4096 2178 
z
M 2214 273 
C 1510 273 870 1057 870 2261 
C 870 3433 1549 4096 2214 4096 
C 2880 4096 3558 3433 3558 2261 
C 3558 1051 2912 273 2214 273 
z
" transform="scale(0.015625)"/>
      </defs>
      <use xlink:href="#CMSS17-43" transform="scale(0.996264)"/>
      <use xlink:href="#CMSS17-4f" transform="translate(59.855772 0) scale(0.996264)"/>
      <use xlink:href="#CMSS17-43" transform="translate(128.880027 0) scale(0.996264)"/>
      <use xlink:href="#CMSS17-4f" transform="translate(188.735798 0) scale(0.996264)"/>
      <use xlink:href="#CMSS17-28" transform="translate(288.989167 0) scale(0.996264)"/>
      <use xlink:href="#CMSS17-65" transform="translate(325.423081 0) scale(0.996264)"/>
      <use xlink:href="#CMSS17-78" transform="translate(367.061903 0) scale(0.996264)"/>
      <use xlink:href="#CMSS17-74" transform="translate(410.062045 0) scale(0.996264)"/>
      <use xlink:href="#CMSS17-65" transform="translate(443.893611 0) scale(0.996264)"/>
      <use xlink:href="#CMSS17-72" transform="translate(485.532433 0) scale(0.996264)"/>
      <use xlink:href="#CMSS17-6e" transform="translate(517.442206 0) scale(0.996264)"/>
      <use xlink:href="#CMSS17-61" transform="translate(565.647149 0) scale(0.996264)"/>
      <use xlink:href="#CMSS17-6c" transform="translate(610.56907 0) scale(0.996264)"/>
      <use xlink:href="#CMSS17-29" transform="translate(632.749793 0) scale(0.996264)"/>
     </g>
    </g>
   </g>
  </g>
 </g>
 <defs>
  <clipPath id="p894dea3624">
   <rect x="84.823004" y="22.032" width="469.144996" height="340.162077"/>
  </clipPath>
 </defs>
</svg>
