<?xml version="1.0" encoding="utf-8" standalone="no"?>
<!DOCTYPE svg PUBLIC "-//W3C//DTD SVG 1.1//EN"
  "http://www.w3.org/Graphics/SVG/1.1/DTD/svg11.dtd">
<svg xmlns:xlink="http://www.w3.org/1999/xlink" width="576pt" height="432pt" viewBox="0 0 576 432" xmlns="http://www.w3.org/2000/svg" version="1.1">
 <metadata>
  <rdf:RDF xmlns:dc="http://purl.org/dc/elements/1.1/" xmlns:cc="http://creativecommons.org/ns#" xmlns:rdf="http://www.w3.org/1999/02/22-rdf-syntax-ns#">
   <cc:Work>
    <dc:type rdf:resource="http://purl.org/dc/dcmitype/StillImage"/>
    <dc:date>2024-06-07T10:18:28.837292</dc:date>
    <dc:format>image/svg+xml</dc:format>
    <dc:creator>
     <cc:Agent>
      <dc:title>Matplotlib v3.8.3, https://matplotlib.org/</dc:title>
     </cc:Agent>
    </dc:creator>
   </cc:Work>
  </rdf:RDF>
 </metadata>
 <defs>
  <style type="text/css">*{stroke-linejoin: round; stroke-linecap: butt}</style>
 </defs>
 <g id="figure_1">
  <g id="patch_1">
   <path d="M 0 432 
L 576 432 
L 576 0 
L 0 0 
z
" style="fill: #ffffff"/>
  </g>
  <g id="axes_1">
   <g id="patch_2">
    <path d="M 77.762501 368.506804 
L 556.56 368.506804 
L 556.56 19.945052 
L 77.762501 19.945052 
z
" style="fill: #ffffff"/>
   </g>
   <g id="matplotlib.axis_1">
    <g id="xtick_1">
     <g id="line2d_1">
      <path d="M 99.526024 368.506804 
L 99.526024 19.945052 
" clip-path="url(#pabababf4fc)" style="fill: none; stroke: #cccccc; stroke-linecap: round"/>
     </g>
     <g id="text_1">
      <!-- $\mathdefault{0}$ -->
      <g style="fill: #262626" transform="translate(95.502097 389.422309) scale(0.165 -0.165)">
       <defs>
        <path id="CMR17-30" d="M 2688 2025 
C 2688 2416 2682 3080 2413 3591 
C 2176 4039 1798 4198 1466 4198 
C 1158 4198 768 4058 525 3597 
C 269 3118 243 2524 243 2025 
C 243 1661 250 1106 448 619 
C 723 -39 1216 -128 1466 -128 
C 1760 -128 2208 -7 2470 600 
C 2662 1042 2688 1559 2688 2025 
z
M 1466 -26 
C 1056 -26 813 325 723 812 
C 653 1188 653 1738 653 2096 
C 653 2588 653 2997 736 3387 
C 858 3929 1216 4096 1466 4096 
C 1728 4096 2067 3923 2189 3400 
C 2272 3036 2278 2607 2278 2096 
C 2278 1680 2278 1169 2202 792 
C 2067 95 1690 -26 1466 -26 
z
" transform="scale(0.015625)"/>
       </defs>
       <use xlink:href="#CMR17-30" transform="scale(0.996264)"/>
      </g>
     </g>
    </g>
    <g id="xtick_2">
     <g id="line2d_2">
      <path d="M 205.806198 368.506804 
L 205.806198 19.945052 
" clip-path="url(#pabababf4fc)" style="fill: none; stroke: #cccccc; stroke-linecap: round"/>
     </g>
     <g id="text_2">
      <!-- $\mathdefault{2000}$ -->
      <g style="fill: #262626" transform="translate(189.71049 389.422309) scale(0.165 -0.165)">
       <defs>
        <path id="CMR17-32" d="M 2669 989 
L 2554 989 
C 2490 536 2438 459 2413 420 
C 2381 369 1920 369 1830 369 
L 602 369 
C 832 619 1280 1072 1824 1597 
C 2214 1967 2669 2402 2669 3035 
C 2669 3790 2067 4224 1395 4224 
C 691 4224 262 3604 262 3030 
C 262 2780 448 2748 525 2748 
C 589 2748 781 2787 781 3010 
C 781 3207 614 3264 525 3264 
C 486 3264 448 3258 422 3245 
C 544 3790 915 4058 1306 4058 
C 1862 4058 2227 3617 2227 3035 
C 2227 2479 1901 2000 1536 1584 
L 262 146 
L 262 0 
L 2515 0 
L 2669 989 
z
" transform="scale(0.015625)"/>
       </defs>
       <use xlink:href="#CMR17-32" transform="scale(0.996264)"/>
       <use xlink:href="#CMR17-30" transform="translate(45.690477 0) scale(0.996264)"/>
       <use xlink:href="#CMR17-30" transform="translate(91.380954 0) scale(0.996264)"/>
       <use xlink:href="#CMR17-30" transform="translate(137.071431 0) scale(0.996264)"/>
      </g>
     </g>
    </g>
    <g id="xtick_3">
     <g id="line2d_3">
      <path d="M 312.086372 368.506804 
L 312.086372 19.945052 
" clip-path="url(#pabababf4fc)" style="fill: none; stroke: #cccccc; stroke-linecap: round"/>
     </g>
     <g id="text_3">
      <!-- $\mathdefault{4000}$ -->
      <g style="fill: #262626" transform="translate(295.990664 389.422309) scale(0.165 -0.165)">
       <defs>
        <path id="CMR17-34" d="M 2150 4122 
C 2150 4256 2144 4256 2029 4256 
L 128 1254 
L 128 1088 
L 1779 1088 
L 1779 457 
C 1779 224 1766 160 1318 160 
L 1197 160 
L 1197 0 
C 1402 0 1747 0 1965 0 
C 2182 0 2528 0 2733 0 
L 2733 160 
L 2611 160 
C 2163 160 2150 224 2150 457 
L 2150 1088 
L 2803 1088 
L 2803 1254 
L 2150 1254 
L 2150 4122 
z
M 1798 3703 
L 1798 1254 
L 256 1254 
L 1798 3703 
z
" transform="scale(0.015625)"/>
       </defs>
       <use xlink:href="#CMR17-34" transform="scale(0.996264)"/>
       <use xlink:href="#CMR17-30" transform="translate(45.690477 0) scale(0.996264)"/>
       <use xlink:href="#CMR17-30" transform="translate(91.380954 0) scale(0.996264)"/>
       <use xlink:href="#CMR17-30" transform="translate(137.071431 0) scale(0.996264)"/>
      </g>
     </g>
    </g>
    <g id="xtick_4">
     <g id="line2d_4">
      <path d="M 418.366546 368.506804 
L 418.366546 19.945052 
" clip-path="url(#pabababf4fc)" style="fill: none; stroke: #cccccc; stroke-linecap: round"/>
     </g>
     <g id="text_4">
      <!-- $\mathdefault{6000}$ -->
      <g style="fill: #262626" transform="translate(402.270838 389.422309) scale(0.165 -0.165)">
       <defs>
        <path id="CMR17-36" d="M 678 2176 
C 678 3690 1395 4032 1811 4032 
C 1946 4032 2272 4009 2400 3776 
C 2298 3776 2106 3776 2106 3553 
C 2106 3381 2246 3323 2336 3323 
C 2394 3323 2566 3348 2566 3560 
C 2566 3954 2246 4179 1805 4179 
C 1043 4179 243 3390 243 1984 
C 243 253 966 -128 1478 -128 
C 2099 -128 2688 427 2688 1283 
C 2688 2081 2170 2662 1517 2662 
C 1126 2662 838 2407 678 1960 
L 678 2176 
z
M 1478 25 
C 691 25 691 1200 691 1436 
C 691 1896 909 2560 1504 2560 
C 1613 2560 1926 2560 2138 2120 
C 2253 1870 2253 1609 2253 1289 
C 2253 944 2253 690 2118 434 
C 1978 171 1773 25 1478 25 
z
" transform="scale(0.015625)"/>
       </defs>
       <use xlink:href="#CMR17-36" transform="scale(0.996264)"/>
       <use xlink:href="#CMR17-30" transform="translate(45.690477 0) scale(0.996264)"/>
       <use xlink:href="#CMR17-30" transform="translate(91.380954 0) scale(0.996264)"/>
       <use xlink:href="#CMR17-30" transform="translate(137.071431 0) scale(0.996264)"/>
      </g>
     </g>
    </g>
    <g id="xtick_5">
     <g id="line2d_5">
      <path d="M 524.646721 368.506804 
L 524.646721 19.945052 
" clip-path="url(#pabababf4fc)" style="fill: none; stroke: #cccccc; stroke-linecap: round"/>
     </g>
     <g id="text_5">
      <!-- $\mathdefault{8000}$ -->
      <g style="fill: #262626" transform="translate(508.551013 389.422309) scale(0.165 -0.165)">
       <defs>
        <path id="CMR17-38" d="M 1741 2264 
C 2144 2467 2554 2773 2554 3263 
C 2554 3841 1990 4179 1472 4179 
C 890 4179 378 3759 378 3180 
C 378 3021 416 2747 666 2505 
C 730 2442 998 2251 1171 2130 
C 883 1983 211 1634 211 934 
C 211 279 838 -128 1459 -128 
C 2144 -128 2720 362 2720 1010 
C 2720 1590 2330 1857 2074 2029 
L 1741 2264 
z
M 902 2822 
C 851 2854 595 3051 595 3351 
C 595 3739 998 4032 1459 4032 
C 1965 4032 2336 3676 2336 3262 
C 2336 2669 1670 2331 1638 2331 
C 1632 2331 1626 2331 1574 2370 
L 902 2822 
z
M 2080 1519 
C 2176 1449 2483 1240 2483 851 
C 2483 381 2010 25 1472 25 
C 890 25 448 438 448 940 
C 448 1443 838 1862 1280 2060 
L 2080 1519 
z
" transform="scale(0.015625)"/>
       </defs>
       <use xlink:href="#CMR17-38" transform="scale(0.996264)"/>
       <use xlink:href="#CMR17-30" transform="translate(45.690477 0) scale(0.996264)"/>
       <use xlink:href="#CMR17-30" transform="translate(91.380954 0) scale(0.996264)"/>
       <use xlink:href="#CMR17-30" transform="translate(137.071431 0) scale(0.996264)"/>
      </g>
     </g>
    </g>
    <g id="text_6">
     <!-- Singular Value Rank Index -->
     <g style="fill: #262626" transform="translate(224.450505 409.071936) scale(0.18 -0.18)">
      <defs>
       <path id="CMSS17-53" d="M 2797 4169 
C 2515 4334 2208 4480 1690 4480 
C 864 4480 333 3879 333 3266 
C 333 3025 403 2753 653 2475 
C 902 2196 1184 2121 1542 2033 
C 1690 1994 1939 1924 1984 1906 
C 2342 1767 2515 1444 2515 1140 
C 2515 742 2202 318 1645 318 
C 1453 318 890 318 358 819 
L 269 318 
C 794 -64 1363 -128 1651 -128 
C 2438 -128 3002 488 3002 1186 
C 3002 1440 2925 1763 2656 2061 
C 2394 2347 2163 2410 1638 2549 
C 1338 2626 1146 2677 986 2873 
C 877 3013 819 3146 819 3317 
C 819 3673 1126 4060 1690 4060 
C 1971 4060 2336 4002 2707 3660 
L 2797 4169 
z
" transform="scale(0.015625)"/>
       <path id="CMSS17-69" d="M 979 4183 
L 442 4183 
L 442 3648 
L 979 3648 
L 979 4183 
z
M 947 2739 
L 474 2739 
L 474 0 
L 947 0 
L 947 2739 
z
" transform="scale(0.015625)"/>
       <path id="CMSS17-6e" d="M 2618 1877 
C 2618 2283 2522 2816 1798 2816 
C 1389 2816 1120 2606 941 2389 
L 941 2758 
L 474 2758 
L 474 0 
L 960 0 
L 960 1559 
C 960 1964 1114 2428 1549 2428 
C 2112 2428 2131 2048 2131 1829 
L 2131 0 
L 2618 0 
L 2618 1877 
z
" transform="scale(0.015625)"/>
       <path id="CMSS17-67" d="M 2848 2808 
C 2483 2808 2170 2738 1914 2617 
C 1702 2777 1485 2808 1338 2808 
C 781 2808 358 2349 358 1814 
C 358 1468 550 1207 563 1195 
C 448 1035 384 863 384 672 
C 384 448 474 289 544 200 
C 211 -3 166 -314 166 -435 
C 166 -898 749 -1280 1498 -1280 
C 2253 -1280 2835 -898 2835 -428 
C 2835 448 1856 448 1587 448 
L 1069 448 
C 973 448 717 448 717 791 
C 717 921 774 1004 781 1010 
C 877 940 1075 832 1338 832 
C 1869 832 2310 1278 2310 1827 
C 2310 2132 2170 2355 2112 2432 
L 2131 2432 
C 2150 2432 2419 2432 2515 2432 
C 2720 2432 2739 2429 2918 2419 
L 2848 2808 
z
M 1338 1182 
C 1120 1182 813 1315 813 1823 
C 813 2375 1165 2464 1331 2464 
C 1549 2464 1856 2331 1856 1823 
C 1856 1271 1504 1182 1338 1182 
z
M 1581 -10 
C 1734 -10 2381 -10 2381 -442 
C 2381 -714 1984 -929 1504 -929 
C 1018 -929 621 -720 621 -435 
C 621 -403 621 -10 1062 -10 
L 1581 -10 
z
" transform="scale(0.015625)"/>
       <path id="CMSS17-75" d="M 2618 2739 
L 2131 2739 
L 2131 972 
C 2131 498 1786 306 1421 306 
C 998 306 960 447 960 709 
L 960 2739 
L 474 2739 
L 474 678 
C 474 179 646 -64 1088 -64 
C 1306 -64 1798 -13 2144 306 
L 2144 0 
L 2618 0 
L 2618 2739 
z
" transform="scale(0.015625)"/>
       <path id="CMSS17-6c" d="M 947 4416 
L 474 4416 
L 474 0 
L 947 0 
L 947 4416 
z
" transform="scale(0.015625)"/>
       <path id="CMSS17-61" d="M 2406 1791 
C 2406 2392 1978 2808 1402 2808 
C 1120 2808 813 2757 461 2553 
L 499 2135 
C 659 2248 934 2432 1395 2432 
C 1722 2432 1920 2180 1920 1782 
L 1920 1536 
C 896 1536 256 1238 256 726 
C 256 461 416 -64 947 -64 
C 1043 -64 1562 -64 1933 217 
L 1933 -19 
L 2406 -19 
L 2406 1791 
z
M 1920 816 
C 1920 701 1920 548 1728 434 
C 1562 325 1350 325 1261 325 
C 941 325 723 511 723 744 
C 723 1211 1722 1211 1920 1211 
L 1920 816 
z
" transform="scale(0.015625)"/>
       <path id="CMSS17-72" d="M 954 1363 
C 954 1965 1395 2368 1958 2368 
L 1958 2789 
C 1549 2789 1165 2585 934 2253 
L 934 2758 
L 480 2758 
L 480 0 
L 954 0 
L 954 1363 
z
" transform="scale(0.015625)"/>
       <path id="CMSS17-56" d="M 3910 4416 
L 3411 4416 
L 2304 1362 
C 2272 1273 2074 688 2035 484 
L 2029 484 
C 1978 726 1773 1292 1664 1604 
L 922 3672 
L 646 4416 
L 83 4416 
L 1715 0 
L 2278 0 
L 3910 4416 
z
" transform="scale(0.015625)"/>
       <path id="CMSS17-65" d="M 2502 1377 
C 2502 1590 2490 2003 2285 2345 
C 2061 2713 1696 2816 1421 2816 
C 755 2816 192 2188 192 1375 
C 192 582 774 -64 1510 -64 
C 1798 -64 2150 19 2470 248 
C 2470 274 2458 414 2451 420 
C 2451 433 2432 630 2432 656 
C 2125 407 1773 325 1517 325 
C 1107 325 666 667 646 1377 
L 2502 1377 
z
M 698 1728 
C 781 2084 1062 2421 1421 2421 
C 1517 2421 1965 2421 2080 1728 
L 698 1728 
z
" transform="scale(0.015625)"/>
       <path id="CMSS17-52" d="M 2522 2109 
L 2534 2115 
C 3533 2459 3539 3147 3539 3268 
C 3539 3873 2925 4453 2003 4453 
L 570 4453 
L 570 32 
L 1094 32 
L 1094 2048 
L 2035 2048 
L 3168 32 
L 3706 32 
L 2522 2109 
z
M 1094 2437 
L 1094 4096 
L 1933 4096 
C 2746 4096 3034 3637 3034 3267 
C 3034 2922 2778 2437 1933 2437 
L 1094 2437 
z
" transform="scale(0.015625)"/>
       <path id="CMSS17-6b" d="M 1696 1688 
L 2688 2739 
L 2074 2739 
L 954 1554 
L 954 4416 
L 480 4416 
L 480 0 
L 947 0 
L 947 892 
L 1376 1344 
L 2278 0 
L 2822 0 
L 1696 1688 
z
" transform="scale(0.015625)"/>
       <path id="CMSS17-49" d="M 1094 4416 
L 557 4416 
L 557 0 
L 1094 0 
L 1094 4416 
z
" transform="scale(0.015625)"/>
       <path id="CMSS17-64" d="M 2611 4416 
L 2138 4416 
L 2138 2438 
C 1939 2603 1613 2756 1254 2756 
C 672 2756 211 2131 211 1347 
C 211 562 666 -64 1235 -64 
C 1677 -64 1971 172 2125 306 
L 2125 -13 
L 2611 -13 
L 2611 4416 
z
M 2125 836 
C 2125 747 2125 653 1926 482 
C 1798 375 1645 325 1498 325 
C 1152 325 698 576 698 1340 
C 698 2134 1210 2368 1562 2368 
C 1798 2368 1990 2254 2125 2065 
L 2125 836 
z
" transform="scale(0.015625)"/>
       <path id="CMSS17-78" d="M 1587 1414 
L 2656 2739 
L 2099 2739 
L 1363 1777 
L 602 2739 
L 32 2739 
L 1139 1414 
L 0 0 
L 563 0 
L 1363 1121 
L 2195 0 
L 2758 0 
L 1587 1414 
z
" transform="scale(0.015625)"/>
      </defs>
      <use xlink:href="#CMSS17-53" transform="scale(0.996264)"/>
      <use xlink:href="#CMSS17-69" transform="translate(52.048516 0) scale(0.996264)"/>
      <use xlink:href="#CMSS17-6e" transform="translate(74.229239 0) scale(0.996264)"/>
      <use xlink:href="#CMSS17-67" transform="translate(122.434182 0) scale(0.996264)"/>
      <use xlink:href="#CMSS17-75" transform="translate(169.277806 0) scale(0.996264)"/>
      <use xlink:href="#CMSS17-6c" transform="translate(217.482749 0) scale(0.996264)"/>
      <use xlink:href="#CMSS17-61" transform="translate(239.663472 0) scale(0.996264)"/>
      <use xlink:href="#CMSS17-72" transform="translate(281.982939 0) scale(0.996264)"/>
      <use xlink:href="#CMSS17-56" transform="translate(345.121824 0) scale(0.996264)"/>
      <use xlink:href="#CMSS17-61" transform="translate(404.737225 0) scale(0.996264)"/>
      <use xlink:href="#CMSS17-6c" transform="translate(449.659146 0) scale(0.996264)"/>
      <use xlink:href="#CMSS17-75" transform="translate(471.839869 0) scale(0.996264)"/>
      <use xlink:href="#CMSS17-65" transform="translate(520.044812 0) scale(0.996264)"/>
      <use xlink:href="#CMSS17-52" transform="translate(592.912747 0) scale(0.996264)"/>
      <use xlink:href="#CMSS17-61" transform="translate(653.328902 0) scale(0.996264)"/>
      <use xlink:href="#CMSS17-6e" transform="translate(698.250822 0) scale(0.996264)"/>
      <use xlink:href="#CMSS17-6b" transform="translate(746.455765 0) scale(0.996264)"/>
      <use xlink:href="#CMSS17-49" transform="translate(823.287367 0) scale(0.996264)"/>
      <use xlink:href="#CMSS17-6e" transform="translate(849.071293 0) scale(0.996264)"/>
      <use xlink:href="#CMSS17-64" transform="translate(897.276236 0) scale(0.996264)"/>
      <use xlink:href="#CMSS17-65" transform="translate(945.481179 0) scale(0.996264)"/>
      <use xlink:href="#CMSS17-78" transform="translate(987.120001 0) scale(0.996264)"/>
     </g>
    </g>
   </g>
   <g id="matplotlib.axis_2">
    <g id="ytick_1">
     <g id="line2d_6">
      <path d="M 77.762501 354.021847 
L 556.56 354.021847 
" clip-path="url(#pabababf4fc)" style="fill: none; stroke: #cccccc; stroke-linecap: round"/>
     </g>
     <g id="text_7">
      <!-- $\mathdefault{−35}$ -->
      <g style="fill: #262626" transform="translate(39.381364 359.729599) scale(0.165 -0.165)">
       <defs>
        <path id="CMSY10-0" d="M 4218 1472 
C 4326 1472 4442 1472 4442 1600 
C 4442 1728 4326 1728 4218 1728 
L 755 1728 
C 646 1728 531 1728 531 1600 
C 531 1472 646 1472 755 1472 
L 4218 1472 
z
" transform="scale(0.015625)"/>
        <path id="CMR17-33" d="M 1414 2157 
C 1984 2157 2234 1662 2234 1090 
C 2234 320 1824 25 1453 25 
C 1114 25 563 194 390 693 
C 422 680 454 680 486 680 
C 640 680 755 782 755 948 
C 755 1133 614 1216 486 1216 
C 378 1216 211 1165 211 926 
C 211 335 787 -128 1466 -128 
C 2176 -128 2720 430 2720 1085 
C 2720 1707 2208 2157 1600 2227 
C 2086 2328 2554 2756 2554 3329 
C 2554 3820 2048 4179 1472 4179 
C 890 4179 378 3829 378 3329 
C 378 3110 544 3072 627 3072 
C 762 3072 877 3155 877 3321 
C 877 3486 762 3569 627 3569 
C 602 3569 570 3569 544 3557 
C 730 3959 1235 4032 1459 4032 
C 1683 4032 2106 3925 2106 3320 
C 2106 3143 2080 2828 1862 2550 
C 1670 2304 1453 2304 1242 2284 
C 1210 2284 1062 2269 1037 2269 
C 992 2263 966 2257 966 2208 
C 966 2163 973 2157 1101 2157 
L 1414 2157 
z
" transform="scale(0.015625)"/>
        <path id="CMR17-35" d="M 730 3692 
C 794 3666 1056 3584 1325 3584 
C 1920 3584 2246 3911 2432 4100 
C 2432 4157 2432 4192 2394 4192 
C 2387 4192 2374 4192 2323 4163 
C 2099 4058 1837 3973 1517 3973 
C 1325 3973 1037 3999 723 4139 
C 653 4171 640 4171 634 4171 
C 602 4171 595 4164 595 4037 
L 595 2203 
C 595 2089 595 2057 659 2057 
C 691 2057 704 2070 736 2114 
C 941 2401 1222 2522 1542 2522 
C 1766 2522 2246 2382 2246 1289 
C 2246 1085 2246 715 2054 421 
C 1894 159 1645 25 1370 25 
C 947 25 518 320 403 814 
C 429 807 480 795 506 795 
C 589 795 749 840 749 1038 
C 749 1210 627 1280 506 1280 
C 358 1280 262 1190 262 1011 
C 262 454 704 -128 1382 -128 
C 2042 -128 2669 440 2669 1264 
C 2669 2030 2170 2624 1549 2624 
C 1222 2624 947 2503 730 2274 
L 730 3692 
z
" transform="scale(0.015625)"/>
       </defs>
       <use xlink:href="#CMSY10-0" transform="scale(0.996264)"/>
       <use xlink:href="#CMR17-33" transform="translate(77.487468 0) scale(0.996264)"/>
       <use xlink:href="#CMR17-35" transform="translate(123.177945 0) scale(0.996264)"/>
      </g>
     </g>
    </g>
    <g id="ytick_2">
     <g id="line2d_7">
      <path d="M 77.762501 312.943713 
L 556.56 312.943713 
" clip-path="url(#pabababf4fc)" style="fill: none; stroke: #cccccc; stroke-linecap: round"/>
     </g>
     <g id="text_8">
      <!-- $\mathdefault{−30}$ -->
      <g style="fill: #262626" transform="translate(39.381364 318.651466) scale(0.165 -0.165)">
       <use xlink:href="#CMSY10-0" transform="scale(0.996264)"/>
       <use xlink:href="#CMR17-33" transform="translate(77.487468 0) scale(0.996264)"/>
       <use xlink:href="#CMR17-30" transform="translate(123.177945 0) scale(0.996264)"/>
      </g>
     </g>
    </g>
    <g id="ytick_3">
     <g id="line2d_8">
      <path d="M 77.762501 271.86558 
L 556.56 271.86558 
" clip-path="url(#pabababf4fc)" style="fill: none; stroke: #cccccc; stroke-linecap: round"/>
     </g>
     <g id="text_9">
      <!-- $\mathdefault{−25}$ -->
      <g style="fill: #262626" transform="translate(39.381364 277.573332) scale(0.165 -0.165)">
       <use xlink:href="#CMSY10-0" transform="scale(0.996264)"/>
       <use xlink:href="#CMR17-32" transform="translate(77.487468 0) scale(0.996264)"/>
       <use xlink:href="#CMR17-35" transform="translate(123.177945 0) scale(0.996264)"/>
      </g>
     </g>
    </g>
    <g id="ytick_4">
     <g id="line2d_9">
      <path d="M 77.762501 230.787446 
L 556.56 230.787446 
" clip-path="url(#pabababf4fc)" style="fill: none; stroke: #cccccc; stroke-linecap: round"/>
     </g>
     <g id="text_10">
      <!-- $\mathdefault{−20}$ -->
      <g style="fill: #262626" transform="translate(39.381364 236.495199) scale(0.165 -0.165)">
       <use xlink:href="#CMSY10-0" transform="scale(0.996264)"/>
       <use xlink:href="#CMR17-32" transform="translate(77.487468 0) scale(0.996264)"/>
       <use xlink:href="#CMR17-30" transform="translate(123.177945 0) scale(0.996264)"/>
      </g>
     </g>
    </g>
    <g id="ytick_5">
     <g id="line2d_10">
      <path d="M 77.762501 189.709313 
L 556.56 189.709313 
" clip-path="url(#pabababf4fc)" style="fill: none; stroke: #cccccc; stroke-linecap: round"/>
     </g>
     <g id="text_11">
      <!-- $\mathdefault{−15}$ -->
      <g style="fill: #262626" transform="translate(39.381364 195.417065) scale(0.165 -0.165)">
       <defs>
        <path id="CMR17-31" d="M 1702 4058 
C 1702 4192 1696 4192 1606 4192 
C 1357 3916 979 3827 621 3827 
C 602 3827 570 3827 563 3808 
C 557 3795 557 3782 557 3648 
C 755 3648 1088 3686 1344 3839 
L 1344 461 
C 1344 236 1331 160 781 160 
L 589 160 
L 589 0 
C 896 0 1216 0 1523 0 
C 1830 0 2150 0 2458 0 
L 2458 160 
L 2266 160 
C 1715 160 1702 230 1702 458 
L 1702 4058 
z
" transform="scale(0.015625)"/>
       </defs>
       <use xlink:href="#CMSY10-0" transform="scale(0.996264)"/>
       <use xlink:href="#CMR17-31" transform="translate(77.487468 0) scale(0.996264)"/>
       <use xlink:href="#CMR17-35" transform="translate(123.177945 0) scale(0.996264)"/>
      </g>
     </g>
    </g>
    <g id="ytick_6">
     <g id="line2d_11">
      <path d="M 77.762501 148.631179 
L 556.56 148.631179 
" clip-path="url(#pabababf4fc)" style="fill: none; stroke: #cccccc; stroke-linecap: round"/>
     </g>
     <g id="text_12">
      <!-- $\mathdefault{−10}$ -->
      <g style="fill: #262626" transform="translate(39.381364 154.338932) scale(0.165 -0.165)">
       <use xlink:href="#CMSY10-0" transform="scale(0.996264)"/>
       <use xlink:href="#CMR17-31" transform="translate(77.487468 0) scale(0.996264)"/>
       <use xlink:href="#CMR17-30" transform="translate(123.177945 0) scale(0.996264)"/>
      </g>
     </g>
    </g>
    <g id="ytick_7">
     <g id="line2d_12">
      <path d="M 77.762501 107.553046 
L 556.56 107.553046 
" clip-path="url(#pabababf4fc)" style="fill: none; stroke: #cccccc; stroke-linecap: round"/>
     </g>
     <g id="text_13">
      <!-- $\mathdefault{−5}$ -->
      <g style="fill: #262626" transform="translate(47.429218 113.260798) scale(0.165 -0.165)">
       <use xlink:href="#CMSY10-0" transform="scale(0.996264)"/>
       <use xlink:href="#CMR17-35" transform="translate(77.487468 0) scale(0.996264)"/>
      </g>
     </g>
    </g>
    <g id="ytick_8">
     <g id="line2d_13">
      <path d="M 77.762501 66.474912 
L 556.56 66.474912 
" clip-path="url(#pabababf4fc)" style="fill: none; stroke: #cccccc; stroke-linecap: round"/>
     </g>
     <g id="text_14">
      <!-- $\mathdefault{0}$ -->
      <g style="fill: #262626" transform="translate(60.214647 72.182665) scale(0.165 -0.165)">
       <use xlink:href="#CMR17-30" transform="scale(0.996264)"/>
      </g>
     </g>
    </g>
    <g id="ytick_9">
     <g id="line2d_14">
      <path d="M 77.762501 25.396779 
L 556.56 25.396779 
" clip-path="url(#pabababf4fc)" style="fill: none; stroke: #cccccc; stroke-linecap: round"/>
     </g>
     <g id="text_15">
      <!-- $\mathdefault{5}$ -->
      <g style="fill: #262626" transform="translate(60.214647 31.104531) scale(0.165 -0.165)">
       <use xlink:href="#CMR17-35" transform="scale(0.996264)"/>
      </g>
     </g>
    </g>
    <g id="text_16">
     <!-- Logarithm of Singular Value -->
     <g style="fill: #262626" transform="translate(31.8933 292.925454) rotate(-90) scale(0.18 -0.18)">
      <defs>
       <path id="CMSS17-4c" d="M 1670 414 
C 1594 414 1517 414 1440 414 
L 1101 414 
L 1101 4416 
L 563 4416 
L 563 0 
L 3002 0 
L 3002 414 
L 1670 414 
z
" transform="scale(0.015625)"/>
       <path id="CMSS17-6f" d="M 2829 1356 
C 2829 2176 2221 2816 1504 2816 
C 768 2816 173 2157 173 1356 
C 173 544 787 -64 1498 -64 
C 2227 -64 2829 563 2829 1356 
z
M 1504 337 
C 1050 337 659 709 659 1408 
C 659 2151 1114 2427 1498 2427 
C 1914 2427 2342 2126 2342 1408 
C 2342 683 1926 337 1504 337 
z
" transform="scale(0.015625)"/>
       <path id="CMSS17-74" d="M 1069 2368 
L 1901 2368 
L 1901 2737 
L 1069 2737 
L 1069 3520 
L 614 3520 
L 614 2737 
L 109 2737 
L 109 2368 
L 602 2368 
L 602 749 
C 602 384 685 -64 1107 -64 
C 1427 -64 1722 25 2003 172 
L 1901 548 
C 1747 414 1562 337 1363 337 
C 1082 337 1069 696 1069 856 
L 1069 2368 
z
" transform="scale(0.015625)"/>
       <path id="CMSS17-68" d="M 2618 1891 
C 2618 2292 2522 2820 1798 2820 
C 1395 2820 1133 2623 947 2407 
L 947 4448 
L 474 4448 
L 474 32 
L 960 32 
L 960 1573 
C 960 1973 1114 2432 1549 2432 
C 2112 2432 2131 2056 2131 1839 
L 2131 32 
L 2618 32 
L 2618 1891 
z
" transform="scale(0.015625)"/>
       <path id="CMSS17-6d" d="M 4288 1877 
C 4288 2308 4179 2816 3462 2816 
C 2982 2816 2694 2516 2566 2331 
C 2451 2670 2182 2816 1798 2816 
C 1363 2816 1088 2568 941 2389 
L 941 2758 
L 474 2758 
L 474 0 
L 960 0 
L 960 1559 
C 960 1939 1101 2428 1555 2428 
C 2138 2428 2138 2016 2138 1829 
L 2138 0 
L 2624 0 
L 2624 1559 
C 2624 1939 2765 2428 3219 2428 
C 3802 2428 3802 2016 3802 1829 
L 3802 0 
L 4288 0 
L 4288 1877 
z
" transform="scale(0.015625)"/>
       <path id="CMSS17-66" d="M 1075 2368 
L 1722 2368 
L 1722 2737 
L 1062 2737 
L 1062 3559 
C 1062 4014 1408 4092 1606 4092 
C 1670 4092 1850 4092 2080 4009 
L 2080 4429 
C 1933 4461 1754 4480 1613 4480 
C 1018 4480 602 3993 602 3359 
L 602 2737 
L 160 2737 
L 160 2368 
L 602 2368 
L 602 0 
L 1075 0 
L 1075 2368 
z
" transform="scale(0.015625)"/>
      </defs>
      <use xlink:href="#CMSS17-4c" transform="scale(0.996264)"/>
      <use xlink:href="#CMSS17-6f" transform="translate(50.687105 0) scale(0.996264)"/>
      <use xlink:href="#CMSS17-67" transform="translate(97.530729 0) scale(0.996264)"/>
      <use xlink:href="#CMSS17-61" transform="translate(144.374352 0) scale(0.996264)"/>
      <use xlink:href="#CMSS17-72" transform="translate(186.693819 0) scale(0.996264)"/>
      <use xlink:href="#CMSS17-69" transform="translate(218.603592 0) scale(0.996264)"/>
      <use xlink:href="#CMSS17-74" transform="translate(240.784315 0) scale(0.996264)"/>
      <use xlink:href="#CMSS17-68" transform="translate(274.615881 0) scale(0.996264)"/>
      <use xlink:href="#CMSS17-6d" transform="translate(322.820824 0) scale(0.996264)"/>
      <use xlink:href="#CMSS17-6f" transform="translate(428.279192 0) scale(0.996264)"/>
      <use xlink:href="#CMSS17-66" transform="translate(475.122815 0) scale(0.996264)"/>
      <use xlink:href="#CMSS17-53" transform="translate(534.978587 0) scale(0.996264)"/>
      <use xlink:href="#CMSS17-69" transform="translate(587.027103 0) scale(0.996264)"/>
      <use xlink:href="#CMSS17-6e" transform="translate(609.207826 0) scale(0.996264)"/>
      <use xlink:href="#CMSS17-67" transform="translate(657.412769 0) scale(0.996264)"/>
      <use xlink:href="#CMSS17-75" transform="translate(704.256393 0) scale(0.996264)"/>
      <use xlink:href="#CMSS17-6c" transform="translate(752.461336 0) scale(0.996264)"/>
      <use xlink:href="#CMSS17-61" transform="translate(774.642059 0) scale(0.996264)"/>
      <use xlink:href="#CMSS17-72" transform="translate(816.961526 0) scale(0.996264)"/>
      <use xlink:href="#CMSS17-56" transform="translate(880.100411 0) scale(0.996264)"/>
      <use xlink:href="#CMSS17-61" transform="translate(939.715812 0) scale(0.996264)"/>
      <use xlink:href="#CMSS17-6c" transform="translate(984.637732 0) scale(0.996264)"/>
      <use xlink:href="#CMSS17-75" transform="translate(1006.818455 0) scale(0.996264)"/>
      <use xlink:href="#CMSS17-65" transform="translate(1055.023399 0) scale(0.996264)"/>
     </g>
    </g>
   </g>
   <g id="line2d_15">
    <path d="M 99.526024 39.413708 
L 99.685444 41.727066 
L 99.951144 48.010003 
L 100.163705 49.069953 
L 100.323125 50.796514 
L 101.013946 56.385806 
L 101.173366 56.863542 
L 102.342448 62.413412 
L 102.661289 63.224026 
L 102.714429 63.290398 
L 102.926989 63.927145 
L 102.980129 63.963168 
L 103.51153 65.94527 
L 103.67095 66.396376 
L 104.149211 67.604696 
L 104.680612 69.014263 
L 105.105733 69.808412 
L 105.371433 70.368895 
L 106.381095 72.415061 
L 106.434235 72.461299 
L 106.699935 73.045628 
L 106.965636 73.484985 
L 107.178196 73.855695 
L 107.284476 74.027468 
L 111.004282 80.658507 
L 111.163703 80.852302 
L 111.429403 81.308444 
L 111.535683 81.430772 
L 111.854524 81.916394 
L 112.013944 82.118166 
L 113.714427 84.742342 
L 113.820707 84.888092 
L 114.298968 85.52919 
L 114.511528 85.828687 
L 115.78689 87.821629 
L 115.946311 88.119386 
L 116.105731 88.254477 
L 116.371431 88.678614 
L 116.690272 89.213657 
L 118.762735 92.407815 
L 118.869015 92.57939 
L 119.506696 93.741482 
L 119.559836 93.755927 
L 119.719257 94.026043 
L 120.038097 94.499715 
L 121.79172 97.816914 
L 122.057421 98.461763 
L 122.376261 99.036907 
L 122.748242 99.851255 
L 123.173362 100.812806 
L 123.279643 100.92869 
L 123.545343 101.633235 
L 123.864184 102.21466 
L 124.129884 102.857161 
L 124.236164 103.00509 
L 124.767565 104.396342 
L 125.458386 106.061038 
L 125.777227 106.889352 
L 125.989787 107.309796 
L 126.255487 108.093736 
L 126.468048 108.463624 
L 126.733748 109.183388 
L 129.390753 115.079913 
L 129.443893 115.101824 
L 129.709593 115.657693 
L 130.187854 116.555608 
L 130.400414 116.858919 
L 130.825535 117.585643 
L 131.250656 118.170038 
L 131.728916 118.841012 
L 131.941477 119.134202 
L 132.207177 119.544058 
L 132.897998 120.353829 
L 133.429399 121.059222 
L 133.64196 121.22284 
L 133.80138 121.44187 
L 133.9608 121.58197 
L 134.332781 121.991107 
L 134.651621 122.299543 
L 135.023602 122.633288 
L 135.129882 122.751472 
L 135.448723 123.055549 
L 135.661283 123.250871 
L 135.820703 123.343117 
L 136.033263 123.568987 
L 138.477707 125.531998 
L 138.902828 125.767527 
L 139.327949 126.112284 
L 139.646789 126.264551 
L 140.01877 126.515222 
L 141.612973 127.464853 
L 141.772393 127.591772 
L 142.250654 127.819829 
L 142.463214 127.997198 
L 144.163697 128.872539 
L 144.429397 129.013609 
L 145.173358 129.374309 
L 145.86418 129.682922 
L 146.12988 129.810723 
L 151.603309 132.067175 
L 152.02843 132.203128 
L 152.559831 132.414865 
L 153.516352 132.726159 
L 156.545337 133.719123 
L 163.294128 135.677553 
L 165.366592 136.227129 
L 166.163693 136.441166 
L 167.173355 136.683823 
L 167.757896 136.828697 
L 169.670939 137.282372 
L 172.274803 137.891903 
L 175.675768 138.647413 
L 176.47287 138.819088 
L 177.801372 139.117802 
L 178.385913 139.226356 
L 179.023594 139.357522 
L 180.989777 139.747566 
L 182.4777 140.04488 
L 184.550163 140.466282 
L 196.347262 142.637126 
L 198.844846 143.063285 
L 199.429387 143.170177 
L 211.332767 145.143409 
L 212.183008 145.296527 
L 215.158853 145.769671 
L 216.009095 145.898015 
L 217.178177 146.07937 
L 219.09122 146.375117 
L 219.675761 146.468863 
L 221.216823 146.71597 
L 222.067065 146.846634 
L 223.448707 147.05365 
L 225.25547 147.326891 
L 226.583972 147.526916 
L 233.492183 148.555313 
L 234.501845 148.709706 
L 235.883487 148.92516 
L 237.158849 149.107103 
L 343.811004 164.6465 
L 344.395545 164.753641 
L 346.096028 165.01034 
L 348.487332 165.387591 
L 348.965593 165.474551 
L 357.255446 166.798577 
L 358.052548 166.916429 
L 360.390711 167.304735 
L 362.516315 167.636018 
L 365.013899 168.051137 
L 365.970421 168.211762 
L 386.269934 171.694824 
L 387.810996 171.965274 
L 389.245779 172.235548 
L 391.371382 172.631957 
L 392.009063 172.744479 
L 416.825484 177.576197 
L 417.410025 177.709368 
L 418.738527 177.986689 
L 420.917271 178.468703 
L 422.086353 178.717917 
L 423.096014 178.926562 
L 424.743357 179.279601 
L 425.593598 179.464202 
L 426.9221 179.76086 
L 427.506641 179.880856 
L 427.984902 180.007069 
L 434.467993 181.488938 
L 435.105674 181.6324 
L 439.994562 182.825931 
L 440.844803 183.029006 
L 441.854465 183.287688 
L 442.864127 183.530293 
L 450.038038 185.378552 
L 450.516299 185.520956 
L 452.269922 185.996036 
L 454.714366 186.634073 
L 455.245767 186.805512 
L 455.936588 186.982146 
L 456.414849 187.145089 
L 457.21195 187.367978 
L 458.381032 187.699435 
L 473.525957 192.494987 
L 474.269918 192.775027 
L 475.65156 193.234407 
L 480.699869 195.144337 
L 480.965569 195.253397 
L 481.28441 195.35615 
L 481.922091 195.602544 
L 490.849625 199.392456 
L 491.168466 199.575195 
L 493.240929 200.551776 
L 493.87861 200.894152 
L 494.250591 201.073027 
L 494.675712 201.286605 
L 495.632233 201.785515 
L 495.844793 201.870997 
L 496.110494 202.049326 
L 497.120156 202.505386 
L 497.438996 202.729971 
L 500.255421 204.285635 
L 500.574261 204.486108 
L 501.477643 205.007149 
L 503.284406 206.11445 
L 503.709526 206.352013 
L 503.922087 206.514492 
L 504.347207 206.797971 
L 504.931748 207.14022 
L 507.110492 208.624516 
L 507.482473 208.953421 
L 507.695033 209.079799 
L 508.013873 209.317381 
L 508.279574 209.503685 
L 508.757835 209.842416 
L 509.236095 210.168055 
L 509.714356 210.577411 
L 510.458317 211.110259 
L 510.670878 211.305878 
L 511.202279 211.743252 
L 511.73368 212.164837 
L 511.94624 212.418871 
L 512.1588 212.536625 
L 513.434162 213.664857 
L 513.753003 213.91935 
L 513.912423 214.033472 
L 514.124983 214.23737 
L 514.550104 214.630871 
L 514.868945 214.954324 
L 515.240925 215.273657 
L 515.506626 215.551294 
L 516.144307 216.18765 
L 516.303727 216.376172 
L 517.153968 217.29742 
L 517.366529 217.502967 
L 517.579089 217.827953 
L 517.738509 217.958191 
L 518.00421 218.268046 
L 518.37619 218.735202 
L 518.748171 219.140276 
L 518.907591 219.392329 
L 519.279572 219.775521 
L 519.864113 220.544302 
L 520.129813 220.808559 
L 520.395514 221.132291 
L 520.608074 221.513237 
L 520.980055 221.999241 
L 521.139475 222.251725 
L 524.593581 227.721679 
L 525.284402 229.052026 
L 525.550102 229.586247 
L 527.250585 233.557032 
L 527.516285 234.256088 
L 527.728846 234.948113 
L 528.419667 236.846412 
L 528.632227 237.555077 
L 528.685367 237.608869 
L 529.163628 239.211874 
L 529.269908 239.702207 
L 529.588749 240.796146 
L 529.695029 241.227732 
L 530.651551 245.531953 
L 530.864111 246.727686 
L 530.970391 246.953471 
L 531.448652 250.203031 
L 531.926913 253.375593 
L 532.298893 256.138916 
L 532.458313 257.406241 
L 532.989714 263.810078 
L 533.680535 275.293844 
L 533.999376 289.65697 
L 534.318217 345.811984 
L 534.796477 345.811984 
L 534.796477 345.811984 
" clip-path="url(#pabababf4fc)" style="fill: none; stroke: #4169e1; stroke-width: 3; stroke-linecap: round"/>
   </g>
   <g id="line2d_16">
    <path d="M 99.526024 36.831015 
L 99.685444 46.23042 
L 99.844864 49.723759 
L 100.057425 56.868578 
L 100.907666 69.557521 
L 100.960806 69.790627 
L 101.173366 72.351297 
L 101.279647 72.732316 
L 101.385927 73.870904 
L 101.811047 76.761632 
L 101.864187 76.948835 
L 102.076748 78.337153 
L 102.501869 81.41271 
L 102.555009 81.482171 
L 103.29897 85.797715 
L 103.40525 86.180214 
L 105.158873 93.399353 
L 105.265153 93.651359 
L 105.637134 95.251548 
L 105.849694 96.008414 
L 106.115394 97.19869 
L 106.221675 97.460153 
L 106.540515 98.492346 
L 106.806216 99.338067 
L 107.443897 101.448557 
L 107.709597 102.234239 
L 107.762737 102.26923 
L 108.028438 103.090754 
L 108.240998 103.621825 
L 108.666119 104.820923 
L 110.100901 108.30966 
L 110.207181 108.462335 
L 110.791722 109.781349 
L 111.110563 110.55495 
L 112.864186 114.080406 
L 113.289306 114.811658 
L 114.086408 116.201493 
L 114.298968 116.765861 
L 114.936649 117.99729 
L 115.202349 118.299548 
L 115.41491 118.71851 
L 115.62747 119.056316 
L 115.73375 119.143774 
L 116.105731 119.861601 
L 116.212011 119.960906 
L 117.434233 121.902538 
L 120.516358 126.368617 
L 120.622638 126.455825 
L 120.835199 126.766714 
L 121.047759 126.969357 
L 121.95114 128.181197 
L 122.057421 128.259233 
L 122.429401 128.822058 
L 125.405246 132.26354 
L 125.511526 132.403732 
L 126.042927 133.041021 
L 126.255487 133.224543 
L 126.627468 133.58961 
L 126.946309 133.943277 
L 128.221671 135.40907 
L 128.593651 135.674946 
L 128.912492 136.002903 
L 129.231332 136.284717 
L 129.762733 136.841433 
L 129.869013 136.916664 
L 130.347274 137.410528 
L 131.410076 138.376445 
L 131.622636 138.534223 
L 131.888337 138.842453 
L 132.154037 139.071039 
L 132.419738 139.281848 
L 132.738578 139.567063 
L 133.216839 140.016995 
L 133.535679 140.301983 
L 134.385921 141.040742 
L 135.555003 141.968902 
L 135.820703 142.131646 
L 136.405244 142.690601 
L 136.777225 143.013476 
L 136.936645 143.119448 
L 137.149205 143.388342 
L 137.680606 143.765985 
L 138.637128 144.623403 
L 138.796548 144.726061 
L 139.221669 145.040139 
L 139.69993 145.466691 
L 140.390751 146.035864 
L 140.815871 146.371253 
L 141.028432 146.61729 
L 141.347272 146.814732 
L 141.506692 147.020098 
L 143.844856 148.956359 
L 144.269977 149.406338 
L 144.801378 149.85569 
L 145.226499 150.272763 
L 145.651619 150.60133 
L 145.91732 150.870458 
L 146.0236 150.95649 
L 146.18302 151.183623 
L 146.2893 151.279354 
L 146.873841 151.839068 
L 147.086402 152.0336 
L 147.564662 152.440162 
L 147.777223 152.66549 
L 149.583986 154.65577 
L 149.902826 154.992705 
L 150.115387 155.337178 
L 150.274807 155.500158 
L 150.806208 156.251143 
L 151.071908 156.770742 
L 151.337609 157.051419 
L 151.550169 157.378449 
L 152.24099 158.851953 
L 152.878671 160.948825 
L 153.038091 161.88275 
L 153.091231 162.137337 
L 153.303792 172.142991 
L 153.356932 172.244328 
L 154.632294 191.093977 
L 154.791714 328.561015 
L 155.057415 333.793831 
L 155.376255 340.922545 
L 534.583917 340.922545 
L 534.690197 341.379123 
L 534.796477 352.663088 
L 534.796477 352.663088 
" clip-path="url(#pabababf4fc)" style="fill: none; stroke: #87ceeb; stroke-width: 3; stroke-linecap: round"/>
   </g>
   <g id="line2d_17">
    <path d="M 99.526024 35.788768 
L 99.685444 44.226697 
L 100.110565 48.742858 
L 100.323125 52.092511 
L 100.376265 52.210061 
L 100.748246 54.237821 
L 101.013946 55.311833 
L 101.226506 56.15942 
L 101.598487 57.779426 
L 101.864187 58.974807 
L 102.023608 59.667891 
L 102.395588 61.367995 
L 102.448728 61.434841 
L 102.714429 62.272553 
L 103.19269 63.389928 
L 103.830371 65.5082 
L 104.308631 66.320051 
L 104.361772 66.346724 
L 104.574332 66.784074 
L 105.477713 68.20056 
L 105.849694 69.063632 
L 106.327955 69.934978 
L 106.912496 71.024339 
L 107.975297 72.835065 
L 108.081578 72.946166 
L 108.506698 73.722109 
L 108.825539 74.142987 
L 109.25066 74.945192 
L 109.41008 75.166195 
L 110.738582 76.924126 
L 111.695104 78.062714 
L 114.830369 82.180769 
L 114.989789 82.418101 
L 115.36177 82.805372 
L 115.999451 83.502679 
L 118.815875 87.044596 
L 118.975296 87.238551 
L 119.240996 87.584351 
L 119.453556 87.770629 
L 119.984957 88.41961 
L 120.888339 89.53576 
L 121.100899 89.877727 
L 123.173362 92.653373 
L 123.385923 92.969149 
L 123.811043 93.675509 
L 123.917324 93.802435 
L 124.129884 94.215185 
L 124.342444 94.471468 
L 125.511526 96.352752 
L 125.777227 96.747821 
L 126.096067 97.356083 
L 126.414908 97.806023 
L 128.487371 101.581166 
L 128.699931 102.092397 
L 128.912492 102.475613 
L 129.656453 104.065006 
L 129.709593 104.112836 
L 129.975294 104.849019 
L 130.240994 105.228268 
L 130.666115 106.123888 
L 131.303796 107.370597 
L 131.835197 108.543039 
L 131.994617 108.782824 
L 134.970462 113.840095 
L 135.236162 114.119858 
L 135.448723 114.429578 
L 136.139544 115.345308 
L 138.158867 117.518527 
L 138.265147 117.632078 
L 138.690268 118.05679 
L 138.849688 118.198285 
L 139.221669 118.584573 
L 140.07191 119.248611 
L 140.443891 119.638643 
L 140.869011 119.950265 
L 141.878673 120.699232 
L 142.250654 120.955803 
L 144.535677 122.458698 
L 144.907658 122.667992 
L 145.332779 122.92073 
L 145.704759 123.156616 
L 146.926981 123.782467 
L 147.458382 124.070325 
L 148.361764 124.537741 
L 150.062246 125.366851 
L 150.381087 125.520357 
L 150.753068 125.653661 
L 151.550169 126.025866 
L 152.24099 126.295939 
L 155.695096 127.674744 
L 157.076738 128.139795 
L 157.501859 128.286166 
L 160.052583 129.139308 
L 160.849684 129.387014 
L 161.327945 129.560025 
L 162.018766 129.73146 
L 162.337607 129.846478 
L 163.772389 130.276616 
L 164.30379 130.431304 
L 165.472872 130.760919 
L 169.458378 131.82504 
L 169.936639 131.941473 
L 171.318281 132.288944 
L 171.637122 132.379721 
L 172.168523 132.502619 
L 173.869006 132.909441 
L 175.038087 133.180775 
L 189.226491 136.205546 
L 190.023592 136.350152 
L 192.414896 136.819528 
L 193.637118 137.025605 
L 194.274799 137.156947 
L 195.337601 137.354539 
L 197.091224 137.68793 
L 197.835185 137.825685 
L 217.975278 141.212571 
L 221.163683 141.715346 
L 221.907644 141.834728 
L 222.704746 141.959485 
L 224.989769 142.314168 
L 228.443875 142.852465 
L 230.091218 143.100188 
L 232.110541 143.406032 
L 233.598463 143.643204 
L 234.501845 143.771294 
L 236.361748 144.052531 
L 242.632278 144.973919 
L 244.545321 145.254021 
L 245.820684 145.44777 
L 247.202326 145.648037 
L 248.955949 145.900566 
L 258.840005 147.330286 
L 262.08155 147.797352 
L 264.897975 148.208821 
L 266.067057 148.362885 
L 270.318264 148.972763 
L 271.168505 149.100896 
L 272.178167 149.238983 
L 274.675751 149.595865 
L 277.173335 149.943626 
L 278.023576 150.073682 
L 280.786861 150.453792 
L 281.318262 150.538881 
L 294.018743 152.331969 
L 295.878646 152.589232 
L 301.245794 153.355313 
L 310.067049 154.619272 
L 310.54531 154.681868 
L 312.139512 154.909588 
L 313.999415 155.184558 
L 315.327917 155.36518 
L 316.550139 155.547553 
L 318.410043 155.819856 
L 320.588786 156.126952 
L 322.395549 156.394421 
L 324.414872 156.689028 
L 327.815838 157.197419 
L 347.955931 160.218883 
L 348.965593 160.361432 
L 349.550134 160.463484 
L 351.356897 160.739995 
L 352.472838 160.924699 
L 353.854481 161.136729 
L 356.830326 161.600607 
L 359.115349 161.952117 
L 360.390711 162.16448 
L 386.163654 166.401125 
L 386.641914 166.484742 
L 389.245779 166.93622 
L 392.274764 167.470888 
L 395.197468 167.9953 
L 395.99457 168.133672 
L 397.216792 168.349638 
L 398.173313 168.527359 
L 398.704714 168.637551 
L 400.670897 168.993676 
L 421.554952 173.054168 
L 421.980072 173.149836 
L 424.690217 173.704478 
L 425.593598 173.897207 
L 426.178139 174.012586 
L 427.559781 174.304691 
L 429.685385 174.750753 
L 430.641907 174.974849 
L 431.864129 175.23196 
L 432.92693 175.488707 
L 433.830312 175.679942 
L 435.265094 175.988814 
L 435.849635 176.137224 
L 442.332726 177.620185 
L 442.864127 177.755463 
L 443.767508 177.960502 
L 447.115334 178.763548 
L 447.699875 178.882827 
L 447.965575 178.972542 
L 459.550114 182.003983 
L 459.975235 182.132638 
L 465.661224 183.772824 
L 466.245765 183.924573 
L 466.670886 184.061907 
L 467.361707 184.276221 
L 468.477649 184.608623 
L 470.178131 185.130272 
L 470.922093 185.361676 
L 474.323058 186.42993 
L 474.748179 186.583681 
L 476.395522 187.160828 
L 476.714362 187.257908 
L 477.617744 187.57384 
L 480.965569 188.731261 
L 481.33755 188.85755 
L 481.868951 189.06546 
L 482.187791 189.194838 
L 491.540446 192.908191 
L 491.965567 193.073345 
L 495.738513 194.802052 
L 496.110494 194.994883 
L 497.013875 195.387816 
L 502.540444 198.304799 
L 503.284406 198.77783 
L 505.516289 200.056304 
L 505.83513 200.245627 
L 505.99455 200.326676 
L 506.260251 200.552002 
L 511.149139 203.838923 
L 511.521119 204.144354 
L 511.680539 204.25971 
L 511.99938 204.496632 
L 512.743341 205.039442 
L 512.902761 205.173165 
L 513.009042 205.283572 
L 513.221602 205.450822 
L 518.588751 210.377908 
L 519.438992 211.272892 
L 519.545272 211.423763 
L 519.810973 211.666007 
L 520.980055 213.164664 
L 521.245755 213.469921 
L 521.352035 213.561389 
L 521.670876 213.998138 
L 522.839958 215.4644 
L 523.052518 215.749129 
L 523.583919 216.58123 
L 524.2216 217.592027 
L 524.4873 218.011409 
L 524.806141 218.491135 
L 525.390682 219.564804 
L 527.091165 222.860357 
L 527.303725 223.417959 
L 527.569425 223.927151 
L 527.835126 224.54003 
L 528.047686 224.918272 
L 528.579087 226.468455 
L 528.791647 227.106159 
L 529.163628 228.123377 
L 529.216768 228.183602 
L 529.429329 228.978228 
L 529.535609 229.225007 
L 529.801309 230.19501 
L 530.06701 230.81949 
L 530.22643 231.499442 
L 530.33271 231.676455 
L 530.59841 232.725135 
L 530.704691 232.862224 
L 532.405173 241.931462 
L 532.564594 243.150145 
L 532.670874 243.766663 
L 532.883434 245.924315 
L 533.202275 249.215489 
L 534.105656 261.653595 
L 534.318217 268.643086 
L 534.424497 271.465214 
L 534.690197 286.215118 
L 534.796477 323.017286 
L 534.796477 323.017286 
" clip-path="url(#pabababf4fc)" style="fill: none; stroke: #b22222; stroke-width: 3; stroke-linecap: round"/>
   </g>
   <g id="line2d_18">
    <path d="M 99.526024 37.685174 
L 99.738584 46.421878 
L 100.216845 58.626796 
L 100.269985 58.692772 
L 100.801386 67.084984 
L 100.854526 67.122755 
L 101.067086 69.314666 
L 101.439067 73.347226 
L 101.864187 77.109174 
L 102.076748 78.405097 
L 103.19269 84.674561 
L 103.24583 84.843832 
L 103.45839 86.07037 
L 103.51153 86.103406 
L 103.724091 87.295517 
L 106.327955 97.697887 
L 106.593655 98.345059 
L 107.018776 99.888658 
L 110.154041 107.48204 
L 110.366601 107.920957 
L 110.685442 108.59924 
L 112.545345 112.129438 
L 113.183026 113.073448 
L 113.448726 113.570097 
L 113.926987 114.353812 
L 114.139548 114.595756 
L 114.564668 115.271118 
L 114.830369 115.593132 
L 115.096069 116.114173 
L 115.84003 117.012652 
L 116.052591 117.333645 
L 116.690272 118.235393 
L 117.062252 118.715457 
L 117.274813 118.93795 
L 117.753074 119.592511 
L 117.965634 119.804692 
L 118.337614 120.274184 
L 118.497035 120.454114 
L 118.709595 120.667555 
L 119.240996 121.375448 
L 119.453556 121.605512 
L 119.772397 122.058071 
L 119.878677 122.149114 
L 120.144377 122.427269 
L 120.197518 122.443784 
L 120.356938 122.714412 
L 120.835199 123.202334 
L 122.216841 124.7399 
L 122.535681 125.056969 
L 126.202347 128.589885 
L 126.627468 128.950786 
L 126.893169 129.193301 
L 127.052589 129.31232 
L 127.265149 129.556197 
L 127.90283 130.09539 
L 128.434231 130.563881 
L 129.709593 131.624962 
L 129.922153 131.900056 
L 130.400414 132.273929 
L 130.878675 132.670519 
L 131.197516 132.933986 
L 131.303796 133.058158 
L 132.100897 133.699749 
L 132.951138 134.344735 
L 134.864182 135.948244 
L 135.183022 136.241909 
L 135.395582 136.424281 
L 135.820703 136.743701 
L 136.086404 136.949354 
L 136.405244 137.188996 
L 136.617804 137.301921 
L 136.883505 137.515581 
L 137.521186 138.084074 
L 137.733746 138.234533 
L 140.656451 140.570871 
L 142.038093 141.681047 
L 142.888335 142.385103 
L 143.154035 142.622668 
L 147.086402 146.105888 
L 147.352102 146.379212 
L 147.458382 146.498466 
L 147.670943 146.733624 
L 147.830363 146.856772 
L 148.042923 147.095705 
L 151.443889 151.122885 
L 151.762729 151.668839 
L 151.92215 151.933168 
L 152.506691 153.18857 
L 153.038091 155.297343 
L 153.091231 155.94094 
L 153.356932 164.049543 
L 153.410072 164.309531 
L 153.835193 171.09856 
L 153.941473 171.65566 
L 154.100893 176.871479 
L 154.579154 186.2237 
L 154.632294 190.115359 
L 154.791714 327.189946 
L 154.844854 327.632698 
L 155.057415 333.239367 
L 155.110555 333.288687 
L 155.323115 340.257372 
L 155.482535 341.458518 
L 534.583917 341.458518 
L 534.796477 347.537151 
L 534.796477 347.537151 
" clip-path="url(#pabababf4fc)" style="fill: none; stroke: #f08080; stroke-width: 3; stroke-linecap: round"/>
   </g>
   <g id="line2d_19">
    <path d="M 99.526024 44.327455 
L 99.844864 51.959324 
L 100.269985 55.767247 
L 100.376265 56.411101 
L 100.748246 58.607505 
L 100.801386 58.751489 
L 101.120226 60.834376 
L 101.385927 61.863401 
L 102.129888 65.340765 
L 102.289308 65.868499 
L 102.555009 66.826223 
L 102.608149 66.84916 
L 103.086409 68.2622 
L 103.13955 68.325455 
L 103.40525 69.264694 
L 103.51153 69.592724 
L 104.627472 72.240248 
L 104.680612 72.258237 
L 104.999453 72.878097 
L 106.487375 75.6497 
L 106.646795 76.057149 
L 106.806216 76.227342 
L 107.071916 76.743331 
L 107.337616 77.1321 
L 108.134718 78.209754 
L 108.294138 78.339039 
L 109.197519 79.855902 
L 109.35694 80.0518 
L 110.260321 81.293461 
L 110.951142 82.14441 
L 111.216843 82.46664 
L 111.376263 82.626713 
L 111.801384 83.331348 
L 115.36177 87.697196 
L 115.57433 87.948182 
L 116.637132 89.137404 
L 117.327953 89.763632 
L 117.593653 90.141169 
L 118.231334 90.85781 
L 120.782058 93.421522 
L 121.047759 93.729762 
L 122.429401 95.126145 
L 122.801382 95.566829 
L 123.226502 95.933472 
L 123.598483 96.42111 
L 123.811043 96.60952 
L 124.395584 97.254133 
L 124.661285 97.463855 
L 125.033265 97.935507 
L 125.617806 98.675639 
L 125.670947 98.682722 
L 125.883507 98.962327 
L 126.202347 99.36585 
L 126.680608 99.894349 
L 126.840028 100.0649 
L 127.265149 100.624898 
L 127.74341 101.21924 
L 127.95597 101.428364 
L 128.115391 101.713513 
L 128.327951 101.910333 
L 128.593651 102.309974 
L 130.878675 105.028279 
L 131.091235 105.338883 
L 131.356936 105.654004 
L 131.622636 106.112532 
L 131.782057 106.228789 
L 131.994617 106.476726 
L 132.207177 106.793844 
L 133.004279 107.827605 
L 133.269979 108.128436 
L 133.376259 108.295954 
L 134.01394 109.091244 
L 138.743408 115.031539 
L 138.902828 115.217321 
L 139.115389 115.462453 
L 139.274809 115.613226 
L 140.28447 116.7795 
L 140.497031 117.017306 
L 140.656451 117.189199 
L 141.347272 117.860953 
L 145.545339 121.496019 
L 145.91732 121.696357 
L 146.07674 121.862753 
L 146.2893 122.036224 
L 146.608141 122.255458 
L 148.521184 123.507072 
L 148.733744 123.629294 
L 149.105725 123.797935 
L 149.424565 124.034246 
L 150.646787 124.788864 
L 150.965628 124.940446 
L 151.443889 125.174059 
L 153.941473 126.459444 
L 154.472874 126.694621 
L 156.864178 127.772811 
L 157.183018 127.910331 
L 157.448719 128.021236 
L 158.670941 128.521386 
L 158.989781 128.648476 
L 159.255482 128.756422 
L 159.786882 128.983333 
L 160.265143 129.156939 
L 160.637124 129.304486 
L 161.540505 129.62359 
L 163.187848 130.196734 
L 164.038089 130.479402 
L 164.67577 130.680038 
L 172.221663 132.961174 
L 172.646784 133.076163 
L 173.231324 133.237548 
L 177.535672 134.353412 
L 178.226493 134.522194 
L 178.704753 134.653485 
L 179.448715 134.833706 
L 180.139536 134.99568 
L 182.42456 135.519038 
L 183.009101 135.658234 
L 183.859342 135.861847 
L 184.337603 135.958783 
L 185.187844 136.153462 
L 186.303786 136.394888 
L 187.154027 136.581814 
L 189.279631 137.029318 
L 189.864172 137.147093 
L 191.192674 137.421183 
L 194.009099 137.999743 
L 194.487359 138.101574 
L 195.497021 138.291777 
L 197.410064 138.68278 
L 198.632286 138.908073 
L 199.057407 138.984898 
L 199.641948 139.105403 
L 201.28929 139.399511 
L 202.989773 139.711199 
L 210.535666 141.061126 
L 211.226487 141.177797 
L 212.236148 141.359756 
L 213.08639 141.504179 
L 215.052573 141.83141 
L 223.554987 143.256168 
L 226.424552 143.726163 
L 236.627448 145.325037 
L 238.327931 145.597282 
L 239.390733 145.743804 
L 245.501843 146.692624 
L 249.221649 147.246215 
L 251.187832 147.546218 
L 252.463194 147.734186 
L 256.554981 148.35529 
L 257.670923 148.514006 
L 258.786865 148.686893 
L 263.410052 149.368141 
L 265.535656 149.671198 
L 268.830341 150.162306 
L 270.158843 150.351923 
L 291.149178 153.413673 
L 292.42454 153.599421 
L 293.540482 153.750154 
L 298.42937 154.473252 
L 299.385891 154.614961 
L 304.80618 155.42095 
L 305.656422 155.541619 
L 306.719223 155.690196 
L 307.569465 155.816887 
L 308.525986 155.964856 
L 309.482508 156.098772 
L 310.120189 156.192858 
L 312.405213 156.532503 
L 324.468012 158.327312 
L 325.530814 158.49231 
L 328.028398 158.893314 
L 330.366562 159.233922 
L 331.535644 159.420833 
L 346.946269 161.81122 
L 347.743371 161.936902 
L 349.443853 162.19874 
L 350.187815 162.317406 
L 351.250616 162.484048 
L 354.492162 163.005389 
L 389.192639 168.888876 
L 389.88346 169.023954 
L 390.521141 169.143431 
L 395.675729 170.097003 
L 397.269932 170.392476 
L 397.641912 170.475914 
L 398.651574 170.657113 
L 400.617757 171.016466 
L 405.772346 172.002502 
L 408.801331 172.59785 
L 409.651572 172.742086 
L 410.608094 172.944455 
L 411.777176 173.168969 
L 412.361717 173.299109 
L 413.743359 173.574265 
L 414.69988 173.778083 
L 415.284421 173.885396 
L 442.226446 179.864951 
L 442.492146 179.934344 
L 443.289247 180.117905 
L 446.371372 180.882995 
L 446.690213 180.973311 
L 447.646734 181.208418 
L 447.965575 181.290079 
L 450.091178 181.832155 
L 451.26026 182.119281 
L 451.685381 182.25174 
L 458.806153 184.178352 
L 459.231273 184.316633 
L 460.081515 184.536491 
L 460.719196 184.732452 
L 461.622577 185.006214 
L 466.670886 186.461356 
L 467.308567 186.663661 
L 468.211948 186.943758 
L 468.583929 187.080631 
L 470.603252 187.701657 
L 471.134653 187.878945 
L 471.825474 188.105842 
L 473.153976 188.535178 
L 473.579097 188.680453 
L 475.22644 189.236962 
L 475.49214 189.32123 
L 478.149144 190.244753 
L 478.627405 190.442404 
L 478.999386 190.543205 
L 479.318226 190.66884 
L 480.009047 190.913475 
L 480.540448 191.101984 
L 481.975231 191.652997 
L 482.719192 191.933625 
L 483.144313 192.100899 
L 486.545278 193.416844 
L 487.182959 193.685489 
L 487.60808 193.844616 
L 488.139481 194.074892 
L 490.105664 194.913096 
L 497.598416 198.416231 
L 499.511459 199.383175 
L 499.72402 199.49437 
L 501.265082 200.339536 
L 501.955903 200.715687 
L 502.646725 201.081336 
L 503.550106 201.563099 
L 503.922087 201.796532 
L 505.463149 202.763124 
L 506.419671 203.340892 
L 506.632231 203.470223 
L 507.429332 204.006851 
L 507.641893 204.149941 
L 508.226434 204.532987 
L 508.917255 204.987274 
L 509.236095 205.206848 
L 511.521119 206.912186 
L 511.78682 207.08387 
L 512.10566 207.345003 
L 512.371361 207.588893 
L 515.666046 210.383798 
L 515.878606 210.644754 
L 516.144307 210.844373 
L 516.463147 211.159535 
L 516.994548 211.621714 
L 517.472809 212.090493 
L 517.685369 212.278357 
L 517.84479 212.469473 
L 518.482471 213.079329 
L 518.801311 213.485757 
L 519.438992 214.224483 
L 519.810973 214.555436 
L 520.023533 214.771267 
L 520.926915 215.900116 
L 521.192615 216.221113 
L 521.458315 216.523419 
L 522.202277 217.482077 
L 522.839958 218.36115 
L 523.690199 219.668331 
L 523.902759 219.962607 
L 524.16846 220.523947 
L 526.240923 224.020093 
L 526.453484 224.404278 
L 526.719184 224.844205 
L 526.825464 225.084988 
L 527.091165 225.858736 
L 527.303725 226.266149 
L 527.516285 226.922925 
L 527.569425 226.94457 
L 528.100826 228.337777 
L 528.153966 228.362821 
L 528.525947 229.491912 
L 528.951068 230.443071 
L 529.110488 231.054682 
L 529.216768 231.275779 
L 530.704691 236.291346 
L 531.076671 238.238958 
L 531.342372 239.295225 
L 531.714352 241.269639 
L 532.989714 249.497462 
L 533.255415 252.584704 
L 533.308555 252.634552 
L 533.521115 255.531867 
L 533.680535 257.518663 
L 534.158796 267.11227 
L 534.637057 285.893857 
L 534.743337 299.459394 
L 534.796477 330.111636 
L 534.796477 330.111636 
" clip-path="url(#pabababf4fc)" style="fill: none; stroke: #2e8b57; stroke-width: 3; stroke-linecap: round"/>
   </g>
   <g id="line2d_20">
    <path d="M 99.526024 39.130739 
L 99.738584 55.747121 
L 100.004284 63.126984 
L 100.057425 63.397979 
L 100.269985 66.920313 
L 100.641965 72.522582 
L 100.854526 75.567004 
L 101.067086 77.432276 
L 101.332787 79.701805 
L 101.385927 79.845341 
L 101.917328 83.92128 
L 102.076748 84.647828 
L 102.661289 87.660997 
L 102.767569 88.224862 
L 103.56467 91.801938 
L 103.61781 91.901326 
L 103.936651 93.73585 
L 104.096071 94.238604 
L 104.521192 95.870124 
L 104.893172 97.006284 
L 105.105733 97.745557 
L 105.318293 98.578867 
L 106.221675 101.58352 
L 106.699935 103.068207 
L 107.656457 105.554821 
L 107.869017 106.011261 
L 107.975297 106.212045 
L 108.187858 106.772648 
L 110.632302 112.052986 
L 110.791722 112.250651 
L 111.429403 113.585088 
L 111.588823 113.74923 
L 112.332785 115.106385 
L 112.811045 115.865114 
L 112.917326 116.006111 
L 116.105731 120.701955 
L 119.772397 125.061268 
L 120.038097 125.326342 
L 121.57916 126.950461 
L 121.73858 127.081225 
L 122.216841 127.626814 
L 122.641962 128.029282 
L 122.960802 128.349412 
L 123.757903 129.101981 
L 124.980125 130.213137 
L 125.352106 130.611256 
L 125.617806 130.824348 
L 126.149207 131.26777 
L 126.786888 131.832786 
L 127.158869 132.149286 
L 127.53085 132.41645 
L 128.699931 133.452564 
L 128.859352 133.570699 
L 129.390753 134.012228 
L 131.038095 135.405973 
L 131.303796 135.638947 
L 131.782057 136.038115 
L 132.154037 136.326592 
L 133.216839 137.197488 
L 133.6951 137.57595 
L 134.492201 138.218295 
L 135.023602 138.65667 
L 135.926983 139.382548 
L 136.352104 139.7095 
L 137.255485 140.440298 
L 137.893167 140.900082 
L 138.105727 141.04259 
L 138.530848 141.402892 
L 138.849688 141.621958 
L 139.540509 142.168575 
L 140.975292 143.393293 
L 141.559833 143.899799 
L 141.825533 144.114462 
L 142.516354 144.631556 
L 142.941475 145.025384 
L 143.685436 145.589677 
L 144.429397 146.206073 
L 145.067078 146.752771 
L 145.439059 147.111761 
L 145.651619 147.268252 
L 145.86418 147.493163 
L 146.07674 147.596459 
L 146.448721 148.02704 
L 146.820701 148.358252 
L 147.033262 148.582166 
L 147.245822 148.77547 
L 147.458382 149.03003 
L 150.009106 151.805787 
L 150.381087 152.343351 
L 150.912488 153.000628 
L 151.497029 154.020971 
L 151.603309 154.104969 
L 151.815869 154.646644 
L 151.97529 154.803702 
L 152.24099 155.420921 
L 152.719251 156.887085 
L 152.931811 158.576596 
L 153.356932 165.185528 
L 153.569492 171.970575 
L 153.728913 174.060744 
L 153.888333 176.665471 
L 153.941473 176.856119 
L 154.207173 180.617949 
L 154.313453 182.689096 
L 154.419734 185.08719 
L 154.579154 191.940887 
L 154.632294 192.641907 
L 154.791714 335.875516 
L 155.110555 342.960607 
L 534.637057 342.960607 
L 534.690197 343.633534 
L 534.796477 351.700594 
L 534.796477 351.700594 
" clip-path="url(#pabababf4fc)" style="fill: none; stroke: #90ee90; stroke-width: 3; stroke-linecap: round"/>
   </g>
   <g id="patch_3">
    <path d="M 77.762501 368.506804 
L 77.762501 19.945052 
" style="fill: none; stroke: #cccccc; stroke-width: 1.25; stroke-linejoin: miter; stroke-linecap: square"/>
   </g>
   <g id="patch_4">
    <path d="M 556.56 368.506804 
L 556.56 19.945052 
" style="fill: none; stroke: #cccccc; stroke-width: 1.25; stroke-linejoin: miter; stroke-linecap: square"/>
   </g>
   <g id="patch_5">
    <path d="M 77.762501 368.506804 
L 556.56 368.506804 
" style="fill: none; stroke: #cccccc; stroke-width: 1.25; stroke-linejoin: miter; stroke-linecap: square"/>
   </g>
   <g id="patch_6">
    <path d="M 77.762501 19.945052 
L 556.56 19.945052 
" style="fill: none; stroke: #cccccc; stroke-width: 1.25; stroke-linejoin: miter; stroke-linecap: square"/>
   </g>
   <g id="legend_1">
    <g id="patch_7">
     <path d="M 413.782311 117.720893 
L 549.56 117.720893 
Q 551.56 117.720893 551.56 115.720893 
L 551.56 26.945052 
Q 551.56 24.945052 549.56 24.945052 
L 413.782311 24.945052 
Q 411.782311 24.945052 411.782311 26.945052 
L 411.782311 115.720893 
Q 411.782311 117.720893 413.782311 117.720893 
z
" style="fill: #ffffff; opacity: 0.8; stroke: #cccccc; stroke-linejoin: miter"/>
    </g>
    <g id="line2d_21">
     <path d="M 415.782311 32.917032 
L 425.782311 32.917032 
L 435.782311 32.917032 
" style="fill: none; stroke: #4169e1; stroke-width: 3; stroke-linecap: round"/>
    </g>
    <g id="text_17">
     <!-- LuXry (train) c=10 -->
     <g style="fill: #262626" transform="translate(443.782311 36.417032) scale(0.1 -0.1)">
      <defs>
       <path id="CMSS17-58" d="M 2214 2329 
L 3661 4416 
L 3072 4416 
L 1952 2762 
L 800 4416 
L 166 4416 
L 1690 2329 
L 83 0 
L 672 0 
L 1952 1941 
L 3277 0 
L 3910 0 
L 2214 2329 
z
" transform="scale(0.015625)"/>
       <path id="CMSS17-79" d="M 2675 2752 
L 2176 2752 
C 1632 1294 1446 702 1434 383 
L 1427 383 
C 1408 696 1126 1460 902 2007 
L 602 2752 
L 83 2752 
L 1216 13 
C 1146 -178 1043 -465 1011 -529 
C 870 -885 774 -885 672 -885 
C 646 -885 442 -885 211 -809 
L 250 -1229 
C 410 -1261 570 -1280 685 -1280 
C 845 -1280 1165 -1280 1459 -497 
L 2675 2752 
z
" transform="scale(0.015625)"/>
       <path id="CMSS17-28" d="M 1613 4768 
C 1267 4417 474 3601 474 1588 
C 474 -433 1267 -1243 1613 -1600 
L 2003 -1600 
C 1216 -784 960 357 960 1581 
C 960 2798 1203 3946 2003 4768 
L 1613 4768 
z
" transform="scale(0.015625)"/>
       <path id="CMSS17-29" d="M 723 -1600 
C 1069 -1249 1862 -433 1862 1581 
C 1862 3601 1069 4411 723 4768 
L 333 4768 
C 1120 3952 1376 2811 1376 1588 
C 1376 370 1133 -778 333 -1600 
L 723 -1600 
z
" transform="scale(0.015625)"/>
       <path id="CMSS17-63" d="M 2464 2541 
C 2464 2585 2170 2714 2093 2739 
C 1882 2816 1613 2816 1542 2816 
C 710 2816 211 2093 211 1363 
C 211 595 768 -64 1517 -64 
C 1946 -64 2253 76 2502 242 
L 2464 664 
C 2189 453 1869 337 1523 337 
C 1024 337 698 774 698 1369 
C 698 1831 909 2414 1549 2414 
C 1901 2414 2099 2343 2394 2145 
L 2464 2541 
z
" transform="scale(0.015625)"/>
       <path id="CMSS17-3d" d="M 4147 2017 
C 4243 2017 4339 2017 4339 2125 
C 4339 2240 4230 2240 4122 2240 
L 550 2240 
C 442 2240 333 2240 333 2125 
C 333 2017 429 2017 525 2017 
L 4147 2017 
z
M 4122 896 
C 4230 896 4339 896 4339 1011 
C 4339 1119 4243 1119 4147 1119 
L 525 1119 
C 429 1119 333 1119 333 1011 
C 333 896 442 896 550 896 
L 4122 896 
z
" transform="scale(0.015625)"/>
       <path id="CMSS17-31" d="M 1818 4288 
L 1696 4288 
C 1350 3940 947 3890 538 3890 
L 538 3520 
C 723 3520 1024 3520 1325 3667 
L 1325 369 
L 570 369 
L 570 0 
L 2573 0 
L 2573 369 
L 1818 369 
L 1818 4288 
z
" transform="scale(0.015625)"/>
       <path id="CMSS17-30" d="M 2758 2044 
C 2758 2405 2752 3077 2490 3596 
C 2227 4096 1805 4229 1504 4229 
C 1069 4229 698 3975 506 3570 
C 301 3146 243 2709 243 2044 
C 243 1589 262 1031 493 543 
C 755 5 1197 -128 1498 -128 
C 1894 -128 2278 81 2496 518 
C 2720 974 2758 1474 2758 2044 
z
M 1498 261 
C 1011 261 864 811 819 995 
C 742 1310 730 1614 730 2114 
C 730 2506 730 2948 851 3297 
C 998 3701 1254 3840 1498 3840 
C 1971 3840 2125 3372 2176 3208 
C 2272 2873 2272 2481 2272 2114 
C 2272 1526 2272 261 1498 261 
z
" transform="scale(0.015625)"/>
      </defs>
      <use xlink:href="#CMSS17-4c" transform="scale(0.996264)"/>
      <use xlink:href="#CMSS17-75" transform="translate(50.687105 0) scale(0.996264)"/>
      <use xlink:href="#CMSS17-58" transform="translate(98.892048 0) scale(0.996264)"/>
      <use xlink:href="#CMSS17-72" transform="translate(161.109903 0) scale(0.996264)"/>
      <use xlink:href="#CMSS17-79" transform="translate(193.019676 0) scale(0.996264)"/>
      <use xlink:href="#CMSS17-28" transform="translate(267.24893 0) scale(0.996264)"/>
      <use xlink:href="#CMSS17-74" transform="translate(303.682845 0) scale(0.996264)"/>
      <use xlink:href="#CMSS17-72" transform="translate(337.514411 0) scale(0.996264)"/>
      <use xlink:href="#CMSS17-61" transform="translate(369.424184 0) scale(0.996264)"/>
      <use xlink:href="#CMSS17-69" transform="translate(414.346104 0) scale(0.996264)"/>
      <use xlink:href="#CMSS17-6e" transform="translate(436.526827 0) scale(0.996264)"/>
      <use xlink:href="#CMSS17-29" transform="translate(484.731771 0) scale(0.996264)"/>
      <use xlink:href="#CMSS17-63" transform="translate(552.394798 0) scale(0.996264)"/>
      <use xlink:href="#CMSS17-3d" transform="translate(594.03362 0) scale(0.996264)"/>
      <use xlink:href="#CMSS17-31" transform="translate(666.901554 0) scale(0.996264)"/>
      <use xlink:href="#CMSS17-30" transform="translate(713.745178 0) scale(0.996264)"/>
     </g>
    </g>
    <g id="line2d_22">
     <path d="M 415.782311 47.879672 
L 425.782311 47.879672 
L 435.782311 47.879672 
" style="fill: none; stroke: #87ceeb; stroke-width: 3; stroke-linecap: round"/>
    </g>
    <g id="text_18">
     <!-- Downstream (test) c=10 -->
     <g style="fill: #262626" transform="translate(443.782311 51.379672) scale(0.1 -0.1)">
      <defs>
       <path id="CMSS17-44" d="M 570 4416 
L 570 0 
L 2144 0 
C 3194 0 4000 980 4000 2170 
C 4000 3398 3194 4416 2144 4416 
L 570 4416 
z
M 1094 357 
L 1094 4059 
L 2003 4059 
C 2861 4059 3475 3277 3475 2170 
C 3475 1107 2867 357 2003 357 
L 1094 357 
z
" transform="scale(0.015625)"/>
       <path id="CMSS17-77" d="M 4013 2752 
L 3526 2752 
L 3187 1601 
C 3117 1358 2918 685 2893 371 
L 2886 371 
C 2874 564 2765 1024 2586 1633 
L 2259 2752 
L 1818 2752 
L 1498 1658 
C 1338 1101 1216 627 1203 371 
L 1197 371 
C 1171 749 909 1633 870 1773 
L 582 2752 
L 83 2752 
L 915 0 
L 1402 0 
C 1734 1096 1990 1943 2010 2370 
C 2022 2160 2131 1707 2195 1484 
L 2618 0 
L 3181 0 
L 4013 2752 
z
" transform="scale(0.015625)"/>
       <path id="CMSS17-73" d="M 2061 2627 
C 1683 2807 1389 2807 1197 2807 
C 742 2807 198 2648 198 2003 
C 198 1359 902 1218 1094 1179 
C 1389 1122 1715 1058 1715 740 
C 1715 337 1254 337 1171 337 
C 915 337 563 407 243 638 
L 166 210 
C 531 0 883 -64 1178 -64 
C 1965 -64 2163 416 2163 781 
C 2163 1094 1984 1305 1862 1401 
C 1651 1568 1574 1587 1050 1696 
C 960 1709 646 1779 646 2066 
C 646 2432 1050 2432 1139 2432 
C 1555 2432 1811 2303 1984 2208 
L 2061 2627 
z
" transform="scale(0.015625)"/>
      </defs>
      <use xlink:href="#CMSS17-44" transform="scale(0.996264)"/>
      <use xlink:href="#CMSS17-6f" transform="translate(67.542842 0) scale(0.996264)"/>
      <use xlink:href="#CMSS17-77" transform="translate(111.784011 0) scale(0.996264)"/>
      <use xlink:href="#CMSS17-6e" transform="translate(175.603556 0) scale(0.996264)"/>
      <use xlink:href="#CMSS17-73" transform="translate(223.808499 0) scale(0.996264)"/>
      <use xlink:href="#CMSS17-74" transform="translate(259.722041 0) scale(0.996264)"/>
      <use xlink:href="#CMSS17-72" transform="translate(293.553608 0) scale(0.996264)"/>
      <use xlink:href="#CMSS17-65" transform="translate(325.463381 0) scale(0.996264)"/>
      <use xlink:href="#CMSS17-61" transform="translate(367.102203 0) scale(0.996264)"/>
      <use xlink:href="#CMSS17-6d" transform="translate(412.024123 0) scale(0.996264)"/>
      <use xlink:href="#CMSS17-28" transform="translate(517.482491 0) scale(0.996264)"/>
      <use xlink:href="#CMSS17-74" transform="translate(553.916405 0) scale(0.996264)"/>
      <use xlink:href="#CMSS17-65" transform="translate(587.747971 0) scale(0.996264)"/>
      <use xlink:href="#CMSS17-73" transform="translate(629.386794 0) scale(0.996264)"/>
      <use xlink:href="#CMSS17-74" transform="translate(665.300336 0) scale(0.996264)"/>
      <use xlink:href="#CMSS17-29" transform="translate(699.131902 0) scale(0.996264)"/>
      <use xlink:href="#CMSS17-63" transform="translate(766.794929 0) scale(0.996264)"/>
      <use xlink:href="#CMSS17-3d" transform="translate(808.433751 0) scale(0.996264)"/>
      <use xlink:href="#CMSS17-31" transform="translate(881.301686 0) scale(0.996264)"/>
      <use xlink:href="#CMSS17-30" transform="translate(928.14531 0) scale(0.996264)"/>
     </g>
    </g>
    <g id="line2d_23">
     <path d="M 415.782311 62.842312 
L 425.782311 62.842312 
L 435.782311 62.842312 
" style="fill: none; stroke: #b22222; stroke-width: 3; stroke-linecap: round"/>
    </g>
    <g id="text_19">
     <!-- LuXry (train) c=25 -->
     <g style="fill: #262626" transform="translate(443.782311 66.342312) scale(0.1 -0.1)">
      <defs>
       <path id="CMSS17-32" d="M 1651 1357 
C 1830 1541 2099 1764 2285 1987 
C 2464 2204 2701 2511 2701 2957 
C 2701 3657 2227 4288 1421 4288 
C 787 4288 422 3893 250 3274 
L 499 2929 
C 640 3510 838 3880 1338 3880 
C 1888 3880 2195 3433 2195 2942 
C 2195 2355 1747 1901 1408 1563 
C 1030 1187 659 804 301 408 
L 301 0 
L 2701 0 
L 2701 433 
L 1613 433 
C 1536 433 1459 433 1382 433 
L 742 433 
L 742 439 
L 1651 1357 
z
" transform="scale(0.015625)"/>
       <path id="CMSS17-35" d="M 934 3752 
L 2502 3752 
L 2502 4160 
L 467 4160 
L 467 1781 
L 896 1781 
C 1011 2046 1248 2240 1555 2240 
C 1843 2240 2163 1989 2163 1266 
C 2163 493 1709 267 1376 267 
C 966 267 589 512 422 851 
L 218 499 
C 512 49 992 -128 1376 -128 
C 2118 -128 2701 497 2701 1253 
C 2701 2030 2182 2629 1562 2629 
C 1338 2629 1120 2553 934 2399 
L 934 3752 
z
" transform="scale(0.015625)"/>
      </defs>
      <use xlink:href="#CMSS17-4c" transform="scale(0.996264)"/>
      <use xlink:href="#CMSS17-75" transform="translate(50.687105 0) scale(0.996264)"/>
      <use xlink:href="#CMSS17-58" transform="translate(98.892048 0) scale(0.996264)"/>
      <use xlink:href="#CMSS17-72" transform="translate(161.109903 0) scale(0.996264)"/>
      <use xlink:href="#CMSS17-79" transform="translate(193.019676 0) scale(0.996264)"/>
      <use xlink:href="#CMSS17-28" transform="translate(267.24893 0) scale(0.996264)"/>
      <use xlink:href="#CMSS17-74" transform="translate(303.682845 0) scale(0.996264)"/>
      <use xlink:href="#CMSS17-72" transform="translate(337.514411 0) scale(0.996264)"/>
      <use xlink:href="#CMSS17-61" transform="translate(369.424184 0) scale(0.996264)"/>
      <use xlink:href="#CMSS17-69" transform="translate(414.346104 0) scale(0.996264)"/>
      <use xlink:href="#CMSS17-6e" transform="translate(436.526827 0) scale(0.996264)"/>
      <use xlink:href="#CMSS17-29" transform="translate(484.731771 0) scale(0.996264)"/>
      <use xlink:href="#CMSS17-63" transform="translate(552.394798 0) scale(0.996264)"/>
      <use xlink:href="#CMSS17-3d" transform="translate(594.03362 0) scale(0.996264)"/>
      <use xlink:href="#CMSS17-32" transform="translate(666.901554 0) scale(0.996264)"/>
      <use xlink:href="#CMSS17-35" transform="translate(713.745178 0) scale(0.996264)"/>
     </g>
    </g>
    <g id="line2d_24">
     <path d="M 415.782311 77.804952 
L 425.782311 77.804952 
L 435.782311 77.804952 
" style="fill: none; stroke: #f08080; stroke-width: 3; stroke-linecap: round"/>
    </g>
    <g id="text_20">
     <!-- Downstream (test) c=25 -->
     <g style="fill: #262626" transform="translate(443.782311 81.304952) scale(0.1 -0.1)">
      <use xlink:href="#CMSS17-44" transform="scale(0.996264)"/>
      <use xlink:href="#CMSS17-6f" transform="translate(67.542842 0) scale(0.996264)"/>
      <use xlink:href="#CMSS17-77" transform="translate(111.784011 0) scale(0.996264)"/>
      <use xlink:href="#CMSS17-6e" transform="translate(175.603556 0) scale(0.996264)"/>
      <use xlink:href="#CMSS17-73" transform="translate(223.808499 0) scale(0.996264)"/>
      <use xlink:href="#CMSS17-74" transform="translate(259.722041 0) scale(0.996264)"/>
      <use xlink:href="#CMSS17-72" transform="translate(293.553608 0) scale(0.996264)"/>
      <use xlink:href="#CMSS17-65" transform="translate(325.463381 0) scale(0.996264)"/>
      <use xlink:href="#CMSS17-61" transform="translate(367.102203 0) scale(0.996264)"/>
      <use xlink:href="#CMSS17-6d" transform="translate(412.024123 0) scale(0.996264)"/>
      <use xlink:href="#CMSS17-28" transform="translate(517.482491 0) scale(0.996264)"/>
      <use xlink:href="#CMSS17-74" transform="translate(553.916405 0) scale(0.996264)"/>
      <use xlink:href="#CMSS17-65" transform="translate(587.747971 0) scale(0.996264)"/>
      <use xlink:href="#CMSS17-73" transform="translate(629.386794 0) scale(0.996264)"/>
      <use xlink:href="#CMSS17-74" transform="translate(665.300336 0) scale(0.996264)"/>
      <use xlink:href="#CMSS17-29" transform="translate(699.131902 0) scale(0.996264)"/>
      <use xlink:href="#CMSS17-63" transform="translate(766.794929 0) scale(0.996264)"/>
      <use xlink:href="#CMSS17-3d" transform="translate(808.433751 0) scale(0.996264)"/>
      <use xlink:href="#CMSS17-32" transform="translate(881.301686 0) scale(0.996264)"/>
      <use xlink:href="#CMSS17-35" transform="translate(928.14531 0) scale(0.996264)"/>
     </g>
    </g>
    <g id="line2d_25">
     <path d="M 415.782311 92.767592 
L 425.782311 92.767592 
L 435.782311 92.767592 
" style="fill: none; stroke: #2e8b57; stroke-width: 3; stroke-linecap: round"/>
    </g>
    <g id="text_21">
     <!-- LuXry (train) c=50 -->
     <g style="fill: #262626" transform="translate(443.782311 96.267592) scale(0.1 -0.1)">
      <use xlink:href="#CMSS17-4c" transform="scale(0.996264)"/>
      <use xlink:href="#CMSS17-75" transform="translate(50.687105 0) scale(0.996264)"/>
      <use xlink:href="#CMSS17-58" transform="translate(98.892048 0) scale(0.996264)"/>
      <use xlink:href="#CMSS17-72" transform="translate(161.109903 0) scale(0.996264)"/>
      <use xlink:href="#CMSS17-79" transform="translate(193.019676 0) scale(0.996264)"/>
      <use xlink:href="#CMSS17-28" transform="translate(267.24893 0) scale(0.996264)"/>
      <use xlink:href="#CMSS17-74" transform="translate(303.682845 0) scale(0.996264)"/>
      <use xlink:href="#CMSS17-72" transform="translate(337.514411 0) scale(0.996264)"/>
      <use xlink:href="#CMSS17-61" transform="translate(369.424184 0) scale(0.996264)"/>
      <use xlink:href="#CMSS17-69" transform="translate(414.346104 0) scale(0.996264)"/>
      <use xlink:href="#CMSS17-6e" transform="translate(436.526827 0) scale(0.996264)"/>
      <use xlink:href="#CMSS17-29" transform="translate(484.731771 0) scale(0.996264)"/>
      <use xlink:href="#CMSS17-63" transform="translate(552.394798 0) scale(0.996264)"/>
      <use xlink:href="#CMSS17-3d" transform="translate(594.03362 0) scale(0.996264)"/>
      <use xlink:href="#CMSS17-35" transform="translate(666.901554 0) scale(0.996264)"/>
      <use xlink:href="#CMSS17-30" transform="translate(713.745178 0) scale(0.996264)"/>
     </g>
    </g>
    <g id="line2d_26">
     <path d="M 415.782311 107.730232 
L 425.782311 107.730232 
L 435.782311 107.730232 
" style="fill: none; stroke: #90ee90; stroke-width: 3; stroke-linecap: round"/>
    </g>
    <g id="text_22">
     <!-- Downstream (test) c=50 -->
     <g style="fill: #262626" transform="translate(443.782311 111.230232) scale(0.1 -0.1)">
      <use xlink:href="#CMSS17-44" transform="scale(0.996264)"/>
      <use xlink:href="#CMSS17-6f" transform="translate(67.542842 0) scale(0.996264)"/>
      <use xlink:href="#CMSS17-77" transform="translate(111.784011 0) scale(0.996264)"/>
      <use xlink:href="#CMSS17-6e" transform="translate(175.603556 0) scale(0.996264)"/>
      <use xlink:href="#CMSS17-73" transform="translate(223.808499 0) scale(0.996264)"/>
      <use xlink:href="#CMSS17-74" transform="translate(259.722041 0) scale(0.996264)"/>
      <use xlink:href="#CMSS17-72" transform="translate(293.553608 0) scale(0.996264)"/>
      <use xlink:href="#CMSS17-65" transform="translate(325.463381 0) scale(0.996264)"/>
      <use xlink:href="#CMSS17-61" transform="translate(367.102203 0) scale(0.996264)"/>
      <use xlink:href="#CMSS17-6d" transform="translate(412.024123 0) scale(0.996264)"/>
      <use xlink:href="#CMSS17-28" transform="translate(517.482491 0) scale(0.996264)"/>
      <use xlink:href="#CMSS17-74" transform="translate(553.916405 0) scale(0.996264)"/>
      <use xlink:href="#CMSS17-65" transform="translate(587.747971 0) scale(0.996264)"/>
      <use xlink:href="#CMSS17-73" transform="translate(629.386794 0) scale(0.996264)"/>
      <use xlink:href="#CMSS17-74" transform="translate(665.300336 0) scale(0.996264)"/>
      <use xlink:href="#CMSS17-29" transform="translate(699.131902 0) scale(0.996264)"/>
      <use xlink:href="#CMSS17-63" transform="translate(766.794929 0) scale(0.996264)"/>
      <use xlink:href="#CMSS17-3d" transform="translate(808.433751 0) scale(0.996264)"/>
      <use xlink:href="#CMSS17-35" transform="translate(881.301686 0) scale(0.996264)"/>
      <use xlink:href="#CMSS17-30" transform="translate(928.14531 0) scale(0.996264)"/>
     </g>
    </g>
   </g>
  </g>
 </g>
 <defs>
  <clipPath id="pabababf4fc">
   <rect x="77.762501" y="19.945052" width="478.797499" height="348.561752"/>
  </clipPath>
 </defs>
</svg>
