<?xml version="1.0" encoding="utf-8" standalone="no"?>
<!DOCTYPE svg PUBLIC "-//W3C//DTD SVG 1.1//EN"
  "http://www.w3.org/Graphics/SVG/1.1/DTD/svg11.dtd">
<svg xmlns:xlink="http://www.w3.org/1999/xlink" width="1080pt" height="360pt" viewBox="0 0 1080 360" xmlns="http://www.w3.org/2000/svg" version="1.1">
 <metadata>
  <rdf:RDF xmlns:dc="http://purl.org/dc/elements/1.1/" xmlns:cc="http://creativecommons.org/ns#" xmlns:rdf="http://www.w3.org/1999/02/22-rdf-syntax-ns#">
   <cc:Work>
    <dc:type rdf:resource="http://purl.org/dc/dcmitype/StillImage"/>
    <dc:date>2024-06-22T11:38:57.827424</dc:date>
    <dc:format>image/svg+xml</dc:format>
    <dc:creator>
     <cc:Agent>
      <dc:title>Matplotlib v3.8.3, https://matplotlib.org/</dc:title>
     </cc:Agent>
    </dc:creator>
   </cc:Work>
  </rdf:RDF>
 </metadata>
 <defs>
  <style type="text/css">*{stroke-linejoin: round; stroke-linecap: butt}</style>
 </defs>
 <g id="figure_1">
  <g id="patch_1">
   <path d="M 0 360 
L 1080 360 
L 1080 0 
L 0 0 
z
" style="fill: #ffffff"/>
  </g>
  <g id="axes_1">
   <g id="patch_2">
    <path d="M 67.184535 281.205453 
L 351.36 281.205453 
L 351.36 68.312524 
L 67.184535 68.312524 
z
" style="fill: #ffffff"/>
   </g>
   <g id="matplotlib.axis_1">
    <g id="xtick_1">
     <g id="line2d_1">
      <path d="M 75.316306 281.205453 
L 75.316306 68.312524 
" clip-path="url(#p1928919b21)" style="fill: none; stroke: #cccccc; stroke-linecap: round"/>
     </g>
     <g id="text_1">
      <!-- $\mathdefault{0}$ -->
      <g style="fill: #262626" transform="translate(70.290353 305.926146) scale(0.22 -0.22)">
       <defs>
        <path id="CMR17-30" d="M 2688 2025 
C 2688 2416 2682 3080 2413 3591 
C 2176 4039 1798 4198 1466 4198 
C 1158 4198 768 4058 525 3597 
C 269 3118 243 2524 243 2025 
C 243 1661 250 1106 448 619 
C 723 -39 1216 -128 1466 -128 
C 1760 -128 2208 -7 2470 600 
C 2662 1042 2688 1559 2688 2025 
z
M 1466 -26 
C 1056 -26 813 325 723 812 
C 653 1188 653 1738 653 2096 
C 653 2588 653 2997 736 3387 
C 858 3929 1216 4096 1466 4096 
C 1728 4096 2067 3923 2189 3400 
C 2272 3036 2278 2607 2278 2096 
C 2278 1680 2278 1169 2202 792 
C 2067 95 1690 -26 1466 -26 
z
" transform="scale(0.015625)"/>
       </defs>
       <use xlink:href="#CMR17-30" transform="scale(0.996264)"/>
      </g>
     </g>
    </g>
    <g id="xtick_2">
     <g id="line2d_2">
      <path d="M 156.149013 281.205453 
L 156.149013 68.312524 
" clip-path="url(#p1928919b21)" style="fill: none; stroke: #cccccc; stroke-linecap: round"/>
     </g>
     <g id="text_2">
      <!-- $\mathdefault{2500}$ -->
      <g style="fill: #262626" transform="translate(136.045203 305.926146) scale(0.22 -0.22)">
       <defs>
        <path id="CMR17-32" d="M 2669 989 
L 2554 989 
C 2490 536 2438 459 2413 420 
C 2381 369 1920 369 1830 369 
L 602 369 
C 832 619 1280 1072 1824 1597 
C 2214 1967 2669 2402 2669 3035 
C 2669 3790 2067 4224 1395 4224 
C 691 4224 262 3604 262 3030 
C 262 2780 448 2748 525 2748 
C 589 2748 781 2787 781 3010 
C 781 3207 614 3264 525 3264 
C 486 3264 448 3258 422 3245 
C 544 3790 915 4058 1306 4058 
C 1862 4058 2227 3617 2227 3035 
C 2227 2479 1901 2000 1536 1584 
L 262 146 
L 262 0 
L 2515 0 
L 2669 989 
z
" transform="scale(0.015625)"/>
        <path id="CMR17-35" d="M 730 3692 
C 794 3666 1056 3584 1325 3584 
C 1920 3584 2246 3911 2432 4100 
C 2432 4157 2432 4192 2394 4192 
C 2387 4192 2374 4192 2323 4163 
C 2099 4058 1837 3973 1517 3973 
C 1325 3973 1037 3999 723 4139 
C 653 4171 640 4171 634 4171 
C 602 4171 595 4164 595 4037 
L 595 2203 
C 595 2089 595 2057 659 2057 
C 691 2057 704 2070 736 2114 
C 941 2401 1222 2522 1542 2522 
C 1766 2522 2246 2382 2246 1289 
C 2246 1085 2246 715 2054 421 
C 1894 159 1645 25 1370 25 
C 947 25 518 320 403 814 
C 429 807 480 795 506 795 
C 589 795 749 840 749 1038 
C 749 1210 627 1280 506 1280 
C 358 1280 262 1190 262 1011 
C 262 454 704 -128 1382 -128 
C 2042 -128 2669 440 2669 1264 
C 2669 2030 2170 2624 1549 2624 
C 1222 2624 947 2503 730 2274 
L 730 3692 
z
" transform="scale(0.015625)"/>
       </defs>
       <use xlink:href="#CMR17-32" transform="scale(0.996264)"/>
       <use xlink:href="#CMR17-35" transform="translate(45.690477 0) scale(0.996264)"/>
       <use xlink:href="#CMR17-30" transform="translate(91.380954 0) scale(0.996264)"/>
       <use xlink:href="#CMR17-30" transform="translate(137.071431 0) scale(0.996264)"/>
      </g>
     </g>
    </g>
    <g id="xtick_3">
     <g id="line2d_3">
      <path d="M 236.98172 281.205453 
L 236.98172 68.312524 
" clip-path="url(#p1928919b21)" style="fill: none; stroke: #cccccc; stroke-linecap: round"/>
     </g>
     <g id="text_3">
      <!-- $\mathdefault{5000}$ -->
      <g style="fill: #262626" transform="translate(216.87791 305.926146) scale(0.22 -0.22)">
       <use xlink:href="#CMR17-35" transform="scale(0.996264)"/>
       <use xlink:href="#CMR17-30" transform="translate(45.690477 0) scale(0.996264)"/>
       <use xlink:href="#CMR17-30" transform="translate(91.380954 0) scale(0.996264)"/>
       <use xlink:href="#CMR17-30" transform="translate(137.071431 0) scale(0.996264)"/>
      </g>
     </g>
    </g>
    <g id="xtick_4">
     <g id="line2d_4">
      <path d="M 317.814427 281.205453 
L 317.814427 68.312524 
" clip-path="url(#p1928919b21)" style="fill: none; stroke: #cccccc; stroke-linecap: round"/>
     </g>
     <g id="text_4">
      <!-- $\mathdefault{7500}$ -->
      <g style="fill: #262626" transform="translate(297.710617 305.926146) scale(0.22 -0.22)">
       <defs>
        <path id="CMR17-37" d="M 2886 3941 
L 2886 4081 
L 1382 4081 
C 634 4081 621 4165 595 4288 
L 480 4288 
L 294 3094 
L 410 3094 
C 429 3215 474 3540 550 3661 
C 589 3712 1062 3712 1171 3712 
L 2579 3712 
L 1869 2661 
C 1395 1954 1069 999 1069 165 
C 1069 89 1069 -128 1299 -128 
C 1530 -128 1530 89 1530 171 
L 1530 465 
C 1530 1508 1709 2196 2003 2636 
L 2886 3941 
z
" transform="scale(0.015625)"/>
       </defs>
       <use xlink:href="#CMR17-37" transform="scale(0.996264)"/>
       <use xlink:href="#CMR17-35" transform="translate(45.690477 0) scale(0.996264)"/>
       <use xlink:href="#CMR17-30" transform="translate(91.380954 0) scale(0.996264)"/>
       <use xlink:href="#CMR17-30" transform="translate(137.071431 0) scale(0.996264)"/>
      </g>
     </g>
    </g>
    <g id="text_5">
     <!-- Height (pixels) -->
     <g style="fill: #262626" transform="translate(151.674592 329.115356) scale(0.2 -0.2)">
      <defs>
       <path id="CMSS17-48" d="M 3674 4416 
L 3136 4416 
L 3136 2501 
L 1101 2501 
L 1101 4416 
L 563 4416 
L 563 0 
L 1101 0 
L 1101 2112 
L 3136 2112 
L 3136 0 
L 3674 0 
L 3674 4416 
z
" transform="scale(0.015625)"/>
       <path id="CMSS17-65" d="M 2502 1377 
C 2502 1590 2490 2003 2285 2345 
C 2061 2713 1696 2816 1421 2816 
C 755 2816 192 2188 192 1375 
C 192 582 774 -64 1510 -64 
C 1798 -64 2150 19 2470 248 
C 2470 274 2458 414 2451 420 
C 2451 433 2432 630 2432 656 
C 2125 407 1773 325 1517 325 
C 1107 325 666 667 646 1377 
L 2502 1377 
z
M 698 1728 
C 781 2084 1062 2421 1421 2421 
C 1517 2421 1965 2421 2080 1728 
L 698 1728 
z
" transform="scale(0.015625)"/>
       <path id="CMSS17-69" d="M 979 4183 
L 442 4183 
L 442 3648 
L 979 3648 
L 979 4183 
z
M 947 2739 
L 474 2739 
L 474 0 
L 947 0 
L 947 2739 
z
" transform="scale(0.015625)"/>
       <path id="CMSS17-67" d="M 2848 2808 
C 2483 2808 2170 2738 1914 2617 
C 1702 2777 1485 2808 1338 2808 
C 781 2808 358 2349 358 1814 
C 358 1468 550 1207 563 1195 
C 448 1035 384 863 384 672 
C 384 448 474 289 544 200 
C 211 -3 166 -314 166 -435 
C 166 -898 749 -1280 1498 -1280 
C 2253 -1280 2835 -898 2835 -428 
C 2835 448 1856 448 1587 448 
L 1069 448 
C 973 448 717 448 717 791 
C 717 921 774 1004 781 1010 
C 877 940 1075 832 1338 832 
C 1869 832 2310 1278 2310 1827 
C 2310 2132 2170 2355 2112 2432 
L 2131 2432 
C 2150 2432 2419 2432 2515 2432 
C 2720 2432 2739 2429 2918 2419 
L 2848 2808 
z
M 1338 1182 
C 1120 1182 813 1315 813 1823 
C 813 2375 1165 2464 1331 2464 
C 1549 2464 1856 2331 1856 1823 
C 1856 1271 1504 1182 1338 1182 
z
M 1581 -10 
C 1734 -10 2381 -10 2381 -442 
C 2381 -714 1984 -929 1504 -929 
C 1018 -929 621 -720 621 -435 
C 621 -403 621 -10 1062 -10 
L 1581 -10 
z
" transform="scale(0.015625)"/>
       <path id="CMSS17-68" d="M 2618 1891 
C 2618 2292 2522 2820 1798 2820 
C 1395 2820 1133 2623 947 2407 
L 947 4448 
L 474 4448 
L 474 32 
L 960 32 
L 960 1573 
C 960 1973 1114 2432 1549 2432 
C 2112 2432 2131 2056 2131 1839 
L 2131 32 
L 2618 32 
L 2618 1891 
z
" transform="scale(0.015625)"/>
       <path id="CMSS17-74" d="M 1069 2368 
L 1901 2368 
L 1901 2737 
L 1069 2737 
L 1069 3520 
L 614 3520 
L 614 2737 
L 109 2737 
L 109 2368 
L 602 2368 
L 602 749 
C 602 384 685 -64 1107 -64 
C 1427 -64 1722 25 2003 172 
L 1901 548 
C 1747 414 1562 337 1363 337 
C 1082 337 1069 696 1069 856 
L 1069 2368 
z
" transform="scale(0.015625)"/>
       <path id="CMSS17-28" d="M 1613 4768 
C 1267 4417 474 3601 474 1588 
C 474 -433 1267 -1243 1613 -1600 
L 2003 -1600 
C 1216 -784 960 357 960 1581 
C 960 2798 1203 3946 2003 4768 
L 1613 4768 
z
" transform="scale(0.015625)"/>
       <path id="CMSS17-70" d="M 966 333 
C 1178 129 1466 -5 1773 -5 
C 2368 -5 2880 603 2880 1412 
C 2880 2159 2496 2816 1946 2816 
C 1626 2816 1242 2702 954 2472 
L 954 2765 
L 480 2765 
L 480 -1216 
L 966 -1216 
L 966 333 
z
M 966 2100 
C 1018 2176 1235 2415 1587 2415 
C 2035 2415 2394 1960 2394 1412 
C 2394 787 1958 384 1530 384 
C 1402 384 1267 415 1139 523 
C 966 674 966 768 966 857 
L 966 2100 
z
" transform="scale(0.015625)"/>
       <path id="CMSS17-78" d="M 1587 1414 
L 2656 2739 
L 2099 2739 
L 1363 1777 
L 602 2739 
L 32 2739 
L 1139 1414 
L 0 0 
L 563 0 
L 1363 1121 
L 2195 0 
L 2758 0 
L 1587 1414 
z
" transform="scale(0.015625)"/>
       <path id="CMSS17-6c" d="M 947 4416 
L 474 4416 
L 474 0 
L 947 0 
L 947 4416 
z
" transform="scale(0.015625)"/>
       <path id="CMSS17-73" d="M 2061 2627 
C 1683 2807 1389 2807 1197 2807 
C 742 2807 198 2648 198 2003 
C 198 1359 902 1218 1094 1179 
C 1389 1122 1715 1058 1715 740 
C 1715 337 1254 337 1171 337 
C 915 337 563 407 243 638 
L 166 210 
C 531 0 883 -64 1178 -64 
C 1965 -64 2163 416 2163 781 
C 2163 1094 1984 1305 1862 1401 
C 1651 1568 1574 1587 1050 1696 
C 960 1709 646 1779 646 2066 
C 646 2432 1050 2432 1139 2432 
C 1555 2432 1811 2303 1984 2208 
L 2061 2627 
z
" transform="scale(0.015625)"/>
       <path id="CMSS17-29" d="M 723 -1600 
C 1069 -1249 1862 -433 1862 1581 
C 1862 3601 1069 4411 723 4768 
L 333 4768 
C 1120 3952 1376 2811 1376 1588 
C 1376 370 1133 -778 333 -1600 
L 723 -1600 
z
" transform="scale(0.015625)"/>
      </defs>
      <use xlink:href="#CMSS17-48" transform="scale(0.996264)"/>
      <use xlink:href="#CMSS17-65" transform="translate(66.061519 0) scale(0.996264)"/>
      <use xlink:href="#CMSS17-69" transform="translate(107.700341 0) scale(0.996264)"/>
      <use xlink:href="#CMSS17-67" transform="translate(129.881064 0) scale(0.996264)"/>
      <use xlink:href="#CMSS17-68" transform="translate(176.724688 0) scale(0.996264)"/>
      <use xlink:href="#CMSS17-74" transform="translate(224.929631 0) scale(0.996264)"/>
      <use xlink:href="#CMSS17-28" transform="translate(289.99031 0) scale(0.996264)"/>
      <use xlink:href="#CMSS17-70" transform="translate(326.424225 0) scale(0.996264)"/>
      <use xlink:href="#CMSS17-69" transform="translate(374.629168 0) scale(0.996264)"/>
      <use xlink:href="#CMSS17-78" transform="translate(396.809891 0) scale(0.996264)"/>
      <use xlink:href="#CMSS17-65" transform="translate(439.810032 0) scale(0.996264)"/>
      <use xlink:href="#CMSS17-6c" transform="translate(481.448855 0) scale(0.996264)"/>
      <use xlink:href="#CMSS17-73" transform="translate(503.629578 0) scale(0.996264)"/>
      <use xlink:href="#CMSS17-29" transform="translate(539.54312 0) scale(0.996264)"/>
     </g>
    </g>
   </g>
   <g id="matplotlib.axis_2">
    <g id="ytick_1">
     <g id="line2d_5">
      <path d="M 67.184535 281.205453 
L 351.36 281.205453 
" clip-path="url(#p1928919b21)" style="fill: none; stroke: #cccccc; stroke-linecap: round"/>
     </g>
     <g id="text_6">
      <!-- $\mathdefault{0.0}$ -->
      <g style="fill: #262626" transform="translate(31.619346 288.8158) scale(0.22 -0.22)">
       <defs>
        <path id="CMMI12-3a" d="M 1178 307 
C 1178 492 1024 619 870 619 
C 685 619 557 466 557 313 
C 557 128 710 0 864 0 
C 1050 0 1178 153 1178 307 
z
" transform="scale(0.015625)"/>
       </defs>
       <use xlink:href="#CMR17-30" transform="scale(0.996264)"/>
       <use xlink:href="#CMMI12-3a" transform="translate(45.690477 0) scale(0.996264)"/>
       <use xlink:href="#CMR17-30" transform="translate(72.787654 0) scale(0.996264)"/>
      </g>
     </g>
    </g>
    <g id="ytick_2">
     <g id="line2d_6">
      <path d="M 67.184535 216.742828 
L 351.36 216.742828 
" clip-path="url(#p1928919b21)" style="fill: none; stroke: #cccccc; stroke-linecap: round"/>
     </g>
     <g id="text_7">
      <!-- $\mathdefault{2.5}$ -->
      <g style="fill: #262626" transform="translate(31.619346 224.353175) scale(0.22 -0.22)">
       <use xlink:href="#CMR17-32" transform="scale(0.996264)"/>
       <use xlink:href="#CMMI12-3a" transform="translate(45.690477 0) scale(0.996264)"/>
       <use xlink:href="#CMR17-35" transform="translate(72.787654 0) scale(0.996264)"/>
      </g>
     </g>
    </g>
    <g id="ytick_3">
     <g id="line2d_7">
      <path d="M 67.184535 152.280203 
L 351.36 152.280203 
" clip-path="url(#p1928919b21)" style="fill: none; stroke: #cccccc; stroke-linecap: round"/>
     </g>
     <g id="text_8">
      <!-- $\mathdefault{5.0}$ -->
      <g style="fill: #262626" transform="translate(31.619346 159.89055) scale(0.22 -0.22)">
       <use xlink:href="#CMR17-35" transform="scale(0.996264)"/>
       <use xlink:href="#CMMI12-3a" transform="translate(45.690477 0) scale(0.996264)"/>
       <use xlink:href="#CMR17-30" transform="translate(72.787654 0) scale(0.996264)"/>
      </g>
     </g>
    </g>
    <g id="ytick_4">
     <g id="line2d_8">
      <path d="M 67.184535 87.817578 
L 351.36 87.817578 
" clip-path="url(#p1928919b21)" style="fill: none; stroke: #cccccc; stroke-linecap: round"/>
     </g>
     <g id="text_9">
      <!-- $\mathdefault{7.5}$ -->
      <g style="fill: #262626" transform="translate(31.619346 95.427925) scale(0.22 -0.22)">
       <use xlink:href="#CMR17-37" transform="scale(0.996264)"/>
       <use xlink:href="#CMMI12-3a" transform="translate(45.690477 0) scale(0.996264)"/>
       <use xlink:href="#CMR17-35" transform="translate(72.787654 0) scale(0.996264)"/>
      </g>
     </g>
    </g>
    <g id="text_10">
     <!-- Density -->
     <g style="fill: #262626" transform="translate(23.743713 203.729991) rotate(-90) scale(0.2 -0.2)">
      <defs>
       <path id="CMSS17-44" d="M 570 4416 
L 570 0 
L 2144 0 
C 3194 0 4000 980 4000 2170 
C 4000 3398 3194 4416 2144 4416 
L 570 4416 
z
M 1094 357 
L 1094 4059 
L 2003 4059 
C 2861 4059 3475 3277 3475 2170 
C 3475 1107 2867 357 2003 357 
L 1094 357 
z
" transform="scale(0.015625)"/>
       <path id="CMSS17-6e" d="M 2618 1877 
C 2618 2283 2522 2816 1798 2816 
C 1389 2816 1120 2606 941 2389 
L 941 2758 
L 474 2758 
L 474 0 
L 960 0 
L 960 1559 
C 960 1964 1114 2428 1549 2428 
C 2112 2428 2131 2048 2131 1829 
L 2131 0 
L 2618 0 
L 2618 1877 
z
" transform="scale(0.015625)"/>
       <path id="CMSS17-79" d="M 2675 2752 
L 2176 2752 
C 1632 1294 1446 702 1434 383 
L 1427 383 
C 1408 696 1126 1460 902 2007 
L 602 2752 
L 83 2752 
L 1216 13 
C 1146 -178 1043 -465 1011 -529 
C 870 -885 774 -885 672 -885 
C 646 -885 442 -885 211 -809 
L 250 -1229 
C 410 -1261 570 -1280 685 -1280 
C 845 -1280 1165 -1280 1459 -497 
L 2675 2752 
z
" transform="scale(0.015625)"/>
      </defs>
      <use xlink:href="#CMSS17-44" transform="scale(0.996264)"/>
      <use xlink:href="#CMSS17-65" transform="translate(67.542842 0) scale(0.996264)"/>
      <use xlink:href="#CMSS17-6e" transform="translate(109.181664 0) scale(0.996264)"/>
      <use xlink:href="#CMSS17-73" transform="translate(157.386607 0) scale(0.996264)"/>
      <use xlink:href="#CMSS17-69" transform="translate(193.300149 0) scale(0.996264)"/>
      <use xlink:href="#CMSS17-74" transform="translate(215.480872 0) scale(0.996264)"/>
      <use xlink:href="#CMSS17-79" transform="translate(246.709985 0) scale(0.996264)"/>
     </g>
    </g>
    <g id="text_11">
     <!-- $\times\mathdefault{10^{4}}\mathdefault{}$ -->
     <g style="fill: #262626" transform="translate(67.184535 65.312524) scale(0.22 -0.22)">
      <defs>
       <path id="CMSY10-2" d="M 2490 1785 
L 1210 3059 
C 1133 3136 1120 3148 1069 3148 
C 1005 3148 941 3091 941 3020 
C 941 2976 954 2963 1024 2892 
L 2304 1606 
L 1024 320 
C 954 249 941 236 941 192 
C 941 121 1005 64 1069 64 
C 1120 64 1133 76 1210 153 
L 2483 1427 
L 3808 102 
C 3821 96 3866 64 3904 64 
C 3981 64 4032 121 4032 192 
C 4032 204 4032 230 4013 262 
C 4006 275 2989 1280 2669 1606 
L 3840 2777 
C 3872 2816 3968 2899 4000 2937 
C 4006 2950 4032 2976 4032 3020 
C 4032 3091 3981 3148 3904 3148 
C 3853 3148 3827 3123 3757 3052 
L 2490 1785 
z
" transform="scale(0.015625)"/>
       <path id="CMR17-31" d="M 1702 4058 
C 1702 4192 1696 4192 1606 4192 
C 1357 3916 979 3827 621 3827 
C 602 3827 570 3827 563 3808 
C 557 3795 557 3782 557 3648 
C 755 3648 1088 3686 1344 3839 
L 1344 461 
C 1344 236 1331 160 781 160 
L 589 160 
L 589 0 
C 896 0 1216 0 1523 0 
C 1830 0 2150 0 2458 0 
L 2458 160 
L 2266 160 
C 1715 160 1702 230 1702 458 
L 1702 4058 
z
" transform="scale(0.015625)"/>
       <path id="CMR17-34" d="M 2150 4122 
C 2150 4256 2144 4256 2029 4256 
L 128 1254 
L 128 1088 
L 1779 1088 
L 1779 457 
C 1779 224 1766 160 1318 160 
L 1197 160 
L 1197 0 
C 1402 0 1747 0 1965 0 
C 2182 0 2528 0 2733 0 
L 2733 160 
L 2611 160 
C 2163 160 2150 224 2150 457 
L 2150 1088 
L 2803 1088 
L 2803 1254 
L 2150 1254 
L 2150 4122 
z
M 1798 3703 
L 1798 1254 
L 256 1254 
L 1798 3703 
z
" transform="scale(0.015625)"/>
      </defs>
      <use xlink:href="#CMSY10-2" transform="scale(0.996264)"/>
      <use xlink:href="#CMR17-31" transform="translate(77.487468 0) scale(0.996264)"/>
      <use xlink:href="#CMR17-30" transform="translate(123.177945 0) scale(0.996264)"/>
      <use xlink:href="#CMR17-34" transform="translate(168.868422 36.153639) scale(0.697382)"/>
     </g>
    </g>
   </g>
   <g id="patch_3">
    <path d="M 80.101602 281.205453 
L 93.018668 281.205453 
L 93.018668 277.497563 
L 80.101602 277.497563 
z
" clip-path="url(#p1928919b21)" style="fill: #87ceeb; fill-opacity: 0.5; stroke: #ffffff; stroke-linejoin: miter"/>
   </g>
   <g id="patch_4">
    <path d="M 93.018668 281.205453 
L 105.935735 281.205453 
L 105.935735 239.170665 
L 93.018668 239.170665 
z
" clip-path="url(#p1928919b21)" style="fill: #87ceeb; fill-opacity: 0.5; stroke: #ffffff; stroke-linejoin: miter"/>
   </g>
   <g id="patch_5">
    <path d="M 105.935735 281.205453 
L 118.852802 281.205453 
L 118.852802 178.299897 
L 105.935735 178.299897 
z
" clip-path="url(#p1928919b21)" style="fill: #87ceeb; fill-opacity: 0.5; stroke: #ffffff; stroke-linejoin: miter"/>
   </g>
   <g id="patch_6">
    <path d="M 118.852802 281.205453 
L 131.769868 281.205453 
L 131.769868 118.945291 
L 118.852802 118.945291 
z
" clip-path="url(#p1928919b21)" style="fill: #87ceeb; fill-opacity: 0.5; stroke: #ffffff; stroke-linejoin: miter"/>
   </g>
   <g id="patch_7">
    <path d="M 131.769868 281.205453 
L 144.686935 281.205453 
L 144.686935 89.66121 
L 131.769868 89.66121 
z
" clip-path="url(#p1928919b21)" style="fill: #87ceeb; fill-opacity: 0.5; stroke: #ffffff; stroke-linejoin: miter"/>
   </g>
   <g id="patch_8">
    <path d="M 144.686935 281.205453 
L 157.604001 281.205453 
L 157.604001 115.92844 
L 144.686935 115.92844 
z
" clip-path="url(#p1928919b21)" style="fill: #87ceeb; fill-opacity: 0.5; stroke: #ffffff; stroke-linejoin: miter"/>
   </g>
   <g id="patch_9">
    <path d="M 157.604001 281.205453 
L 170.521068 281.205453 
L 170.521068 243.587644 
L 157.604001 243.587644 
z
" clip-path="url(#p1928919b21)" style="fill: #87ceeb; fill-opacity: 0.5; stroke: #ffffff; stroke-linejoin: miter"/>
   </g>
   <g id="patch_10">
    <path d="M 170.521068 281.205453 
L 183.438135 281.205453 
L 183.438135 242.708373 
L 170.521068 242.708373 
z
" clip-path="url(#p1928919b21)" style="fill: #87ceeb; fill-opacity: 0.5; stroke: #ffffff; stroke-linejoin: miter"/>
   </g>
   <g id="patch_11">
    <path d="M 183.438135 281.205453 
L 196.355201 281.205453 
L 196.355201 279.629986 
L 183.438135 279.629986 
z
" clip-path="url(#p1928919b21)" style="fill: #87ceeb; fill-opacity: 0.5; stroke: #ffffff; stroke-linejoin: miter"/>
   </g>
   <g id="patch_12">
    <path d="M 196.355201 281.205453 
L 209.272268 281.205453 
L 209.272268 280.769686 
L 196.355201 280.769686 
z
" clip-path="url(#p1928919b21)" style="fill: #87ceeb; fill-opacity: 0.5; stroke: #ffffff; stroke-linejoin: miter"/>
   </g>
   <g id="patch_13">
    <path d="M 209.272268 281.205453 
L 222.189334 281.205453 
L 222.189334 281.130676 
L 209.272268 281.130676 
z
" clip-path="url(#p1928919b21)" style="fill: #87ceeb; fill-opacity: 0.5; stroke: #ffffff; stroke-linejoin: miter"/>
   </g>
   <g id="patch_14">
    <path d="M 222.189334 281.205453 
L 235.106401 281.205453 
L 235.106401 281.171932 
L 222.189334 281.171932 
z
" clip-path="url(#p1928919b21)" style="fill: #87ceeb; fill-opacity: 0.5; stroke: #ffffff; stroke-linejoin: miter"/>
   </g>
   <g id="patch_15">
    <path d="M 235.106401 281.205453 
L 248.023467 281.205453 
L 248.023467 281.153883 
L 235.106401 281.153883 
z
" clip-path="url(#p1928919b21)" style="fill: #87ceeb; fill-opacity: 0.5; stroke: #ffffff; stroke-linejoin: miter"/>
   </g>
   <g id="patch_16">
    <path d="M 248.023467 281.205453 
L 260.940534 281.205453 
L 260.940534 281.200296 
L 248.023467 281.200296 
z
" clip-path="url(#p1928919b21)" style="fill: #87ceeb; fill-opacity: 0.5; stroke: #ffffff; stroke-linejoin: miter"/>
   </g>
   <g id="patch_17">
    <path d="M 260.940534 281.205453 
L 273.857601 281.205453 
L 273.857601 281.205453 
L 260.940534 281.205453 
z
" clip-path="url(#p1928919b21)" style="fill: #87ceeb; fill-opacity: 0.5; stroke: #ffffff; stroke-linejoin: miter"/>
   </g>
   <g id="patch_18">
    <path d="M 273.857601 281.205453 
L 286.774667 281.205453 
L 286.774667 281.205453 
L 273.857601 281.205453 
z
" clip-path="url(#p1928919b21)" style="fill: #87ceeb; fill-opacity: 0.5; stroke: #ffffff; stroke-linejoin: miter"/>
   </g>
   <g id="patch_19">
    <path d="M 286.774667 281.205453 
L 299.691734 281.205453 
L 299.691734 281.205453 
L 286.774667 281.205453 
z
" clip-path="url(#p1928919b21)" style="fill: #87ceeb; fill-opacity: 0.5; stroke: #ffffff; stroke-linejoin: miter"/>
   </g>
   <g id="patch_20">
    <path d="M 299.691734 281.205453 
L 312.6088 281.205453 
L 312.6088 281.202875 
L 299.691734 281.202875 
z
" clip-path="url(#p1928919b21)" style="fill: #87ceeb; fill-opacity: 0.5; stroke: #ffffff; stroke-linejoin: miter"/>
   </g>
   <g id="patch_21">
    <path d="M 312.6088 281.205453 
L 325.525867 281.205453 
L 325.525867 281.202875 
L 312.6088 281.202875 
z
" clip-path="url(#p1928919b21)" style="fill: #87ceeb; fill-opacity: 0.5; stroke: #ffffff; stroke-linejoin: miter"/>
   </g>
   <g id="patch_22">
    <path d="M 325.525867 281.205453 
L 338.442933 281.205453 
L 338.442933 281.197717 
L 325.525867 281.197717 
z
" clip-path="url(#p1928919b21)" style="fill: #87ceeb; fill-opacity: 0.5; stroke: #ffffff; stroke-linejoin: miter"/>
   </g>
   <g id="line2d_9">
    <path d="M 80.101602 281.176926 
L 82.697997 281.003092 
L 83.996195 280.733342 
L 85.294392 280.18418 
L 86.59259 279.182412 
L 87.890788 277.665591 
L 89.188985 275.647229 
L 90.487183 272.931067 
L 91.785381 269.297573 
L 94.381776 260.357942 
L 95.679974 255.24308 
L 99.574567 237.735755 
L 102.170962 228.391936 
L 104.767357 217.713116 
L 106.065555 211.898232 
L 107.363752 205.421196 
L 108.66195 197.927797 
L 109.960148 189.75113 
L 111.258345 182.605814 
L 113.854741 171.532341 
L 116.451136 156.882168 
L 117.749334 150.591225 
L 120.345729 139.835651 
L 124.240322 125.074724 
L 125.53852 120.773265 
L 126.836717 115.879512 
L 128.134915 108.37913 
L 129.433112 98.801638 
L 130.73131 92.448409 
L 132.029508 92.372024 
L 133.327705 95.266283 
L 134.625903 96.682486 
L 135.924101 94.024497 
L 137.222298 90.838438 
L 138.520496 90.867518 
L 139.818694 86.307472 
L 141.116891 78.450283 
L 142.415089 81.828081 
L 145.011484 106.055127 
L 146.309682 119.224157 
L 147.607879 130.235703 
L 148.906077 134.426749 
L 151.502472 125.244561 
L 152.80067 128.426952 
L 154.098868 119.202765 
L 155.397065 97.789586 
L 156.695263 117.743413 
L 157.993461 179.575888 
L 159.291658 225.931252 
L 160.589856 242.779326 
L 161.888054 247.3752 
L 163.186251 249.147778 
L 164.484449 249.438998 
L 165.782647 246.540939 
L 167.080844 239.414229 
L 168.379042 231.638585 
L 169.677239 219.036229 
L 170.975437 191.981823 
L 172.273635 175.824868 
L 173.571832 199.6734 
L 174.87003 238.413545 
L 176.168228 262.321314 
L 177.466425 271.409033 
L 178.764623 274.445909 
L 180.062821 275.945998 
L 181.361018 277.107456 
L 182.659216 277.777919 
L 185.255611 277.263808 
L 186.553809 278.307616 
L 187.852007 279.736252 
L 189.150204 280.519734 
L 190.448402 280.761005 
L 191.746599 280.744846 
L 195.641192 280.265394 
L 196.93939 280.039121 
L 198.237588 279.992959 
L 202.132181 281.023517 
L 206.026774 281.133762 
L 225.499738 281.184835 
L 251.463691 281.205089 
L 334.54834 281.200399 
L 338.442933 281.196832 
L 338.442933 281.196832 
" clip-path="url(#p1928919b21)" style="fill: none; stroke: #87ceeb; stroke-width: 1.5; stroke-linecap: round"/>
   </g>
   <g id="patch_23">
    <path d="M 67.184535 281.205453 
L 67.184535 68.312524 
" style="fill: none; stroke: #cccccc; stroke-width: 1.25; stroke-linejoin: miter; stroke-linecap: square"/>
   </g>
   <g id="patch_24">
    <path d="M 351.36 281.205453 
L 351.36 68.312524 
" style="fill: none; stroke: #cccccc; stroke-width: 1.25; stroke-linejoin: miter; stroke-linecap: square"/>
   </g>
   <g id="patch_25">
    <path d="M 67.184535 281.205453 
L 351.36 281.205453 
" style="fill: none; stroke: #cccccc; stroke-width: 1.25; stroke-linejoin: miter; stroke-linecap: square"/>
   </g>
   <g id="patch_26">
    <path d="M 67.184535 68.312524 
L 351.36 68.312524 
" style="fill: none; stroke: #cccccc; stroke-width: 1.25; stroke-linejoin: miter; stroke-linecap: square"/>
   </g>
   <g id="text_12">
    <!-- X-ray Height Distribution -->
    <g style="fill: #262626" transform="translate(80.19201 43.908102) scale(0.26 -0.26)">
     <defs>
      <path id="CMSS17-58" d="M 2214 2329 
L 3661 4416 
L 3072 4416 
L 1952 2762 
L 800 4416 
L 166 4416 
L 1690 2329 
L 83 0 
L 672 0 
L 1952 1941 
L 3277 0 
L 3910 0 
L 2214 2329 
z
" transform="scale(0.015625)"/>
      <path id="CMSS17-2d" d="M 1664 1216 
L 1664 1585 
L 64 1585 
L 64 1216 
L 1664 1216 
z
" transform="scale(0.015625)"/>
      <path id="CMSS17-72" d="M 954 1363 
C 954 1965 1395 2368 1958 2368 
L 1958 2789 
C 1549 2789 1165 2585 934 2253 
L 934 2758 
L 480 2758 
L 480 0 
L 954 0 
L 954 1363 
z
" transform="scale(0.015625)"/>
      <path id="CMSS17-61" d="M 2406 1791 
C 2406 2392 1978 2808 1402 2808 
C 1120 2808 813 2757 461 2553 
L 499 2135 
C 659 2248 934 2432 1395 2432 
C 1722 2432 1920 2180 1920 1782 
L 1920 1536 
C 896 1536 256 1238 256 726 
C 256 461 416 -64 947 -64 
C 1043 -64 1562 -64 1933 217 
L 1933 -19 
L 2406 -19 
L 2406 1791 
z
M 1920 816 
C 1920 701 1920 548 1728 434 
C 1562 325 1350 325 1261 325 
C 941 325 723 511 723 744 
C 723 1211 1722 1211 1920 1211 
L 1920 816 
z
" transform="scale(0.015625)"/>
      <path id="CMSS17-62" d="M 954 4416 
L 480 4416 
L 480 -13 
L 966 -13 
L 966 274 
C 1210 38 1504 -64 1766 -64 
C 2381 -64 2880 549 2880 1352 
C 2880 2086 2496 2756 1926 2756 
C 1523 2756 1165 2591 954 2419 
L 954 4416 
z
M 966 2046 
C 1107 2222 1306 2368 1587 2368 
C 1965 2368 2394 2097 2394 1352 
C 2394 558 1882 325 1530 325 
C 1402 325 1267 356 1139 464 
C 966 615 966 709 966 797 
L 966 2046 
z
" transform="scale(0.015625)"/>
      <path id="CMSS17-75" d="M 2618 2739 
L 2131 2739 
L 2131 972 
C 2131 498 1786 306 1421 306 
C 998 306 960 447 960 709 
L 960 2739 
L 474 2739 
L 474 678 
C 474 179 646 -64 1088 -64 
C 1306 -64 1798 -13 2144 306 
L 2144 0 
L 2618 0 
L 2618 2739 
z
" transform="scale(0.015625)"/>
      <path id="CMSS17-6f" d="M 2829 1356 
C 2829 2176 2221 2816 1504 2816 
C 768 2816 173 2157 173 1356 
C 173 544 787 -64 1498 -64 
C 2227 -64 2829 563 2829 1356 
z
M 1504 337 
C 1050 337 659 709 659 1408 
C 659 2151 1114 2427 1498 2427 
C 1914 2427 2342 2126 2342 1408 
C 2342 683 1926 337 1504 337 
z
" transform="scale(0.015625)"/>
     </defs>
     <use xlink:href="#CMSS17-58" transform="scale(0.996264)"/>
     <use xlink:href="#CMSS17-2d" transform="translate(62.217855 0) scale(0.996264)"/>
     <use xlink:href="#CMSS17-72" transform="translate(93.446968 0) scale(0.996264)"/>
     <use xlink:href="#CMSS17-61" transform="translate(125.35674 0) scale(0.996264)"/>
     <use xlink:href="#CMSS17-79" transform="translate(167.676207 0) scale(0.996264)"/>
     <use xlink:href="#CMSS17-48" transform="translate(241.905461 0) scale(0.996264)"/>
     <use xlink:href="#CMSS17-65" transform="translate(307.966981 0) scale(0.996264)"/>
     <use xlink:href="#CMSS17-69" transform="translate(349.605803 0) scale(0.996264)"/>
     <use xlink:href="#CMSS17-67" transform="translate(371.786526 0) scale(0.996264)"/>
     <use xlink:href="#CMSS17-68" transform="translate(418.630149 0) scale(0.996264)"/>
     <use xlink:href="#CMSS17-74" transform="translate(466.835092 0) scale(0.996264)"/>
     <use xlink:href="#CMSS17-44" transform="translate(531.895772 0) scale(0.996264)"/>
     <use xlink:href="#CMSS17-69" transform="translate(599.438613 0) scale(0.996264)"/>
     <use xlink:href="#CMSS17-73" transform="translate(621.619336 0) scale(0.996264)"/>
     <use xlink:href="#CMSS17-74" transform="translate(657.532878 0) scale(0.996264)"/>
     <use xlink:href="#CMSS17-72" transform="translate(691.364445 0) scale(0.996264)"/>
     <use xlink:href="#CMSS17-69" transform="translate(723.274218 0) scale(0.996264)"/>
     <use xlink:href="#CMSS17-62" transform="translate(745.454941 0) scale(0.996264)"/>
     <use xlink:href="#CMSS17-75" transform="translate(793.659884 0) scale(0.996264)"/>
     <use xlink:href="#CMSS17-74" transform="translate(841.864827 0) scale(0.996264)"/>
     <use xlink:href="#CMSS17-69" transform="translate(875.696394 0) scale(0.996264)"/>
     <use xlink:href="#CMSS17-6f" transform="translate(897.877117 0) scale(0.996264)"/>
     <use xlink:href="#CMSS17-6e" transform="translate(944.72074 0) scale(0.996264)"/>
    </g>
   </g>
  </g>
  <g id="axes_2">
   <g id="patch_27">
    <path d="M 418.544535 281.205453 
L 702.72 281.205453 
L 702.72 68.312524 
L 418.544535 68.312524 
z
" style="fill: #ffffff"/>
   </g>
   <g id="matplotlib.axis_3">
    <g id="xtick_5">
     <g id="line2d_10">
      <path d="M 422.748675 281.205453 
L 422.748675 68.312524 
" clip-path="url(#p4656d6bd9d)" style="fill: none; stroke: #cccccc; stroke-linecap: round"/>
     </g>
     <g id="text_13">
      <!-- $\mathdefault{0}$ -->
      <g style="fill: #262626" transform="translate(417.722722 305.926146) scale(0.22 -0.22)">
       <use xlink:href="#CMR17-30" transform="scale(0.996264)"/>
      </g>
     </g>
    </g>
    <g id="xtick_6">
     <g id="line2d_11">
      <path d="M 544.607794 281.205453 
L 544.607794 68.312524 
" clip-path="url(#p4656d6bd9d)" style="fill: none; stroke: #cccccc; stroke-linecap: round"/>
     </g>
     <g id="text_14">
      <!-- $\mathdefault{2000}$ -->
      <g style="fill: #262626" transform="translate(524.503984 305.926146) scale(0.22 -0.22)">
       <use xlink:href="#CMR17-32" transform="scale(0.996264)"/>
       <use xlink:href="#CMR17-30" transform="translate(45.690477 0) scale(0.996264)"/>
       <use xlink:href="#CMR17-30" transform="translate(91.380954 0) scale(0.996264)"/>
       <use xlink:href="#CMR17-30" transform="translate(137.071431 0) scale(0.996264)"/>
      </g>
     </g>
    </g>
    <g id="xtick_7">
     <g id="line2d_12">
      <path d="M 666.466912 281.205453 
L 666.466912 68.312524 
" clip-path="url(#p4656d6bd9d)" style="fill: none; stroke: #cccccc; stroke-linecap: round"/>
     </g>
     <g id="text_15">
      <!-- $\mathdefault{4000}$ -->
      <g style="fill: #262626" transform="translate(646.363102 305.926146) scale(0.22 -0.22)">
       <use xlink:href="#CMR17-34" transform="scale(0.996264)"/>
       <use xlink:href="#CMR17-30" transform="translate(45.690477 0) scale(0.996264)"/>
       <use xlink:href="#CMR17-30" transform="translate(91.380954 0) scale(0.996264)"/>
       <use xlink:href="#CMR17-30" transform="translate(137.071431 0) scale(0.996264)"/>
      </g>
     </g>
    </g>
    <g id="text_16">
     <!-- Width (pixels) -->
     <g style="fill: #262626" transform="translate(504.844273 329.115356) scale(0.2 -0.2)">
      <defs>
       <path id="CMSS17-57" d="M 5581 4416 
L 5094 4416 
L 4557 2437 
C 4474 2118 4397 1801 4320 1482 
C 4205 1011 4122 681 4109 515 
L 4102 515 
C 4090 687 4006 1049 3904 1457 
C 3827 1795 3744 2131 3654 2462 
L 3123 4416 
L 2586 4416 
L 2080 2562 
L 1824 1549 
C 1632 747 1626 632 1613 505 
L 1606 505 
C 1606 543 1581 753 1402 1498 
C 1312 1868 1222 2244 1126 2601 
L 634 4416 
L 83 4416 
L 1299 0 
L 1830 0 
L 2336 1839 
L 2592 2851 
C 2765 3564 2803 3742 2816 3901 
L 2822 3901 
C 2822 3876 2880 3474 3130 2545 
L 3808 0 
L 4365 0 
L 5581 4416 
z
" transform="scale(0.015625)"/>
       <path id="CMSS17-64" d="M 2611 4416 
L 2138 4416 
L 2138 2438 
C 1939 2603 1613 2756 1254 2756 
C 672 2756 211 2131 211 1347 
C 211 562 666 -64 1235 -64 
C 1677 -64 1971 172 2125 306 
L 2125 -13 
L 2611 -13 
L 2611 4416 
z
M 2125 836 
C 2125 747 2125 653 1926 482 
C 1798 375 1645 325 1498 325 
C 1152 325 698 576 698 1340 
C 698 2134 1210 2368 1562 2368 
C 1798 2368 1990 2254 2125 2065 
L 2125 836 
z
" transform="scale(0.015625)"/>
      </defs>
      <use xlink:href="#CMSS17-57" transform="scale(0.996264)"/>
      <use xlink:href="#CMSS17-69" transform="translate(88.242166 0) scale(0.996264)"/>
      <use xlink:href="#CMSS17-64" transform="translate(110.422889 0) scale(0.996264)"/>
      <use xlink:href="#CMSS17-74" transform="translate(158.627832 0) scale(0.996264)"/>
      <use xlink:href="#CMSS17-68" transform="translate(192.459399 0) scale(0.996264)"/>
      <use xlink:href="#CMSS17-28" transform="translate(271.893455 0) scale(0.996264)"/>
      <use xlink:href="#CMSS17-70" transform="translate(308.327369 0) scale(0.996264)"/>
      <use xlink:href="#CMSS17-69" transform="translate(356.532312 0) scale(0.996264)"/>
      <use xlink:href="#CMSS17-78" transform="translate(378.713035 0) scale(0.996264)"/>
      <use xlink:href="#CMSS17-65" transform="translate(421.713177 0) scale(0.996264)"/>
      <use xlink:href="#CMSS17-6c" transform="translate(463.351999 0) scale(0.996264)"/>
      <use xlink:href="#CMSS17-73" transform="translate(485.532722 0) scale(0.996264)"/>
      <use xlink:href="#CMSS17-29" transform="translate(521.446264 0) scale(0.996264)"/>
     </g>
    </g>
   </g>
   <g id="matplotlib.axis_4">
    <g id="ytick_5">
     <g id="line2d_13">
      <path d="M 418.544535 281.205453 
L 702.72 281.205453 
" clip-path="url(#p4656d6bd9d)" style="fill: none; stroke: #cccccc; stroke-linecap: round"/>
     </g>
     <g id="text_17">
      <!-- $\mathdefault{0}$ -->
      <g style="fill: #262626" transform="translate(398.99263 288.8158) scale(0.22 -0.22)">
       <use xlink:href="#CMR17-30" transform="scale(0.996264)"/>
      </g>
     </g>
    </g>
    <g id="ytick_6">
     <g id="line2d_14">
      <path d="M 418.544535 202.199843 
L 702.72 202.199843 
" clip-path="url(#p4656d6bd9d)" style="fill: none; stroke: #cccccc; stroke-linecap: round"/>
     </g>
     <g id="text_18">
      <!-- $\mathdefault{2}$ -->
      <g style="fill: #262626" transform="translate(398.99263 209.81019) scale(0.22 -0.22)">
       <use xlink:href="#CMR17-32" transform="scale(0.996264)"/>
      </g>
     </g>
    </g>
    <g id="ytick_7">
     <g id="line2d_15">
      <path d="M 418.544535 123.194233 
L 702.72 123.194233 
" clip-path="url(#p4656d6bd9d)" style="fill: none; stroke: #cccccc; stroke-linecap: round"/>
     </g>
     <g id="text_19">
      <!-- $\mathdefault{4}$ -->
      <g style="fill: #262626" transform="translate(398.99263 130.80458) scale(0.22 -0.22)">
       <use xlink:href="#CMR17-34" transform="scale(0.996264)"/>
      </g>
     </g>
    </g>
    <g id="text_20">
     <!-- Density -->
     <g style="fill: #262626" transform="translate(391.116997 203.729991) rotate(-90) scale(0.2 -0.2)">
      <use xlink:href="#CMSS17-44" transform="scale(0.996264)"/>
      <use xlink:href="#CMSS17-65" transform="translate(67.542842 0) scale(0.996264)"/>
      <use xlink:href="#CMSS17-6e" transform="translate(109.181664 0) scale(0.996264)"/>
      <use xlink:href="#CMSS17-73" transform="translate(157.386607 0) scale(0.996264)"/>
      <use xlink:href="#CMSS17-69" transform="translate(193.300149 0) scale(0.996264)"/>
      <use xlink:href="#CMSS17-74" transform="translate(215.480872 0) scale(0.996264)"/>
      <use xlink:href="#CMSS17-79" transform="translate(246.709985 0) scale(0.996264)"/>
     </g>
    </g>
    <g id="text_21">
     <!-- $\times\mathdefault{10^{4}}\mathdefault{}$ -->
     <g style="fill: #262626" transform="translate(418.544535 65.312524) scale(0.22 -0.22)">
      <use xlink:href="#CMSY10-2" transform="scale(0.996264)"/>
      <use xlink:href="#CMR17-31" transform="translate(77.487468 0) scale(0.996264)"/>
      <use xlink:href="#CMR17-30" transform="translate(123.177945 0) scale(0.996264)"/>
      <use xlink:href="#CMR17-34" transform="translate(168.868422 36.153639) scale(0.697382)"/>
     </g>
    </g>
   </g>
   <g id="patch_28">
    <path d="M 431.461602 281.205453 
L 444.378668 281.205453 
L 444.378668 275.228679 
L 431.461602 275.228679 
z
" clip-path="url(#p4656d6bd9d)" style="fill: #f08080; fill-opacity: 0.5; stroke: #ffffff; stroke-linejoin: miter"/>
   </g>
   <g id="patch_29">
    <path d="M 444.378668 281.205453 
L 457.295735 281.205453 
L 457.295735 233.359656 
L 444.378668 233.359656 
z
" clip-path="url(#p4656d6bd9d)" style="fill: #f08080; fill-opacity: 0.5; stroke: #ffffff; stroke-linejoin: miter"/>
   </g>
   <g id="patch_30">
    <path d="M 457.295735 281.205453 
L 470.212802 281.205453 
L 470.212802 179.959764 
L 457.295735 179.959764 
z
" clip-path="url(#p4656d6bd9d)" style="fill: #f08080; fill-opacity: 0.5; stroke: #ffffff; stroke-linejoin: miter"/>
   </g>
   <g id="patch_31">
    <path d="M 470.212802 281.205453 
L 483.129868 281.205453 
L 483.129868 109.380103 
L 470.212802 109.380103 
z
" clip-path="url(#p4656d6bd9d)" style="fill: #f08080; fill-opacity: 0.5; stroke: #ffffff; stroke-linejoin: miter"/>
   </g>
   <g id="patch_32">
    <path d="M 483.129868 281.205453 
L 496.046935 281.205453 
L 496.046935 81.273857 
L 483.129868 81.273857 
z
" clip-path="url(#p4656d6bd9d)" style="fill: #f08080; fill-opacity: 0.5; stroke: #ffffff; stroke-linejoin: miter"/>
   </g>
   <g id="patch_33">
    <path d="M 496.046935 281.205453 
L 508.964001 281.205453 
L 508.964001 125.564402 
L 496.046935 125.564402 
z
" clip-path="url(#p4656d6bd9d)" style="fill: #f08080; fill-opacity: 0.5; stroke: #ffffff; stroke-linejoin: miter"/>
   </g>
   <g id="patch_34">
    <path d="M 508.964001 281.205453 
L 521.881068 281.205453 
L 521.881068 178.111033 
L 508.964001 178.111033 
z
" clip-path="url(#p4656d6bd9d)" style="fill: #f08080; fill-opacity: 0.5; stroke: #ffffff; stroke-linejoin: miter"/>
   </g>
   <g id="patch_35">
    <path d="M 521.881068 281.205453 
L 534.798135 281.205453 
L 534.798135 207.023136 
L 521.881068 207.023136 
z
" clip-path="url(#p4656d6bd9d)" style="fill: #f08080; fill-opacity: 0.5; stroke: #ffffff; stroke-linejoin: miter"/>
   </g>
   <g id="patch_36">
    <path d="M 534.798135 281.205453 
L 547.715201 281.205453 
L 547.715201 214.133641 
L 534.798135 214.133641 
z
" clip-path="url(#p4656d6bd9d)" style="fill: #f08080; fill-opacity: 0.5; stroke: #ffffff; stroke-linejoin: miter"/>
   </g>
   <g id="patch_37">
    <path d="M 547.715201 281.205453 
L 560.632268 281.205453 
L 560.632268 232.640705 
L 547.715201 232.640705 
z
" clip-path="url(#p4656d6bd9d)" style="fill: #f08080; fill-opacity: 0.5; stroke: #ffffff; stroke-linejoin: miter"/>
   </g>
   <g id="patch_38">
    <path d="M 560.632268 281.205453 
L 573.549334 281.205453 
L 573.549334 219.221602 
L 560.632268 219.221602 
z
" clip-path="url(#p4656d6bd9d)" style="fill: #f08080; fill-opacity: 0.5; stroke: #ffffff; stroke-linejoin: miter"/>
   </g>
   <g id="patch_39">
    <path d="M 573.549334 281.205453 
L 586.466401 281.205453 
L 586.466401 223.321993 
L 573.549334 223.321993 
z
" clip-path="url(#p4656d6bd9d)" style="fill: #f08080; fill-opacity: 0.5; stroke: #ffffff; stroke-linejoin: miter"/>
   </g>
   <g id="patch_40">
    <path d="M 586.466401 281.205453 
L 599.383467 281.205453 
L 599.383467 259.960845 
L 586.466401 259.960845 
z
" clip-path="url(#p4656d6bd9d)" style="fill: #f08080; fill-opacity: 0.5; stroke: #ffffff; stroke-linejoin: miter"/>
   </g>
   <g id="patch_41">
    <path d="M 599.383467 281.205453 
L 612.300534 281.205453 
L 612.300534 255.66689 
L 599.383467 255.66689 
z
" clip-path="url(#p4656d6bd9d)" style="fill: #f08080; fill-opacity: 0.5; stroke: #ffffff; stroke-linejoin: miter"/>
   </g>
   <g id="patch_42">
    <path d="M 612.300534 281.205453 
L 625.217601 281.205453 
L 625.217601 280.636613 
L 612.300534 280.636613 
z
" clip-path="url(#p4656d6bd9d)" style="fill: #f08080; fill-opacity: 0.5; stroke: #ffffff; stroke-linejoin: miter"/>
   </g>
   <g id="patch_43">
    <path d="M 625.217601 281.205453 
L 638.134667 281.205453 
L 638.134667 281.003989 
L 625.217601 281.003989 
z
" clip-path="url(#p4656d6bd9d)" style="fill: #f08080; fill-opacity: 0.5; stroke: #ffffff; stroke-linejoin: miter"/>
   </g>
   <g id="patch_44">
    <path d="M 638.134667 281.205453 
L 651.051734 281.205453 
L 651.051734 281.181751 
L 638.134667 281.181751 
z
" clip-path="url(#p4656d6bd9d)" style="fill: #f08080; fill-opacity: 0.5; stroke: #ffffff; stroke-linejoin: miter"/>
   </g>
   <g id="patch_45">
    <path d="M 651.051734 281.205453 
L 663.9688 281.205453 
L 663.9688 281.189652 
L 651.051734 281.189652 
z
" clip-path="url(#p4656d6bd9d)" style="fill: #f08080; fill-opacity: 0.5; stroke: #ffffff; stroke-linejoin: miter"/>
   </g>
   <g id="patch_46">
    <path d="M 663.9688 281.205453 
L 676.885867 281.205453 
L 676.885867 281.181751 
L 663.9688 281.181751 
z
" clip-path="url(#p4656d6bd9d)" style="fill: #f08080; fill-opacity: 0.5; stroke: #ffffff; stroke-linejoin: miter"/>
   </g>
   <g id="patch_47">
    <path d="M 676.885867 281.205453 
L 689.802933 281.205453 
L 689.802933 281.142249 
L 676.885867 281.142249 
z
" clip-path="url(#p4656d6bd9d)" style="fill: #f08080; fill-opacity: 0.5; stroke: #ffffff; stroke-linejoin: miter"/>
   </g>
   <g id="line2d_16">
    <path d="M 431.461602 280.821444 
L 432.7598 280.506471 
L 434.057997 279.986047 
L 435.356195 279.15399 
L 436.654392 277.874376 
L 437.95259 275.999351 
L 439.250788 273.404176 
L 440.548985 270.030611 
L 441.847183 265.922413 
L 444.443578 256.212974 
L 447.039974 246.171504 
L 449.636369 237.074735 
L 452.232764 228.899758 
L 456.127357 216.895563 
L 457.425555 212.399716 
L 458.723752 207.378947 
L 460.02195 201.700598 
L 461.320148 195.268853 
L 462.618345 188.026591 
L 465.214741 171.36245 
L 467.811136 153.915258 
L 470.407531 138.593271 
L 473.003927 125.305726 
L 475.600322 113.127129 
L 478.196717 102.363556 
L 479.494915 97.6645 
L 480.793112 93.462111 
L 482.09131 89.73689 
L 483.389508 86.418847 
L 484.687705 83.452267 
L 485.985903 80.918337 
L 487.284101 79.110458 
L 488.582298 78.450283 
L 489.880496 79.261934 
L 491.178694 81.574224 
L 492.476891 85.111597 
L 493.775089 89.456828 
L 496.371484 99.191516 
L 498.967879 109.426004 
L 501.564275 120.658671 
L 505.458868 138.736124 
L 508.055263 149.270873 
L 513.248054 168.138542 
L 515.844449 179.138355 
L 518.440844 190.6695 
L 519.739042 195.473306 
L 521.037239 199.032317 
L 522.335437 201.182491 
L 523.633635 202.072998 
L 526.23003 202.175973 
L 527.528228 202.856627 
L 528.826425 204.746809 
L 530.124623 207.933294 
L 534.019216 220.044633 
L 535.317414 222.754927 
L 536.615611 224.28247 
L 537.913809 224.794752 
L 539.212007 224.558366 
L 540.510204 223.655039 
L 541.808402 221.873355 
L 543.106599 218.992388 
L 544.404797 215.340452 
L 545.702995 212.094049 
L 547.001192 210.812642 
L 548.29939 212.403602 
L 549.597588 216.420271 
L 550.895785 221.37952 
L 552.193983 225.771461 
L 553.492181 228.826359 
L 554.790378 230.547821 
L 556.088576 231.298101 
L 557.386774 231.425129 
L 558.684971 231.100194 
L 559.983169 230.280379 
L 561.281366 228.753879 
L 562.579564 226.326052 
L 563.877762 223.098491 
L 566.474157 216.207925 
L 567.772355 212.891838 
L 569.070552 208.571119 
L 570.36875 202.135988 
L 571.666948 193.962873 
L 572.965145 186.830974 
L 574.263343 184.872798 
L 575.561541 190.870772 
L 576.859738 204.072412 
L 579.456134 235.736682 
L 580.754331 246.913399 
L 582.052529 253.775346 
L 583.350726 257.471716 
L 584.648924 259.364679 
L 585.947122 260.387255 
L 587.245319 260.989127 
L 588.543517 261.316757 
L 589.841715 261.38422 
L 591.139912 261.174339 
L 592.43811 260.695754 
L 596.332703 258.744171 
L 597.630901 258.288346 
L 598.929098 257.63109 
L 600.227296 256.262672 
L 601.525494 253.930299 
L 602.823691 251.092804 
L 604.121889 248.918813 
L 605.420086 248.696559 
L 606.718284 251.077245 
L 608.016482 255.737277 
L 610.612877 267.550306 
L 611.911075 272.547634 
L 613.209272 276.177565 
L 614.50747 278.459459 
L 615.805668 279.704348 
L 617.103865 280.297784 
L 618.402063 280.551088 
L 622.296656 280.764592 
L 628.787644 280.907361 
L 650.857004 281.183236 
L 689.802933 281.135999 
L 689.802933 281.135999 
" clip-path="url(#p4656d6bd9d)" style="fill: none; stroke: #f08080; stroke-width: 1.5; stroke-linecap: round"/>
   </g>
   <g id="patch_48">
    <path d="M 418.544535 281.205453 
L 418.544535 68.312524 
" style="fill: none; stroke: #cccccc; stroke-width: 1.25; stroke-linejoin: miter; stroke-linecap: square"/>
   </g>
   <g id="patch_49">
    <path d="M 702.72 281.205453 
L 702.72 68.312524 
" style="fill: none; stroke: #cccccc; stroke-width: 1.25; stroke-linejoin: miter; stroke-linecap: square"/>
   </g>
   <g id="patch_50">
    <path d="M 418.544535 281.205453 
L 702.72 281.205453 
" style="fill: none; stroke: #cccccc; stroke-width: 1.25; stroke-linejoin: miter; stroke-linecap: square"/>
   </g>
   <g id="patch_51">
    <path d="M 418.544535 68.312524 
L 702.72 68.312524 
" style="fill: none; stroke: #cccccc; stroke-width: 1.25; stroke-linejoin: miter; stroke-linecap: square"/>
   </g>
   <g id="text_22">
    <!-- X-ray Width Distribution -->
    <g style="fill: #262626" transform="translate(433.9046 43.908102) scale(0.26 -0.26)">
     <use xlink:href="#CMSS17-58" transform="scale(0.996264)"/>
     <use xlink:href="#CMSS17-2d" transform="translate(62.217855 0) scale(0.996264)"/>
     <use xlink:href="#CMSS17-72" transform="translate(93.446968 0) scale(0.996264)"/>
     <use xlink:href="#CMSS17-61" transform="translate(125.35674 0) scale(0.996264)"/>
     <use xlink:href="#CMSS17-79" transform="translate(167.676207 0) scale(0.996264)"/>
     <use xlink:href="#CMSS17-57" transform="translate(241.905461 0) scale(0.996264)"/>
     <use xlink:href="#CMSS17-69" transform="translate(330.147628 0) scale(0.996264)"/>
     <use xlink:href="#CMSS17-64" transform="translate(352.328351 0) scale(0.996264)"/>
     <use xlink:href="#CMSS17-74" transform="translate(400.533294 0) scale(0.996264)"/>
     <use xlink:href="#CMSS17-68" transform="translate(434.36486 0) scale(0.996264)"/>
     <use xlink:href="#CMSS17-44" transform="translate(513.798916 0) scale(0.996264)"/>
     <use xlink:href="#CMSS17-69" transform="translate(581.341758 0) scale(0.996264)"/>
     <use xlink:href="#CMSS17-73" transform="translate(603.522481 0) scale(0.996264)"/>
     <use xlink:href="#CMSS17-74" transform="translate(639.436023 0) scale(0.996264)"/>
     <use xlink:href="#CMSS17-72" transform="translate(673.26759 0) scale(0.996264)"/>
     <use xlink:href="#CMSS17-69" transform="translate(705.177362 0) scale(0.996264)"/>
     <use xlink:href="#CMSS17-62" transform="translate(727.358085 0) scale(0.996264)"/>
     <use xlink:href="#CMSS17-75" transform="translate(775.563028 0) scale(0.996264)"/>
     <use xlink:href="#CMSS17-74" transform="translate(823.767972 0) scale(0.996264)"/>
     <use xlink:href="#CMSS17-69" transform="translate(857.599538 0) scale(0.996264)"/>
     <use xlink:href="#CMSS17-6f" transform="translate(879.780261 0) scale(0.996264)"/>
     <use xlink:href="#CMSS17-6e" transform="translate(926.623885 0) scale(0.996264)"/>
    </g>
   </g>
  </g>
  <g id="axes_3">
   <g id="patch_52">
    <path d="M 769.904535 281.205453 
L 1054.08 281.205453 
L 1054.08 68.312524 
L 769.904535 68.312524 
z
" style="fill: #ffffff"/>
   </g>
   <g id="matplotlib.axis_5">
    <g id="xtick_8">
     <g id="line2d_17">
      <path d="M 776.466406 281.205453 
L 776.466406 68.312524 
" clip-path="url(#pfa4abbb4a4)" style="fill: none; stroke: #cccccc; stroke-linecap: round"/>
     </g>
     <g id="text_23">
      <!-- $\mathdefault{0}$ -->
      <g style="fill: #262626" transform="translate(771.440453 305.926146) scale(0.22 -0.22)">
       <use xlink:href="#CMR17-30" transform="scale(0.996264)"/>
      </g>
     </g>
    </g>
    <g id="xtick_9">
     <g id="line2d_18">
      <path d="M 854.155114 281.205453 
L 854.155114 68.312524 
" clip-path="url(#pfa4abbb4a4)" style="fill: none; stroke: #cccccc; stroke-linecap: round"/>
     </g>
     <g id="text_24">
      <!-- $\mathdefault{2}$ -->
      <g style="fill: #262626" transform="translate(849.129162 305.926146) scale(0.22 -0.22)">
       <use xlink:href="#CMR17-32" transform="scale(0.996264)"/>
      </g>
     </g>
    </g>
    <g id="xtick_10">
     <g id="line2d_19">
      <path d="M 931.843822 281.205453 
L 931.843822 68.312524 
" clip-path="url(#pfa4abbb4a4)" style="fill: none; stroke: #cccccc; stroke-linecap: round"/>
     </g>
     <g id="text_25">
      <!-- $\mathdefault{4}$ -->
      <g style="fill: #262626" transform="translate(926.81787 305.926146) scale(0.22 -0.22)">
       <use xlink:href="#CMR17-34" transform="scale(0.996264)"/>
      </g>
     </g>
    </g>
    <g id="xtick_11">
     <g id="line2d_20">
      <path d="M 1009.532531 281.205453 
L 1009.532531 68.312524 
" clip-path="url(#pfa4abbb4a4)" style="fill: none; stroke: #cccccc; stroke-linecap: round"/>
     </g>
     <g id="text_26">
      <!-- $\mathdefault{6}$ -->
      <g style="fill: #262626" transform="translate(1004.506578 305.926146) scale(0.22 -0.22)">
       <defs>
        <path id="CMR17-36" d="M 678 2176 
C 678 3690 1395 4032 1811 4032 
C 1946 4032 2272 4009 2400 3776 
C 2298 3776 2106 3776 2106 3553 
C 2106 3381 2246 3323 2336 3323 
C 2394 3323 2566 3348 2566 3560 
C 2566 3954 2246 4179 1805 4179 
C 1043 4179 243 3390 243 1984 
C 243 253 966 -128 1478 -128 
C 2099 -128 2688 427 2688 1283 
C 2688 2081 2170 2662 1517 2662 
C 1126 2662 838 2407 678 1960 
L 678 2176 
z
M 1478 25 
C 691 25 691 1200 691 1436 
C 691 1896 909 2560 1504 2560 
C 1613 2560 1926 2560 2138 2120 
C 2253 1870 2253 1609 2253 1289 
C 2253 944 2253 690 2118 434 
C 1978 171 1773 25 1478 25 
z
" transform="scale(0.015625)"/>
       </defs>
       <use xlink:href="#CMR17-36" transform="scale(0.996264)"/>
      </g>
     </g>
    </g>
    <g id="text_27">
     <!-- Aspect Ratio (Width / Height) -->
     <g style="fill: #262626" transform="translate(790.162774 329.115356) scale(0.2 -0.2)">
      <defs>
       <path id="CMSS17-41" d="M 2272 4416 
L 1722 4416 
L 166 0 
L 653 0 
L 1101 1280 
L 2816 1280 
L 3270 0 
L 3827 0 
L 2272 4416 
z
M 2694 1637 
L 1222 1637 
C 1530 2528 1914 3638 1958 3925 
L 1965 3925 
C 2010 3663 2138 3281 2246 2956 
L 2694 1637 
z
" transform="scale(0.015625)"/>
       <path id="CMSS17-63" d="M 2464 2541 
C 2464 2585 2170 2714 2093 2739 
C 1882 2816 1613 2816 1542 2816 
C 710 2816 211 2093 211 1363 
C 211 595 768 -64 1517 -64 
C 1946 -64 2253 76 2502 242 
L 2464 664 
C 2189 453 1869 337 1523 337 
C 1024 337 698 774 698 1369 
C 698 1831 909 2414 1549 2414 
C 1901 2414 2099 2343 2394 2145 
L 2464 2541 
z
" transform="scale(0.015625)"/>
       <path id="CMSS17-52" d="M 2522 2109 
L 2534 2115 
C 3533 2459 3539 3147 3539 3268 
C 3539 3873 2925 4453 2003 4453 
L 570 4453 
L 570 32 
L 1094 32 
L 1094 2048 
L 2035 2048 
L 3168 32 
L 3706 32 
L 2522 2109 
z
M 1094 2437 
L 1094 4096 
L 1933 4096 
C 2746 4096 3034 3637 3034 3267 
C 3034 2922 2778 2437 1933 2437 
L 1094 2437 
z
" transform="scale(0.015625)"/>
       <path id="CMSS17-2f" d="M 2637 4545 
C 2669 4627 2669 4640 2669 4653 
C 2669 4729 2611 4768 2560 4768 
C 2483 4768 2458 4717 2432 4640 
L 365 -1377 
C 333 -1460 333 -1473 333 -1486 
C 333 -1562 390 -1600 442 -1600 
C 518 -1600 544 -1549 570 -1473 
L 2637 4545 
z
" transform="scale(0.015625)"/>
      </defs>
      <use xlink:href="#CMSS17-41" transform="scale(0.996264)"/>
      <use xlink:href="#CMSS17-73" transform="translate(62.217855 0) scale(0.996264)"/>
      <use xlink:href="#CMSS17-70" transform="translate(98.131397 0) scale(0.996264)"/>
      <use xlink:href="#CMSS17-65" transform="translate(148.938779 0) scale(0.996264)"/>
      <use xlink:href="#CMSS17-63" transform="translate(190.577601 0) scale(0.996264)"/>
      <use xlink:href="#CMSS17-74" transform="translate(232.216423 0) scale(0.996264)"/>
      <use xlink:href="#CMSS17-52" transform="translate(297.277102 0) scale(0.996264)"/>
      <use xlink:href="#CMSS17-61" transform="translate(357.693257 0) scale(0.996264)"/>
      <use xlink:href="#CMSS17-74" transform="translate(402.615178 0) scale(0.996264)"/>
      <use xlink:href="#CMSS17-69" transform="translate(436.446745 0) scale(0.996264)"/>
      <use xlink:href="#CMSS17-6f" transform="translate(458.627468 0) scale(0.996264)"/>
      <use xlink:href="#CMSS17-28" transform="translate(536.700204 0) scale(0.996264)"/>
      <use xlink:href="#CMSS17-57" transform="translate(573.134118 0) scale(0.996264)"/>
      <use xlink:href="#CMSS17-69" transform="translate(661.376284 0) scale(0.996264)"/>
      <use xlink:href="#CMSS17-64" transform="translate(683.557007 0) scale(0.996264)"/>
      <use xlink:href="#CMSS17-74" transform="translate(731.76195 0) scale(0.996264)"/>
      <use xlink:href="#CMSS17-68" transform="translate(765.593517 0) scale(0.996264)"/>
      <use xlink:href="#CMSS17-2f" transform="translate(845.027573 0) scale(0.996264)"/>
      <use xlink:href="#CMSS17-48" transform="translate(923.100309 0) scale(0.996264)"/>
      <use xlink:href="#CMSS17-65" transform="translate(989.161828 0) scale(0.996264)"/>
      <use xlink:href="#CMSS17-69" transform="translate(1030.800651 0) scale(0.996264)"/>
      <use xlink:href="#CMSS17-67" transform="translate(1052.981374 0) scale(0.996264)"/>
      <use xlink:href="#CMSS17-68" transform="translate(1099.824997 0) scale(0.996264)"/>
      <use xlink:href="#CMSS17-74" transform="translate(1148.02994 0) scale(0.996264)"/>
      <use xlink:href="#CMSS17-29" transform="translate(1181.861507 0) scale(0.996264)"/>
     </g>
    </g>
   </g>
   <g id="matplotlib.axis_6">
    <g id="ytick_8">
     <g id="line2d_21">
      <path d="M 769.904535 281.205453 
L 1054.08 281.205453 
" clip-path="url(#pfa4abbb4a4)" style="fill: none; stroke: #cccccc; stroke-linecap: round"/>
     </g>
     <g id="text_28">
      <!-- $\mathdefault{0}$ -->
      <g style="fill: #262626" transform="translate(750.35263 288.8158) scale(0.22 -0.22)">
       <use xlink:href="#CMR17-30" transform="scale(0.996264)"/>
      </g>
     </g>
    </g>
    <g id="ytick_9">
     <g id="line2d_22">
      <path d="M 769.904535 212.178764 
L 1054.08 212.178764 
" clip-path="url(#pfa4abbb4a4)" style="fill: none; stroke: #cccccc; stroke-linecap: round"/>
     </g>
     <g id="text_29">
      <!-- $\mathdefault{2}$ -->
      <g style="fill: #262626" transform="translate(750.35263 219.78911) scale(0.22 -0.22)">
       <use xlink:href="#CMR17-32" transform="scale(0.996264)"/>
      </g>
     </g>
    </g>
    <g id="ytick_10">
     <g id="line2d_23">
      <path d="M 769.904535 143.152074 
L 1054.08 143.152074 
" clip-path="url(#pfa4abbb4a4)" style="fill: none; stroke: #cccccc; stroke-linecap: round"/>
     </g>
     <g id="text_30">
      <!-- $\mathdefault{4}$ -->
      <g style="fill: #262626" transform="translate(750.35263 150.762421) scale(0.22 -0.22)">
       <use xlink:href="#CMR17-34" transform="scale(0.996264)"/>
      </g>
     </g>
    </g>
    <g id="ytick_11">
     <g id="line2d_24">
      <path d="M 769.904535 74.125385 
L 1054.08 74.125385 
" clip-path="url(#pfa4abbb4a4)" style="fill: none; stroke: #cccccc; stroke-linecap: round"/>
     </g>
     <g id="text_31">
      <!-- $\mathdefault{6}$ -->
      <g style="fill: #262626" transform="translate(750.35263 81.735732) scale(0.22 -0.22)">
       <use xlink:href="#CMR17-36" transform="scale(0.996264)"/>
      </g>
     </g>
    </g>
    <g id="text_32">
     <!-- Density -->
     <g style="fill: #262626" transform="translate(742.476997 203.729991) rotate(-90) scale(0.2 -0.2)">
      <use xlink:href="#CMSS17-44" transform="scale(0.996264)"/>
      <use xlink:href="#CMSS17-65" transform="translate(67.542842 0) scale(0.996264)"/>
      <use xlink:href="#CMSS17-6e" transform="translate(109.181664 0) scale(0.996264)"/>
      <use xlink:href="#CMSS17-73" transform="translate(157.386607 0) scale(0.996264)"/>
      <use xlink:href="#CMSS17-69" transform="translate(193.300149 0) scale(0.996264)"/>
      <use xlink:href="#CMSS17-74" transform="translate(215.480872 0) scale(0.996264)"/>
      <use xlink:href="#CMSS17-79" transform="translate(246.709985 0) scale(0.996264)"/>
     </g>
    </g>
    <g id="text_33">
     <!-- $\times\mathdefault{10^{4}}\mathdefault{}$ -->
     <g style="fill: #262626" transform="translate(769.904535 65.312524) scale(0.22 -0.22)">
      <use xlink:href="#CMSY10-2" transform="scale(0.996264)"/>
      <use xlink:href="#CMR17-31" transform="translate(77.487468 0) scale(0.996264)"/>
      <use xlink:href="#CMR17-30" transform="translate(123.177945 0) scale(0.996264)"/>
      <use xlink:href="#CMR17-34" transform="translate(168.868422 36.153639) scale(0.697382)"/>
     </g>
    </g>
   </g>
   <g id="patch_53">
    <path d="M 782.821602 281.205453 
L 795.738668 281.205453 
L 795.738668 245.566973 
L 782.821602 245.566973 
z
" clip-path="url(#pfa4abbb4a4)" style="fill: #ffd700; fill-opacity: 0.5; stroke: #ffffff; stroke-linejoin: miter"/>
   </g>
   <g id="patch_54">
    <path d="M 795.738668 281.205453 
L 808.655735 281.205453 
L 808.655735 140.315077 
L 795.738668 140.315077 
z
" clip-path="url(#pfa4abbb4a4)" style="fill: #ffd700; fill-opacity: 0.5; stroke: #ffffff; stroke-linejoin: miter"/>
   </g>
   <g id="patch_55">
    <path d="M 808.655735 281.205453 
L 821.572802 281.205453 
L 821.572802 160.860871 
L 808.655735 160.860871 
z
" clip-path="url(#pfa4abbb4a4)" style="fill: #ffd700; fill-opacity: 0.5; stroke: #ffffff; stroke-linejoin: miter"/>
   </g>
   <g id="patch_56">
    <path d="M 821.572802 281.205453 
L 834.489868 281.205453 
L 834.489868 104.818102 
L 821.572802 104.818102 
z
" clip-path="url(#pfa4abbb4a4)" style="fill: #ffd700; fill-opacity: 0.5; stroke: #ffffff; stroke-linejoin: miter"/>
   </g>
   <g id="patch_57">
    <path d="M 834.489868 281.205453 
L 847.406935 281.205453 
L 847.406935 81.083275 
L 834.489868 81.083275 
z
" clip-path="url(#pfa4abbb4a4)" style="fill: #ffd700; fill-opacity: 0.5; stroke: #ffffff; stroke-linejoin: miter"/>
   </g>
   <g id="patch_58">
    <path d="M 847.406935 281.205453 
L 860.324001 281.205453 
L 860.324001 119.607071 
L 847.406935 119.607071 
z
" clip-path="url(#pfa4abbb4a4)" style="fill: #ffd700; fill-opacity: 0.5; stroke: #ffffff; stroke-linejoin: miter"/>
   </g>
   <g id="patch_59">
    <path d="M 860.324001 281.205453 
L 873.241068 281.205453 
L 873.241068 197.472627 
L 860.324001 197.472627 
z
" clip-path="url(#pfa4abbb4a4)" style="fill: #ffd700; fill-opacity: 0.5; stroke: #ffffff; stroke-linejoin: miter"/>
   </g>
   <g id="patch_60">
    <path d="M 873.241068 281.205453 
L 886.158135 281.205453 
L 886.158135 240.907672 
L 873.241068 240.907672 
z
" clip-path="url(#pfa4abbb4a4)" style="fill: #ffd700; fill-opacity: 0.5; stroke: #ffffff; stroke-linejoin: miter"/>
   </g>
   <g id="patch_61">
    <path d="M 886.158135 281.205453 
L 899.075201 281.205453 
L 899.075201 259.534524 
L 886.158135 259.534524 
z
" clip-path="url(#pfa4abbb4a4)" style="fill: #ffd700; fill-opacity: 0.5; stroke: #ffffff; stroke-linejoin: miter"/>
   </g>
   <g id="patch_62">
    <path d="M 899.075201 281.205453 
L 911.992268 281.205453 
L 911.992268 270.778972 
L 899.075201 270.778972 
z
" clip-path="url(#pfa4abbb4a4)" style="fill: #ffd700; fill-opacity: 0.5; stroke: #ffffff; stroke-linejoin: miter"/>
   </g>
   <g id="patch_63">
    <path d="M 911.992268 281.205453 
L 924.909334 281.205453 
L 924.909334 276.660046 
L 911.992268 276.660046 
z
" clip-path="url(#pfa4abbb4a4)" style="fill: #ffd700; fill-opacity: 0.5; stroke: #ffffff; stroke-linejoin: miter"/>
   </g>
   <g id="patch_64">
    <path d="M 924.909334 281.205453 
L 937.826401 281.205453 
L 937.826401 279.352086 
L 924.909334 279.352086 
z
" clip-path="url(#pfa4abbb4a4)" style="fill: #ffd700; fill-opacity: 0.5; stroke: #ffffff; stroke-linejoin: miter"/>
   </g>
   <g id="patch_65">
    <path d="M 937.826401 281.205453 
L 950.743467 281.205453 
L 950.743467 280.497929 
L 937.826401 280.497929 
z
" clip-path="url(#pfa4abbb4a4)" style="fill: #ffd700; fill-opacity: 0.5; stroke: #ffffff; stroke-linejoin: miter"/>
   </g>
   <g id="patch_66">
    <path d="M 950.743467 281.205453 
L 963.660534 281.205453 
L 963.660534 280.970762 
L 950.743467 280.970762 
z
" clip-path="url(#pfa4abbb4a4)" style="fill: #ffd700; fill-opacity: 0.5; stroke: #ffffff; stroke-linejoin: miter"/>
   </g>
   <g id="patch_67">
    <path d="M 963.660534 281.205453 
L 976.577601 281.205453 
L 976.577601 281.153683 
L 963.660534 281.153683 
z
" clip-path="url(#pfa4abbb4a4)" style="fill: #ffd700; fill-opacity: 0.5; stroke: #ffffff; stroke-linejoin: miter"/>
   </g>
   <g id="patch_68">
    <path d="M 976.577601 281.205453 
L 989.494667 281.205453 
L 989.494667 281.167488 
L 976.577601 281.167488 
z
" clip-path="url(#pfa4abbb4a4)" style="fill: #ffd700; fill-opacity: 0.5; stroke: #ffffff; stroke-linejoin: miter"/>
   </g>
   <g id="patch_69">
    <path d="M 989.494667 281.205453 
L 1002.411734 281.205453 
L 1002.411734 281.184745 
L 989.494667 281.184745 
z
" clip-path="url(#pfa4abbb4a4)" style="fill: #ffd700; fill-opacity: 0.5; stroke: #ffffff; stroke-linejoin: miter"/>
   </g>
   <g id="patch_70">
    <path d="M 1002.411734 281.205453 
L 1015.3288 281.205453 
L 1015.3288 281.202002 
L 1002.411734 281.202002 
z
" clip-path="url(#pfa4abbb4a4)" style="fill: #ffd700; fill-opacity: 0.5; stroke: #ffffff; stroke-linejoin: miter"/>
   </g>
   <g id="patch_71">
    <path d="M 1015.3288 281.205453 
L 1028.245867 281.205453 
L 1028.245867 281.205453 
L 1015.3288 281.205453 
z
" clip-path="url(#pfa4abbb4a4)" style="fill: #ffd700; fill-opacity: 0.5; stroke: #ffffff; stroke-linejoin: miter"/>
   </g>
   <g id="patch_72">
    <path d="M 1028.245867 281.205453 
L 1041.162933 281.205453 
L 1041.162933 281.202002 
L 1028.245867 281.202002 
z
" clip-path="url(#pfa4abbb4a4)" style="fill: #ffd700; fill-opacity: 0.5; stroke: #ffffff; stroke-linejoin: miter"/>
   </g>
   <g id="line2d_25">
    <path d="M 782.821602 280.269904 
L 784.1198 278.713819 
L 785.417997 275.544766 
L 786.716195 270.067036 
L 788.014392 261.897422 
L 789.31259 251.1556 
L 790.610788 238.353277 
L 793.207183 208.903516 
L 795.803578 178.836498 
L 797.101776 166.707664 
L 798.399974 158.122734 
L 799.698171 153.149588 
L 800.996369 150.934268 
L 802.294567 149.590408 
L 803.592764 146.14771 
L 804.890962 137.65422 
L 806.18916 124.158275 
L 807.487357 111.848515 
L 808.785555 109.994794 
L 810.083752 121.275525 
L 811.38195 138.35178 
L 812.680148 152.007162 
L 813.978345 159.363262 
L 815.276543 163.892056 
L 817.872938 175.408888 
L 819.171136 177.210422 
L 820.469334 169.909209 
L 821.767531 151.367629 
L 823.065729 126.69136 
L 824.363927 107.496163 
L 825.662124 101.21723 
L 826.960322 103.878247 
L 828.25852 106.857108 
L 829.556717 106.027322 
L 830.854915 102.25856 
L 833.45131 93.236942 
L 836.047705 85.739272 
L 837.345903 82.397823 
L 838.644101 79.92212 
L 839.942298 78.68279 
L 841.240496 78.450283 
L 842.538694 78.896681 
L 843.836891 80.042001 
L 845.135089 82.121632 
L 846.433287 85.2748 
L 847.731484 89.431841 
L 849.029682 94.37743 
L 851.626077 105.716169 
L 852.924275 112.028445 
L 854.222472 118.992633 
L 855.52067 126.967309 
L 858.117065 146.016042 
L 860.713461 164.675101 
L 862.011658 172.691157 
L 864.608054 186.847515 
L 868.502647 207.187098 
L 869.800844 212.857126 
L 871.099042 217.618797 
L 874.993635 230.222496 
L 876.291832 234.139903 
L 877.59003 237.642204 
L 878.888228 240.626452 
L 880.186425 243.061675 
L 881.484623 245.042556 
L 885.379216 250.452729 
L 887.975611 254.073253 
L 893.168402 260.272726 
L 894.466599 261.840532 
L 895.764797 263.229083 
L 898.361192 265.549315 
L 902.255785 268.58884 
L 906.150378 271.353486 
L 908.746774 272.981677 
L 911.343169 274.128283 
L 917.834157 276.638643 
L 920.430552 277.26123 
L 923.026948 277.829714 
L 926.921541 278.815803 
L 929.517936 279.161687 
L 939.903517 280.198306 
L 943.79811 280.517901 
L 955.481889 280.910563 
L 977.551249 281.163485 
L 999.620609 281.189576 
L 1041.162933 281.197046 
L 1041.162933 281.197046 
" clip-path="url(#pfa4abbb4a4)" style="fill: none; stroke: #ffd700; stroke-width: 1.5; stroke-linecap: round"/>
   </g>
   <g id="patch_73">
    <path d="M 769.904535 281.205453 
L 769.904535 68.312524 
" style="fill: none; stroke: #cccccc; stroke-width: 1.25; stroke-linejoin: miter; stroke-linecap: square"/>
   </g>
   <g id="patch_74">
    <path d="M 1054.08 281.205453 
L 1054.08 68.312524 
" style="fill: none; stroke: #cccccc; stroke-width: 1.25; stroke-linejoin: miter; stroke-linecap: square"/>
   </g>
   <g id="patch_75">
    <path d="M 769.904535 281.205453 
L 1054.08 281.205453 
" style="fill: none; stroke: #cccccc; stroke-width: 1.25; stroke-linejoin: miter; stroke-linecap: square"/>
   </g>
   <g id="patch_76">
    <path d="M 769.904535 68.312524 
L 1054.08 68.312524 
" style="fill: none; stroke: #cccccc; stroke-width: 1.25; stroke-linejoin: miter; stroke-linecap: square"/>
   </g>
   <g id="text_34">
    <!-- Aspect Ratio Distribution -->
    <g style="fill: #262626" transform="translate(782.28743 43.908102) scale(0.26 -0.26)">
     <use xlink:href="#CMSS17-41" transform="scale(0.996264)"/>
     <use xlink:href="#CMSS17-73" transform="translate(62.217855 0) scale(0.996264)"/>
     <use xlink:href="#CMSS17-70" transform="translate(98.131397 0) scale(0.996264)"/>
     <use xlink:href="#CMSS17-65" transform="translate(148.938779 0) scale(0.996264)"/>
     <use xlink:href="#CMSS17-63" transform="translate(190.577601 0) scale(0.996264)"/>
     <use xlink:href="#CMSS17-74" transform="translate(232.216423 0) scale(0.996264)"/>
     <use xlink:href="#CMSS17-52" transform="translate(297.277102 0) scale(0.996264)"/>
     <use xlink:href="#CMSS17-61" transform="translate(357.693257 0) scale(0.996264)"/>
     <use xlink:href="#CMSS17-74" transform="translate(402.615178 0) scale(0.996264)"/>
     <use xlink:href="#CMSS17-69" transform="translate(436.446745 0) scale(0.996264)"/>
     <use xlink:href="#CMSS17-6f" transform="translate(458.627468 0) scale(0.996264)"/>
     <use xlink:href="#CMSS17-44" transform="translate(536.700204 0) scale(0.996264)"/>
     <use xlink:href="#CMSS17-69" transform="translate(604.243045 0) scale(0.996264)"/>
     <use xlink:href="#CMSS17-73" transform="translate(626.423769 0) scale(0.996264)"/>
     <use xlink:href="#CMSS17-74" transform="translate(662.337311 0) scale(0.996264)"/>
     <use xlink:href="#CMSS17-72" transform="translate(696.168877 0) scale(0.996264)"/>
     <use xlink:href="#CMSS17-69" transform="translate(728.07865 0) scale(0.996264)"/>
     <use xlink:href="#CMSS17-62" transform="translate(750.259373 0) scale(0.996264)"/>
     <use xlink:href="#CMSS17-75" transform="translate(798.464316 0) scale(0.996264)"/>
     <use xlink:href="#CMSS17-74" transform="translate(846.669259 0) scale(0.996264)"/>
     <use xlink:href="#CMSS17-69" transform="translate(880.500826 0) scale(0.996264)"/>
     <use xlink:href="#CMSS17-6f" transform="translate(902.681549 0) scale(0.996264)"/>
     <use xlink:href="#CMSS17-6e" transform="translate(949.525172 0) scale(0.996264)"/>
    </g>
   </g>
  </g>
 </g>
 <defs>
  <clipPath id="p1928919b21">
   <rect x="67.184535" y="68.312524" width="284.175465" height="212.892929"/>
  </clipPath>
  <clipPath id="p4656d6bd9d">
   <rect x="418.544535" y="68.312524" width="284.175465" height="212.892929"/>
  </clipPath>
  <clipPath id="pfa4abbb4a4">
   <rect x="769.904535" y="68.312524" width="284.175465" height="212.892929"/>
  </clipPath>
 </defs>
</svg>
